/* XPM */
static char *save-up[] = {
/* width height ncolors chars_per_pixel */
"32 30 15 1",
/* colors */
"  c #B3D6E3",
". c #EAFAFD",
"X c #FDFEFF",
"o c White",
"O c #80CCD5",
"+ c #5CB6CC",
"@ c #B7E5F1",
"# c #DEF4F9",
"$ c #98D7E5",
"% c #74CEE4",
"& c #ABDDE9",
"* c #54B2CC",
"= c #D3F6FC",
"- c #68C1D7",
"B c Black",
/* pixels */
"-+                            +-",
"* oooooooooooooooooooooooooo@. *",
"* ooooooooooX..#$$ #XooooooX+@ *",
"* oooooooX.=====++++- XoooooXo *",
"* oooooo.=======++++++-#oooooo *",
"* ooooo.========++++++++@ooooo *",
"* oooo.=======#=OO-++++++@oooo *",
"* ooo.=======.oooo#+++++++#ooo *",
"* ooX========.oooo#+++++++OXoo *",
"* oo#@=======.oooo#++++++-%@oo *",
"* oo@@@@=====.oooo#++++-%%%$Xo *",
"* o.@@@@@@===.oooo#++-%%%%%%#o *",
"* o#@@@@@@@==.oooo#+-%%%%%%%=o *",
"* o=@@@@@@@@@.oooo#%%%%%%%%%@o *",
"* o=@@@@@@@==.oooo#$$%%%%%%%&o *",
"* o=@@@@@@@XooooooooX$%%%%%%&o *",
"* o=@@@@@@@#oooooooo@%%%%%%%@o *",
"* o#@@@@@@@@.oooooo#%%%%%%%%=o *",
"* o.@@@@@@&&@XooooX$$$%%%%%%.o *",
"* oo@@@@oooo&@oooo@$$$$$%%%$oo *",
"* oo#@@ooBBo&&#oo#$$$$$$$%%=oo *",
"* ooX@&oBoooooooooooooo$$$&Xoo *",
"* ooo.&oBoooBBooBoBooBoo$$.ooo *",
"* oooo#ooBooooBoBoBoBoBo$=oooo *",
"* ooooo#ooBoBBBoBoBoBBBo=ooooo *",
"* ooooooooBoBoBoBoBoBooooooooo *",
"* ooooooBBooBBoBoBoooBBooooooo *",
"* oooooooooooooooooooooooooooo *",
"* oooooooooooooooooooooooooooo *",
"-+                            +-"
};
