#define ruu_width 48
#define ruu_height 48
static char ruu_bits[] = {
   0x00, 0x00, 0x00, 0x00, 0x00, 0x00, 0x00, 0x00, 0x00, 0x00, 0x00, 0x00,
   0x00, 0x00, 0x80, 0x00, 0x00, 0x00, 0x00, 0xc0, 0xc0, 0x83, 0x03, 0x00,
   0x00, 0x20, 0x80, 0x81, 0x04, 0x00, 0x00, 0xe0, 0xc3, 0x02, 0x03, 0x00,
   0x00, 0x1e, 0x02, 0x40, 0x7a, 0x00, 0x00, 0xd2, 0x11, 0x88, 0xcb, 0x00,
   0x00, 0x23, 0x30, 0x0d, 0xc8, 0x00, 0x40, 0x12, 0xa2, 0x21, 0x7a, 0x02,
   0xc0, 0x9e, 0xa4, 0x35, 0x01, 0x07, 0x00, 0x83, 0xac, 0x35, 0x81, 0x01,
   0xf0, 0x13, 0xb1, 0xa6, 0xcc, 0x00, 0x20, 0x60, 0x6a, 0x6e, 0x86, 0x00,
   0xc0, 0xc4, 0x4a, 0xe6, 0x23, 0x01, 0x00, 0x48, 0x4e, 0x60, 0x1a, 0x00,
   0x00, 0xb0, 0x08, 0x00, 0x0d, 0x20, 0x00, 0xc0, 0x01, 0x00, 0x73, 0x38,
   0x60, 0xfe, 0x01, 0x80, 0x1f, 0x0e, 0x3c, 0x18, 0xf8, 0x3f, 0x18, 0x00,
   0x28, 0x61, 0x08, 0x20, 0xec, 0x61, 0x70, 0xfc, 0x18, 0x20, 0x0e, 0x7c,
   0x40, 0x60, 0x38, 0x20, 0x3c, 0x0c, 0x40, 0x0e, 0x78, 0x20, 0xe0, 0x78,
   0x60, 0x38, 0xf8, 0x20, 0x0e, 0x00, 0x3c, 0xe0, 0xf8, 0x21, 0x1e, 0x34,
   0x54, 0x7e, 0xf8, 0x23, 0xc4, 0x75, 0x7c, 0x10, 0xf8, 0x37, 0x18, 0x5c,
   0x00, 0xf8, 0xe3, 0x8f, 0x7f, 0x2c, 0x80, 0x9c, 0x01, 0x01, 0x07, 0x00,
   0xe8, 0xe0, 0x08, 0x20, 0x0a, 0x27, 0x38, 0x90, 0x0c, 0xe4, 0x32, 0x3f,
   0x10, 0x49, 0x4f, 0x66, 0x07, 0x10, 0x90, 0x42, 0xe2, 0xae, 0x8c, 0x10,
   0x80, 0x24, 0xd2, 0x2e, 0x81, 0x03, 0xa0, 0x05, 0x49, 0x62, 0x01, 0x06,
   0xc0, 0x91, 0x28, 0x49, 0x32, 0x04, 0x80, 0x9c, 0x28, 0x49, 0x60, 0x02,
   0x00, 0x52, 0x24, 0x09, 0xc4, 0x01, 0x00, 0x99, 0x21, 0x09, 0x8d, 0x00,
   0x00, 0x88, 0x1d, 0x70, 0x59, 0x00, 0x00, 0xc8, 0xd0, 0xe8, 0x31, 0x00,
   0x00, 0x40, 0xd8, 0xe0, 0x00, 0x00, 0x00, 0x40, 0xc8, 0xb0, 0x00, 0x00,
   0x00, 0x00, 0x48, 0xc0, 0x00, 0x00, 0x00, 0x00, 0xc0, 0x20, 0x00, 0x00,
   0x00, 0x00, 0x00, 0x00, 0x00, 0x00, 0x00, 0x00, 0x00, 0x00, 0x00, 0x00};
