/* XPM */
static char * icon-mail-forward_xpm[] = {
"32 32 3 1",
" 	c #BFBFBFBFBFBF s backgroundToolBarColor",
".	c #000000000000",
"X	c #FFFFFFFFFFFF",
"                                ",
"                                ",
"   ...                          ",
"  .   .                         ",
"  .   .               .         ",
"       .             ...        ",
"      ...          ...XX.       ",
"     . . .        .XX.XXX.      ",
"    .  .  .      .XX.XXXX..     ",
"    . .   .     .XXX.XXXXX..    ",
"    . .   .    .XXX.XXXXXXX.    ",
"    ..    .  ..XXXX.XXXXXXXX.   ",
"    .     . .XXXXXX.XXXXXXXXX.  ",
"         . .XXXXXX.XXXXXXXXXX.  ",
"          .XXXXXXX............. ",
"         .XXXXXXX.XXXXXXXXXXX.  ",
"        .XXXXXXX..XXXXXXXXX..   ",
"      ..XXXXX....XXXXXXXXX.     ",
"     .XXX.....XXXXXXXXXXX.      ",
"     ....XXXX.XXXXXXXXXX.       ",
"    ..XXXXXXX.XXXXXXXXX.        ",
"    .XXXXXXX.XXXXXXXXX.         ",
"     .XXXXXX.XXXXXXX..          ",
"     ..XXXXX.XXXXXX.            ",
"      ..XXXX.XXXXX.             ",
"       .XXXX.XXXX.              ",
"        .XXX.XXX.               ",
"         .X.XX..                ",
"          ..X.                  ",
"          ...                   ",
"                                ",
"                                "};
