/* XPM */
static char * icon-catchup2_xpm[] = {
"32 32 2 1",
" 	c #000000000000",
".	c #BFBFBFBFBFBF s backgroundToolBarColor",
" ... ... ... ... ... ... ... ...",
"................................",
"................................",
"................................",
" ... ... ... ... ... ... ... ...",
"................................",
"................................",
".................  .............",
" ... ... ... ...   . ... ... ...",
"................  ..............",
"............... ................",
"................................",
" ... ... ... ... ... ... ... ...",
"................................",
"................................",
".............  ..........  .....",
" ... ... ...   . ... ...   . ...",
"............  ..........  ......",
"........... ........... ........",
"............  .......... .......",
" ... ... ... . . ... ... ... ...",
"...............  .....          ",
"................      ... ......",
"........  ..... ... ...... .....",
" ... ..   .. . . . .  .. .     .",
".......  .... .... ... .. . ... ",
"...... ...... ... .....  ... ...",
"......    .. .... ......   .. ..",
" ... ... .       ... ..  ..   ..",
"........... ....      . ....   .",
".......... ..... .....      .. .",
".......... ..... ....... ...    "};
