/* XPM */
static char * icon-mail-originate_xpm[] = {
"32 32 3 1",
" 	c #BFBFBFBFBFBF s backgroundToolBarColor",
".	c #000000000000",
"X	c #FFFFFFFFFFFF",
"                                ",
"                                ",
"               .............    ",
"               .XXXXXXXXXX.X.   ",
"               .XXXXXXXXXX.XX.  ",
"               .XXXXXXXXXX....  ",
"   ..................XXXXXXXX.  ",
"   .X. X X X X X X .X..XXXXXX.  ",
"   ..................XXXXXXXX.  ",
"               .XXXXXXXXXXXXX.  ",
"               .XXXXXXXXXXXXX.  ",
"               .XX.......XXXX.  ",
"  ..............XXXXXXXXXXXXX.  ",
"  ...XXXXXXXXXX.XX..X..X.XXXX.  ",
"  .XX..XXXXXXXX.XXXXXXXXXXXXX.  ",
"  .XXXX..XXXXXX.XXXXXXXXXXXXX.  ",
"  .XXXXXX..XXXX.XXXXXXXXXXXXX.  ",
"  .XXXXXXXX..XX.XXXXXXXXXXXXX.  ",
"  .XXXXXXX.XX...XXXXXXXXXXXXX.  ",
"  .XXXXX..XXXXX.XXXXXXX..X.XX.  ",
"  .XXXX.XXXXXXX.XXXXXXXXXXXXX.  ",
"  .XXX.XXXXXXXX.XXXXXXXXXXXXX.  ",
"  .X..XXXXXXXXX.XXXXXXXXXXXXX.  ",
"  ..XXXXXXXXXXX...............  ",
"  .XXXXXXXXXXXXXXXXXXXXXX...    ",
"  ..........................    ",
"                                ",
"                                ",
"                                ",
"                                ",
"                                ",
"                                "};
