/* XPM */
static char * icon-mail-copy_xpm[] = {
"32 32 3 1",
" 	c #BFBFBFBFBFBF s backgroundToolBarColor",
".	c #000000000000",
"X	c #FFFFFFFFFFFF",
"                                ",
"                                ",
" ..........................     ",
" ...XXXXXXXXXXXXXXXXXXX..X.     ",
" .XX..XXXXXXXXXXXXXXX..XXX.     ",
" .XXXX..XXXXXXXXXXX..XXXXX.     ",
" .XXXXXX..XXXXXXX..XXXXXXX.     ",
" .XXXXXXXX..XXX..XXXXXXXXX.     ",
" .XXXXXXXX.X...XX.XXXXXXXX.     ",
" .XXXXXX..XXXXXXXX..XXXXXX.     ",
" .XXXXX.XXXXXXXXXXXX.XXXXX.     ",
" .XX..........................  ",
" .XX.X.XXXXXXXXXXXXXXXXXXX..X.  ",
" .X..XX..XXXXXXXXXXXXXXX..XXX.  ",
" ..X.XXXX..XXXXXXXXXXX..XXXXX.  ",
" ....XXXXXX..XXXXXXX..XXXXXXX.  ",
"    .XXXXXXXX..XXX..XXXXXXXXX.  ",
"    .XXXXXXXX.X...X.XXXXXXXXX.  ",
"    .XXXXXXX.XXXXXXX..XXXXXXX.  ",
"    .XXXXX..XXXXXXXXXX.XXXXXX.  ",
"    .XXXX.XXXXXXXXXXXXX.XXXXX.  ",
"    .XXX.XXXXXXXXXXXXXXX..XXX.  ",
"    .X..XXXXXXXXXXXXXXXXXX.XX.  ",
"    ..XXXXXXXXXXXXXXXXXXXXX...  ",
"    ..........................  ",
"                                ",
"                                ",
"                                ",
"                                ",
"                                ",
"                                ",
"                                "};
