/* XPM */
static char * icon-mail-get_xpm[] = {
"32 32 3 1",
" 	c #BFBFBFBFBFBF s backgroundToolBarColor",
".	c #000000000000",
"X	c #FFFFFFFFFFFF",
"                                ",
"                                ",
"                                ",
"                                ",
"                                ",
"       ...         ...          ",
"      .   .       .   .         ",
"     .     .     .     .        ",
"    .       . . .       ..      ",
"    .       .. ..       ..      ",
"    .XXXXXXX.   .XXXXXXX.       ",
"     .XXXXX.     .XXXXX.        ",
"     ..XXX..     ..XXX..        ",
"       ...         ...          ",
"                                ",
"    ..........................  ",
"    ...XXXXXXXXXXXXXXXXXXX..X.  ",
"    .XX..XXXXXXXXXXXXXXX..XXX.  ",
"    .XXXX..XXXXXXXXXXX..XXXXX.  ",
"    .XXXXXX..XXXXXXX..XXXXXXX.  ",
"    .XXXXXXXX..XXX..XXXXXXXXX.  ",
"    .XXXXXXX.XX...X.XXXXXXXXX.  ",
"    .XXXXX..XXXXXXXX..XXXXXXX.  ",
"    .XXXX.XXXXXXXXXXXX.XXXXXX.  ",
"    .XXX.XXXXXXXXXXXXXX.XXXXX.  ",
"    .X..XXXXXXXXXXXXXXXX..XXX.  ",
"    ..XXXXXXXXXXXXXXXXXXXX.XX.  ",
"    .XXXXXXXXXXXXXXXXXXXXXX...  ",
"    ..........................  ",
"                                ",
"                                ",
"                                "};
