/* XPM */
static char *save-up[] = {
/* width height ncolors chars_per_pixel */
"24 24 16 1",
/* colors */
"  c #6AC3D9",
". c #FCFDFE",
"X c #EAF3F7",
"o c #A3E3EF",
"O c White",
"+ c #F1F9FC",
"@ c #60B6CC",
"# c #DFF3F8",
"$ c #97DFEC",
"% c #CEEBF2",
"& c #BCEAF4",
"* c #54B2CC",
"= c #9ECFBA",
"- c #D4F6FC",
"; c #C2EBF3",
": c #8CDEEC",
/* pixels */
"=@********************@=",
"@%XXXXXXXXXXXXXXXXXXX#%@",
"*XOOOOOOO.+X&;#.OOOO.@#*",
"*XOOOOO+----@@@ %.OOO.X*",
"*XOOO.#-----@@@@@:+OOOX*",
"*XOO.-------  @@@@ +OOX*",
"*XOO#-----OOOO@@@@@:.OX*",
"*XOX------OOOO@@@@@ %OX*",
"*XO;&;----OOOO@@@@  :OX*",
"*X+&&&&;--OOOO@@     XX*",
"*X#&&&&&&%OOOO       %X*",
"*X#&&&&&;;OOOO::     ;X*",
"*X#&&&&&+OOOOOO#     ;X*",
"*XX&&&&&;.OOOO.:     %X*",
"*X+&&&&&o%OOOO&::    XX*",
"*XO;&&ooooXOO#::::: :OX*",
"*XOXooooooo..$::::::%OX*",
"*XOO&oooooo;&::::::oOOX*",
"*XOO.&oooooo::::::o+OOX*",
"*XOOO.&ooooo:::::o+OOOX*",
"*XOOOOO#&ooo:::o#OOOOOX*",
"*XOOOOOOO+#-%#+OOOOOOOX*",
"@%XXXXXXXXXXXXXXXXXXXX%@",
"=@********************@="
};
