#define Face_ase3_width 24
#define Face_ase3_height 16
static char Face_ase3_bits[] = {
  0x00,0x00,0x00,
  0xf8,0xc1,0x0f,
  0x04,0x22,0x10,
  0x00,0x00,0x00,
  0x18,0x00,0x07,
  0xe0,0xe0,0x00,
  0xfc,0xf3,0x0f,
  0xc0,0xe1,0x00,
  0x38,0x00,0x27,
  0x00,0x00,0x20,
  0x00,0x00,0x50,
  0x50,0x40,0x52,
  0x00,0x00,0x50,
  0x20,0x91,0x20,
  0x00,0x0e,0x00,
  0x00,0x00,0x00
};
