#define Face_ase_width 24
#define Face_ase_height 16
static char Face_ase_bits[] = {
  0x00,0x00,0x00,
  0xf8,0xc1,0x0f,
  0x04,0x22,0x10,
  0x00,0x00,0x00,
  0xf0,0xc0,0x03,
  0x68,0xa1,0x05,
  0x68,0xa1,0x05,
  0x68,0xa1,0x05,
  0xf0,0xc0,0x23,
  0x00,0x00,0x20,
  0x00,0x00,0x50,
  0x50,0x40,0x52,
  0x00,0x00,0x50,
  0x20,0x91,0x20,
  0x00,0x0e,0x00,
  0x00,0x00,0x00};
