/* XPM */
static char * clustering_xpm[] = {
"20 20 7 1",
" 	c None",
".	c #FBFE00",
"+	c #FCFF00",
"@	c #FE0000",
"#	c #FF0000",
"$	c #4DFE00",
"%	c #4EFF00",
"                    ",
"                    ",
"       .   +        ",
"                    ",
"   .     . .        ",
"   .   . .          ",
"      +           @ ",
"   .    . .         ",
"        +      @@   ",
"       +      #  @  ",
"         ++   @ #   ",
"                    ",
"     $       @ #@   ",
"   %            ### ",
"     $  %    #      ",
"    %             # ",
"  %   $%       #@   ",
"    $   $           ",
"   $            #   ",
"                    "};
