/* XPM */
static char * sh_hint2_xpm[] = {
"16 16 84 1",
" 	c None",
".	c #D1DDDD",
"+	c #D4E0DF",
"@	c #D0DCDC",
"#	c #B1C6C6",
"$	c #F1F4F5",
"%	c #FFFFFF",
"&	c #FEFEFE",
"*	c #F1F5F5",
"=	c #AFC5C4",
"-	c #DCE6E6",
";	c #FDB8BF",
">	c #FC7682",
",	c #FC7E8A",
"'	c #FB0920",
")	c #FD8A95",
"!	c #DBE4E5",
"~	c #B5C9C8",
"{	c #EAF1F1",
"]	c #FADCE0",
"^	c #FB6876",
"/	c #FC949E",
"(	c #FA1127",
"_	c #FB7E8A",
":	c #FB97A0",
"<	c #ECF2F2",
"[	c #B5C9C9",
"}	c #B8CCCB",
"|	c #DBE5E7",
"1	c #F4C1C6",
"2	c #FA7581",
"3	c #FB5565",
"4	c #FA081F",
"5	c #FCFDFC",
"6	c #F98792",
"7	c #DEE8E8",
"8	c #B8CCCC",
"9	c #D2E0E1",
"0	c #DFE9E9",
"a	c #EDF2EF",
"b	c #F6F8F2",
"c	c #F8FAEF",
"d	c #ECEEF0",
"e	c #E5EDE9",
"f	c #D3E0E2",
"g	c #A1BCBA",
"h	c #B7CCCC",
"i	c #D8E4DF",
"j	c #D2DBD2",
"k	c #E1E9E4",
"l	c #D9E2E1",
"m	c #D9E2D8",
"n	c #DAE4DD",
"o	c #B8CDCC",
"p	c #C0D2D2",
"q	c #D4E2E3",
"r	c #BCCDCE",
"s	c #BCCCCD",
"t	c #D1DFE0",
"u	c #C1D3D3",
"v	c #99B4B4",
"w	c #D5E3E3",
"x	c #ACC3C4",
"y	c #A4BFC0",
"z	c #C5D6D7",
"A	c #97B5B5",
"B	c #9BB5B4",
"C	c #9EB2B5",
"D	c #8FA8AA",
"E	c #88A9AD",
"F	c #AAA330",
"G	c #B7BF75",
"H	c #C0C877",
"I	c #B2A933",
"J	c #B1A82D",
"K	c #D7D368",
"L	c #DFDD79",
"M	c #B7AF37",
"N	c #BAB328",
"O	c #D2D551",
"P	c #D3D653",
"Q	c #B9B32C",
"R	c #A4961E",
"S	c #A1921C",
"                ",
"      .++@      ",
"    #$%&&&*=    ",
"    -;>,'%)!    ",
"   ~{]^/(_:<[   ",
"   }|12345678   ",
"    90abcdefg   ",
"    hijklmno    ",
"     pqrstu     ",
"     vwxyzA     ",
"      BCDE      ",
"      FGHI      ",
"      JKLM      ",
"      NOPQ      ",
"       RS       ",
"                "};
