/* XPM */
static char * sh_xpm[] = {
"16 16 2 1",
" 	c None",
".	c #FB0920",
"                ",
"                ",
"                ",
"                ",
"   ...  .    .  ",
"  .   . .    .  ",
"  .     .    .  ",
"   ...  ......  ",
"      . .    .  ",
"  .   . .    .  ",
"   ...  .    .  ",
"                ",
"                ",
"                ",
"                ",
"                "};
