#define noname_width 32
#define noname_height 32
static char noname_bits[] = {
 0x00,0x10,0x10,0x01,0x6b,0xa7,0x66,0x72,0x04,0x10,0x02,0x05,0xa1,0x8a,0x50,
 0x48,0x04,0x20,0x8f,0x20,0x72,0xab,0x39,0x2b,0x02,0x64,0x58,0xa4,0x50,0x19,
 0x16,0x01,0x0a,0x06,0x57,0x54,0xe2,0x01,0x23,0x23,0x72,0x80,0x20,0x94,0x44,
 0x00,0x40,0x01,0x50,0x00,0xc0,0x54,0xa6,0x00,0x80,0x22,0x92,0x00,0x80,0x4a,
 0x40,0x01,0x00,0x11,0x8a,0x01,0x00,0x45,0x32,0x02,0x00,0x2a,0x42,0x02,0x00,
 0xa2,0x10,0x05,0x00,0x0c,0x4a,0x06,0x00,0x24,0x22,0x0a,0x00,0x68,0xaa,0x0c,
 0x00,0x0c,0x00,0x11,0x80,0x53,0x2a,0x14,0x40,0x05,0x22,0x23,0x70,0x62,0x92,
 0x34,0x0e,0x09,0x24,0xc0,0x4b,0x52,0x80,0x0a,0x21,0x80,0x6b,0x62,0xaa,0x36,
 0x04,0x15,0x01,0x42,0x51,0x80,0xa8,0x28};
