/* XPM */
static char * icon-mail-delete_xpm[] = {
"32 32 4 1",
" 	c #BEBEBEBEBEBE s backgroundToolBarColor",
"X	c #000000000000",
"o	c #E7E7E7E7E7E7",
"O	c #FFFFFFFFFFFF",
"                                ",
"                                ",
"                                ",
"    XXXXX                       ",
"   XX   XX                      ",
"  XX     XX          XXX        ",
"  X       X        XXooXX  X    ",
"  XX     XXX     XXooXX   XX    ",
"   XX   XXXXX   XXXXX    XOXXX  ",
"    XXXXX   XXXXXX      XOOXOOXX",
"             XOX       XOOOXOOOX",
"    XXXXX   XXXXXX     XOOOXOOOO",
"   XX   XXXXX   XXXXXX  XOOXOOOO",
"  XX     XXX     XXXXXXXOOOXOOOO",
"  X       X        XOOOOOOXOOOOO",
"  XX     XX       XOOOOOOOXOOOOO",
"   XX   XX       XOOOOOOOXXOOOOO",
"    XXXXX       XOOOOOXXXOOOOOOO",
"               XOOOXXXOOOOOOOOOO",
"              XOXXXOOOOOOOOOOOOX",
"             XXXOOOOOOOOOOOOOOX ",
"              XXOOOOOOOOOOOOOX  ",
"                XXOOOOOOOOOOOX  ",
"                  XOOOOOOOOOX   ",
"                   XXOOOOOOX    ",
"                     XXOOOX     ",
"                       XXOX     ",
"                         X      ",
"                                ",
"                                ",
"                                ",
"                                "};
