#define noname_width 32
#define noname_height 32
static char noname_bits[] = {
 0x11,0x11,0x01,0x11,0x54,0x4a,0xa9,0x52,0x82,0x10,0x04,0x08,0x28,0x24,0xa1,
 0x42,0x91,0x91,0x0f,0x19,0x25,0xaa,0xa9,0x44,0x88,0x60,0x18,0x11,0x42,0x1c,
 0x56,0x44,0x19,0x07,0x97,0x31,0x44,0x01,0x23,0x0a,0x12,0x81,0x60,0x50,0x80,
 0x02,0x42,0x05,0x3b,0x05,0x78,0x59,0x00,0x0a,0x56,0x12,0xaa,0xf4,0x05,0x41,
 0x00,0x54,0x51,0x10,0x5b,0x51,0x95,0x55,0x10,0x15,0x00,0x11,0x42,0x40,0x55,
 0x44,0x10,0x2a,0x00,0x21,0x5b,0x91,0x5b,0x95,0x80,0x24,0x00,0x21,0x12,0x92,
 0x2a,0x14,0x44,0x01,0x80,0x42,0x11,0xb5,0x35,0x19,0x54,0x11,0x08,0x42,0x02,
 0x44,0xa1,0x08,0xa8,0x22,0x14,0x52,0x11,0x99,0x51,0x11,0x4a,0x22,0x14,0x4a,
 0x20,0x89,0x42,0x10,0x15,0x40,0x20,0x45};
