/* XPM */
static char * icon-cancel-post_xpm[] = {
"32 32 4 1",
" 	c #000000000000",
".	c #BFBFBFBFBFBF s backgroundToolBarColor",
"X	c #FFFFFFFFFFFF",
"o	c #999999999999",
" ... ... ... ... ....... ... ...",
"................................",
"................................",
"................................",
" ... ... ... ...    .... ... ...",
"...............  XX ............",
".............  XXXX  ...........",
"...........  XXXX  X ...........",
" ... ....  XXXXX   X ... ... ...",
"........ XXXXXXX  XXX ..........",
"........ XXXXXX oXXXX ..........",
"........o XXXXXXXoXXXX .........",
" ... ...oo XXXXXXXX    . ... ...",
".........oo XXXXX  oooo.........",
"..........oo     o..............",
"..........ooooooo...............",
" ... ... ... oo. ... ... ... ...",
"................................",
"................................",
"................................",
" ... ... ... ... ... ... ... ...",
"................................",
"................................",
"................................",
" ... ... ... ... ... ... ... ...",
"................................",
"................................",
"................................",
" ... ... ... ... ... ... ... ...",
"................................",
"................................",
"................................"};
