#define noname_width 32
#define noname_height 32
static char noname_bits[] = {
 0x00,0x00,0x40,0x08,0xb6,0x76,0x37,0x63,0x20,0x02,0x00,0x04,0x8a,0x48,0x55,
 0x51,0x10,0x22,0x0e,0x82,0xa6,0xaa,0xa9,0x36,0x12,0x62,0x38,0x20,0xa0,0x18,
 0x96,0x4a,0x0a,0x07,0x17,0x00,0xa2,0x01,0xa3,0x76,0x6a,0x80,0x60,0x00,0x60,
 0x00,0x40,0x55,0x52,0x00,0x40,0x00,0xa6,0x00,0x80,0x6b,0x90,0xe1,0x80,0x04,
 0x24,0x9a,0x00,0x51,0x82,0x86,0x01,0x85,0xaa,0x61,0x01,0x32,0x60,0x70,0x01,
 0x42,0x1d,0x30,0x02,0x14,0x04,0x08,0x02,0x4c,0x06,0x00,0x02,0x28,0x06,0x00,
 0x04,0xac,0x08,0x00,0x08,0x0b,0x0a,0x00,0xc8,0x22,0x12,0x00,0x70,0x6a,0x1a,
 0x00,0x10,0x01,0x20,0x00,0x60,0x52,0x32,0x00,0x20,0x08,0x46,0x00,0x40,0x63,
 0x50,0x00,0x40,0x04,0x85,0x00,0x80,0x52};
