<?xml version="1.0" encoding="utf-8"?>
<!-- Generator: Adobe Illustrator 16.0.0, SVG Export Plug-In . SVG Version: 6.00 Build 0)  -->
<!DOCTYPE svg PUBLIC "-//W3C//DTD SVG 1.1//EN" "http://www.w3.org/Graphics/SVG/1.1/DTD/svg11.dtd">
<svg version="1.1" id="Layer_1" xmlns="http://www.w3.org/2000/svg" xmlns:xlink="http://www.w3.org/1999/xlink" x="0px" y="0px"
	 width="800px" height="600px" viewBox="0 0 800 600" style="enable-background:new 0 0 800 600;" xml:space="preserve">
<style type="text/css">
<![CDATA[
	.st0{fill:#4769A0;}
	.st1{fill:#999999;}
	.st2{fill:#666666;}
	.st3{fill:#6BC9DD;}
	.st4{fill:#DBDBDB;}
]]>
</style>
<g>
	<path class="st4" d="M601.3,72.5c0-50.5,50.5-50.5,50.5-50.5c50.5,0,50.5,50.5,50.5,50.5v252.3v201.8c0,50.5-50.5,50.5-50.5,50.5
		H147.2c-50.5,0-50.5-50.5-50.5-50.5V324.7V72.5c0,0,0-50.5,50.5-50.5c0,0,50.5,0,50.5,50.5v100.9c0,0,0,50.5,50.5,50.5h302.7
		c0,0,50.5,0,50.5-50.5V72.5z"/>
</g>
<g>
	<path class="st2" d="M248.1,294.5c-5.2,0-10.5-2.1-14.2-5.9c-3.8-3.8-6-9.1-6-14.3c0-5.4,2.1-10.5,6-14.2c7.5-7.6,21-7.6,28.5,0
		c3.8,3.7,6,8.9,6,14.2c0,5.3-2.1,10.5-6,14.2C258.6,292.3,253.4,294.5,248.1,294.5z"/>
</g>
<g>
	<path class="st2" d="M550.9,294.5c-5.4,0-10.5-2.1-14.3-5.9c-3.7-3.8-5.9-9-5.9-14.3c0-5.4,2.1-10.5,5.9-14.2
		c7.6-7.6,21.1-7.6,28.6-0.1c3.8,3.8,6,9,6,14.3c0,5.2-2.1,10.5-5.9,14.2C561.4,292.3,556.1,294.5,550.9,294.5z"/>
</g>
<path class="st2" d="M424.7,289h-50.5c-8.4,0-15.1,7.1-15.1,15.5c0,8.4,6.8,15.5,15.1,15.5h9.7v14.8c0,8.4,7.1,15.1,15.5,15.1
	s15.5-6.8,15.5-15.1V320h9.7c8.4,0,15.1-7.1,15.1-15.5C439.9,296.1,433.1,289,424.7,289z"/>
<g>
	<path class="st0" d="M201.4,577l57.6-86.4l-57.6-86.4h43.2l57.6,86.4L244.6,577H201.4z"/>
</g>
<g>
	<path class="st3" d="M334.7,577l57.6-86.4l-57.6-86.4h43.2L493.1,577h-43.2l-36-54l-36,54H334.7z"/>
</g>
<g>
	<path class="st0" d="M544.6,526.6l-19.2-28.8h67.2v28.8H544.6z"/>
</g>
<g>
	<path class="st0" d="M515.8,483.4l-19.2-28.8l96,0v28.8H515.8z"/>
</g>
<g>
	<path class="st1" d="M702.2,425.6c0,0,0,50.5-50.5,50.5h-50.5c0,0-50.5,0-50.5,50.5c0,0,0,50.5,50.5,50.5h100.9
		c41.8,0,75.7-33.9,75.7-75.7S744,425.6,702.2,425.6z"/>
</g>
<g>
	<path class="st1" d="M197.7,476.1h-50.5c-50.5,0-50.5-50.5-50.5-50.5c-41.8,0-75.7,33.9-75.7,75.7S55,577,96.8,577h100.9
		c50.5,0,50.5-50.5,50.5-50.5C248.1,476.1,197.7,476.1,197.7,476.1z"/>
</g>
<g>
	<path class="st1" d="M651.8,239c-8.4,0-15.1-6.8-15.1-15.1V72.5c0-8.4,6.8-15.1,15.1-15.1s15.1,6.8,15.1,15.1v151.4
		C666.9,232.2,660.1,239,651.8,239z"/>
</g>
<g>
	<path class="st1" d="M147.2,239c-8.4,0-15.1-6.8-15.1-15.1V72.5c0-8.4,6.8-15.1,15.1-15.1s15.1,6.8,15.1,15.1v151.4
		C162.4,232.2,155.6,239,147.2,239z"/>
</g>
</svg>
