/* XPM */
static char * abort_xpm[] = {
"32 32 36 1",
" 	c None",
".	c #BCBCBC s backgroundToolBarColor",
"+	c #B09696",
"@	c #AA8282",
"#	c #994747",
"$	c #870D0D",
"%	c #8D2121",
"&	c #BBBABA",
"*	c #AE9090",
"=	c #860C0C",
"-	c #BBB9B9",
";	c #BCBBBB",
">	c #A46F6F",
",	c #A16464",
"'	c #BAB6B6",
")	c #994848",
"!	c #BBB8B8",
"~	c #9A4A4A",
"{	c #870E0E",
"]	c #9A4C4C",
"^	c #902C2C",
"/	c #9B5050",
"(	c #891212",
"_	c #9C5454",
":	c #8A1616",
"<	c #AB8282",
"[	c #933434",
"}	c #9E5858",
"|	c #8B1A1A",
"1	c #881212",
"2	c #A87B7B",
"3	c #9C5252",
"4	c #9A4B4B",
"5	c #994949",
"6	c #BBBBBB",
"7	c #000000",
"................................",
".....+@@@@@@@@@@@@@@@@@@@@@.....",
".....#$$$$$$$$$$$$$$$$$$$$$.....",
".....#$##################%$.....",
".....#$..................#$.....",
".....#$..$$........&&*=..#$.....",
".....#$..$$.......-;>==..#$.....",
".....#$..$$......&;,==...#$.....",
".....#$..$$....;'&,==....#$.....",
".....#$..$$...;;.>==.....#$.....",
".....#$..=$...;.*==......#$.....",
".....#$..$$$$$$===$$$$$..#$.....",
".....#$..$$$$$==$$$$$$$..#$.....",
".....#$..$$.;*==.;.;;....#$.....",
".....#$..$$-*==.&;;;;....#$.....",
".....#$..$=>==..;;;.&....#$.....",
".....#$..$===;;;.;&;;;...#$.....",
".....)$..$$=!;;;;;;;!....#$.....",
".....~{.>==;.;..;;;;;;;..#$.....",
".....]{.^=...............#$.....",
"...../(..................#$.....",
"....._:<@@@@@@@@@@@@@@@@@[$.....",
".....}|1$$$$$$$$$$$$$$$$$$$.....",
".....2345##################.....",
"................................",
".66666.77...77............7...6.",
".6..667.7...7...6666.66..67666..",
"......7.766.777767776777777766..",
"...6677776..776777.7.677677.6...",
".....76676.77.7.7..7.77667...6..",
"6...776677.77766777..76.677...6.",
"................................"};
