/* XPM */
static char * abort_8bit_xpm[] = {
"32 32 9 1",
" 	c None",
".	c #020202",
"+	c #860E0E",
"@	c #8D1F1F",
"#	c #9A4646",
"$	c #A05D5D",
"%	c #AA8282",
"&	c #AE9292",
"*	c #BEBDBD",
"********************************",
"*****&%%%%%%%%%%%%%%%%%%%%%*****",
"*****#+++++++++++++++++++++*****",
"*****#+##################@+*****",
"*****#+******************#+*****",
"*****#+**++**********&+**#+*****",
"*****#+**++*********$++**#+*****",
"*****#+**++********$++***#+*****",
"*****#+**++*******$++****#+*****",
"*****#+**++******$++*****#+*****",
"*****#+**++*****%++******#+*****",
"*****#+**++++++++++++++**#+*****",
"*****#+**++++++++++++++**#+*****",
"*****#+**++**%++*********#+*****",
"*****#+**++*%++**********#+*****",
"*****#+**++$++******&****#+*****",
"*****#+**++++************#+*****",
"*****#+**+++********&****#+*****",
"*****#+*$++***&**********#+*****",
"*&***#+*@+***************#+*****",
"*****#+****************&*#+*****",
"*****$+%%%%%%%%%%%%%%%%%%@+*****",
"*****$@++++++++++++++++++++*****",
"*****%#####################*****",
"********************************",
"*******..***..************.*****",
"******.*.***.*************.*****",
"******.*.***....*...*.......****",
"*****....***..*...*.**..*..*****",
"*****.**.**..*.*.**.*..**.******",
"****..**..*...**...**.***..*****",
"********************************"};
