/* XPM */
static char * command_8bit_xpm[] = {
"32 32 9 1",
" 	c None",
".	c #211D1A",
"+	c #735D55",
"@	c #A4857C",
"#	c #C89870",
"$	c #860E0C",
"%	c #BDBDBB",
"&	c #3E3936",
"*	c #86433D",
"%#@@@@@@@@@@@@@@@@@@@@@@@@@@@@@%",
"%*$$$$$$$$$$$$$$$$$$$$$$$$$$$$$%",
"%*$**************************$$%",
"%*$%%%%%%%%%%%%%%%%%%%%%%%%%%*$%",
"%*$%%%%%%%%%%%%%%%%%%%%%%%%%%*$%",
"%*$%%%%%%%#@@@+#@#@#@@#@@####**%",
"%**@%%%##@#####################+",
"%@@#%+@###########@*.*$.&**&**&+",
"%@@@%##############@@@*@@@@%#*$%",
"%@@%%*######*****@####+%%%%%%*$%",
"%@+%%&*###@**@##*#@##*%%%%%%%*$%",
"%@+%%...$...$#@######*%%%%%%%*$%",
"%@+%%@&....*##$$.$$..&%%%%%%%*$%",
"%@+@%+##&...*##@++*.#%%%%%%%%*$%",
"%@@&%@###*.@+.**+*&.%%%%%%%%%*$%",
"%@@&%*@###.**@&...&@%%%%%%%%%*$%",
"%++.&@%#@++++.&*&@%%%%%%%%%%%*$%",
"%...#%%%%%%%%%@+@%%%%%%%%%%%%*$%",
"%*$%%%%%%%%%%%%%%%%%%%%%%%%%%*$%",
"%*$%%%%%%%%%%%%%%%%%%%%%%%%%%*$%",
"%*$@@@@@@@@@@@@@@@@@@@@@@@@@@*$%",
"%*$$$$$$$$$$$$$$$$$$$$$$$$$$$$$%",
"%+*****************************%",
"%%%%%%%%%%%%%%%%%%%%%%%%%%%%%%%@",
"%#.&*%%%%%%%%%%%%%%%%%%%%%%%%%#&",
"%&@%@#++@&@+#+@&@+#+%@*&#+@+%@&&",
"%&%%%&%&@.+.&&%.+.&&%&@&#&+.@.@+",
"+&%%@&%+@.+.%&%.+.%&++++@&%&+@++",
"%.%%@.%&+&@+%&+&@&@+&&&+@+@&&+&@",
"%+&+%+&@%+@+@+@+@@@+++++@@@++&@+",
"%%%%%%%%%%%%%%%%%%%%%%%%%%%%%%%%",
"%%%%%%%%%%%%%%%%%%%%%%%%%%%%%%%%"};
