/* XPM */
static char * command_8bit_xpm[] = {
"32 32 9 1",
" 	c None",
".	c #1F1F1F",
"+	c #3F3F3E",
"@	c #635D5C",
"#	c #9C8082",
"$	c #9B8786",
"%	c #BCBCBA",
"&	c #7D1413",
"*	c #914746",
"%$$############################%",
"%*&&&&&&&&&&&&&&&&&&&&&&&&&&&&&%",
"%*&**************************&&%",
"%*&%%%%%%%%%%%%%%%%%%%%%%%%%%*&%",
"%*&%%%%%%%%%%%%%%%%%%%%%%%%%%*&%",
"%*&%%%%%%%%%%%%%%%%%%%%%%%%%%*&%",
"%*&%%%%%%%%%%%%%%%%%%%%%%%%%%*&%",
"%*&%%%%%%%%%%%%%%%%%%%%%%%%%%*&%",
"%*&%%%%%%%%%%%%%%%%%%%%%%%%%%*&%",
"%*&%%%%%%%%%%%%%%%%%%%%%%%%%%*&%",
"%*&%%%%%%%%%%%%%%%%%%%%%%%%%%*&%",
"%*&%%%%%%%%%%%%%%%%%%%%%%%%%%*&%",
"%**%%%%%%%%%%%%%%%%%%%%%%%%%%*&%",
"%*&%%%%%%%%%%%%%%%%%%%%%%%%%%*&%",
"%*&%%%%%%%%%%%%%%%%%%%%%%%%%%*&%",
"%*&%%%%%%%%%%%%%%%%%%%%%%%%%%*&%",
"%*&%%%%%%%%%%%%%%%%%%%%%%%%%%*&%",
"%*&%%%%%%%%%%%%%%%%%%%%%%%%%%*&%",
"%*&%%%%%%%%%%%%%%%%%%%%%%%%%%*&%",
"%*&%%%%%%%%%%%%%%%%%%%%%%%%%%*&%",
"%*&##########################*&%",
"%*&&&&&&&&&&&&&&&&&&&&&&&&&&&&&%",
"%#*****************************%",
"%%%%%%%%%%%%%%%%%%%%%%%%%%%%%%%#",
"%$&+*%%%%%%%%%%%%%%%%%%%%%%%%%$+",
"%+$%%$*@$*#*$@$*#*$*%$+*$*$*%$++",
"%.%%%+%+$.@.@+$.@.@+%+#+%+@.$.$@",
"#+%%$+%@$.@.%+%.@.$+@@@+$+%+@$@@",
"$.%%#.$+#+$+%+#+$@$@+++#$@#+@++$",
"%@+@%@+$$@$$$+$@$$$@#@@@$$$@@@@#",
"%%%%%%%%%%%%%%%%%%%%%%%%%%%%%%%%",
"%%%%%%%%%%%%%%%%%%%%%%%%%%%%%%%%"};
