/* XPM */
static char * command_xpm[] = {
"32 32 301 2",
"  	c None",
". 	c #BCBCBC s backgroundToolBarColor",
"+ 	c #B09696",
"@ 	c #AA8282",
"# 	c #994747",
"$ 	c #870D0D",
"% 	c #994848",
"& 	c #8D2121",
"* 	c #B1B1B1",
"= 	c #A0948A",
"- 	c #AE8C70",
"; 	c #9F724E",
"> 	c #8D6342",
", 	c #976D4C",
"' 	c #B18460",
") 	c #AC8361",
"! 	c #B88C69",
"~ 	c #AA8566",
"{ 	c #AA8568",
"] 	c #A28166",
"^ 	c #A8886E",
"/ 	c #A98D75",
"( 	c #B2957F",
"_ 	c #B39781",
": 	c #AE9784",
"< 	c #9E5A4A",
"[ 	c #9C3728",
"} 	c #BBB7B4",
"| 	c #43353E",
"1 	c #624D5E",
"2 	c #777783",
"3 	c #B4B4B4",
"4 	c #BBBBBB",
"5 	c #ABA49E",
"6 	c #AC8E76",
"7 	c #BB865C",
"8 	c #D99966",
"9 	c #C78C5D",
"0 	c #C78B5D",
"a 	c #CF905F",
"b 	c #C98A5B",
"c 	c #CC905F",
"d 	c #D89764",
"e 	c #D89865",
"f 	c #D99865",
"g 	c #916546",
"h 	c #8989A8",
"i 	c #8B8B93",
"j 	c #FFFFFF",
"k 	c #75665A",
"l 	c #B98963",
"m 	c #D79865",
"n 	c #D39563",
"o 	c #C2895B",
"p 	c #63452E",
"q 	c #322115",
"r 	c #523621",
"s 	c #4F321F",
"t 	c #25170E",
"u 	c #392517",
"v 	c #6F4A2F",
"w 	c #6B472D",
"x 	c #3E2818",
"y 	c #5E3C25",
"z 	c #5D3C25",
"A 	c #4F301E",
"B 	c #504C49",
"C 	c #8A86A3",
"D 	c #8888A7",
"E 	c #8C8C8E",
"F 	c #936E51",
"G 	c #D89663",
"H 	c #B58055",
"I 	c #B98357",
"J 	c #AA7850",
"K 	c #6D4B31",
"L 	c #828282",
"M 	c #969696",
"N 	c #B5B5B5",
"O 	c #ADADAD",
"P 	c #833D3D",
"Q 	c #810C0C",
"R 	c #8A85A2",
"S 	c #777792",
"T 	c #959595",
"U 	c #865B3C",
"V 	c #CB8A5A",
"W 	c #925C38",
"X 	c #865534",
"Y 	c #674228",
"Z 	c #8E5C3A",
"` 	c #96643F",
" .	c #C18152",
"..	c #D48F5C",
"+.	c #D6925F",
"@.	c #D69360",
"#.	c #D08D5B",
"$.	c #91725C",
"%.	c #66667E",
"&.	c #9A9A9A",
"*.	c #171412",
"=.	c #7A4F30",
"-.	c #CF8A58",
";.	c #D5915E",
">.	c #CF8C5A",
",.	c #C27D4D",
"'.	c #72482B",
").	c #4F3522",
"!.	c #A4734D",
"~.	c #B88256",
"{.	c #956946",
"].	c #A2724C",
"^.	c #B78055",
"/.	c #D69562",
"(.	c #CC8553",
"_.	c #7E695B",
":.	c #696981",
"<.	c #1C1C1C",
"[.	c #000000",
"}.	c #150D08",
"|.	c #372315",
"1.	c #0C0704",
"2.	c #060403",
"3.	c #5A3B25",
"4.	c #D79663",
"5.	c #B97B4E",
"6.	c #D69461",
"7.	c #CE8451",
"8.	c #67422A",
"9.	c #BABABA",
"0.	c #8B819C",
"a.	c #6F6F88",
"b.	c #8A8A8A",
"c.	c #6A513F",
"d.	c #5E3C24",
"e.	c #20140C",
"f.	c #7F5A3C",
"g.	c #D09362",
"h.	c #C18659",
"i.	c #362518",
"j.	c #4A2E1C",
"k.	c #382315",
"l.	c #432A19",
"m.	c #352114",
"n.	c #140D08",
"o.	c #424242",
"p.	c #74748E",
"q.	c #676767",
"r.	c #DADADA",
"s.	c #A27C5F",
"t.	c #D28D5B",
"u.	c #845433",
"v.	c #0A0604",
"w.	c #302217",
"x.	c #795235",
"y.	c #CE8B59",
"z.	c #AC7A51",
"A.	c #996C48",
"B.	c #825C3D",
"C.	c #66452C",
"D.	c #342C27",
"E.	c #A6A6A6",
"F.	c #81819E",
"G.	c #4F4F4F",
"H.	c #97765B",
"I.	c #99603A",
"J.	c #18110B",
"K.	c #C68C5D",
"L.	c #885F3F",
"M.	c #2C1D12",
"N.	c #6F452A",
"O.	c #835332",
"P.	c #744A2E",
"Q.	c #71482C",
"R.	c #654027",
"S.	c #231F1C",
"T.	c #8B809B",
"U.	c #383839",
"V.	c #6B5A4F",
"W.	c #BA8863",
"X.	c #D18D5B",
"Y.	c #D5925F",
"Z.	c #CE8350",
"`.	c #362214",
" +	c #5F3D26",
".+	c #805435",
"++	c #C08456",
"@+	c #513926",
"#+	c #030201",
"$+	c #0C0805",
"%+	c #1B1B1B",
"&+	c #484848",
"*+	c #888888",
"=+	c #6C6072",
"-+	c #57576B",
";+	c #1C1C1F",
">+	c #363636",
",+	c #777777",
"'+	c #A4A09E",
")+	c #99887C",
"!+	c #947B6A",
"~+	c #685F58",
"{+	c #555555",
"]+	c #211D19",
"^+	c #4E3421",
"/+	c #794D2F",
"(+	c #6F462A",
"_+	c #808080",
":+	c #1C0E0E",
"<+	c #030304",
"[+	c #19191C",
"}+	c #AFAFAF",
"|+	c #919191",
"1+	c #747474",
"2+	c #858585",
"3+	c #AB8383",
"4+	c #AB8484",
"5+	c #933434",
"6+	c #A56E6E",
"7+	c #999999",
"8+	c #292929",
"9+	c #3E3E3E",
"0+	c #494949",
"a+	c #AAAAAA",
"b+	c #A2A2A2",
"c+	c #323232",
"d+	c #373737",
"e+	c #8E8E8E",
"f+	c #A7A7A7",
"g+	c #535353",
"h+	c #616161",
"i+	c #939393",
"j+	c #474747",
"k+	c #585858",
"l+	c #9D9D9D",
"m+	c #8F8F8F",
"n+	c #4C4C4C",
"o+	c #7E7E7E",
"p+	c #575757",
"q+	c #989898",
"r+	c #6A6A6A",
"s+	c #3F3F3F",
"t+	c #909090",
"u+	c #5C5C5C",
"v+	c #949494",
"w+	c #383838",
"x+	c #A4A4A4",
"y+	c #8D8D8D",
"z+	c #1D1D1D",
"A+	c #606060",
"B+	c #121212",
"C+	c #343434",
"D+	c #232323",
"E+	c #5E5E5E",
"F+	c #0D0D0D",
"G+	c #353535",
"H+	c #454545",
"I+	c #666666",
"J+	c #8B8B8B",
"K+	c #2D2D2D",
"L+	c #686868",
"M+	c #7D7D7D",
"N+	c #414141",
"O+	c #B8B8B8",
"P+	c #0C0C0C",
"Q+	c #282828",
"R+	c #464646",
"S+	c #B0B0B0",
"T+	c #141414",
"U+	c #737373",
"V+	c #4D4D4D",
"W+	c #6B6B6B",
"X+	c #5A5A5A",
"Y+	c #4E4E4E",
"Z+	c #979797",
"`+	c #A1A1A1",
" @	c #6E6E6E",
".@	c #7B7B7B",
"+@	c #656565",
"@@	c #2B2B2B",
"#@	c #A8A8A8",
"$@	c #303030",
"%@	c #9F9F9F",
"&@	c #505050",
"*@	c #818181",
"=@	c #333333",
"-@	c #3C3C3C",
";@	c #757575",
">@	c #646464",
",@	c #515151",
"'@	c #3A3A3A",
")@	c #767676",
"!@	c #444444",
"~@	c #717171",
"{@	c #7A7A7A",
"]@	c #898989",
"^@	c #838383",
"/@	c #565656",
"(@	c #6C6C6C",
"_@	c #545454",
":@	c #787878",
". + @ @ @ @ @ @ @ @ @ @ @ @ @ @ @ @ @ @ @ @ @ @ @ @ @ @ @ @ @ . ",
". # $ $ $ $ $ $ $ $ $ $ $ $ $ $ $ $ $ $ $ $ $ $ $ $ $ $ $ $ $ . ",
". # $ # # % % % % % % % # # # # % % % % # # # # # # # # # & $ . ",
". # $ . . . . . . . . . . . . . . . . . . . . . . . . . . # $ . ",
". # $ . . . . . . . . . . . . . . . . . . . . . . . . . . # $ . ",
". % $ . . . . . . * = - ; > , ' ) ! ~ { { { { ] ^ / ( _ : < [ } ",
". | 1 2 . 3 4 5 6 7 8 8 8 8 8 9 0 a b c 8 8 8 d e 8 8 8 8 8 f g ",
". h h i j k l m 8 8 8 8 8 8 8 8 8 n o p q r s t u v w x y z A B ",
". C D E j F 8 8 8 8 8 G 8 d f 8 8 8 8 H I J K L M M M N O P Q . ",
". R S T j U e 8 8 8 8 V W X Y Z `  ...+.@.#.$.4 . . . . . # $ . ",
". R %.&.j *.=.-.;.>.,.'.).!.n ~.{.].^./.(._.. . . . . . . # $ . ",
". R :.&.j <.[.}.|.1.[.2.3.4.5.+.d d 6...7.8.9.. . . . . . # $ . ",
". 0.a.b.j c.d.e.[.[.[.f.g.h.i.j.|.k.l.m.n.o.. . . . . . . # $ . ",
". 0.p.q.r.s.e t.u.v.[.w.x.y.a z.A.B.C.D.E.. . . . . . . . # $ . ",
". 0.F.G.N H.8 8 6.I.J.K.L.M.N.O.P.Q.R.S.. . . . . . . . . # $ . ",
". T.h U.3 V.W.X.Y.Z.`. +.+++@+#+$+%+&+*+. . . . . . . . . # $ . ",
". =+-+;+>+,+4 '+)+!+~+G.{+]+^+/+(+_+. . . . . . . . . . . # $ . ",
". :+<+[+}+. . . . . . . . 4 |+1+2+. . . . . . . . . . . . # $ . ",
". # $ . . . . . . . . . . . . . . . . . . . . . . . . . . # $ . ",
". # $ . . . . . . . . . . . . . . . . . . . . . . . . . . # $ . ",
". # $ @ @ @ @ 3+4+4+4+4+4+@ @ @ 4+4+4+4+4+@ @ @ @ @ @ @ @ 5+$ . ",
". # $ $ $ $ $ $ $ $ $ $ $ $ $ $ $ $ $ $ $ $ $ $ $ $ $ $ $ $ $ . ",
". 6+# # # # # # # # # # # # # # # # # # # # # # # # # # # # # . ",
". . . . . . . . . . . . . . . . . . . . . . . . . . . . . . }+2+",
". 7+8+9+0+a+. . . . . . . . . . . . . . . . . . . . . . . . b+c+",
". d+e+4 f+f+g+h+i+j+_+k+l+q.m+n+o+p+q+r+3 T &+s+l+k+t+u+N v+w+d+",
"f+c+}+. 3 s+x+9+y+z+A+B+G.C+x+D+E+F+n+G+O G+t+H+l+s+I+D+J+K+T L+",
"M+N+. . T H+O+g+i+P+1+Q+f+R+S+T+U+D+l+V+W+X+E+Y+Z+d+`+G+ @.@+@h+",
"f+@@#@4 _+$@%@s+M+w+2+&@x+H+*@N+M+&@7+Y+0+=@-@;@y+>@_+H+j+,@'@.@",
". )@s+W+f+u+!@x+y+~@e+2+*+g+{@)@*+]@^@{+.@/@(@+@y+]@*@/@(@_@:@)@",
". . . . . . . . . . . . . . . . . . . . . . . . . . . . . . . . ",
". . . . . . . . . . . . . . . . . . . . . . . . . . . . . . . . "};
