/* XPM */
static char * command_8bit_xpm[] = {
"32 32 9 1",
" 	c None",
".	c #020204",
"+	c #860E0C",
"@	c #463433",
"#	c #9A4644",
"$	c #776C6C",
"%	c #AA8284",
"&	c #AE8A8C",
"*	c #BDBDBB",
"********************************",
"*****#####################%*****",
"*****+++++++++++++++++++++#*****",
"*****+#%%%%%%%%%%%%%%%%%%+#*****",
"*****+#******************+#*****",
"*****+#******************+#*****",
"*****+#**&++++++++++++%**+#*****",
"*****+#***&+++++++++++***+#*****",
"*****+#****++++++++++$***+#*****",
"*****+#****#+++++++++****+#*****",
"*****+#*****+++++++++****+#*****",
"*****+#*****++++++++&****+#*****",
"*****+#******+++++++*****+#*****",
"*****+#******++++++#*****+#*****",
"*****+#*******+++++******+#*****",
"*****+#*******+++++******+#*****",
"*****+#********+++*******+#*****",
"*****+#**%+++++++++++++**+#*****",
"*****+#**%+++++++++++++**+#*****",
"*****+#******************+#*****",
"*****+#******************+#*****",
"*****++##################+#*****",
"*****+++++++++++++++++++++#*****",
"*****%%%%%%%%%%%%%%%%%%%%%&*****",
"********************************",
"*********@.$*.@*****************",
"*********$.**@&&@@&*$@%*********",
"*********@@**.*.$&*@$@@*********",
"*********.%**@*$.$&.@$**********",
"*********.$*$$&*$.&.&*$*********",
"*********&@@$*&@@&*$@$&*********",
"********************************"};
