/* XPM */
static char * command_xpm[] = {
"32 32 27 1",
" 	c None",
".	c #BCBCBC s backgroundToolBarColor",
"+	c #994747",
"@	c #A56E6E",
"#	c #870D0D",
"$	c #933434",
"%	c #AA8282",
"&	c #B29A9A",
"*	c #AC8888",
"=	c #8A1616",
"-	c #A06262",
";	c #A16363",
">	c #902D2D",
",	c #B09595",
"'	c #9E5959",
")	c #860C0C",
"!	c #8D2121",
"~	c #B09696",
"{	c #3F3F3F",
"]	c #000000",
"^	c #696969",
"/	c #151515",
"(	c #2A2A2A",
"_	c #7D7D7D",
":	c #A7A7A7",
"<	c #939393",
"[	c #545454",
"................................",
".....+++++++++++++++++++++@.....",
".....#####################+.....",
".....#$%%%%%%%%%%%%%%%%%%#+.....",
".....#+..................#+.....",
".....#+..................#+.....",
".....#+..&############*..#+.....",
".....#+...&##########=...#+.....",
".....#+....##########-...#+.....",
".....#+....;#########....#+.....",
".....#+.....########>....#+.....",
".....#+.....########,....#+.....",
".....#+......#######.....#+.....",
".....#+......######'.....#+.....",
".....#+.......#####......#+.....",
".....#+.......#####......#+.....",
".....#+........###.......#+.....",
".....#+..%#############..#+.....",
".....#+..%#######)#####..#+.....",
".....#+..................#+.....",
".....#+..................#+.....",
".....#!++++++++++++++++++#+.....",
".....#####################+.....",
".....%%%%%%%%%%%%%%%%%%%%%~.....",
"................................",
".........{]^./(.................",
"........._/..{:<{{:.^{<.........",
".........{{..].]^<.{_{[.........",
".........]_.:{._]_<]{[:.........",
"........./^.^^<<^]_]::_.........",
".........<{{^.<{{<.[{^:.........",
"................................"};
