/* XPM */
static char * context_8bit_xpm[] = {
"32 32 9 1",
" 	c None",
".	c #252920",
"+	c #6B8F5E",
"@	c #86D56F",
"#	c #BEBFBB",
"$	c #DBEBD6",
"%	c #705840",
"&	c #860E0C",
"*	c #9F9784",
"################################",
"#*%****%****%****%****%****%***#",
"#%&&&&&&&&&&&&&&&&&&&&&&&&&&&&&#",
"#%&%&%%&%%&%%%&%%&%%&%%&%%&%%&&#",
"##$$$@$#@#@@@@@@@@@@@@@@@@@@@@@#",
"#@$@#++%++%*@@@@@@@@@@@+@@++@@@#",
"#$$+*%%*+.%.%.%.++..%....%++%@@#",
"#$***#$%@%*+%%%%%%%.%.++@+.+%+@#",
"#$+*#@$%$+@++@@@%@@+@@+@+@%%.+@#",
"#$+#*@$+#@.%%$+@+@@.++%@+@%%+.@#",
"#$%##*#+.*+@.@+%+.++@@%+.@%@+.@#",
"#$*#*.*$*#+$#%@+$+@@+@+@+@%@.%+#",
"#$%#$+$#%+%@+%+%++$@#++@+@%+%+%#",
"#$%#$++***%+#$$$$*+++@@+++%...%#",
"#$%##%#$#%$$$$$$$$$$$$@$@$%%%%@#",
"#$%$$%$*+$$$$$$$$$$$$$$$@$%+%$@#",
"#$%$$#%*$$$$$$$$$$$$$$$$$$%+%@$#",
"#$%$*%$$$$$$$$$$$$$$$$$$$$%@$@$#",
"#$%$*$$$$$$$$$$$$$$$$$$$$$**$$@#",
"#$%$$$$$$$$$$$$$$$$$$$$$$$##$$$#",
"#$$$$$$$$$$$$$$$$$$$$$$$$$$$$$$#",
"#$$$$$$$$$$$$$$$$$$$$$$$$$$$$$$#",
"#%&&&&&&&&&&&&&&&&&&&&&&&&&&&&&#",
"#%%%%%%%%%%%%%%%%%%%%%%%%%%%%%%#",
"#######################*%*######",
"########%...*##########*.*######",
"#######..##**#%.%##%..**.*######",
"######*.*####%%*.+%%#.**.#######",
"######%.*#..%.##.%.#%.#%%#######",
"######*.%#.%%.*..%.%..#.%#######",
"#######*.%%*#%.+#*.+%.#.+#######",
"################################"};
