/* XPM */
static char * context_xpm[] = {
"32 32 145 2",
"  	c None",
". 	c #BCBCBC s backgroundToolBarColor",
"+ 	c #B09696",
"@ 	c #AA8282",
"# 	c #994747",
"$ 	c #870D0D",
"% 	c #994848",
"& 	c #8D2121",
"* 	c #B2B2B2",
"= 	c #878787",
"- 	c #8A8A8A",
"; 	c #9F9F9F",
"> 	c #7C7C7C",
", 	c #3C3C3C",
"' 	c #010101",
") 	c #050505",
"! 	c #4A4A4A",
"~ 	c #999999",
"{ 	c #515151",
"] 	c #202020",
"^ 	c #000000",
"/ 	c #870F0F",
"( 	c #707070",
"_ 	c #232323",
": 	c #545454",
"< 	c #D5D5D5",
"[ 	c #E8E8E8",
"} 	c #E2E2E2",
"| 	c #CBCBCB",
"1 	c #373737",
"2 	c #1A1A1A",
"3 	c #8E8E8E",
"4 	c #3E3E3E",
"5 	c #343434",
"6 	c #8F8F8F",
"7 	c #D9D9D9",
"8 	c #ECECEC",
"9 	c #AEAEAE",
"0 	c #994949",
"a 	c #891313",
"b 	c #0C0C0C",
"c 	c #7B7B7B",
"d 	c #F0F0F0",
"e 	c #FEFEFE",
"f 	c #444444",
"g 	c #D3D3D3",
"h 	c #F8F8F8",
"i 	c #FFFFFF",
"j 	c #828282",
"k 	c #994A4A",
"l 	c #8A1818",
"m 	c #B0B0B0",
"n 	c #4B4B4B",
"o 	c #323232",
"p 	c #E3E3E3",
"q 	c #FDFDFD",
"r 	c #7A7A7A",
"s 	c #0E0E0E",
"t 	c #9A4C4C",
"u 	c #8B1C1C",
"v 	c #303030",
"w 	c #F7F7F7",
"x 	c #F3F3F3",
"y 	c #959595",
"z 	c #9B4E4E",
"A 	c #3F3F3F",
"B 	c #8C1E1E",
"C 	c #7F7F7F",
"D 	c #FCFCFC",
"E 	c #BDBDBD",
"F 	c #868686",
"G 	c #F4F4F4",
"H 	c #F6F6F6",
"I 	c #949494",
"J 	c #AFAFAF",
"K 	c #FAFAFA",
"L 	c #994B4B",
"M 	c #393939",
"N 	c #F2F2F2",
"O 	c #E4E4E4",
"P 	c #171717",
"Q 	c #030303",
"R 	c #787878",
"S 	c #EBEBEB",
"T 	c #8D8D8D",
"U 	c #939393",
"V 	c #070707",
"W 	c #121212",
"X 	c #C7C7C7",
"Y 	c #8B1B1B",
"Z 	c #555555",
"` 	c #222222",
" .	c #B9B9B9",
"..	c #3A3A3A",
"+.	c #9B9B9B",
"@.	c #494949",
"#.	c #131313",
"$.	c #2D2D2D",
"%.	c #C5C5C5",
"&.	c #891414",
"*.	c #6E6E6E",
"=.	c #FBFBFB",
"-.	c #E1E1E1",
";.	c #C4C4C4",
">.	c #3D3D3D",
",.	c #0D0D0D",
"'.	c #BABABA",
").	c #E6E6E6",
"!.	c #CECECE",
"~.	c #B8B8B8",
"{.	c #080808",
"].	c #888888",
"^.	c #881010",
"/.	c #6D6D6D",
"(.	c #181818",
"_.	c #7D7D7D",
":.	c #757575",
"<.	c #383838",
"[.	c #808080",
"}.	c #525252",
"|.	c #464646",
"1.	c #818181",
"2.	c #919191",
"3.	c #797979",
"4.	c #4F4F4F",
"5.	c #0A0A0A",
"6.	c #141414",
"7.	c #7E7E7E",
"8.	c #616161",
"9.	c #2F2F2F",
"0.	c #090909",
"a.	c #454545",
"b.	c #870E0E",
"c.	c #A3A3A3",
"d.	c #777777",
"e.	c #A2A2A2",
"f.	c #B3B3B3",
"g.	c #AB8383",
"h.	c #AB8484",
"i.	c #933434",
"j.	c #A56E6E",
"k.	c #151515",
"l.	c #2A2A2A",
"m.	c #A7A7A7",
"n.	c #696969",
". + @ @ @ @ @ @ @ @ @ @ @ @ @ @ @ @ @ @ @ @ @ @ @ @ @ @ @ @ @ . ",
". # $ $ $ $ $ $ $ $ $ $ $ $ $ $ $ $ $ $ $ $ $ $ $ $ $ $ $ $ $ . ",
". # $ # # % % % % % % % # # # # % % % % # # # # # # # # # & $ . ",
". # $ . . . . . . . . . . . . . . . . . . . . . . . . . . # $ . ",
". # $ . . . . . . * = = = - . . . . . ; = = = ; . . . . . # $ . ",
". % $ . . . . . > , ' ' ' ) ! ~ . . { ] ^ ^ ^ ] { . . . . # $ . ",
". % / . . . . ( _ : < [ } | 1 2 3 4 5 6 7 8 7 6 5 4 9 . . # $ . ",
". 0 a . . . . b c d e e e e [ f ^ ^ g h i i i h g ' j . . # $ . ",
". k l . . m n o p e e e e e q < ^ r h i i i i e h r s . . # $ . ",
". t u . . 3 v , w e e e e e e x ^ y q i i i i e q y ' . . # $ . ",
". z u . . r v A e e e e e e e i ^ ; i i i i i e e ; ^ . . # $ . ",
". z B . . C v A e e e D E F G i ^ ; i i i H I J K ; ' . . # $ . ",
". L B . . C v M N e e O P Q R S ^ T q i i U V W X T ^ . . # $ . ",
". L Y . . C Z `  .D e S ..V ~ +.^ @.S i i * #.$.%.@., . . # $ . ",
". 0 &.. . c C W *.g =.q -.;.;.>.,.) '.).=.=.!.;.~.{.].. . # $ . ",
". 0 ^.. . 3 C /.(.(._.T ].:.' <.[.}.Q |.1.2.1.|.) 3.. . . # $ . ",
". % / . . J R C /.4.5.5.5.6.3 9 1.7.8.9.0.0.0.a.2.. . . . # $ . ",
". % b.. . . . r R C C > 3.c.. . . = d.[.[.[.3.. . . . . . # $ . ",
". # $ . . . . . e.2.2.y . . . . . . J 2.2.2.f.. . . . . . # $ . ",
". # $ . . . . . . . . . . . . . . . . . . . . . . . . . . # $ . ",
". # $ @ @ @ @ g.h.h.h.h.h.@ @ @ h.h.h.h.h.@ @ @ @ @ @ @ @ i.$ . ",
". # $ $ $ $ $ $ $ $ $ $ $ $ $ $ $ $ $ $ $ $ $ $ $ $ $ $ $ $ $ . ",
". j.# # # # # # # # # # # # # # # # # # # # # # # # # # # # # . ",
". . . . . . . . . . . . . . . . . . . . . . . . . . . . . . . . ",
". . : k.A l._.. . . . . . . . . . m._.. . . . . . . . . . . _.m.",
". A l.. . m.m.m.: A U U A U n.: . l.k.n.. U A n.. : _.n.n.n.^ A ",
"m.^ U . . . m.k.m.n.^ . ^ : : ^ . A : . _.A _.k.. n.l.l._._.k.. ",
"_.^ . . . . : A . _.k.m.^ _.n.A . l._.. k.l.A U . m.^ n.. n.A . ",
"m.^ _.. . m.A l.m.k._._.l.. A : . ^ _.. ^ n.. n.U A n.n.. A A . ",
". U A A n.m.m.A A U . _.n.. : A . : A . _.A : U n.n.. A U _.A U ",
". . . . . . . . . . . . . . . . . . . . . . . . . . . . . . . . ",
". . . . . . . . . . . . . . . . . . . . . . . . . . . . . . . . "};
