/* XPM */
static char * down_xpm[] = {
"32 32 398 2",
"  	c None",
". 	c #555555",
"+ 	c #B4B4B4",
"@ 	c #B3B3B3",
"# 	c #B2B2B2",
"$ 	c #AEAEAE",
"% 	c #A4A4A4",
"& 	c #A9A9A9",
"* 	c #ABABAB",
"= 	c #B5B5B5",
"- 	c #B9B9B9",
"; 	c #B6B6B6",
"> 	c #ADADAD",
", 	c #A7A7A7",
"' 	c #B1B1B1",
") 	c #CEC7C0",
"! 	c #57625A",
"~ 	c #4F4F4F",
"{ 	c #9B939C",
"] 	c #605659",
"^ 	c #3A383A",
"/ 	c #444042",
"( 	c #52544F",
"_ 	c #7F7F7F",
": 	c #AAAAAA",
"< 	c #A7A5AB",
"[ 	c #6F726B",
"} 	c #3B383A",
"| 	c #4E4F4F",
"1 	c #919292",
"2 	c #BAB5BA",
"3 	c #4D444D",
"4 	c #484848",
"5 	c #BBBBBB",
"6 	c #A69D9D",
"7 	c #56182C",
"8 	c #320B20",
"9 	c #2B081A",
"0 	c #18080E",
"a 	c #181617",
"b 	c #525150",
"c 	c #807E80",
"d 	c #A8A8A8",
"e 	c #908F8F",
"f 	c #6B6C6E",
"g 	c #6E6D6A",
"h 	c #686763",
"i 	c #74736F",
"j 	c #636161",
"k 	c #5D5B5F",
"l 	c #412428",
"m 	c #34071B",
"n 	c #0E0609",
"o 	c #444743",
"p 	c #C0C0C0",
"q 	c #3D3B46",
"r 	c #454545",
"s 	c #BCBCBC",
"t 	c #BE9CBA",
"u 	c #6D1549",
"v 	c #600D32",
"w 	c #5A0C2E",
"x 	c #490A26",
"y 	c #2B0816",
"z 	c #15060D",
"A 	c #161113",
"B 	c #3F3836",
"C 	c #393036",
"D 	c #41393B",
"E 	c #422734",
"F 	c #290C20",
"G 	c #240D17",
"H 	c #221112",
"I 	c #2D1417",
"J 	c #2A1518",
"K 	c #491C2C",
"L 	c #5B1031",
"M 	c #5C0D2F",
"N 	c #2C0717",
"O 	c #252424",
"P 	c #C4C7D1",
"Q 	c #33415A",
"R 	c #464646",
"S 	c #DBDAD2",
"T 	c #A66278",
"U 	c #751541",
"V 	c #620E33",
"W 	c #5F0D31",
"X 	c #5E0D30",
"Y 	c #520B2B",
"Z 	c #39071E",
"` 	c #370A1B",
" .	c #35091D",
"..	c #410B20",
"+.	c #4F0D30",
"@.	c #5B0F31",
"#.	c #550C2C",
"$.	c #530C2B",
"%.	c #590C2E",
"&.	c #5C0D30",
"*.	c #401124",
"=.	c #3F433C",
"-.	c #C2CCC2",
";.	c #3F5C50",
">.	c #C2C2BD",
",.	c #DAE5C6",
"'.	c #944288",
").	c #6C153C",
"!.	c #600E32",
"~.	c #600E31",
"{.	c #5E0D31",
"].	c #5F0E31",
"^.	c #571433",
"/.	c #583D40",
"(.	c #949190",
"_.	c #B0B0B0",
":.	c #B6BBBB",
"<.	c #344D53",
"[.	c #515151",
"}.	c #CECECA",
"|.	c #C7A1D2",
"1.	c #8B1158",
"2.	c #650E34",
"3.	c #551437",
"4.	c #56314D",
"5.	c #858186",
"6.	c #B0B0AF",
"7.	c #BDC5C5",
"8.	c #485552",
"9.	c #585858",
"0.	c #B8B8B8",
"a.	c #DDC4E1",
"b.	c #AF6498",
"c.	c #6D1139",
"d.	c #5D0F36",
"e.	c #481F3B",
"f.	c #817C79",
"g.	c #BCCAD0",
"h.	c #406360",
"i.	c #4D4D4D",
"j.	c #D4CFCA",
"k.	c #B370A0",
"l.	c #781C45",
"m.	c #5C0E31",
"n.	c #541F52",
"o.	c #6E6672",
"p.	c #9FA3A3",
"q.	c #CABFC5",
"r.	c #634E4F",
"s.	c #414141",
"t.	c #C0C0BD",
"u.	c #E6B2D4",
"v.	c #843950",
"w.	c #640E34",
"x.	c #5D0D30",
"y.	c #531B2A",
"z.	c #5D494F",
"A.	c #A7A5A5",
"B.	c #B8CBC3",
"C.	c #30494F",
"D.	c #424242",
"E.	c #CAAEB7",
"F.	c #7D2547",
"G.	c #591030",
"H.	c #3D1D29",
"I.	c #7F797F",
"J.	c #BEC5C0",
"K.	c #584B5B",
"L.	c #474747",
"M.	c #E3CCD1",
"N.	c #905346",
"O.	c #6E1338",
"P.	c #470926",
"Q.	c #47423B",
"R.	c #A5A1A5",
"S.	c #ADB7C1",
"T.	c #304D55",
"U.	c #D6CCD6",
"V.	c #BF7A9E",
"W.	c #711A3C",
"X.	c #3A1327",
"Y.	c #655F5F",
"Z.	c #C8BCC3",
"`.	c #48363E",
" +	c #BFBFBF",
".+	c #C6A0A6",
"++	c #7C1056",
"@+	c #590C32",
"#+	c #3A2931",
"$+	c #95978F",
"%+	c #C3C3D8",
"&+	c #5A4660",
"*+	c #E0C7D7",
"=+	c #9F4C82",
"-+	c #670F35",
";+	c #3A1627",
">+	c #676262",
",+	c #ABA9A9",
"'+	c #C6CBC1",
")+	c #584B4A",
"!+	c #575757",
"~+	c #CBCFCF",
"{+	c #AD67A0",
"]+	c #70193A",
"^+	c #610E32",
"/+	c #580C2D",
"(+	c #2C0B1D",
"_+	c #666568",
":+	c #AFAFAF",
"<+	c #C4BEBE",
"[+	c #486471",
"}+	c #C8C2C8",
"|+	c #D2BCE2",
"1+	c #813B52",
"2+	c #690E36",
"3+	c #4F0B2D",
"4+	c #412431",
"5+	c #999495",
"6+	c #BDC3C3",
"7+	c #5C5E64",
"8+	c #BABABA",
"9+	c #D3D0D4",
"0+	c #B26276",
"a+	c #701637",
"b+	c #430C24",
"c+	c #2E2528",
"d+	c #A1A1A1",
"e+	c #B3BAB8",
"f+	c #303C54",
"g+	c #CECCCD",
"h+	c #C5829A",
"i+	c #821B4C",
"j+	c #3F0B22",
"k+	c #1B141A",
"l+	c #868686",
"m+	c #C5D1C5",
"n+	c #4C643E",
"o+	c #A8A7A9",
"p+	c #949494",
"q+	c #8A8989",
"r+	c #8C8A8B",
"s+	c #B0B2A1",
"t+	c #963E65",
"u+	c #630E33",
"v+	c #490D26",
"w+	c #160B0F",
"x+	c #575957",
"y+	c #A2A0A1",
"z+	c #949492",
"A+	c #9A999A",
"B+	c #9C9B9C",
"C+	c #B5C1B5",
"D+	c #574A50",
"E+	c #4C4C4C",
"F+	c #928690",
"G+	c #483440",
"H+	c #23131E",
"I+	c #261420",
"J+	c #3F443D",
"K+	c #823B50",
"L+	c #280815",
"M+	c #212521",
"N+	c #919392",
"O+	c #7F8177",
"P+	c #342D27",
"Q+	c #282324",
"R+	c #4E4B4B",
"S+	c #A5A5A5",
"T+	c #C1B7C1",
"U+	c #4B4D5B",
"V+	c #525252",
"W+	c #C1C1C1",
"X+	c #B88391",
"Y+	c #66103F",
"Z+	c #4E0B2A",
"`+	c #520C2B",
" @	c #360E20",
".@	c #57122F",
"+@	c #450A24",
"@@	c #1A1215",
"#@	c #726F6C",
"$@	c #654D4A",
"%@	c #480E27",
"&@	c #2F0719",
"*@	c #171415",
"=@	c #7A7A7A",
"-@	c #BCBABC",
";@	c #494A39",
">@	c #4E4E4E",
",@	c #CB9DAB",
"'@	c #791152",
")@	c #690F36",
"!@	c #540C2C",
"~@	c #16080F",
"{@	c #5C5253",
"]@	c #650D39",
"^@	c #5F0D30",
"/@	c #520B2A",
"(@	c #1D0D19",
"_@	c #726F71",
":@	c #C6C6D3",
"<@	c #3D5044",
"[@	c #DDD4D8",
"}@	c #D6ADB0",
"|@	c #B16263",
"1@	c #A0334D",
"2@	c #6C0F37",
"3@	c #480C24",
"4@	c #4B122B",
"5@	c #5F0D34",
"6@	c #600D31",
"7@	c #550C2B",
"8@	c #342730",
"9@	c #888688",
"0@	c #CBC5C5",
"a@	c #545656",
"b@	c #444444",
"c@	c #C0BEC0",
"d@	c #D0C3C8",
"e@	c #D6D0C2",
"f@	c #D5BBAA",
"g@	c #983B48",
"h@	c #72143A",
"i@	c #620E32",
"j@	c #4A1024",
"k@	c #574053",
"l@	c #A09BA0",
"m@	c #CBC5B8",
"n@	c #704435",
"o@	c #404040",
"p@	c #D8CDDA",
"q@	c #C2A1DB",
"r@	c #903262",
"s@	c #660E35",
"t@	c #5E132F",
"u@	c #491B32",
"v@	c #85847E",
"w@	c #B5BCB5",
"x@	c #514851",
"y@	c #BEBEBE",
"z@	c #DFD9DC",
"A@	c #B8788F",
"B@	c #731B3B",
"C@	c #56112C",
"D@	c #6B3D53",
"E@	c #897681",
"F@	c #BFC1B0",
"G@	c #484735",
"H@	c #C6C6C6",
"I@	c #BFB3A7",
"J@	c #7E2F3C",
"K@	c #611430",
"L@	c #5C2B3F",
"M@	c #848686",
"N@	c #AFAFAC",
"O@	c #BEBDB4",
"P@	c #593C41",
"Q@	c #CEBAD3",
"R@	c #992F6C",
"S@	c #6D1239",
"T@	c #5D0D32",
"U@	c #5D2944",
"V@	c #706150",
"W@	c #8D8780",
"X@	c #ACAAAB",
"Y@	c #BABDBE",
"Z@	c #353C37",
"`@	c #4B4B4B",
" #	c #D1CED3",
".#	c #CEACCC",
"+#	c #8C436D",
"@#	c #6B0F37",
"##	c #5F1032",
"$#	c #53223C",
"%#	c #818174",
"&#	c #ADB6AD",
"*#	c #B3AFB0",
"=#	c #C2CDD7",
"-#	c #34605E",
";#	c #D7CDD8",
">#	c #E0C1B6",
",#	c #952557",
"'#	c #711B47",
")#	c #69154A",
"!#	c #6C3659",
"~#	c #747569",
"{#	c #A3A7A1",
"]#	c #C3B8BE",
"^#	c #5C3E59",
"/#	c #535353",
"(#	c #DBD1D4",
"_#	c #DFB8C4",
":#	c #B6A395",
"<#	c #9D889F",
"[#	c #A89CAA",
"}#	c #AFA9B1",
"|#	c #C3C3CB",
"1#	c #525048",
". + @ # $ % & * @ + + + + = - ; @ @ + @ # > , ' @ + + + + + ) ! ",
"~ + + { ] ^ / ( _ : ' @ + @ @ # # ' # ' < [ } | 1 # + + + + 2 3 ",
"4 + 5 6 7 8 9 0 a b c * % d e f g h i j k l m n o @ + + + + p q ",
"r + s t u v w x y z A B C D E F G H I J K L M N O $ + + + + P Q ",
"R + - S T U V W X Y Z `  ...+.@.#.$.%.%.&.W W *.=.* + + + + -.;.",
"r + + >.,.'.).!.~.W W {.{.W W W !.!.!.!.~.].^./.(._.+ + + + :.<.",
"[.+ + + }.|.1.2.!.!.!.!.!.!.!.!.!.!.!.!.W 3.4.5.6.@ + + + + 7.8.",
"9.+ + + 0.a.b.c.!.!.!.!.!.!.!.!.!.!.!.].d.e.f._.@ + + + + + g.h.",
"i.+ + + = j.k.l.V !.!.!.!.!.!.!.!.!.W m.n.o.p.@ + + + + + + q.r.",
"s.+ + + + t.u.v.w.!.!.!.!.!.!.!.!.~.x.y.z.A.@ @ + + + + + + B.C.",
"D.+ + + + 5 E.F.w.!.!.!.!.!.!.!.!.W G.H.I._.+ + + + + + + + J.K.",
"L.+ + + + 5 M.N.O.!.!.!.!.!.!.!.!.W P.Q.R.@ + + + + + + + + S.T.",
"r + + + + = U.V.W.!.!.!.!.!.!.!.~.x.X.Y.$ @ + + + + + + + + Z.`.",
"i.+ + + + +  +.+++!.!.!.!.!.!.!.W @+#+$+@ + + + + + + + + + %+&+",
"r + + + + + 0.*+=+-+!.!.!.!.!.!.M ;+>+,+@ + + + + + + + + + '+)+",
"!++ + + + + = ~+{+]+^+!.!.!.!.!./+(+_+:++ + + + + + + + + + <+[+",
"R + + + + + + }+|+1+2+!.!.!.!.!.3+4+5+@ + + + + + + + + + + 6+7+",
"R + + + + + + 8+9+0+a+!.!.!.!.!.b+c+d+@ + + + + + + + + + + e+f+",
"R + + + + + + = g+h+i+^+!.!.!.!.j+k+l+@ + + + + + + + + + + m+n+",
"D.+ + + @ o+p+q+r+s+t+u+!.!.!.!.v+w+x+* y+z+A+B+' + + + + + C+D+",
"E++ + + 0.F+G+H+I+J+K+w.!.!.!.!.w L+M+N+O+P+Q+R+S++ + + + + T+U+",
"V++ + + W+X+Y+Z+`+ @.@~.!.!.!.!.{.+@@@#@$@%@&@*@=@+ + + + + -@;@",
">@+ + + s ,@'@)@2.X W ~.!.!.!.!.!.!@~@{@]@^@/@(@_@+ + + + + :@<@",
"R + + + s [@}@|@1@2@V !.!.!.!.!.!.x.3@4@5@6@7@8@9@+ + + + + 0@a@",
"b@+ + + = c@d@e@f@g@h@i@!.!.!.!.!.W x.{.W ^@j@k@l@+ + + + + m@n@",
"o@+ + + + + + 8+p@q@r@s@!.!.!.!.!.!.!.~.W t@u@v@@ + + + + + w@x@",
"D.+ + + + + + + y@z@A@B@^+!.!.!.!.!.~.].C@D@E@& @ + + + + + F@G@",
"D.+ + + + + + + + H@I@J@V !.!.!.!.~.~.K@L@M@N@@ + + + + + + O@P@",
"R + + + + + + + + s Q@R@S@V !.!.~.T@U@V@W@X@@ @ + + + + + + Y@Z@",
"`@+ + + + + + + + -  #.#+#@#~.~.##$#%#&#*#@ + + + + + + + + =#-#",
"V++ + + + + + + + + 5 ;#>#,#'#)#!#~#{#@ + @ + + + + + + + + ]#^#",
"/#+ + + + + + + + + + - (#_#:#<#[#}## @ + + + + + + + + + + |#1#"};
