/* XPM */
static char * epg_info_xpm[] = {
"24 23 33 1",
" 	c None",
".	c #D0D0D6",
"+	c #A0A0BA",
"@	c #A4A4BC",
"#	c #4040AA",
"$	c #2020B1",
"%	c #0101BD",
"&	c #E0E0E3",
"*	c #8080AF",
"=	c #5050D2",
"-	c #8080DE",
";	c #7070DA",
">	c #0000BE",
",	c #2C2CAE",
"'	c #9F9FE6",
")	c #FEFEFE",
"!	c #DFDFF6",
"~	c #0101BE",
"{	c #1818C4",
"]	c #BFBFEE",
"^	c #A7A7E8",
"/	c #2020C6",
"(	c #0404BF",
"_	c #ABABE9",
":	c #0000BD",
"<	c #0C0CC1",
"[	c #6060D6",
"}	c #C3C3EF",
"|	c #EBEBF9",
"1	c #5F5FD6",
"2	c #4747D0",
"3	c #1010C2",
"4	c #7F7FDE",
"                        ",
"         .++++.         ",
"       @#$%%%%$#@       ",
"     &*%%%%=-;>>>*&     ",
"    &,%%%%%')!>>>>,&    ",
"    *>%%%%%')!>>>>>*    ",
"   @%>%%%%%%%%>>>>>>@   ",
"   #~>%%{]]]]^>>>>>>#   ",
"  .$%>%%/))))!>>>>>>$.  ",
"  +~~>%%(//_)!>>>>>>>+  ",
"  +>%>%%%%%')!>>>>>>>+  ",
"  +%%>%%%%%')!>>>>>>>+  ",
"  +%:>%%%%%')!>>>>>>>+  ",
"  .$%>%%%%%')!>>>>>>$.  ",
"   #%>%%%%%')!>>>>>>#   ",
"   @~>%%%%%')!>>>>>>@   ",
"    *>%%<[[})|12>>>*    ",
"    &,%%/))))) ]>>,&    ",
"     &*%3-----41>*&     ",
"       @#$%%%%$#@       ",
"         .++++.         ",
"                        ",
"                        "};
