/* XPM */
static char * epg_abort_xpm[] = {
"24 24 34 1",
" 	c #FFFFFF",
".	c #E5CACA",
"+	c #D7AEAE",
"@	c #AF5E5E",
"#	c #870D0D",
"$	c #952929",
"%	c #E1C2C2",
"&	c #860C0C",
"*	c #FEFDFD",
"=	c #CA9494",
"-	c #C28585",
";	c #FEFCFC",
">	c #FFFEFE",
",	c #FDFBFB",
"'	c #AF5F5F",
")	c #FCF9F9",
"!	c #B16161",
"~	c #870E0E",
"{	c #B26464",
"]	c #880F0F",
"^	c #9C3939",
"/	c #B56969",
"(	c #8B1515",
"_	c #B76F6F",
":	c #8D1919",
"<	c #D7AFAF",
"[	c #A24343",
"}	c #BA7474",
"|	c #901F1F",
"1	c #8A1414",
"2	c #D3A6A6",
"3	c #B76D6D",
"4	c #B26363",
"5	c #B06060",
"                        ",
" .+++++++++++++++++++++ ",
" @##################### ",
" @#@@@@@@@@@@@@@@@@@@$# ",
" @#                  @# ",
" @#  ##          %&  @# ",
" @#  ##        *=&&  @# ",
" @#  ##       *-&&   @# ",
" @#  ##      ;-&&    @# ",
" @#  ##   *> =&&     @# ",
" @#  &#   > %&&      @# ",
" @#  ######&&&#####  @# ",
" @#  #####&&#######  @# ",
" @#  ## *%&& > >*    @# ",
" @#  ##,%&& ;>>>>    @# ",
" @#  #&=&&  >        @# ",
" @#  #&&&>>>         @# ",
" '#  ##&)>>>>        @# ",
" !~ =&&> >  >        @# ",
" {] ^&               @# ",
" /(                  @# ",
" _:<+++++++++++++++++[# ",
" }|1################### ",
" 2345@@@@@@@@@@@@@@@@@@ "};
