/* XPM */
static char * epg_state_xpm[] = {
"24 24 150 2",
"  	c #FFFFFF",
". 	c #E5CACA",
"+ 	c #D7AEAE",
"@ 	c #AF5E5E",
"# 	c #870D0D",
"$ 	c #952929",
"% 	c #D7D7D7",
"& 	c #B7B7B7",
"* 	c #BBBBBB",
"= 	c #F2F2F2",
"- 	c #6E6E6E",
"; 	c #2C2C2C",
"> 	c #000000",
", 	c #CFCFCF",
"' 	c #656565",
") 	c #070707",
"! 	c #010101",
"~ 	c #525252",
"{ 	c #A8A8A8",
"] 	c #870F0F",
"^ 	c #545454",
"/ 	c #353535",
"( 	c #8F8F8F",
"_ 	c #D9D9D9",
": 	c #ECECEC",
"< 	c #C0C0C0",
"[ 	c #1D1D1D",
"} 	c #373737",
"| 	c #CBCBCB",
"1 	c #E2E2E2",
"2 	c #E8E8E8",
"3 	c #D5D5D5",
"4 	c #555555",
"5 	c #252525",
"6 	c #989898",
"7 	c #AF5F5F",
"8 	c #891313",
"9 	c #D3D3D3",
"0 	c #F8F8F8",
"a 	c #444444",
"b 	c #FEFEFE",
"c 	c #F0F0F0",
"d 	c #7C7C7C",
"e 	c #101010",
"f 	c #B06060",
"g 	c #8A1818",
"h 	c #7B7B7B",
"i 	c #7A7A7A",
"j 	c #FDFDFD",
"k 	c #E3E3E3",
"l 	c #333333",
"m 	c #636363",
"n 	c #AA5858",
"o 	c #B06262",
"p 	c #8B1C1C",
"q 	c #959595",
"r 	c #F3F3F3",
"s 	c #F7F7F7",
"t 	c #3C3C3C",
"u 	c #303030",
"v 	c #994747",
"w 	c #B16464",
"x 	c #9F9F9F",
"y 	c #404040",
"z 	c #853434",
"A 	c #8C1E1E",
"B 	c #FAFAFA",
"C 	c #AFAFAF",
"D 	c #949494",
"E 	c #F6F6F6",
"F 	c #F4F4F4",
"G 	c #868686",
"H 	c #BDBDBD",
"I 	c #FCFCFC",
"J 	c #853333",
"K 	c #8D8D8D",
"L 	c #C7C7C7",
"M 	c #121212",
"N 	c #939393",
"O 	c #EBEBEB",
"P 	c #797979",
"Q 	c #030303",
"R 	c #171717",
"S 	c #E4E4E4",
"T 	c #393939",
"U 	c #B06161",
"V 	c #8B1B1B",
"W 	c #4A4A4A",
"X 	c #C5C5C5",
"Y 	c #2D2D2D",
"Z 	c #131313",
"` 	c #B2B2B2",
" .	c #494949",
"..	c #9B9B9B",
"+.	c #999999",
"@.	c #3A3A3A",
"#.	c #B9B9B9",
"$.	c #222222",
"%.	c #565656",
"&.	c #AF6060",
"*.	c #891414",
"=.	c #0B0B0B",
"-.	c #B8B8B8",
";.	c #C4C4C4",
">.	c #CECECE",
",.	c #FBFBFB",
"'.	c #E6E6E6",
").	c #BABABA",
"!.	c #050505",
"~.	c #0D0D0D",
"{.	c #3D3D3D",
"].	c #E1E1E1",
"^.	c #6F6F6F",
"/.	c #808080",
"(.	c #881010",
"_.	c #A4A4A4",
":.	c #474747",
"<.	c #818181",
"[.	c #919191",
"}.	c #464646",
"|.	c #4C4C4C",
"1.	c #767676",
"2.	c #888888",
"3.	c #7E7E7E",
"4.	c #181818",
"5.	c #5E5E5E",
"6.	c #0A0A0A",
"7.	c #090909",
"8.	c #2F2F2F",
"9.	c #616161",
"0.	c #A5A5A5",
"a.	c #1B1B1B",
"b.	c #505050",
"c.	c #8E8E8E",
"d.	c #A95858",
"e.	c #870E0E",
"f.	c #8B8B8B",
"g.	c #B1B1B1",
"h.	c #DCDCDC",
"i.	c #848484",
"j.	c #979797",
"k.	c #C1C1C1",
"l.	c #EEEEEE",
"m.	c #C8C8C8",
"n.	c #DADADA",
"o.	c #D8B1B1",
"p.	c #D7B0B0",
"q.	c #D7AFAF",
"r.	c #A24343",
"s.	c #CA9494",
"                                                ",
". + + + + + + + + + + + + + + + + + + + + + + + ",
"@ # # # # # # # # # # # # # # # # # # # # # # # ",
"@ # @ @ @ @ @ @ @ @ @ @ @ @ @ @ @ @ @ @ @ @ $ # ",
"@ #                                         @ # ",
"@ #     % & & & %           * & & & =       @ # ",
"@ #   - ; > > > ; -     , ' ) ! ! ! ~ {     @ # ",
"@ ] ^ / ( _ : _ ( / ^ < [ } | 1 2 3 4 5 6   @ # ",
"7 8 ! 9 0       0 9 > > a 2 b b b b c d e   @ # ",
"f g h 0 b         0 i > 3 j b b b b b k l m n # ",
"o p q j b         j q > r b b b b b b s t u v # ",
"w p x b b           x >   b b b b b b b y u z # ",
"w A x B C D E       x >   F G H I b b b y u J # ",
"o A K L M ) N     j K > O P Q R S b b = T u J # ",
"U V W X Y Z `     O  .> ..+.) @.O b I #.$.%.J # ",
"&.*.=.-.;.>.,.,.'.).!.~.{.;.;.].j ,.9 ^.M /.J # ",
"7 (._.) :.<.[.<.}.Q ~ /.|.! 1.2.K 3.4.4.- /.v # ",
"@ ]   ;.5.6.7.7.8.9./.0.: < a.6.6.6.b.- /.c.d.# ",
"@ e.      D /././.f.g.      h.D /././.i.j.  @ # ",
"@ #       = k.k.k.l.            m.k.k.n.    @ # ",
"@ #                                         @ # ",
"@ # o.p.p.p.q.q.+ o.o.p.p.p.q.q.+ + + + + + r.# ",
"@ # # # # # # # # # # # # # # # # # # # # # # # ",
"s.@ @ @ @ @ @ @ @ @ @ @ @ @ @ @ @ @ @ @ @ @ @ @ "};
