/* XPM */
static char * epg_interrupt_xpm[] = {
"24 24 56 1",
" 	c #FFFFFF",
".	c #E5CACA",
"+	c #D7AEAE",
"@	c #AF5E5E",
"#	c #870D0D",
"$	c #952929",
"%	c #FFEBEB",
"&	c #FF7B7B",
"*	c #FF6A6A",
"=	c #FF2727",
"-	c #FFD7D7",
";	c #FF4E4E",
">	c #FF0505",
",	c #FF0000",
"'	c #FF2929",
")	c #FFD2D2",
"!	c #FF4141",
"~	c #FF4A4A",
"{	c #FFDBDB",
"]	c #FF4242",
"^	c #FF0A0A",
"/	c #FF4C4C",
"(	c #FFE6E6",
"_	c #FF3A3A",
":	c #FF2828",
"<	c #FF0707",
"[	c #FF1717",
"}	c #FF0808",
"|	c #FF7272",
"1	c #FF2424",
"2	c #FF1212",
"3	c #FFA4A4",
"4	c #FF1A1A",
"5	c #FF5D5D",
"6	c #FF5151",
"7	c #FFA9A9",
"8	c #FF6F6F",
"9	c #FFDCDC",
"0	c #FFE1E1",
"a	c #FF2121",
"b	c #FFC3C3",
"c	c #FFCDCD",
"d	c #FF2E2E",
"e	c #FF2323",
"f	c #FFB4B4",
"g	c #FF9B9B",
"h	c #FFB0B0",
"i	c #FFA0A0",
"j	c #FF2B2B",
"k	c #FF1616",
"l	c #D74646",
"m	c #D73B3B",
"n	c #D74040",
"o	c #D78686",
"p	c #A24343",
"q	c #CA9494",
" .+++++++++++++++++++++ ",
" @##################### ",
" @#@@@@@@@@@@@@@@@@@@$# ",
" @#    %&******=%    @# ",
" @#   -;>,,,,,,';-   @# ",
" @#  )!,,,,,,,,,,~{  @# ",
" @# -],,,,,,,,,,,^/- @# ",
" @#(_,,,,,,,,,,,,,,_(@# ",
" @#:,,,,,,,,,,,,,,,,{@# ",
" @#,<[[[[[[[[[[[[[[<^@# ",
" @#}|              |}@# ",
" @#1                1@# ",
" @#23              32@# ",
" @#,4555555555555554,@# ",
" @#6,,,,,,,,,,,,,,,,7@# ",
" @#8,,,,,,,,,,,,,,,}9@# ",
" @#0a,,,,,,,,,,,,,4b @# ",
" @# cd,,,,,,,,,,,ef  @# ",
" @#  g^,,,,,,,,,ah   @# ",
" @#  {ij,,,,,,,kf    @# ",
" @#++++lmnnnnnno+++++p# ",
" @##################### ",
" q@@@@@@@@@@@@@@@@@@@@@ ",
"                        "};
