/* XPM */
static char * epg_retract_xpm[] = {
"24 24 12 1",
" 	c None",
".	c #D7AEAE",
"+	c #870D0D",
"@	c #860C0C",
"#	c #BB7676",
"$	c #E4C9C9",
"%	c #9D3A3A",
"&	c #C28484",
"*	c #C18383",
"=	c #E8D1D1",
"-	c #8D1919",
";	c #DBB8B8",
"                        ",
"                        ",
"                        ",
"                        ",
"                        ",
"     .+++++++@+++++     ",
"     .+++++++++++++     ",
"           +++          ",
"          +++++         ",
"          +++++         ",
"         ++++++#        ",
"         +++++++        ",
"        ++++++++$       ",
"        ++++++++%       ",
"       &+++++++++       ",
"       ++++++++++*      ",
"      =++++++++++-      ",
"     =++++++++++++;     ",
"                        ",
"                        ",
"                        ",
"                        ",
"                        ",
"                        "};
