/* XPM */
static char * epg_goto_xpm[] = {
"24 24 60 1",
" 	c None",
".	c #E5CACA",
"+	c #D7AEAE",
"@	c #AF5E5E",
"#	c #870D0D",
"$	c #952929",
"%	c #B26363",
"&	c #FFFEFE",
"*	c #8F1D1D",
"=	c #8A1414",
"-	c #D2A4A4",
";	c #FDFBFB",
">	c #BB7575",
",	c #8B1616",
"'	c #C08181",
")	c #C58A8A",
"!	c #8C1616",
"~	c #C38686",
"{	c #F6EDED",
"]	c #FEFCFC",
"^	c #BE7B7B",
"/	c #8D1818",
"(	c #B87070",
"_	c #FEFDFD",
":	c #E6CCCC",
"<	c #E8D0D0",
"[	c #FCF8F8",
"}	c #D0A0A0",
"|	c #8D1919",
"1	c #880E0E",
"2	c #870E0E",
"3	c #B06060",
"4	c #EFDFDF",
"5	c #9D3A3A",
"6	c #9A3535",
"7	c #ECD8D8",
"8	c #CE9D9D",
"9	c #870F0F",
"0	c #BC7878",
"a	c #BA7474",
"b	c #D3A6A6",
"c	c #F4E9E9",
"d	c #E5CBCB",
"e	c #8B1515",
"f	c #880F0F",
"g	c #E9D2D2",
"h	c #F1E2E2",
"i	c #F5EAEA",
"j	c #DEBCBC",
"k	c #8A1313",
"l	c #D7ADAD",
"m	c #EFDEDE",
"n	c #D5ABAB",
"o	c #EDDADA",
"p	c #D9B3B3",
"q	c #B16262",
"r	c #E0C1C1",
"s	c #DBB8B8",
"t	c #A24343",
"u	c #CA9494",
" .+++++++++++++++++++++ ",
" @##################### ",
" @#@@@@@@@@@@@@@@@@@@$# ",
" @#                  @# ",
" @#                  @# ",
" @# %&&           &* @# ",
" @# =-;           >= @# ",
" @# ,#'&         )#, @# ",
" @# !##~{      ]^##! @# ",
" @# /###(_ :< [}###/ @# ",
" @# |##1234567821##| @# ",
" @# /####| 99 0####/ @# ",
" @# !####< abcd####! @# ",
" @# e##fg  hi  j,##e @# ",
" @# k#fl;       m##k @# ",
" @# f#n_         o#f @# ",
" @# ,p            q# @# ",
" @# r              s @# ",
" @#                  @# ",
" @#                  @# ",
" @#++++++++++++++++++t# ",
" @##################### ",
" u@@@@@@@@@@@@@@@@@@@@@ ",
"                        "};
