/* XPM */
static char * epg_next_xpm[] = {
"24 24 14 1",
" 	c None",
".	c #D7AEAE",
"+	c #E5CACA",
"@	c #870D0D",
"#	c #AF5E5E",
"$	c #952929",
"%	c #9D3A3A",
"&	c #BB7676",
"*	c #E4C9C9",
"=	c #8D1919",
"-	c #C18383",
";	c #DBB8B8",
">	c #A24343",
",	c #CA9494",
" .....................+ ",
" @@@@@@@@@@@@@@@@@@@@@# ",
" @$##################@# ",
" @#                  @# ",
" @#                  @# ",
" @#   @              @# ",
" @#   @@@            @# ",
" @#   @@@@@@         @# ",
" @#   @@@@@@@@       @# ",
" @#   @@@@@@@@@@@    @# ",
" @#   @@@@@@@@@@@@@  @# ",
" @#   @@@@@@@@@@@@@  @# ",
" @#   @@@@@@@@@@@@%  @# ",
" @#   @@@@@@@@@@     @# ",
" @#   @@@@@@@&       @# ",
" @#   @@@@%*         @# ",
" @#   @=-            @# ",
" @#   ;              @# ",
" @#                  @# ",
" @#                  @# ",
" @>..................@# ",
" @@@@@@@@@@@@@@@@@@@@@# ",
" #####################, ",
"                        "};
