/* XPM */
static char * epg_state_xpm[] = {
"24 24 150 2",
"  	c #E5CACA",
". 	c #D7AEAE",
"+ 	c #AF5E5E",
"@ 	c #870D0D",
"# 	c #952929",
"$ 	c #FFFFFF",
"% 	c #D7D7D7",
"& 	c #B7B7B7",
"* 	c #BBBBBB",
"= 	c #F2F2F2",
"- 	c #870F0F",
"; 	c #6E6E6E",
"> 	c #2C2C2C",
", 	c #000000",
"' 	c #CFCFCF",
") 	c #656565",
"! 	c #070707",
"~ 	c #010101",
"{ 	c #525252",
"] 	c #A8A8A8",
"^ 	c #AF5F5F",
"/ 	c #891313",
"( 	c #545454",
"_ 	c #353535",
": 	c #8F8F8F",
"< 	c #D9D9D9",
"[ 	c #ECECEC",
"} 	c #C0C0C0",
"| 	c #1D1D1D",
"1 	c #373737",
"2 	c #CBCBCB",
"3 	c #E2E2E2",
"4 	c #E8E8E8",
"5 	c #D5D5D5",
"6 	c #555555",
"7 	c #252525",
"8 	c #989898",
"9 	c #B06060",
"0 	c #8A1818",
"a 	c #D3D3D3",
"b 	c #F8F8F8",
"c 	c #444444",
"d 	c #FEFEFE",
"e 	c #F0F0F0",
"f 	c #7C7C7C",
"g 	c #101010",
"h 	c #B06262",
"i 	c #8B1C1C",
"j 	c #7B7B7B",
"k 	c #7A7A7A",
"l 	c #FDFDFD",
"m 	c #E3E3E3",
"n 	c #333333",
"o 	c #636363",
"p 	c #AA5858",
"q 	c #B16464",
"r 	c #959595",
"s 	c #F3F3F3",
"t 	c #F7F7F7",
"u 	c #3C3C3C",
"v 	c #303030",
"w 	c #994747",
"x 	c #8C1E1E",
"y 	c #9F9F9F",
"z 	c #404040",
"A 	c #853434",
"B 	c #FAFAFA",
"C 	c #AFAFAF",
"D 	c #949494",
"E 	c #F6F6F6",
"F 	c #F4F4F4",
"G 	c #868686",
"H 	c #BDBDBD",
"I 	c #FCFCFC",
"J 	c #853333",
"K 	c #B06161",
"L 	c #8B1B1B",
"M 	c #8D8D8D",
"N 	c #C7C7C7",
"O 	c #121212",
"P 	c #939393",
"Q 	c #EBEBEB",
"R 	c #797979",
"S 	c #030303",
"T 	c #171717",
"U 	c #E4E4E4",
"V 	c #393939",
"W 	c #AF6060",
"X 	c #891414",
"Y 	c #4A4A4A",
"Z 	c #C5C5C5",
"` 	c #2D2D2D",
" .	c #131313",
"..	c #B2B2B2",
"+.	c #494949",
"@.	c #9B9B9B",
"#.	c #999999",
"$.	c #3A3A3A",
"%.	c #B9B9B9",
"&.	c #222222",
"*.	c #565656",
"=.	c #881010",
"-.	c #0B0B0B",
";.	c #B8B8B8",
">.	c #C4C4C4",
",.	c #CECECE",
"'.	c #FBFBFB",
").	c #E6E6E6",
"!.	c #BABABA",
"~.	c #050505",
"{.	c #0D0D0D",
"].	c #3D3D3D",
"^.	c #E1E1E1",
"/.	c #6F6F6F",
"(.	c #808080",
"_.	c #A4A4A4",
":.	c #474747",
"<.	c #818181",
"[.	c #919191",
"}.	c #464646",
"|.	c #4C4C4C",
"1.	c #767676",
"2.	c #888888",
"3.	c #7E7E7E",
"4.	c #181818",
"5.	c #870E0E",
"6.	c #5E5E5E",
"7.	c #0A0A0A",
"8.	c #090909",
"9.	c #2F2F2F",
"0.	c #616161",
"a.	c #A5A5A5",
"b.	c #1B1B1B",
"c.	c #505050",
"d.	c #8E8E8E",
"e.	c #A95858",
"f.	c #8B8B8B",
"g.	c #B1B1B1",
"h.	c #DCDCDC",
"i.	c #848484",
"j.	c #979797",
"k.	c #C1C1C1",
"l.	c #EEEEEE",
"m.	c #C8C8C8",
"n.	c #DADADA",
"o.	c #D8B1B1",
"p.	c #D7B0B0",
"q.	c #D7AFAF",
"r.	c #A24343",
"s.	c #CA9494",
"  . . . . . . . . . . . . . . . . . . . . . . . ",
"+ @ @ @ @ @ @ @ @ @ @ @ @ @ @ @ @ @ @ @ @ @ @ @ ",
"+ @ + + + + + + + + + + + + + + + + + + + + # @ ",
"+ @ $ $ $ $ $ $ $ $ $ $ $ $ $ $ $ $ $ $ $ $ + @ ",
"+ @ $ $ $ $ $ $ $ $ $ $ $ $ $ $ $ $ $ $ $ $ + @ ",
"+ @ $ $ % & & & % $ $ $ $ $ * & & & = $ $ $ + @ ",
"+ - $ ; > , , , > ; $ $ ' ) ! ~ ~ ~ { ] $ $ + @ ",
"^ / ( _ : < [ < : _ ( } | 1 2 3 4 5 6 7 8 $ + @ ",
"9 0 ~ a b $ $ $ b a , , c 4 d d d d e f g $ + @ ",
"h i j b d $ $ $ $ b k , 5 l d d d d d m n o p @ ",
"q i r l d $ $ $ $ l r , s d d d d d d t u v w @ ",
"q x y d d $ $ $ $ $ y , $ d d d d d d d z v A @ ",
"h x y B C D E $ $ $ y , $ F G H I d d d z v J @ ",
"K L M N O ! P $ $ l M , Q R S T U d d = V v J @ ",
"W X Y Z `  ...$ $ Q +., @.#.! $.Q d I %.&.*.J @ ",
"^ =.-.;.>.,.'.'.).!.~.{.].>.>.^.l '.a /.O (.J @ ",
"+ - _.! :.<.[.<.}.S { (.|.~ 1.2.M 3.4.4.; (.w @ ",
"+ 5.$ >.6.7.8.8.9.0.(.a.[ } b.7.7.7.c.; (.d.e.@ ",
"+ @ $ $ $ D (.(.(.f.g.$ $ $ h.D (.(.(.i.j.$ + @ ",
"+ @ $ $ $ = k.k.k.l.$ $ $ $ $ $ m.k.k.n.$ $ + @ ",
"+ @ o.p.p.p.q.q.. o.o.p.p.p.q.q.. . . . . . r.@ ",
"+ @ @ @ @ @ @ @ @ @ @ @ @ @ @ @ @ @ @ @ @ @ @ @ ",
"s.+ + + + + + + + + + + + + + + + + + + + + + + ",
"$ $ $ $ $ $ $ $ $ $ $ $ $ $ $ $ $ $ $ $ $ $ $ $ "};
