/* XPM */
static char * epg_goto_xpm[] = {
"24 24 54 1",
" 	c None",
".	c #B26363",
"+	c #FFFEFE",
"@	c #8F1D1D",
"#	c #8A1414",
"$	c #D2A4A4",
"%	c #FDFBFB",
"&	c #BB7575",
"*	c #8B1616",
"=	c #870D0D",
"-	c #C08181",
";	c #C58A8A",
">	c #8C1616",
",	c #C38686",
"'	c #F6EDED",
")	c #FEFCFC",
"!	c #BE7B7B",
"~	c #8D1818",
"{	c #B87070",
"]	c #FEFDFD",
"^	c #E6CCCC",
"/	c #E8D0D0",
"(	c #FCF8F8",
"_	c #D0A0A0",
":	c #8D1919",
"<	c #880E0E",
"[	c #870E0E",
"}	c #B06060",
"|	c #EFDFDF",
"1	c #9D3A3A",
"2	c #9A3535",
"3	c #ECD8D8",
"4	c #CE9D9D",
"5	c #870F0F",
"6	c #BC7878",
"7	c #BA7474",
"8	c #D3A6A6",
"9	c #F4E9E9",
"0	c #E5CBCB",
"a	c #8B1515",
"b	c #880F0F",
"c	c #E9D2D2",
"d	c #F1E2E2",
"e	c #F5EAEA",
"f	c #DEBCBC",
"g	c #8A1313",
"h	c #D7ADAD",
"i	c #EFDEDE",
"j	c #D5ABAB",
"k	c #EDDADA",
"l	c #D9B3B3",
"m	c #B16262",
"n	c #E0C1C1",
"o	c #DBB8B8",
"                        ",
"                        ",
"                        ",
"                        ",
"                        ",
"    .++           +@    ",
"    #$%           &#    ",
"    *=-+         ;=*    ",
"    >==,'      )!==>    ",
"    ~==={] ^/ (_===~    ",
"    :==<[}|1234[<==:    ",
"    ~====: 55 6====~    ",
"    >====/ 7890====>    ",
"    a==bc  de  f*==a    ",
"    g=bh%       i==g    ",
"    b=j]         k=b    ",
"    *l            m=    ",
"    n              o    ",
"                        ",
"                        ",
"                        ",
"                        ",
"                        ",
"                        "};
