/* XPM */
static char * epg_context_xpm[] = {
"24 24 150 2",
"  	c #AF5E5E",
". 	c #CA9494",
"+ 	c #870D0D",
"@ 	c #A24343",
"# 	c #D7AEAE",
"$ 	c #D7AFAF",
"% 	c #D7B0B0",
"& 	c #D8B1B1",
"* 	c None",
"= 	c #DADADA",
"- 	c #C1C1C1",
"; 	c #C8C8C8",
"> 	c #EEEEEE",
", 	c #F2F2F2",
"' 	c #979797",
") 	c #848484",
"! 	c #808080",
"~ 	c #949494",
"{ 	c #DCDCDC",
"] 	c #B1B1B1",
"^ 	c #8B8B8B",
"/ 	c #870E0E",
"( 	c #A95858",
"_ 	c #8E8E8E",
": 	c #6E6E6E",
"< 	c #505050",
"[ 	c #0A0A0A",
"} 	c #1B1B1B",
"| 	c #C0C0C0",
"1 	c #ECECEC",
"2 	c #A5A5A5",
"3 	c #616161",
"4 	c #2F2F2F",
"5 	c #090909",
"6 	c #5E5E5E",
"7 	c #C4C4C4",
"8 	c #870F0F",
"9 	c #994747",
"0 	c #181818",
"a 	c #7E7E7E",
"b 	c #8D8D8D",
"c 	c #888888",
"d 	c #767676",
"e 	c #010101",
"f 	c #4C4C4C",
"g 	c #525252",
"h 	c #030303",
"i 	c #464646",
"j 	c #818181",
"k 	c #919191",
"l 	c #474747",
"m 	c #070707",
"n 	c #A4A4A4",
"o 	c #881010",
"p 	c #AF5F5F",
"q 	c #853333",
"r 	c #121212",
"s 	c #6F6F6F",
"t 	c #D3D3D3",
"u 	c #FBFBFB",
"v 	c #FDFDFD",
"w 	c #E1E1E1",
"x 	c #3D3D3D",
"y 	c #0D0D0D",
"z 	c #050505",
"A 	c #BABABA",
"B 	c #E6E6E6",
"C 	c #CECECE",
"D 	c #B8B8B8",
"E 	c #0B0B0B",
"F 	c #891414",
"G 	c #AF6060",
"H 	c #565656",
"I 	c #222222",
"J 	c #B9B9B9",
"K 	c #FCFCFC",
"L 	c #FEFEFE",
"M 	c #EBEBEB",
"N 	c #3A3A3A",
"O 	c #999999",
"P 	c #9B9B9B",
"Q 	c #000000",
"R 	c #494949",
"S 	c #B2B2B2",
"T 	c #131313",
"U 	c #2D2D2D",
"V 	c #C5C5C5",
"W 	c #4A4A4A",
"X 	c #8B1B1B",
"Y 	c #B06161",
"Z 	c #303030",
"` 	c #393939",
" .	c #E4E4E4",
"..	c #171717",
"+.	c #797979",
"@.	c #939393",
"#.	c #C7C7C7",
"$.	c #8C1E1E",
"%.	c #B06262",
"&.	c #404040",
"*.	c #BDBDBD",
"=.	c #868686",
"-.	c #F4F4F4",
";.	c #9F9F9F",
">.	c #F6F6F6",
",.	c #AFAFAF",
"'.	c #FAFAFA",
").	c #B16464",
"!.	c #853434",
"~.	c #8B1C1C",
"{.	c #3C3C3C",
"].	c #F7F7F7",
"^.	c #F3F3F3",
"/.	c #959595",
"(.	c #AA5858",
"_.	c #636363",
":.	c #333333",
"<.	c #E3E3E3",
"[.	c #D5D5D5",
"}.	c #7A7A7A",
"|.	c #F8F8F8",
"1.	c #7B7B7B",
"2.	c #8A1818",
"3.	c #B06060",
"4.	c #101010",
"5.	c #7C7C7C",
"6.	c #F0F0F0",
"7.	c #E8E8E8",
"8.	c #444444",
"9.	c #891313",
"0.	c #989898",
"a.	c #252525",
"b.	c #555555",
"c.	c #E2E2E2",
"d.	c #CBCBCB",
"e.	c #373737",
"f.	c #1D1D1D",
"g.	c #545454",
"h.	c #353535",
"i.	c #8F8F8F",
"j.	c #D9D9D9",
"k.	c #A8A8A8",
"l.	c #656565",
"m.	c #CFCFCF",
"n.	c #2C2C2C",
"o.	c #B7B7B7",
"p.	c #BBBBBB",
"q.	c #D7D7D7",
"r.	c #952929",
"s.	c #E5CACA",
"                                              . ",
"+ + + + + + + + + + + + + + + + + + + + + + +   ",
"+ @ # # # # # # $ $ % % % & & # $ $ % % % & +   ",
"+   * * * * * * * * * * * * * * * * * * * * +   ",
"+   * * = - - ; * * * * * * > - - - , * * * +   ",
"+   * ' ) ! ! ! ~ { * * * ] ^ ! ! ! ~ * * * /   ",
"+ ( _ ! : < [ [ [ } | 1 2 ! 3 4 5 5 [ 6 7 * 8   ",
"+ 9 ! : 0 0 a b c d e f ! g h i j k j l m n o p ",
"+ q ! r s t u v w 7 7 x y z A B u u C 7 D E F G ",
"+ q H I J K L M N m O P Q R M * * S T U V W X Y ",
"+ q Z ` , L L  ...h +.M Q b v * * @.m r #.b $.%.",
"+ q Z &.L L L K *.=.-.* Q ;.* * * >.~ ,.'.;.$.).",
"+ !.Z &.L L L L L L L * Q ;.* * * * * L L ;.~.).",
"+ 9 Z {.].L L L L L L ^.Q /.v * * * * L v /.~.%.",
"+ (._.:.<.L L L L L v [.Q }.|.* * * * L |.1.2.3.",
"+   * 4.5.6.L L L L 7.8.Q Q t |.* * * |.t e 9.p ",
"+   * 0.a.b.[.7.c.d.e.f.| g.h.i.j.1 j.i.h.g.8   ",
"+   * * k.g e e e m l.m.* * : n.Q Q Q n.: * +   ",
"+   * * * , o.o.o.p.* * * * * q.o.o.o.q.* * +   ",
"+   * * * * * * * * * * * * * * * * * * * * +   ",
"+ r.                                        +   ",
"+ + + + + + + + + + + + + + + + + + + + + + +   ",
"# # # # # # # # # # # # # # # # # # # # # # # s.",
"* * * * * * * * * * * * * * * * * * * * * * * * "};
