/* XPM */
static char * epg_use_xpm[] = {
"24 24 17 1",
" 	c #FFFFFF",
".	c #E5CACA",
"+	c #D7AEAE",
"@	c #AF5E5E",
"#	c #870D0D",
"$	c #952929",
"%	c #E8D1D1",
"&	c #DBB8B8",
"*	c #8D1919",
"=	c #C18383",
"-	c #C28484",
";	c #9D3A3A",
">	c #E4C9C9",
",	c #BB7676",
"'	c #860C0C",
")	c #A24343",
"!	c #CA9494",
" .+++++++++++++++++++++ ",
" @##################### ",
" @#@@@@@@@@@@@@@@@@@@$# ",
" @#                  @# ",
" @#                  @# ",
" @#  %############&  @# ",
" @#   %##########*   @# ",
" @#    ##########=   @# ",
" @#    -#########    @# ",
" @#     ########;    @# ",
" @#     ########>    @# ",
" @#      #######     @# ",
" @#      ######,     @# ",
" @#       #####      @# ",
" @#       #####      @# ",
" @#        ###       @# ",
" @#  +#############  @# ",
" @#  +#######'#####  @# ",
" @#                  @# ",
" @#                  @# ",
" @#++++++++++++++++++)# ",
" @##################### ",
" !@@@@@@@@@@@@@@@@@@@@@ ",
"                        "};
