/* XPM */
static char * epg_use_xpm[] = {
"24 24 12 1",
" 	c None",
".	c #E8D1D1",
"+	c #870D0D",
"@	c #DBB8B8",
"#	c #8D1919",
"$	c #C18383",
"%	c #C28484",
"&	c #9D3A3A",
"*	c #E4C9C9",
"=	c #BB7676",
"-	c #D7AEAE",
";	c #860C0C",
"                        ",
"                        ",
"                        ",
"                        ",
"                        ",
"     .++++++++++++@     ",
"      .++++++++++#      ",
"       ++++++++++$      ",
"       %+++++++++       ",
"        ++++++++&       ",
"        ++++++++*       ",
"         +++++++        ",
"         ++++++=        ",
"          +++++         ",
"          +++++         ",
"           +++          ",
"     -+++++++++++++     ",
"     -+++++++;+++++     ",
"                        ",
"                        ",
"                        ",
"                        ",
"                        ",
"                        "};
