/* XPM */
static char * epg_retract_xpm[] = {
"24 24 17 1",
" 	c #FFFFFF",
".	c #E5CACA",
"+	c #D7AEAE",
"@	c #AF5E5E",
"#	c #870D0D",
"$	c #952929",
"%	c #860C0C",
"&	c #BB7676",
"*	c #E4C9C9",
"=	c #9D3A3A",
"-	c #C28484",
";	c #C18383",
">	c #E8D1D1",
",	c #8D1919",
"'	c #DBB8B8",
")	c #A24343",
"!	c #CA9494",
" .+++++++++++++++++++++ ",
" @##################### ",
" @#@@@@@@@@@@@@@@@@@@$# ",
" @#                  @# ",
" @#                  @# ",
" @#  +#######%#####  @# ",
" @#  +#############  @# ",
" @#        ###       @# ",
" @#       #####      @# ",
" @#       #####      @# ",
" @#      ######&     @# ",
" @#      #######     @# ",
" @#     ########*    @# ",
" @#     ########=    @# ",
" @#    -#########    @# ",
" @#    ##########;   @# ",
" @#   >##########,   @# ",
" @#  >############'  @# ",
" @#                  @# ",
" @#                  @# ",
" @#++++++++++++++++++)# ",
" @##################### ",
" !@@@@@@@@@@@@@@@@@@@@@ ",
"                        "};
