/* XPM */
static char * epg_undo_xpm[] = {
"24 24 8 1",
" 	c None",
".	c #870D0D",
"+	c #9D3A3A",
"@	c #BB7676",
"#	c #E4C9C9",
"$	c #C18383",
"%	c #8D1919",
"&	c #DBB8B8",
"                        ",
"                        ",
"                        ",
"                        ",
"                        ",
"                 .      ",
"               ...      ",
"            ......      ",
"          ........      ",
"       ...........      ",
"     .............      ",
"     .............      ",
"     +............      ",
"        ..........      ",
"          @.......      ",
"            #+....      ",
"               $%.      ",
"                 &      ",
"                        ",
"                        ",
"                        ",
"                        ",
"                        ",
"                        "};
