/* XPM */
static char * epg_command_xpm[] = {
"24 24 212 2",
"  	c None",
". 	c #F5F5F6",
"+ 	c #F8F8F9",
"@ 	c #FDFDFD",
"# 	c #FEFEFE",
"$ 	c #FBF9F8",
"% 	c #F0ECE9",
"& 	c #D0C1B5",
"* 	c #C39E81",
"= 	c #A37451",
"- 	c #966B48",
"; 	c #A97C59",
"> 	c #BA8D69",
", 	c #C09370",
"' 	c #BE9473",
") 	c #BB9476",
"! 	c #BD9677",
"~ 	c #BC9678",
"{ 	c #B99578",
"] 	c #C19F84",
"^ 	c #C9AA91",
"/ 	c #D1B299",
"( 	c #D1B59F",
"_ 	c #7C7C8E",
": 	c #A5A5AD",
"< 	c #E5E4E3",
"[ 	c #E7E3DF",
"} 	c #E7DBD1",
"| 	c #CFB29B",
"1 	c #C39169",
"2 	c #D69766",
"3 	c #D99966",
"4 	c #D49563",
"5 	c #CA8E5E",
"6 	c #CD8F5F",
"7 	c #CB8C5D",
"8 	c #BF8658",
"9 	c #BF8659",
"0 	c #C48A5B",
"a 	c #C3885B",
"b 	c #BD8457",
"c 	c #C2885A",
"d 	c #C88D5D",
"e 	c #C58A5C",
"f 	c #8989A4",
"g 	c #ADADB2",
"h 	c #CEC7C0",
"i 	c #A37F63",
"j 	c #D19667",
"k 	c #D99865",
"l 	c #D69765",
"m 	c #CC9060",
"n 	c #8B6241",
"o 	c #573C27",
"p 	c #64442B",
"q 	c #533825",
"r 	c #4A3E37",
"s 	c #685547",
"t 	c #836753",
"u 	c #745E4E",
"v 	c #765F4F",
"w 	c #85859D",
"x 	c #AFAFB0",
"y 	c #D4C5B9",
"z 	c #B38058",
"A 	c #D39260",
"B 	c #C28657",
"C 	c #BC8154",
"D 	c #BA8154",
"E 	c #C38759",
"F 	c #CC8E5D",
"G 	c #D59462",
"H 	c #C58A5B",
"I 	c #C18859",
"J 	c #B47F54",
"K 	c #876B55",
"L 	c #CDCDCD",
"M 	c #DBDBDB",
"N 	c #EAEAEA",
"O 	c #F4F4F4",
"P 	c #78788D",
"Q 	c #B5B5B5",
"R 	c #C0B5AD",
"S 	c #865D3E",
"T 	c #C7895A",
"U 	c #D79562",
"V 	c #D69462",
"W 	c #D18F5D",
"X 	c #A76F47",
"Y 	c #7C5032",
"Z 	c #91613E",
"` 	c #956541",
" .	c #9A6843",
"..	c #A77249",
"+.	c #C28456",
"@.	c #D3915E",
"#.	c #D38F5C",
"$.	c #BC8A67",
"%.	c #CEBEB2",
"&.	c #717185",
"*.	c #B7B7B7",
"=.	c #A6A5A5",
"-.	c #2D2118",
";.	c #624028",
">.	c #865A39",
",.	c #7A5235",
"'.	c #6A452B",
").	c #432A1A",
"!.	c #65442C",
"~.	c #BE8558",
"{.	c #BE8457",
"].	c #B88156",
"^.	c #C28759",
"/.	c #D1905E",
"(.	c #CE8754",
"_.	c #8B6C58",
":.	c #737387",
"<.	c #B1B1B1",
"[.	c #B7B2AE",
"}.	c #3D2D22",
"|.	c #25170E",
"1.	c #1A100A",
"2.	c #0A0604",
"3.	c #010000",
"4.	c #4A3423",
"5.	c #A2704A",
"6.	c #B47D52",
"7.	c #7B5234",
"8.	c #865B3A",
"9.	c #825939",
"0.	c #855A3A",
"a.	c #815637",
"b.	c #6D462B",
"c.	c #665448",
"d.	c #969696",
"e.	c #C5B8AE",
"f.	c #9A704F",
"g.	c #996843",
"h.	c #654129",
"i.	c #170F09",
"j.	c #513926",
"k.	c #A27049",
"l.	c #BB8054",
"m.	c #8F6341",
"n.	c #7E5739",
"o.	c #6C4B31",
"p.	c #5D3F28",
"q.	c #433226",
"r.	c #85807D",
"s.	c #BFBFBF",
"t.	c #76768C",
"u.	c #757575",
"v.	c #B2A49A",
"w.	c #B98861",
"x.	c #D89764",
"y.	c #C58758",
"z.	c #7F5233",
"A.	c #1D130C",
"B.	c #926745",
"C.	c #7D5639",
"D.	c #6A462D",
"E.	c #8E5D3B",
"F.	c #885A39",
"G.	c #7A5133",
"H.	c #6B462C",
"I.	c #3F3128",
"J.	c #D6D6D5",
"K.	c #797992",
"L.	c #606060",
"M.	c #9E9591",
"N.	c #A27C61",
"O.	c #D09264",
"P.	c #D4925F",
"Q.	c #C68050",
"R.	c #422A19",
"S.	c #754E32",
"T.	c #865A3A",
"U.	c #8C603E",
"V.	c #442E1D",
"W.	c #22160D",
"X.	c #2F241C",
"Y.	c #524943",
"Z.	c #8A8785",
"`.	c #EEEEEE",
" +	c #535365",
".+	c #2D2D2F",
"++	c #676666",
"@+	c #C1BBB8",
"#+	c #E5DAD2",
"$+	c #CAB5A5",
"%+	c #B89983",
"&+	c #807268",
"*+	c #6A6561",
"=+	c #6C645E",
"-+	c #443327",
";+	c #573924",
">+	c #643F26",
",+	c #7E6F63",
"'+	c #CBCBCB",
")+	c #F1F1F1",
"!+	c #0E0E10",
"~+	c #555557",
"{+	c #E8E8E8",
"]+	c #FBFBFB",
"^+	c #FBFAF9",
"/+	c #F9F7F6",
"(+	c #F6F5F5",
"_+	c #F3F3F3",
":+	c #E0DFDF",
"<+	c #B0AEAC",
"[+	c #A4A09F",
"}+	c #D7D5D5",
"                                                ",
"                                                ",
"                                                ",
"                                                ",
"                                                ",
"                                                ",
". + @ # @ $ % & * = - ; > , ' ) ! ! ~ { ] ^ / ( ",
"_ : < [ } | 1 2 3 3 3 4 5 6 7 8 9 0 a b c d e 0 ",
"f g h i j 3 3 3 k 3 3 3 3 l m n o p q r s t u v ",
"w x y z 3 3 3 3 A B C D E F G H I J K L M M N O ",
"P Q R S T U V W X Y Z `  ...+.@.#.$.%.          ",
"&.*.=.-.;.>.,.'.).!.~.T {.].^./.(._.#           ",
":.<.[.}.|.1.2.3.4.5.6.7.8.9.0.a.b.c.#           ",
":.d.e.f.g.h.i.3.j.k.l.m.n.o.p.q.r.s.            ",
"t.u.v.w.x.y.z.A.B.C.D.E.F.G.H.I.J.#             ",
"K.L.M.N.O.P.Q.R.S.T.U.V.W.X.Y.Z.`.              ",
" +.+++@+#+$+%+&+*+=+-+;+>+,+'+)+@               ",
"!+~+{+]+@ ^+/+(+O _+:+<+[+}+@                   ",
"                                                ",
"                                                ",
"                                                ",
"                                                ",
"                                                ",
"                                                "};
