/* XPM */
static char * epg_restart_xpm[] = {
"24 24 10 1",
" 	c None",
".	c #E5CACA",
"+	c #D7AEAE",
"@	c #AF5E5E",
"#	c #870D0D",
"$	c #952929",
"%	c #C58989",
"&	c #D5AAAA",
"*	c #A24343",
"=	c #CA9494",
" .+++++++++++++++++++++ ",
" @##################### ",
" @#@@@@@@@@@@@@@@@@@@$# ",
" @#                  @# ",
" @#       %###%      @# ",
" @#     %#######     @# ",
" @#    %#########    @# ",
" @#    ###%    %#    @# ",
" @#   ###%      #    @# ",
" @# #######    ###   @# ",
" @# &######   #####  @# ",
" @#  #####   ######& @# ",
" @#   ###    ####### @# ",
" @#    #      %###   @# ",
" @#    #%    %###    @# ",
" @#    #########%    @# ",
" @#     #######%     @# ",
" @#      %###%       @# ",
" @#                  @# ",
" @#                  @# ",
" @#++++++++++++++++++*# ",
" @##################### ",
" =@@@@@@@@@@@@@@@@@@@@@ ",
"                        "};
