/* XPM */
static char * epg_goto_xpm[] = {
"24 24 67 1",
" 	c #FFFFFF",
".	c #E5CACA",
"+	c #D7AEAE",
"@	c #AF5E5E",
"#	c #870D0D",
"$	c #952929",
"%	c #FEFDFD",
"&	c #FEFCFC",
"*	c #FDFBFB",
"=	c #FCF8F8",
"-	c #FBF7F7",
";	c #FDFCFC",
">	c #B26363",
",	c #FFFEFE",
"'	c #8F1D1D",
")	c #8A1414",
"!	c #D2A4A4",
"~	c #BB7575",
"{	c #8B1616",
"]	c #C08181",
"^	c #C58A8A",
"/	c #8C1616",
"(	c #C38686",
"_	c #F6EDED",
":	c #BE7B7B",
"<	c #8D1818",
"[	c #B87070",
"}	c #E6CCCC",
"|	c #E8D0D0",
"1	c #D0A0A0",
"2	c #FCFAFA",
"3	c #8D1919",
"4	c #880E0E",
"5	c #870E0E",
"6	c #B06060",
"7	c #EFDFDF",
"8	c #9D3A3A",
"9	c #9A3535",
"0	c #ECD8D8",
"a	c #CE9D9D",
"b	c #E9D3D3",
"c	c #870F0F",
"d	c #EDDBDB",
"e	c #BC7878",
"f	c #EAD6D6",
"g	c #BA7474",
"h	c #D3A6A6",
"i	c #F4E9E9",
"j	c #E5CBCB",
"k	c #8B1515",
"l	c #880F0F",
"m	c #E9D2D2",
"n	c #F1E2E2",
"o	c #F5EAEA",
"p	c #DEBCBC",
"q	c #8A1313",
"r	c #D7ADAD",
"s	c #EFDEDE",
"t	c #D5ABAB",
"u	c #EDDADA",
"v	c #D9B3B3",
"w	c #FEFEFE",
"x	c #B16262",
"y	c #E0C1C1",
"z	c #DBB8B8",
"A	c #A24343",
"B	c #CA9494",
" .+++++++++++++++++++++ ",
" @##################### ",
" @#@@@@@@@@@@@@@@@@@@$# ",
" @#    %&% *=-=*;%   @# ",
" @#                  @# ",
" @# >,,           ,'%@# ",
" @# )!*           ~)%@# ",
" @#,{#],         ^#{;@# ",
" @#&/##(_      &:##/*@# ",
" @#&<###[% }| =1###<2@# ",
" @#&3##4567890a54##32@# ",
" @#&<####3bccde####<2@# ",
" @#%/####|fghij####/*@# ",
" @#,k##lm  no  p{##k;@# ",
" @# q#lr*       s##q%@# ",
" @# l#t%         u#l%@# ",
" @# {v  w      w  x# @# ",
" @# y              z @# ",
" @#                  @# ",
" @#                  @# ",
" @#++++++++++++++++++A# ",
" @##################### ",
" B@@@@@@@@@@@@@@@@@@@@@ ",
"                        "};
