/* XPM */
static char * epg_qed_xpm[] = {
"24 24 360 2",
"  	c None",
". 	c #E5CACA",
"+ 	c #D7AEAE",
"@ 	c #AF5E5E",
"# 	c #870D0D",
"$ 	c #952929",
"% 	c #66100F",
"& 	c #241513",
"* 	c #2B1916",
"= 	c #321D18",
"- 	c #36201A",
"; 	c #422922",
"> 	c #432B24",
", 	c #38251F",
"' 	c #2A1A16",
") 	c #2A1D17",
"! 	c #281D18",
"~ 	c #221916",
"{ 	c #1F1815",
"] 	c #1A1512",
"^ 	c #191513",
"/ 	c #1C1A14",
"( 	c #1C1B16",
"_ 	c #1B1B15",
": 	c #1F2219",
"< 	c #631310",
"[ 	c #6B1312",
"} 	c #351F1C",
"| 	c #3E231D",
"1 	c #502E25",
"2 	c #663F33",
"3 	c #653F34",
"4 	c #462A21",
"5 	c #3E2821",
"6 	c #37251F",
"7 	c #30231E",
"8 	c #2D221F",
"9 	c #29211D",
"0 	c #201B17",
"a 	c #1E1A15",
"b 	c #1D1A15",
"c 	c #1C1C15",
"d 	c #212219",
"e 	c #2B3223",
"f 	c #6D2119",
"g 	c #731716",
"h 	c #3D2420",
"i 	c #462923",
"j 	c #502C22",
"k 	c #784333",
"l 	c #B36A50",
"m 	c #A15E47",
"n 	c #6D4030",
"o 	c #57372D",
"p 	c #442F27",
"q 	c #3A2B25",
"r 	c #352A25",
"s 	c #2F2622",
"t 	c #2A241F",
"u 	c #2A241E",
"v 	c #24211A",
"w 	c #22211A",
"x 	c #25281D",
"y 	c #394831",
"z 	c #91493B",
"A 	c #8B2824",
"B 	c #452823",
"C 	c #4B2A23",
"D 	c #693A2D",
"E 	c #B86547",
"F 	c #FDD0A5",
"G 	c #F2B385",
"H 	c #AD6248",
"I 	c #6A4334",
"J 	c #50382F",
"K 	c #473731",
"L 	c #4B3F39",
"M 	c #413833",
"N 	c #3F3731",
"O 	c #363029",
"P 	c #302C24",
"Q 	c #2C2B22",
"R 	c #303225",
"S 	c #49573C",
"T 	c #8F4639",
"U 	c #993430",
"V 	c #50302B",
"W 	c #56312A",
"X 	c #7A4536",
"Y 	c #DB8059",
"Z 	c #FEFBED",
"` 	c #FEE8CA",
" .	c #D27D5B",
"..	c #835544",
"+.	c #6A4F44",
"@.	c #685852",
"#.	c #7A7472",
"$.	c #635C57",
"%.	c #474039",
"&.	c #3A332C",
"*.	c #322D26",
"=.	c #2E2C23",
"-.	c #414635",
";.	c #59654C",
">.	c #762A21",
",.	c #842422",
"'.	c #50312D",
").	c #56332D",
"!.	c #7A493D",
"~.	c #CD7E60",
"{.	c #F2AE81",
"].	c #E79064",
"^.	c #9A5942",
"/.	c #6D4639",
"(.	c #634A41",
"_.	c #867E7A",
":.	c #F0E4CB",
"<.	c #7E7D78",
"[.	c #4C453D",
"}.	c #3E3730",
"|.	c #38322A",
"1.	c #4D5140",
"2.	c #555C48",
"3.	c #333326",
"4.	c #6D1C17",
"5.	c #761B1A",
"6.	c #5C3B38",
"7.	c #623F3B",
"8.	c #784D44",
"9.	c #8C5547",
"0.	c #945643",
"a.	c #9D5E47",
"b.	c #764A3A",
"c.	c #604035",
"d.	c #594239",
"e.	c #655751",
"f.	c #8B8680",
"g.	c #645E57",
"h.	c #4E453C",
"i.	c #413A30",
"j.	c #555845",
"k.	c #4E503F",
"l.	c #342F26",
"m.	c #353025",
"n.	c #6F1C17",
"o.	c #6F1617",
"p.	c #6A4845",
"q.	c #6B4946",
"r.	c #67433E",
"s.	c #6D463E",
"t.	c #7B4D41",
"u.	c #915C47",
"v.	c #5D3B32",
"w.	c #573C34",
"x.	c #533D35",
"y.	c #56453D",
"z.	c #5C4F46",
"A.	c #4C4138",
"B.	c #4B4136",
"C.	c #5A5846",
"D.	c #51513F",
"E.	c #342D23",
"F.	c #342E24",
"G.	c #40382B",
"H.	c #76201B",
"I.	c #6F1719",
"J.	c #654748",
"K.	c #5F4040",
"L.	c #614140",
"M.	c #62403E",
"N.	c #6C453F",
"O.	c #825344",
"P.	c #583931",
"Q.	c #523A33",
"R.	c #533E36",
"S.	c #544238",
"T.	c #544539",
"U.	c #504637",
"V.	c #595342",
"W.	c #575340",
"X.	c #3D3427",
"Y.	c #3B3227",
"Z.	c #3F3529",
"`.	c #483C2F",
" +	c #872E27",
".+	c #72191C",
"++	c #523A3F",
"@+	c #5A3E41",
"#+	c #614144",
"$+	c #5F3D3F",
"%+	c #674341",
"&+	c #8A5847",
"*+	c #774F41",
"=+	c #503A34",
"-+	c #513C35",
";+	c #544237",
">+	c #594B3B",
",+	c #5E533F",
"'+	c #686047",
")+	c #514430",
"!+	c #423727",
"~+	c #403627",
"{+	c #3B3125",
"]+	c #473B2D",
"^+	c #832A24",
"/+	c #771E21",
"(+	c #573E46",
"_+	c #5B3E44",
":+	c #67434A",
"<+	c #905C67",
"[+	c #8D5C64",
"}+	c #87594F",
"|+	c #724C41",
"1+	c #4A3531",
"2+	c #4C3931",
"3+	c #544236",
"4+	c #696048",
"5+	c #796D4E",
"6+	c #958154",
"7+	c #77653F",
"8+	c #5C4E34",
"9+	c #463B2A",
"0+	c #473C2D",
"a+	c #4F4335",
"b+	c #77211C",
"c+	c #82272D",
"d+	c #583E48",
"e+	c #5F4249",
"f+	c #845963",
"g+	c #ECBCC1",
"h+	c #DAA5AC",
"i+	c #7B504F",
"j+	c #734C41",
"k+	c #48332E",
"l+	c #43322B",
"m+	c #544839",
"n+	c #6B6247",
"o+	c #A28C59",
"p+	c #F8EBCB",
"q+	c #E9DAAC",
"r+	c #99885E",
"s+	c #665940",
"t+	c #493F2F",
"u+	c #372E23",
"v+	c #6B1714",
"w+	c #8E303A",
"x+	c #543B47",
"y+	c #553B44",
"z+	c #67454E",
"A+	c #895665",
"B+	c #90606C",
"C+	c #5F3E3F",
"D+	c #744C3F",
"E+	c #4B352E",
"F+	c #45372F",
"G+	c #5B5341",
"H+	c #66553E",
"I+	c #AB9561",
"J+	c #FDF1DB",
"K+	c #F8EAC7",
"L+	c #938155",
"M+	c #4D412D",
"N+	c #362D20",
"O+	c #2C241B",
"P+	c #681412",
"Q+	c #963742",
"R+	c #59424E",
"S+	c #4E3841",
"T+	c #4C353D",
"U+	c #4D333A",
"V+	c #563C40",
"W+	c #4C3536",
"X+	c #7B5140",
"Y+	c #4A362F",
"Z+	c #504B3E",
"`+	c #473B2F",
" @	c #514231",
".@	c #A28D5B",
"+@	c #9C895B",
"@@	c #615338",
"#@	c #4A402E",
"$@	c #332B1F",
"%@	c #272018",
"&@	c #651210",
"*@	c #852931",
"=@	c #493540",
"-@	c #402E36",
";@	c #3E2B32",
">@	c #3D2A30",
",@	c #433034",
"'@	c #453232",
")@	c #764E3E",
"!@	c #51453A",
"~@	c #443B32",
"{@	c #3D332A",
"]@	c #43382C",
"^@	c #5C4F3A",
"/@	c #534632",
"(@	c #3F3526",
"_@	c #2E271C",
":@	c #29231A",
"<@	c #28221B",
"[@	c #3C2C36",
"}@	c #37272F",
"|@	c #302228",
"1@	c #2D1F24",
"2@	c #322427",
"3@	c #3E2F2E",
"4@	c #825A47",
"5@	c #615443",
"6@	c #594638",
"7@	c #423B30",
"8@	c #F5E8C5",
"9@	c #4A4034",
"0@	c #332A20",
"a@	c #2F271D",
"b@	c #352C22",
"c@	c #221C15",
"d@	c #1D1713",
"e@	c #1B1612",
"f@	c #62100E",
"g@	c #6E181B",
"h@	c #806279",
"i@	c #2C1F26",
"j@	c #291E23",
"k@	c #281D22",
"l@	c #291D20",
"m@	c #332B29",
"n@	c #7D6A52",
"o@	c #645442",
"p@	c #755540",
"q@	c #F3D9B5",
"r@	c #322B23",
"s@	c #241D17",
"t@	c #201914",
"u@	c #261F19",
"v@	c #1C1713",
"w@	c #16120F",
"x@	c #130F0D",
"y@	c #5F0D0C",
"z@	c #681316",
"A@	c #824655",
"B@	c #441519",
"C@	c #431417",
"D@	c #421316",
"E@	c #441417",
"F@	c #461819",
"G@	c #672C24",
"H@	c #622922",
"I@	c #56201A",
"J@	c #4F1B17",
"K@	c #481A18",
"L@	c #3E1210",
"M@	c #3D1110",
"N@	c #3C100E",
"O@	c #3C100F",
"P@	c #380D0C",
"Q@	c #360A0A",
"R@	c #6B0C0C",
"S@	c #CA9494",
"  . + + + + + + + + + + + + + + + + + + + + +   ",
"  @ # # # # # # # # # # # # # # # # # # # # #   ",
"  @ # @ @ @ @ @ @ @ @ @ @ @ @ @ @ @ @ @ @ $ #   ",
"  % # & * = - ; > , ' ) ! ~ { ] ^ / ( _ : < #   ",
"  [ # } = | 1 2 3 4 5 6 7 8 9 0 a b c d e f #   ",
"  g # h i j k l m n o p q r s t u v w x y z #   ",
"  A # B C D E F G H I J K L M N O P Q R S T #   ",
"  U # V W X Y Z `  ...+.@.#.$.%.&.*.=.-.;.>.#   ",
"  ,.# '.).!.~.{.].^./.(._.:.<.[.}.|.1.2.3.4.#   ",
"  5.# 6.7.8.9.0.a.b.c.d.e.f.g.h.i.j.k.l.m.n.#   ",
"  o.# p.q.r.s.t.u.v.w.x.y.z.A.B.C.D.E.F.G.H.#   ",
"  I.# J.K.L.M.N.O.P.Q.R.S.T.U.V.W.X.Y.Z.`. +#   ",
"  .+# ++@+#+$+%+&+*+=+-+;+>+,+'+)+!+~+{+]+^+#   ",
"  /+# (+_+:+<+[+}+|+1+2+3+4+5+6+7+8+9+0+a+b+#   ",
"  c+# d+e+f+g+h+i+j+k+l+m+n+o+p+q+r+s+t+u+v+#   ",
"  w+# x+y+z+A+B+C+D+E+F+G+H+I+J+K+L+M+N+O+P+#   ",
"  Q+# R+S+T+U+V+W+X+Y+Z+`+ @K+.@+@@@#@$@%@&@#   ",
"  *@# =@-@;@>@,@'@)@!@~@{@]@K+^@/@(@_@:@<@&@#   ",
"  *@# [@}@|@1@2@3@4@5@6@7@8@9@0@a@b@c@d@e@f@#   ",
"  g@# h@i@j@k@l@m@n@o@p@q@K+r@s@t@u@v@w@x@y@#   ",
"  z@# A@B@C@D@E@F@G@H@I@J@K@L@M@N@O@L@P@Q@R@#   ",
"  @ # # # # # # # # # # # # # # # # # # # # #   ",
"  S@@ @ @ @ @ @ @ @ @ @ @ @ @ @ @ @ @ @ @ @ @   ",
"                                                "};
