/* XPM */
static char * epg_command_xpm[] = {
"24 24 236 2",
"  	c #C68B8B",
". 	c #BC7878",
"+ 	c #D7AEAE",
"@ 	c #870D0D",
"# 	c #942828",
"$ 	c #AF5E5E",
"% 	c #FFFFFF",
"& 	c #AA5E5F",
"* 	c #861314",
"= 	c #FDFDFD",
"- 	c #FEFEFE",
"; 	c #FBF9F8",
"> 	c #F0ECE9",
", 	c #D0C1B5",
"' 	c #C39E81",
") 	c #A37451",
"! 	c #966B48",
"~ 	c #A97C59",
"{ 	c #BA8D69",
"] 	c #C09370",
"^ 	c #BE9473",
"/ 	c #BB9476",
"( 	c #BD9677",
"_ 	c #BC9678",
": 	c #B99578",
"< 	c #C19F84",
"[ 	c #C9AA91",
"} 	c #B07057",
"| 	c #9B4A33",
"1 	c #6F6274",
"2 	c #805B64",
"3 	c #E5E4E3",
"4 	c #E7E3DF",
"5 	c #E7DBD1",
"6 	c #CFB29B",
"7 	c #C39169",
"8 	c #D69766",
"9 	c #D99966",
"0 	c #D49563",
"a 	c #CA8E5E",
"b 	c #CD8F5F",
"c 	c #CB8C5D",
"d 	c #BF8658",
"e 	c #BF8659",
"f 	c #C48A5B",
"g 	c #C3885B",
"h 	c #BD8457",
"i 	c #C2885A",
"j 	c #C88D5D",
"k 	c #C58A5C",
"l 	c #8989A4",
"m 	c #ADADB2",
"n 	c #CEC7C0",
"o 	c #A37F63",
"p 	c #D19667",
"q 	c #D99865",
"r 	c #D69765",
"s 	c #CC9060",
"t 	c #8B6241",
"u 	c #573C27",
"v 	c #64442B",
"w 	c #533825",
"x 	c #4A3E37",
"y 	c #685547",
"z 	c #836753",
"A 	c #643E2E",
"B 	c #5D2D1D",
"C 	c #85859D",
"D 	c #AFAFB0",
"E 	c #D4C5B9",
"F 	c #B38058",
"G 	c #D39260",
"H 	c #C28657",
"I 	c #BC8154",
"J 	c #BA8154",
"K 	c #C38759",
"L 	c #CC8E5D",
"M 	c #D59462",
"N 	c #C58A5B",
"O 	c #C18859",
"P 	c #B47F54",
"Q 	c #876B55",
"R 	c #CDCDCD",
"S 	c #DBDBDB",
"T 	c #A25A5A",
"U 	c #851B1B",
"V 	c #78788D",
"W 	c #B5B5B5",
"X 	c #C0B5AD",
"Y 	c #865D3E",
"Z 	c #C7895A",
"` 	c #D79562",
" .	c #D69462",
"..	c #D18F5D",
"+.	c #A76F47",
"@.	c #7C5032",
"#.	c #91613E",
"$.	c #956541",
"%.	c #9A6843",
"&.	c #A77249",
"*.	c #C28456",
"=.	c #D3915E",
"-.	c #D38F5C",
";.	c #BC8A67",
">.	c #CEBEB2",
",.	c #B16464",
"'.	c #8B1C1C",
").	c #717185",
"!.	c #B7B7B7",
"~.	c #A6A5A5",
"{.	c #2D2118",
"].	c #624028",
"^.	c #865A39",
"/.	c #7A5235",
"(.	c #6A452B",
"_.	c #432A1A",
":.	c #65442C",
"<.	c #BE8558",
"[.	c #BE8457",
"}.	c #B88156",
"|.	c #C28759",
"1.	c #D1905E",
"2.	c #CE8754",
"3.	c #8B6C58",
"4.	c #8C1E1E",
"5.	c #737387",
"6.	c #B1B1B1",
"7.	c #B7B2AE",
"8.	c #3D2D22",
"9.	c #25170E",
"0.	c #1A100A",
"a.	c #0A0604",
"b.	c #010000",
"c.	c #4A3423",
"d.	c #A2704A",
"e.	c #B47D52",
"f.	c #7B5234",
"g.	c #865B3A",
"h.	c #825939",
"i.	c #855A3A",
"j.	c #815637",
"k.	c #6D462B",
"l.	c #665448",
"m.	c #B06262",
"n.	c #969696",
"o.	c #C5B8AE",
"p.	c #9A704F",
"q.	c #996843",
"r.	c #654129",
"s.	c #170F09",
"t.	c #513926",
"u.	c #A27049",
"v.	c #BB8054",
"w.	c #8F6341",
"x.	c #7E5739",
"y.	c #6C4B31",
"z.	c #5D3F28",
"A.	c #433226",
"B.	c #85807D",
"C.	c #BFBFBF",
"D.	c #B06161",
"E.	c #8B1B1B",
"F.	c #76768C",
"G.	c #757575",
"H.	c #B2A49A",
"I.	c #B98861",
"J.	c #D89764",
"K.	c #C58758",
"L.	c #7F5233",
"M.	c #1D130C",
"N.	c #926745",
"O.	c #7D5639",
"P.	c #6A462D",
"Q.	c #8E5D3B",
"R.	c #885A39",
"S.	c #7A5133",
"T.	c #6B462C",
"U.	c #3F3128",
"V.	c #D6D6D5",
"W.	c #AF6060",
"X.	c #891414",
"Y.	c #797992",
"Z.	c #606060",
"`.	c #9E9591",
" +	c #A27C61",
".+	c #D09264",
"++	c #D4925F",
"@+	c #C68050",
"#+	c #422A19",
"$+	c #754E32",
"%+	c #865A3A",
"&+	c #8C603E",
"*+	c #442E1D",
"=+	c #22160D",
"-+	c #2F241C",
";+	c #524943",
">+	c #8A8785",
",+	c #EEEEEE",
"'+	c #AF5F5F",
")+	c #881010",
"!+	c #535365",
"~+	c #2B282A",
"{+	c #676666",
"]+	c #C1BBB8",
"^+	c #E5DAD2",
"/+	c #CAB5A5",
"(+	c #B89983",
"_+	c #807268",
":+	c #6A6561",
"<+	c #6C645E",
"[+	c #443327",
"}+	c #573924",
"|+	c #643F26",
"1+	c #7E6F63",
"2+	c #CBCBCB",
"3+	c #F1F1F1",
"4+	c #870F0F",
"5+	c #0D0C0E",
"6+	c #331012",
"7+	c #E8E8E8",
"8+	c #FBFBFB",
"9+	c #FBFAF9",
"0+	c #F9F7F6",
"a+	c #F6F5F5",
"b+	c #F4F4F4",
"c+	c #F3F3F3",
"d+	c #E0DFDF",
"e+	c #B0AEAC",
"f+	c #A4A09F",
"g+	c #D7D5D5",
"h+	c #870E0E",
"i+	c #A24343",
"j+	c #D7AFAF",
"k+	c #D7B0B0",
"l+	c #D8B1B1",
"m+	c #9D3A3A",
"  . + + + + + + + + + + + + + + + + + + + +   . ",
"@ @ @ @ @ @ @ @ @ @ @ @ @ @ @ @ @ @ @ @ @ @ @ @ ",
"# @ $ $ $ $ $ $ $ $ $ $ $ $ $ $ $ $ $ $ $ $ # @ ",
"$ @ % % % % % % % % % % % % % % % % % % % % $ @ ",
"$ @ % % % % % % % % % % % % % % % % % % % % $ @ ",
"$ @ % % % % % % % % % % % % % % % % % % % % $ @ ",
"& * = - = ; > , ' ) ! ~ { ] ^ / ( ( _ : < [ } | ",
"1 2 3 4 5 6 7 8 9 9 9 0 a b c d e f g h i j k f ",
"l m n o p 9 9 9 q 9 9 9 9 r s t u v w x y z A B ",
"C D E F 9 9 9 9 G H I J K L M N O P Q R S S T U ",
"V W X Y Z `  ...+.@.#.$.%.&.*.=.-.;.>.% % % ,.'.",
").!.~.{.].^./.(._.:.<.Z [.}.|.1.2.3.- % % % ,.4.",
"5.6.7.8.9.0.a.b.c.d.e.f.g.h.i.j.k.l.- % % % m.4.",
"5.n.o.p.q.r.s.b.t.u.v.w.x.y.z.A.B.C.% % % % D.E.",
"F.G.H.I.J.K.L.M.N.O.P.Q.R.S.T.U.V.- % % % % W.X.",
"Y.Z.`. +.+++@+#+$+%+&+*+=+-+;+>+,+% % % % % '+)+",
"!+~+{+]+^+/+(+_+:+<+[+}+|+1+2+3+= % % % % % $ 4+",
"5+6+7+8+= 9+0+a+b+c+d+e+f+g+= % % % % % % % $ h+",
"$ @ % % % % % % % % % % % % % % % % % % % % $ @ ",
"$ @ % % % % % % % % % % % % % % % % % % % % $ @ ",
"i+@ j+k+l+l+k+k+k+j+j++ l+l+k+k+k+j+j++ + + i+@ ",
"@ @ @ @ @ @ @ @ @ @ @ @ @ @ @ @ @ @ @ @ @ @ @ @ ",
"m+# $ $ $ $ $ $ $ $ $ $ $ $ $ $ $ $ $ $ $ $ m+# ",
"% % % % % % % % % % % % % % % % % % % % % % % % "};
