/* XPM */
static char * epg_find_xpm[] = {
"24 24 172 2",
"  	c None",
". 	c #FDFDFD",
"+ 	c #EFEFEF",
"@ 	c #D1D3D4",
"# 	c #E6E7E8",
"$ 	c #B9BEC0",
"% 	c #F4F9FB",
"& 	c #FCFEFE",
"* 	c #FCFDFE",
"= 	c #C3CBCF",
"- 	c #6B818C",
"; 	c #4B778D",
"> 	c #99BFD1",
", 	c #76A5BA",
"' 	c #8FC9E3",
") 	c #ABCBDA",
"! 	c #E4E4E4",
"~ 	c #DDEEF6",
"{ 	c #95C6DD",
"] 	c #92C7DA",
"^ 	c #93CEE6",
"/ 	c #BEE7F3",
"( 	c #AEDFEF",
"_ 	c #BAE7F3",
": 	c #A5C7D0",
"< 	c #97ABB5",
"[ 	c #F9FCFD",
"} 	c #A3A3A3",
"| 	c #BAD9E6",
"1 	c #B3E0EF",
"2 	c #B5E5F2",
"3 	c #C3EDF6",
"4 	c #CAF1F8",
"5 	c #C9F1F8",
"6 	c #CFF4F9",
"7 	c #E0FCFE",
"8 	c #C2E5F0",
"9 	c #F2F8F9",
"0 	c #FCFCFC",
"a 	c #D2D2D2",
"b 	c #53595C",
"c 	c #A3D6E9",
"d 	c #B9E8F4",
"e 	c #CFF3FA",
"f 	c #E1FDFE",
"g 	c #E4FDFE",
"h 	c #EAFEFE",
"i 	c #EFFEFE",
"j 	c #E7FFFF",
"k 	c #D9F2F2",
"l 	c #9EA9A9",
"m 	c #CCCCCC",
"n 	c #898989",
"o 	c #8F9E9E",
"p 	c #C8F0F8",
"q 	c #D3F6FA",
"r 	c #ECFFFF",
"s 	c #F9FFFF",
"t 	c #FEFFFF",
"u 	c #EBFFFF",
"v 	c #E4FEFE",
"w 	c #DBF1F4",
"x 	c #EEF4F7",
"y 	c #FBFBFB",
"z 	c #99A2A5",
"A 	c #B7D4DB",
"B 	c #D5F7FB",
"C 	c #E3FEFE",
"D 	c #E6FFFF",
"E 	c #F6FFFF",
"F 	c #F7FFFF",
"G 	c #D7F0F1",
"H 	c #95ABB1",
"I 	c #CED7DC",
"J 	c #A6B0B5",
"K 	c #A6C5CD",
"L 	c #E5FFFF",
"M 	c #F1FFFF",
"N 	c #FBFFFF",
"O 	c #EDFFFF",
"P 	c #C3D9D9",
"Q 	c #444A4B",
"R 	c #B1B2B2",
"S 	c #F9F9F9",
"T 	c #DFDFDF",
"U 	c #B0B0B1",
"V 	c #CACECF",
"W 	c #CBD3D6",
"X 	c #C0DDE0",
"Y 	c #DAF3F3",
"Z 	c #E8FFFF",
"` 	c #E0FBFC",
" .	c #ACCDD6",
"..	c #41555E",
"+.	c #AEAEAE",
"@.	c #EBEBEB",
"#.	c #909090",
"$.	c #3F3F3F",
"%.	c #363C3F",
"&.	c #93B2C1",
"*.	c #C9E5F2",
"=.	c #BACACF",
"-.	c #7D9297",
";.	c #D4F1F4",
">.	c #E3FDFD",
",.	c #E1FBFB",
"'.	c #CFE7E7",
").	c #B2C8C9",
"!.	c #99BECB",
"~.	c #A7C0C8",
"{.	c #5C6468",
"].	c #DCDCDC",
"^.	c #7E7E7E",
"/.	c #444444",
"(.	c #1D1D1D",
"_.	c #222222",
":.	c #292F31",
"<.	c #697981",
"[.	c #D9DCDD",
"}.	c #ABC3CF",
"|.	c #92B6C4",
"1.	c #9FC4CF",
"2.	c #C5E4EA",
"3.	c #899B9C",
"4.	c #718A91",
"5.	c #4D6A77",
"6.	c #5D8599",
"7.	c #B9C8CD",
"8.	c #A7A7A7",
"9.	c #FAFAFA",
"0.	c #F5F5F5",
"a.	c #D6D6D6",
"b.	c #979797",
"c.	c #2D2D2D",
"d.	c #161616",
"e.	c #353535",
"f.	c #282828",
"g.	c #575757",
"h.	c #D4D4D4",
"i.	c #E8ECEE",
"j.	c #747E83",
"k.	c #394E58",
"l.	c #82A4B3",
"m.	c #4A6876",
"n.	c #4F6E7D",
"o.	c #486775",
"p.	c #5A6970",
"q.	c #CDD3D5",
"r.	c #6A6A6A",
"s.	c #474747",
"t.	c #3C3C3C",
"u.	c #424242",
"v.	c #464646",
"w.	c #4F4F4F",
"x.	c #A9A9A9",
"y.	c #F4F4F4",
"z.	c #FEFEFE",
"A.	c #D6D7D7",
"B.	c #EFF1F2",
"C.	c #D1D6D9",
"D.	c #CDCFD0",
"E.	c #DBDDDE",
"F.	c #ECECEC",
"G.	c #EEEEEE",
"H.	c #7C7C7C",
"I.	c #494949",
"J.	c #676767",
"K.	c #C9C9C9",
"L.	c #C3C3C3",
"M.	c #E9E9E9",
"N.	c #D3D3D3",
"O.	c #BBBBBB",
"                                                ",
"                                                ",
"                                                ",
"                                                ",
"                          . + @ # $ % &         ",
"                        * = - ; > , ' ) !       ",
"                        ~ { ] ^ / ( _ : < [     ",
"                      } | 1 2 3 4 5 6 7 8 9 0   ",
"                    a b c d e f g h i j k l m   ",
"                  . n o p q f r s   t u v w x   ",
"                  y z A B C D E     F j G H I   ",
"                    J K L L L M N s O L P Q R 0 ",
"            S T U V W X Y L L D j Z L `  ...+.  ",
"        @.a #.$.%.&.*.=.-.;.>.L ,.'.).!.~.{.].  ",
"        ^./.(._.:.<.[.t }.|.1.2.3.4.5.6.7.8.9.  ",
"  0.a.b.c.d.c.e.f.g.h.  i.j.k.l.m.n.o.p.q.S     ",
"! r.s.t.u.v.u.w.x.y..   z.+ A.B.C.D.E.F.0       ",
"G.H.I.J.8.K.L.M.                                ",
"y N.O.].                                        ",
"    z.                                          ",
"                                                ",
"                                                ",
"                                                ",
"                                                "};
