/* XPM */
static char * epg_help_xpm[] = {
"24 24 313 2",
"  	c #FFFFFF",
". 	c #E5CACA",
"+ 	c #D7AEAE",
"@ 	c #AF5E5E",
"# 	c #870D0D",
"$ 	c #61110A",
"% 	c #64120A",
"& 	c #66130A",
"* 	c #61170D",
"= 	c #5F160D",
"- 	c #5E140D",
"; 	c #732314",
"> 	c #843320",
", 	c #732515",
"' 	c #611B0F",
") 	c #5F170E",
"! 	c #60180E",
"~ 	c #632112",
"{ 	c #652212",
"] 	c #66140B",
"^ 	c #67140B",
"/ 	c #66130B",
"( 	c #7C0F0C",
"_ 	c #1E1D04",
": 	c #202709",
"< 	c #102E11",
"[ 	c #0E280E",
"} 	c #0C250D",
"| 	c #243114",
"1 	c #62622C",
"2 	c #9B9A5C",
"3 	c #65652D",
"4 	c #2A4D1D",
"5 	c #113212",
"6 	c #153B15",
"7 	c #225A23",
"8 	c #233E13",
"9 	c #242006",
"0 	c #252106",
"a 	c #65130A",
"b 	c #201E04",
"c 	c #1B3612",
"d 	c #133413",
"e 	c #0F2C0F",
"f 	c #0C230D",
"g 	c #1F3014",
"h 	c #808045",
"i 	c #8D8D54",
"j 	c #737537",
"k 	c #244D1C",
"l 	c #1B4C1C",
"m 	c #143815",
"n 	c #113312",
"o 	c #1A461B",
"p 	c #276025",
"q 	c #292508",
"r 	c #292307",
"s 	c #191A03",
"t 	c #1E1E05",
"u 	c #1D461B",
"v 	c #163A16",
"w 	c #172E11",
"x 	c #142D10",
"y 	c #394621",
"z 	c #5F6533",
"A 	c #395024",
"B 	c #254619",
"C 	c #3D5E24",
"D 	c #32632A",
"E 	c #123312",
"F 	c #235E24",
"G 	c #253A12",
"H 	c #292207",
"I 	c #151903",
"J 	c #1D2408",
"K 	c #1F4D1F",
"L 	c #123212",
"M 	c #1A2710",
"N 	c #313C1E",
"O 	c #242817",
"P 	c #27261A",
"Q 	c #2A281A",
"R 	c #32311C",
"S 	c #454422",
"T 	c #67692E",
"U 	c #5F712E",
"V 	c #2D4B20",
"W 	c #19471A",
"X 	c #224918",
"Y 	c #232006",
"Z 	c #1A1B03",
"` 	c #201F05",
" .	c #1A4519",
"..	c #172B16",
"+.	c #45423B",
"@.	c #161311",
"#.	c #121212",
"$.	c #1D1F1F",
"%.	c #292B2A",
"&.	c #2C302E",
"*.	c #2C2F2E",
"=.	c #373533",
"-.	c #6C6A4D",
";.	c #6D7231",
">.	c #20431A",
",.	c #123412",
"'.	c #204B19",
").	c #221F06",
"!.	c #1C1C04",
"~.	c #1F1D04",
"{.	c #1B3510",
"].	c #31382A",
"^.	c #0F0E0D",
"/.	c #20211B",
"(.	c #312820",
"_.	c #513A31",
":.	c #433028",
"<.	c #513B32",
"[.	c #44342A",
"}.	c #34332B",
"|.	c #2F342F",
"1.	c #423F2F",
"2.	c #3F5722",
"3.	c #103011",
"4.	c #1F3711",
"5.	c #201E05",
"6.	c #1B1B04",
"7.	c #191B03",
"8.	c #1C1E05",
"9.	c #13170C",
"0.	c #343024",
"a.	c #704F40",
"b.	c #5E4336",
"c.	c #A97C67",
"d.	c #8B6354",
"e.	c #CF967C",
"f.	c #C18C71",
"g.	c #BD8870",
"h.	c #8E6957",
"i.	c #1D1F16",
"j.	c #1E3216",
"k.	c #122F10",
"l.	c #222307",
"m.	c #1A1B04",
"n.	c #63120A",
"o.	c #171A03",
"p.	c #1B1B03",
"q.	c #1B1E06",
"r.	c #695741",
"s.	c #2C2118",
"t.	c #372820",
"u.	c #695247",
"v.	c #916C61",
"w.	c #564238",
"x.	c #443428",
"y.	c #4A392A",
"z.	c #BD9178",
"A.	c #CDA386",
"B.	c #193916",
"C.	c #1E2208",
"D.	c #1D1D05",
"E.	c #191B04",
"F.	c #1D1C04",
"G.	c #22210A",
"H.	c #393022",
"I.	c #1A150D",
"J.	c #211C16",
"K.	c #3C332A",
"L.	c #543E36",
"M.	c #252119",
"N.	c #1E1910",
"O.	c #2E2416",
"P.	c #9F8873",
"Q.	c #FACBAB",
"R.	c #866C50",
"S.	c #1E1D05",
"T.	c #1B1C04",
"U.	c #43341F",
"V.	c #726050",
"W.	c #231C13",
"X.	c #27231D",
"Y.	c #5B463D",
"Z.	c #B8836E",
"`.	c #342E27",
" +	c #221C11",
".+	c #322718",
"++	c #B09C85",
"@+	c #F3C5A6",
"#+	c #F4BB9F",
"$+	c #252107",
"%+	c #211E05",
"&+	c #65130B",
"*+	c #221F05",
"=+	c #2E2710",
"-+	c #826758",
";+	c #2E271E",
">+	c #43352E",
",+	c #855F50",
"'+	c #EDB59A",
")+	c #795E51",
"!+	c #3E3228",
"~+	c #433628",
"{+	c #B99785",
"]+	c #DEB49D",
"^+	c #BF8775",
"/+	c #1F1D05",
"(+	c #1F1E05",
"_+	c #242005",
":+	c #262106",
"<+	c #252005",
"[+	c #262107",
"}+	c #9A705E",
"|+	c #4D3832",
"1+	c #5E443C",
"2+	c #7A574B",
"3+	c #BC8B77",
"4+	c #C3937D",
"5+	c #8D6455",
"6+	c #D5907D",
"7+	c #C29D90",
"8+	c #C8A492",
"9+	c #98765F",
"0+	c #1F1E04",
"a+	c #2B2306",
"b+	c #2A2306",
"c+	c #99705C",
"d+	c #574039",
"e+	c #694B40",
"f+	c #5D3E35",
"g+	c #66463B",
"h+	c #966555",
"i+	c #79584A",
"j+	c #C48C78",
"k+	c #B0958B",
"l+	c #AC9284",
"m+	c #443B24",
"n+	c #1C1C05",
"o+	c #2B2307",
"p+	c #A87A63",
"q+	c #4C372F",
"r+	c #65352F",
"s+	c #592A27",
"t+	c #291616",
"u+	c #442916",
"v+	c #482F1B",
"w+	c #40291A",
"x+	c #805850",
"y+	c #87746B",
"z+	c #1D1D08",
"A+	c #2C2407",
"B+	c #282207",
"C+	c #231F05",
"D+	c #2A2307",
"E+	c #BE836D",
"F+	c #5A4036",
"G+	c #825C4D",
"H+	c #5D4037",
"I+	c #79564C",
"J+	c #9A6254",
"K+	c #835C47",
"L+	c #664431",
"M+	c #8F473C",
"N+	c #946C5F",
"O+	c #211F07",
"P+	c #211F05",
"Q+	c #2D2407",
"R+	c #252105",
"S+	c #2D2509",
"T+	c #D28C78",
"U+	c #895D4F",
"V+	c #624539",
"W+	c #533C34",
"X+	c #876256",
"Y+	c #C7917F",
"Z+	c #E1A591",
"`+	c #FDCDAD",
" @	c #F6C4A7",
".@	c #C29C80",
"+@	c #342809",
"@@	c #302608",
"#@	c #272106",
"$@	c #252007",
"%@	c #8F6353",
"&@	c #AA7362",
"*@	c #60453B",
"=@	c #75554A",
"-@	c #8F685D",
";@	c #EBAF97",
">@	c #FACAB0",
",@	c #FED4B2",
"'@	c #F1BC9E",
")@	c #8E7663",
"!@	c #1F200A",
"~@	c #441908",
"{@	c #431908",
"]@	c #481C08",
"^@	c #36100A",
"/@	c #461E1E",
"(@	c #703833",
"_@	c #783B34",
":@	c #955048",
"<@	c #A95F54",
"[@	c #CF8170",
"}@	c #BE7868",
"|@	c #8C4B42",
"1@	c #653534",
"2@	c #684140",
"3@	c #3A1C10",
"4@	c #451C0A",
"5@	c #461A08",
"6@	c #441A08",
"7@	c #71110B",
"8@	c #CA9494",
"  . + + + + + + + + + + + + + + + + + + + + +   ",
"  @ # # # # # # # # # # # # # # # # # # # # #   ",
"  @ # $ % & * = = - ; > , ' ) ! ~ { ] ^ / ( #   ",
"  @ # _ _ : < [ } | 1 2 3 4 5 < 6 7 8 9 0 a #   ",
"  @ # b _ c d e f g h i j k l m n o p q r / #   ",
"  @ # s t u v [ w x y z A B C D E n F G H ^ #   ",
"  @ # I J K L M N O P Q R S T U V 5 W X Y / #   ",
"  @ # Z `  ...+.@.#.$.%.&.*.=.-.;.>.,.'.)./ #   ",
"  @ # !.~.{.].^./.(._.:.<.[.}.|.1.2.3.4.5.a #   ",
"  @ # 6.7.8.9.0.a.b.c.d.e.f.g.h.i.j.k.l.m.n.#   ",
"  @ # Z o.p.q.r.s.t.u.v.w.x.y.z.A.B.C.D.E.n.#   ",
"  @ # F.p._ G.H.I.J.K.L.M.N.O.P.Q.R.).S.T.% #   ",
"  @ # F.~.~.U.V.W.X.Y.Z.`. +.+++@+#+$+%+D.&+#   ",
"  @ # _ *+*+=+-+;+>+,+'+)+!+~+{+]+^+/+(+)./ #   ",
"  @ # _+:+<+[+}+|+1+2+3+4+5+6+7+8+9+m.(+%+^ #   ",
"  @ # 0+:+a+b+c+d+e+f+g+h+i+j+k+l+m+n+0 ).% #   ",
"  @ # s %+b+o+p+q+r+s+t+u+v+w+x+y+z+(+A+B+% #   ",
"  @ # Z _ C+D+E+F+G+H+I+J+K+L+M+N+O+P+Q+Q+a #   ",
"  @ # _ 5.R+S+T+U+V+W+X+Y+Z+`+ @.@:+D++@@@/ #   ",
"  @ # %+%+#@$@%@&@*@=@-@;@>@,@'@)@!@D+@@A+^ #   ",
"  @ # ~@{@]@^@/@(@_@:@<@[@}@|@1@2@3@4@5@6@7@#   ",
"  @ # # # # # # # # # # # # # # # # # # # # #   ",
"  8@@ @ @ @ @ @ @ @ @ @ @ @ @ @ @ @ @ @ @ @ @   ",
"                                                "};
