/* XPM */
static char * epg_undo_xpm[] = {
"24 24 14 1",
" 	c None",
".	c #E5CACA",
"+	c #D7AEAE",
"@	c #AF5E5E",
"#	c #870D0D",
"$	c #952929",
"%	c #9D3A3A",
"&	c #BB7676",
"*	c #E4C9C9",
"=	c #C18383",
"-	c #8D1919",
";	c #DBB8B8",
">	c #A24343",
",	c #CA9494",
" .+++++++++++++++++++++ ",
" @##################### ",
" @#@@@@@@@@@@@@@@@@@@$# ",
" @#                  @# ",
" @#                  @# ",
" @#              #   @# ",
" @#            ###   @# ",
" @#         ######   @# ",
" @#       ########   @# ",
" @#    ###########   @# ",
" @#  #############   @# ",
" @#  #############   @# ",
" @#  %############   @# ",
" @#     ##########   @# ",
" @#       &#######   @# ",
" @#         *%####   @# ",
" @#            =-#   @# ",
" @#              ;   @# ",
" @#                  @# ",
" @#                  @# ",
" @#++++++++++++++++++># ",
" @##################### ",
" ,@@@@@@@@@@@@@@@@@@@@@ ",
"                        "};
