/* XPM */
static char * epg_find_xpm[] = {
"24 24 196 2",
"  	c #AF5E5E",
". 	c #CA9494",
"+ 	c #870D0D",
"@ 	c #A24343",
"# 	c #D7AEAE",
"$ 	c #D7AFAF",
"% 	c #D7B0B0",
"& 	c #D8B1B1",
"* 	c None",
"= 	c #FDFDFD",
"- 	c #EFEFEF",
"; 	c #D1D3D4",
"> 	c #E6E7E8",
", 	c #B9BEC0",
"' 	c #F4F9FB",
") 	c #FCFEFE",
"! 	c #FCFDFE",
"~ 	c #C3CBCF",
"{ 	c #6B818C",
"] 	c #4B778D",
"^ 	c #99BFD1",
"/ 	c #76A5BA",
"( 	c #8FC9E3",
"_ 	c #ABCBDA",
": 	c #E4E4E4",
"< 	c #870E0E",
"[ 	c #DDEEF6",
"} 	c #95C6DD",
"| 	c #92C7DA",
"1 	c #93CEE6",
"2 	c #BEE7F3",
"3 	c #AEDFEF",
"4 	c #BAE7F3",
"5 	c #A5C7D0",
"6 	c #97ABB5",
"7 	c #F9FCFD",
"8 	c #870F0F",
"9 	c #A3A3A3",
"0 	c #BAD9E6",
"a 	c #B3E0EF",
"b 	c #B5E5F2",
"c 	c #C3EDF6",
"d 	c #CAF1F8",
"e 	c #C9F1F8",
"f 	c #CFF4F9",
"g 	c #E0FCFE",
"h 	c #C2E5F0",
"i 	c #F2F8F9",
"j 	c #861010",
"k 	c #AF5F5F",
"l 	c #D2D2D2",
"m 	c #53595C",
"n 	c #A3D6E9",
"o 	c #B9E8F4",
"p 	c #CFF3FA",
"q 	c #E1FDFE",
"r 	c #E4FDFE",
"s 	c #EAFEFE",
"t 	c #EFFEFE",
"u 	c #E7FFFF",
"v 	c #D9F2F2",
"w 	c #9EA9A9",
"x 	c #6E1212",
"y 	c #AF6060",
"z 	c #898989",
"A 	c #8F9E9E",
"B 	c #C8F0F8",
"C 	c #D3F6FA",
"D 	c #ECFFFF",
"E 	c #F9FFFF",
"F 	c #FEFFFF",
"G 	c #EBFFFF",
"H 	c #E4FEFE",
"I 	c #DBF1F4",
"J 	c #8D3638",
"K 	c #B06161",
"L 	c #FBFBFB",
"M 	c #99A2A5",
"N 	c #B7D4DB",
"O 	c #D5F7FB",
"P 	c #E3FEFE",
"Q 	c #E6FFFF",
"R 	c #F6FFFF",
"S 	c #F7FFFF",
"T 	c #D7F0F1",
"U 	c #95ABB1",
"V 	c #7A3237",
"W 	c #B06262",
"X 	c #A6B0B5",
"Y 	c #A6C5CD",
"Z 	c #E5FFFF",
"` 	c #F1FFFF",
" .	c #FBFFFF",
"..	c #EDFFFF",
"+.	c #C3D9D9",
"@.	c #444A4B",
"#.	c #621717",
"$.	c #AF6363",
"%.	c #F9F9F9",
"&.	c #DFDFDF",
"*.	c #B0B0B1",
"=.	c #CACECF",
"-.	c #CBD3D6",
";.	c #C0DDE0",
">.	c #DAF3F3",
",.	c #E8FFFF",
"'.	c #E0FBFC",
").	c #ACCDD6",
"!.	c #41555E",
"~.	c #5F1313",
"{.	c #B16464",
"].	c #EBEBEB",
"^.	c #909090",
"/.	c #3F3F3F",
"(.	c #363C3F",
"_.	c #93B2C1",
":.	c #C9E5F2",
"<.	c #BACACF",
"[.	c #7D9297",
"}.	c #D4F1F4",
"|.	c #E3FDFD",
"1.	c #E1FBFB",
"2.	c #CFE7E7",
"3.	c #B2C8C9",
"4.	c #99BECB",
"5.	c #A7C0C8",
"6.	c #5C6468",
"7.	c #781818",
"8.	c #7E7E7E",
"9.	c #444444",
"0.	c #1D1D1D",
"a.	c #222222",
"b.	c #292F31",
"c.	c #697981",
"d.	c #D9DCDD",
"e.	c #ABC3CF",
"f.	c #92B6C4",
"g.	c #9FC4CF",
"h.	c #C5E4EA",
"i.	c #899B9C",
"j.	c #718A91",
"k.	c #4D6A77",
"l.	c #5D8599",
"m.	c #B9C8CD",
"n.	c #A7A7A7",
"o.	c #871818",
"p.	c #B06060",
"q.	c #A95C5C",
"r.	c #D6D6D6",
"s.	c #979797",
"t.	c #2D2D2D",
"u.	c #161616",
"v.	c #353535",
"w.	c #282828",
"x.	c #575757",
"y.	c #D4D4D4",
"z.	c #E8ECEE",
"A.	c #747E83",
"B.	c #394E58",
"C.	c #82A4B3",
"D.	c #4A6876",
"E.	c #4F6E7D",
"F.	c #486775",
"G.	c #5A6970",
"H.	c #CDD3D5",
"I.	c #891313",
"J.	c #790C0C",
"K.	c #4D3030",
"L.	c #474747",
"M.	c #3C3C3C",
"N.	c #424242",
"O.	c #464646",
"P.	c #4F4F4F",
"Q.	c #A9A9A9",
"R.	c #F4F4F4",
"S.	c #FEFEFE",
"T.	c #D6D7D7",
"U.	c #EFF1F2",
"V.	c #D1D6D9",
"W.	c #CDCFD0",
"X.	c #DBDDDE",
"Y.	c #ECECEC",
"Z.	c #FCFCFC",
"`.	c #7E0C0C",
" +	c #593636",
".+	c #494949",
"++	c #676767",
"@+	c #C9C9C9",
"#+	c #C3C3C3",
"$+	c #E9E9E9",
"%+	c #850D0D",
"&+	c #925050",
"*+	c #BBBBBB",
"=+	c #DCDCDC",
"-+	c #952929",
";+	c #E5CACA",
"                                              . ",
"+ + + + + + + + + + + + + + + + + + + + + + +   ",
"+ @ # # # # # # $ $ % % % & & # $ $ % % % & +   ",
"+   * * * * * * * * * * * * * * * * * * * * +   ",
"+   * * * * * * * * * * * = - ; > , ' ) * * +   ",
"+   * * * * * * * * * * ! ~ { ] ^ / ( _ : * <   ",
"+   * * * * * * * * * * [ } | 1 2 3 4 5 6 7 8   ",
"+   * * * * * * * * * 9 0 a b c d e f g h i j k ",
"+   * * * * * * * * l m n o p q r s t u v w x y ",
"+   * * * * * * * = z A B C q D E * F G H I J K ",
"+   * * * * * * * L M N O P Q R * * S u T U V W ",
"+   * * * * * * * * X Y Z Z Z `  .E ..Z +.@.#.$.",
"+   * * * * %.&.*.=.-.;.>.Z Z Q u ,.Z '.).!.~.{.",
"+   * * ].l ^./.(._.:.<.[.}.|.Z 1.2.3.4.5.6.7.W ",
"+   * * 8.9.0.a.b.c.d.F e.f.g.h.i.j.k.l.m.n.o.p.",
"+ q.r.s.t.u.t.v.w.x.y.* z.A.B.C.D.E.F.G.H.%.I.k ",
"J.K.L.M.N.O.N.P.Q.R.= * S.- T.U.V.W.X.Y.Z.* 8   ",
"`. +.+++n.@+#+$+* * * * * * * * * * * * * * +   ",
"%+&+*+=+* * * * * * * * * * * * * * * * * * +   ",
"+   S.* * * * * * * * * * * * * * * * * * * +   ",
"+ -+                                        +   ",
"+ + + + + + + + + + + + + + + + + + + + + + +   ",
"# # # # # # # # # # # # # # # # # # # # # # # ;+",
"* * * * * * * * * * * * * * * * * * * * * * * * "};
