/* XPM */
static char * epg_goal_xpm[] = {
"24 24 268 2",
"  	c #AF5E5E",
". 	c #CA9494",
"+ 	c #870D0D",
"@ 	c #A24343",
"# 	c #D7AEAE",
"$ 	c #D7AFAF",
"% 	c #D7B0B0",
"& 	c #D8B1B1",
"* 	c #FFFFFF",
"= 	c #ABE3A3",
"- 	c #ABE49E",
"; 	c #A5E097",
"> 	c #99D08C",
", 	c #9CC475",
"' 	c #92B863",
") 	c #8ABD65",
"! 	c #7DBF67",
"~ 	c #87D470",
"{ 	c #89D873",
"] 	c #87DA74",
"^ 	c #7DD667",
"/ 	c #7FD664",
"( 	c #78D65D",
"_ 	c #76D85D",
": 	c #70D957",
"< 	c #74D857",
"[ 	c #6CD152",
"} 	c #67CC4E",
"| 	c #6AD951",
"1 	c #69CD52",
"2 	c #6CCD4B",
"3 	c #6CDB50",
"4 	c #71DC53",
"5 	c #BAE9AB",
"6 	c #AEDA9E",
"7 	c #9FB674",
"8 	c #5F541F",
"9 	c #656D33",
"0 	c #40522F",
"a 	c #4D7542",
"b 	c #5F9152",
"c 	c #659E58",
"d 	c #558745",
"e 	c #65A353",
"f 	c #5D9A4A",
"g 	c #4F8C41",
"h 	c #569B48",
"i 	c #4E943E",
"j 	c #3D752D",
"k 	c #3F722A",
"l 	c #559734",
"m 	c #5E9835",
"n 	c #579A36",
"o 	c #60BF49",
"p 	c #6FDB56",
"q 	c #BFE2B1",
"r 	c #909A68",
"s 	c #A4A460",
"t 	c #859458",
"u 	c #6A692D",
"v 	c #5C5A22",
"w 	c #5E5C24",
"x 	c #5A5720",
"y 	c #565C22",
"z 	c #3E4016",
"A 	c #3C4318",
"B 	c #3F4516",
"C 	c #3E6726",
"D 	c #447F32",
"E 	c #478D36",
"F 	c #69D44E",
"G 	c #C0D7B8",
"H 	c #90986C",
"I 	c #A3C098",
"J 	c #000000",
"K 	c #84A178",
"L 	c #95B785",
"M 	c #7D9A6E",
"N 	c #7CA469",
"O 	c #89BB79",
"P 	c #88B670",
"Q 	c #95CA75",
"R 	c #78A958",
"S 	c #74AA59",
"T 	c #6FB859",
"U 	c #7AAE49",
"V 	c #305827",
"W 	c #305E25",
"X 	c #63C84C",
"Y 	c #C5D3BC",
"Z 	c #ABAF87",
"` 	c #9EB499",
" .	c #8BA481",
"..	c #60785A",
"+.	c #92BB85",
"@.	c #769A69",
"#.	c #7BA86A",
"$.	c #669859",
"%.	c #56824A",
"&.	c #80C068",
"*.	c #67B351",
"=.	c #CFD4C4",
"-.	c #B6B992",
";.	c #A1B49A",
">.	c #8C9C85",
",.	c #7C8D77",
"'.	c #A9CBA0",
").	c #89A781",
"!.	c #86A57A",
"~.	c #86B47A",
"{.	c #79A86D",
"].	c #8FCA7D",
"^.	c #5C8854",
"/.	c #80C06F",
"(.	c #619A55",
"_.	c #5A954B",
":.	c #D1D4CB",
"<.	c #C6C4A8",
"[.	c #C9D6C3",
"}.	c #BAD4B6",
"|.	c #819D79",
"1.	c #91B586",
"2.	c #ADE0A3",
"3.	c #89B483",
"4.	c #7CA96F",
"5.	c #8CC579",
"6.	c #557C4A",
"7.	c #44693A",
"8.	c #517F44",
"9.	c #CDC8C2",
"0.	c #DCD7C6",
"a.	c #ADB4A7",
"b.	c #98A294",
"c.	c #C2DDC1",
"d.	c #CEECC8",
"e.	c #CDEAC0",
"f.	c #A4CC98",
"g.	c #79A271",
"h.	c #517647",
"i.	c #D3CDC4",
"j.	c #D8D4CE",
"k.	c #DCDCD8",
"l.	c #B4B9B3",
"m.	c #CAD2CA",
"n.	c #DDEBD8",
"o.	c #DAEAD6",
"p.	c #D7EBD2",
"q.	c #D4E8CD",
"r.	c #CEE9C6",
"s.	c #CBE7C7",
"t.	c #CDEAC2",
"u.	c #C8E9B9",
"v.	c #C1E7B2",
"w.	c #BAE6B1",
"x.	c #B7E7AA",
"y.	c #B4E3A5",
"z.	c #4E6849",
"A.	c #5E8156",
"B.	c #99D78C",
"C.	c #D8CFC3",
"D.	c #E7E5E5",
"E.	c #DBDFDB",
"F.	c #EAEEE9",
"G.	c #E7ECE3",
"H.	c #E0EBDF",
"I.	c #DCECDA",
"J.	c #D8EADA",
"K.	c #D8E9D4",
"L.	c #D6E8CF",
"M.	c #D6EBCD",
"N.	c #CBEBC2",
"O.	c #CEE6C1",
"P.	c #C4E7BB",
"Q.	c #C3E8B8",
"R.	c #BEE7B1",
"S.	c #83AE77",
"T.	c #ACE79E",
"U.	c #D0C8BC",
"V.	c #C3C3C3",
"W.	c #909091",
"X.	c #CDC9CC",
"Y.	c #E9E6E7",
"Z.	c #EDECEE",
"`.	c #ECEDE9",
" +	c #EBF0EA",
".+	c #E9EDE6",
"++	c #E6ECE7",
"@+	c #E1EBE2",
"#+	c #E3EBE1",
"$+	c #DEECDA",
"%+	c #DBEBD6",
"&+	c #D5E9D0",
"*+	c #D3EACF",
"=+	c #D0E9CA",
"-+	c #CCE8C6",
";+	c #C7E8BF",
">+	c #8C7B3D",
",+	c #A2C097",
"'+	c #B2DBA9",
")+	c #B4E8AD",
"!+	c #CFCBC0",
"~+	c #A3916C",
"{+	c #C1C1C3",
"]+	c #E1E1E4",
"^+	c #EEEBEB",
"/+	c #ECECED",
"(+	c #EDEDEE",
"_+	c #EDEDED",
":+	c #EFF0EE",
"<+	c #EFEDEE",
"[+	c #EDEBED",
"}+	c #EAECE7",
"|+	c #E7EDE6",
"1+	c #E3ECE3",
"2+	c #E0E9E1",
"3+	c #DFECDB",
"4+	c #DFEDD7",
"5+	c #D7ECCE",
"6+	c #D5EBCC",
"7+	c #AEA167",
"8+	c #BBCBA7",
"9+	c #C8E5BD",
"0+	c #C1E8B9",
"a+	c #E1DCD4",
"b+	c #CABDA4",
"c+	c #ECECEE",
"d+	c #EAECEC",
"e+	c #EEEEEF",
"f+	c #EEECED",
"g+	c #ECEDEE",
"h+	c #EDECEC",
"i+	c #EEEDEC",
"j+	c #ECEDEB",
"k+	c #ECEDEC",
"l+	c #E9EEE9",
"m+	c #E9EDE5",
"n+	c #E7EDE4",
"o+	c #E8EADF",
"p+	c #E1EAE0",
"q+	c #DEEEDA",
"r+	c #DBE9D5",
"s+	c #CDD6B1",
"t+	c #D1E0BE",
"u+	c #D1EAC7",
"v+	c #CDEAC6",
"w+	c #EDE8EA",
"x+	c #EAE6E3",
"y+	c #EFEFED",
"z+	c #EDEDEC",
"A+	c #EDEDEF",
"B+	c #EEEEED",
"C+	c #EBECEC",
"D+	c #ECECEB",
"E+	c #EEEEEC",
"F+	c #EEEDED",
"G+	c #EBEDEC",
"H+	c #EBEEEA",
"I+	c #EDECEA",
"J+	c #EBEBE8",
"K+	c #E9EAE5",
"L+	c #E5ECE3",
"M+	c #E4EBE3",
"N+	c #DEEBD8",
"O+	c #DBEAD8",
"P+	c #DAEBD4",
"Q+	c #DFEED9",
"R+	c #952929",
"S+	c #E5CACA",
"                                              . ",
"+ + + + + + + + + + + + + + + + + + + + + + +   ",
"+ @ # # # # # # $ $ % % % & & # $ $ % % % & +   ",
"+   * * * * * * * * * * * * * * * * * * * * +   ",
"+   * * * * * * * * * * * * * * * * * * * * +   ",
"= - ; > , ' ) ! ~ { ] ^ / ( _ : < [ } | 1 2 3 4 ",
"5 6 7 8 8 8 9 0 a b c d e f g h i j k l m n o p ",
"q r 8 s t 8 8 8 u v w x 8 y z A B 8 8 8 C D E F ",
"G 8 H I J K L M J N O P J Q J R S J T U 8 V W X ",
"Y 8 Z ` J J  .J ..J +.@.J #.J J $.%.J &.8 J J *.",
"=.8 -.J ;.>.J ,.'.J ).J !.J ~.{.].J ^./.8 (.J _.",
":.8 <.J [.J J J }.J J J |.1.2.3.J 4.J 5.8 6.7.8.",
"9.8 0.J J a.b.J J c.d.e.J J J J f.J g.J 8 J J h.",
"i.8 j.J k.l.J m.n.o.p.q.r.s.t.u.v.w.x.y.8 z.A.B.",
"C.8 D.J J J E.F.G.H.I.J.K.L.M.N.O.P.Q.R.8 J S.T.",
"U.8 V.W.X.Y.Z.`. +.+++@+#+$+%+&+*+=+-+;+>+,+'+)+",
"!+~+{+]+^+/+(+_+:+<+[+}+|+1+2+3+4+o.5+6+7+8+9+0+",
"a+b+c+/+d+c+e+f+g+h+i+j+k+l+m+n+o+p+q+r+s+t+u+v+",
"w+x+i+y+d+z+A+B+C+D+E+g+F+G+H+I+J+K+L+M+N+O+P+Q+",
"+   * * * * * * * * * * * * * * * * * * * * +   ",
"+ R+                                        +   ",
"+ + + + + + + + + + + + + + + + + + + + + + +   ",
"# # # # # # # # # # # # # # # # # # # # # # # S+",
"* * * * * * * * * * * * * * * * * * * * * * * * "};
