/* XPM */
static char * epg_info_xpm[] = {
"24 23 46 1",
" 	c None",
".	c #E5CACA",
"+	c #D7AEAE",
"@	c #AF5E5E",
"#	c #870D0D",
"$	c #913F47",
"%	c #6F1E41",
"&	c #651344",
"*	c #5A0948",
"=	c #952929",
"-	c #E0E0E3",
";	c #8080AF",
">	c #0101BD",
",	c #5050D2",
"'	c #8080DE",
")	c #7070DA",
"!	c #0000BE",
"~	c #2C2CAE",
"{	c #9F9FE6",
"]	c #FEFEFE",
"^	c #DFDFF6",
"/	c #A4A4BC",
"(	c #4040AA",
"_	c #0101BE",
":	c #1818C4",
"<	c #BFBFEE",
"[	c #A7A7E8",
"}	c #2020B1",
"|	c #2020C6",
"1	c #9F4E50",
"2	c #0404BF",
"3	c #ABABE9",
"4	c #8F3E47",
"5	c #0000BD",
"6	c #0C0CC1",
"7	c #6060D6",
"8	c #C3C3EF",
"9	c #EBEBF9",
"0	c #5F5FD6",
"a	c #4747D0",
"b	c #1010C2",
"c	c #7F7FDE",
"d	c #B88F93",
"e	c #986F80",
"f	c #A24343",
"g	c #CA9494",
" .+++++++++++++++++++++ ",
" @##################### ",
" @#@@@@$%&****&%$@@@@=# ",
" @#  -;>>>>,')!!!;-  @# ",
" @# -~>>>>>{]^!!!!~- @# ",
" @# ;!>>>>>{]^!!!!!; @# ",
" @#/>!>>>>>>>>!!!!!!/@# ",
" @#(_!>>:<<<<[!!!!!!(@# ",
" @#}>!>>|]]]]^!!!!!!}1# ",
" @#__!>>2||3]^!!!!!!!4# ",
" @#!>!>>>>>{]^!!!!!!!4# ",
" @#>>!>>>>>{]^!!!!!!!4# ",
" @#>5!>>>>>{]^!!!!!!!4# ",
" @#}>!>>>>>{]^!!!!!!}1# ",
" @#(>!>>>>>{]^!!!!!!(@# ",
" @#/_!>>>>>{]^!!!!!!/@# ",
" @# ;!>>6778]90a!!!; @# ",
" @# -~>>|]]]]] <!!~- @# ",
" @#  -;>b'''''c0!;-  @# ",
" @#    /(}>>>>}(/    @# ",
" @#++++++deeeed++++++f# ",
" @##################### ",
" g@@@@@@@@@@@@@@@@@@@@@ "};
