/* XPM */
static char * find_8bit_xpm[] = {
"32 32 9 1",
" 	c None",
".	c #020204",
"+	c #4C3534",
"@	c #9A4644",
"#	c #9A4B4C",
"$	c #6D6B6B",
"%	c #AA8284",
"&	c #BDBCBA",
"*	c #7E0F0D",
"&%%%%%%%%%%%%%%%%%%%%%%%%%%%%%%&",
"&#*****************************&",
"&#*@@@@@@@@@@@@@@@@@@@@@@@@@@**&",
"&@*&&&&&&&&&&&&&&&&&&&&&&&&&&#*&",
"&@*&&&&&&&&&&&&&&&&&&&&&&&&&&@*&",
"&@*&&&&&&&&&&&&&&&&&&&&&&&&&&#*&",
"&@*&&&&&&&&&&&&&&&&&&&&&&&&&&@*&",
"&#*&&&&&&&&&&&&&&&&&&&&&&&&&&@*&",
"&#*&&&&&&&&&&&&&&&&&&&&&&&&&&@*&",
"&#*&&&&&&&&&&&&&&&&&&&&&&&&&&@*&",
"&#*&&&&&&&&&&&&&&&&&&&&&&&&&&@*&",
"&#*&&&&&&&&&&&&&&&&&&&&&&&&&&@*&",
"&#@&&&&&&&&&&&&&&&&&&&&&&&&&&@*&",
"&#*&&&&&&&&&&&&&&&&&&&&&&&&&&@*&",
"&#*&&&&&&&&&&&&&&&&&&&&&&&&&&@*&",
"&#*&&&&&&&&&&&&&&&&&&&&&&&&&&@*&",
"&#*&&&&&&&&&&&&&&&&&&&&&&&&&&@*&",
"&@*&&&&&&&&&&&&&&&&&&&&&&&&&&@*&",
"&#*&&&&&&&&&&&&&&&&&&&&&&&&&&@*&",
"&@*&&&&&&&&&&&&&&&&&&&&&&&&&&@*&",
"&@*%%%%%%%%%%%%%%%%%%%%%%%%%%@*&",
"&#*****************************&",
"&%@@@@#####@#@@####@#@@@@@@@@@@&",
"&&&&&&&&&&&&&&&&&&&&&&&&&&&&&&&&",
"&&&&&&&&&&&&&%%&&&&&&&&&$&&&&&&&",
"&&&&&&&&$.++$$$&&&&&&&&&.%&&&&&&",
"&&&&&&&&%.&&%+&$+&+%&%$+.&&&&&&&",
"&&&&&&&&$.+$&.&$.$++&.&$+&&&&&&&",
"&&&&&&&&+$&%$.&$.&+$$+&.$&&&&&&&",
"&&&&&&&&.$&&$+&+$&.&++$+$&&&&&&&",
"&&&&&&&$+$&&$+&$%&+$$+&+$&&&&&&&",
"&&&&&&&&&&&&&&&&&&&&&&&&&&&&&&&&"};
