/* XPM */
static char * find_xpm[] = {
"32 32 35 1",
" 	c None",
".	c #BCBCBC s backgroundToolBarColor",
"+	c #B09696",
"@	c #AA8282",
"#	c #994747",
"$	c #870D0D",
"%	c #994848",
"&	c #8D2121",
"*	c #870F0F",
"=	c #994949",
"-	c #891313",
";	c #994A4A",
">	c #8A1818",
",	c #9A4C4C",
"'	c #8B1C1C",
")	c #9B4E4E",
"!	c #8C1E1E",
"~	c #994B4B",
"{	c #8B1B1B",
"]	c #891414",
"^	c #881010",
"/	c #870E0E",
"(	c #AB8383",
"_	c #AB8484",
":	c #933434",
"<	c #A56E6E",
"[	c #939393",
"}	c #A7A7A7",
"|	c #7D7D7D",
"1	c #696969",
"2	c #000000",
"3	c #3F3F3F",
"4	c #545454",
"5	c #151515",
"6	c #2A2A2A",
".+@@@@@@@@@@@@@@@@@@@@@@@@@@@@@.",
".#$$$$$$$$$$$$$$$$$$$$$$$$$$$$$.",
".#$##%%%%%%%####%%%%#########&$.",
".#$..........................#$.",
".#$..........................#$.",
".%$..........................#$.",
".%*..........................#$.",
".=-..........................#$.",
".;>..........................#$.",
".,'..........................#$.",
".)'..........................#$.",
".)!..........................#$.",
".~!..........................#$.",
".~{..........................#$.",
".=]..........................#$.",
".=^..........................#$.",
".%*..........................#$.",
".%/..........................#$.",
".#$..........................#$.",
".#$..........................#$.",
".#$@@@@(_____@@@_____@@@@@@@@:$.",
".#$$$$$$$$$$$$$$$$$$$$$$$$$$$$$.",
".<#############################.",
"................................",
".............[[........}|}......",
"........123341|........}2[......",
"........[2..[3[13}4|.}432.......",
"........1534.2.|5163.5}|3.......",
"........34}}|5.15}6||3.54.......",
"........5|..13.31.2[3646|.......",
".......134..13.4[}31|3}31.......",
"................................"};
