/* XPM */
static char * goal_8bit_xpm[] = {
"32 32 9 1",
" 	c None",
".	c #10170F",
"+	c #656545",
"@	c #8A9176",
"#	c #79CE62",
"$	c #BCC5B6",
"%	c #E1ECDD",
"&	c #383C34",
"*	c #8B2824",
"$$$$$$$$$$$$$$$$$$$$$$$$$$$$$$$$",
"$@@@@@@@@@@@@@@@@@@@@@@@@@@@@@@$",
"$******************************$",
"$******************************$",
"$$%%%%%$$%#%%#%#%#%##%##%######$",
"$#%##@@++@&@###########+###@###$",
"$%%@@++@@&+.+&+&+@&&+&&&&++#&##$",
"$%@@@$$+#+@@++++++&&&&+@#@&@&##$",
"$%@$@$%+%@#@@###+##+##@##@&+&+#$",
"$%+$@#%@##&++#@#@##++#&#+#+++&#$",
"$%@$$@#@.@+#&#@++&@###+@&#+#+&#$",
"$%@$@&@%#$@%#&%@#@##@#@#@#+#&&@$",
"$%+$%@%$&++$@+++@@#%#@@###+++++#",
"$%*$%++$@$&@#%%#%#+@+##+@@+&&.+$",
"$%+$%&%%$+$%%%%%%#%%#%#%##++++#$",
"$%+%$+%@@%%%%%%%%%%%%%#%%#+@+#%$",
"$%+%%$&$%%%%%%%%%%%%#%%%%%+++#%$",
"$%+%@+$%%%%%%%%%%%%%%%%%#%+##%#$",
"$$+$$%%%%%%%%%%%%%%%%%%%%%@$%%%$",
"$%+%%%%%%%%%%%%%%%%%%%%%%%$$#%%$",
"$%$%%%%%%%%%%%%%%%%%%%%%%%%%%%%$",
"$%%%%%%%%%%%%%%%%%%%%%%%%%%%%%%$",
"$***************************.**$",
"$+*****************************$",
"$$$$$$$$$$$$$$$$$$$$$$$$+$$$$$$$",
"$$$$$$$$+.&&@$$$$$$$$$$@.@$$$$$$",
"$$$$$$$*&$$@$$+&+$$+&&@$.$$$$$$$",
"$$$$$$@.@$$$$&+@.@&+$.@+&$$$$@$$",
"$@$$@$@.$$..+.$$.+.$&.$+&$$@$$$$",
"$$$$$$@.+$&++.@&&+.+&&$*+$$$$$$$",
"$$@$$$$@*&&$$&&+$$&@+&$&+$$$@$$$",
"$$$$@$$$$$$$$$$$$$$$$$$$$$$$$$$$"};
