/* XPM */
static char * goal_xpm[] = {
"32 32 7 1",
" 	c None",
".	c #191B16",
"+	c #71915D",
"@	c #88DC73",
"#	c #EBF2E8",
"$	c #576342",
"%	c #A1A98A",
"################################",
"################################",
"###@@@@@@@@@@@@#################",
"##@@@@@@@@@@@@@@@@@@@@@@@@@#####",
"###@@@@@@@@@@@@@@@@@@@@@@@@@@@@#",
"###@#@#@@@@@@@@@@@@@@@@@@@@@@@@#",
"##@@#@@%+++%@@@@@@@@@@@@@@@@@@@#",
"##@#@+$$+$+$+++$$+$$++$.$$$$@@@#",
"###@$%%%++$.$.$$$$.$..$$+$@$+@@@",
"###%%+#%+#$@+%@++%%+%+%@@$$$.@@@",
"##@+%+#@$#+$$@@++@@$@@$@+++..@@#",
"###+%%%#$$$%$+%$$$$$++.+$+$+$+@#",
"###+%%$+%+%@@.#+@+@%@@+@+%+$$$@#",
"###+%%%#%$$%@$$+%+#@+@+@@%+.++@#",
"###$%#+$%+%$+#@#@++++%+++$$...@#",
"###$#%$##%$####@###@#@@#@%$$$@@#",
"###$#%$#$%#######@####@#@%$$%@##",
"###$##+$############@#@##%$$@@@#",
"###$#++#################@@+@@###",
"###$%%####################$##@##",
"###$#####################@%##@##",
"#########%%#####################",
"######%......%##############..%#",
"######..%#%..%##############%.##",
"#####$.####%$###%%####%%#%%#+.##",
"#####.+#######%....##$.$...#$$##",
"#####.+###$$$+.$##.$+.##+.##.+##",
"#####.$###+$.%.%##$$.$##%.##.%##",
"#####+.$##+.$#.$##.+$.##$$##.###",
"######$.....%#%...$##.....%..$##",
"########%#######%###############",
"################################"};
