/* XPM */
static char * goal_xpm[] = {
"32 32 784 2",
"  	c None",
". 	c #FFFFFF",
"+ 	c #FEFEFE",
"@ 	c #FCFEFB",
"# 	c #E6F9E2",
"$ 	c #E1F5D9",
"% 	c #DDF6D9",
"& 	c #DEF7D9",
"* 	c #E1F9D8",
"= 	c #DDF4D5",
"- 	c #DCF7D6",
"; 	c #DCF7D7",
"> 	c #DDF6D6",
", 	c #F3FBF1",
"' 	c #EFFAEB",
") 	c #A3E692",
"! 	c #9EE186",
"~ 	c #90E176",
"{ 	c #87DE71",
"] 	c #85DD6D",
"^ 	c #81DC6D",
"/ 	c #7DDE66",
"( 	c #7BDD5E",
"_ 	c #76E061",
": 	c #77D85F",
"< 	c #70DB58",
"[ 	c #79DD63",
"} 	c #91E37D",
"| 	c #B7EEA5",
"1 	c #CCF4C8",
"2 	c #E5F9E0",
"3 	c #EAF9E6",
"4 	c #E9FAE3",
"5 	c #E8FAE5",
"6 	c #F6FCF5",
"7 	c #ECF9EC",
"8 	c #A1E68F",
"9 	c #99DF83",
"0 	c #92DE7D",
"a 	c #91E07C",
"b 	c #8CDE7D",
"c 	c #8FDC75",
"d 	c #87E16D",
"e 	c #86DC6F",
"f 	c #7FE368",
"g 	c #7BDA65",
"h 	c #73DD61",
"i 	c #73DE51",
"j 	c #74DC5D",
"k 	c #73E053",
"l 	c #6ED758",
"m 	c #6DDB53",
"n 	c #76DB5A",
"o 	c #74E159",
"p 	c #6EDB56",
"q 	c #7DE061",
"r 	c #84DE69",
"s 	c #80DE6C",
"t 	c #92E27B",
"u 	c #94E483",
"v 	c #B3EBA1",
"w 	c #BDEFAE",
"x 	c #D3F1CA",
"y 	c #DAF5D5",
"z 	c #F4FCF2",
"A 	c #EDF8E7",
"B 	c #A6E196",
"C 	c #9EE08D",
"D 	c #98E18B",
"E 	c #97DA87",
"F 	c #90E084",
"G 	c #99E581",
"H 	c #8FE079",
"I 	c #88DC74",
"J 	c #86DF70",
"K 	c #82DF71",
"L 	c #82DC6B",
"M 	c #79DF64",
"N 	c #7EDE65",
"O 	c #73D959",
"P 	c #74DC57",
"Q 	c #72DB51",
"R 	c #72D550",
"S 	c #6BD350",
"T 	c #6ED855",
"U 	c #6CDB58",
"V 	c #6EE24E",
"W 	c #6CD94F",
"X 	c #6FD852",
"Y 	c #68D551",
"Z 	c #6EDB50",
"` 	c #6EDB4E",
" .	c #6FD75A",
"..	c #6BD850",
"+.	c #89E178",
"@.	c #F9FDF8",
"#.	c #EAF6E1",
"$.	c #A4DF9D",
"%.	c #A6E09A",
"&.	c #A6E092",
"*.	c #9CDC91",
"=.	c #A1DD8F",
"-.	c #A3E48A",
";.	c #98E188",
">.	c #94E07E",
",.	c #92E37A",
"'.	c #89DF71",
").	c #86DD71",
"!.	c #86DB6C",
"~.	c #84D96D",
"{.	c #7BDC64",
"].	c #7DDD65",
"^.	c #7AD95E",
"/.	c #76DB56",
"(.	c #74DE5A",
"_.	c #6BDD51",
":.	c #70D656",
"<.	c #70DE56",
"[.	c #71D852",
"}.	c #74DD57",
"|.	c #6CD652",
"1.	c #6CDA52",
"2.	c #71D750",
"3.	c #6ADC51",
"4.	c #73D852",
"5.	c #6FDA5B",
"6.	c #F3FAF1",
"7.	c #D9F0D0",
"8.	c #B0E4A3",
"9.	c #AFE6A3",
"0.	c #AEE69C",
"a.	c #AAE39D",
"b.	c #97CC8F",
"c.	c #98A050",
"d.	c #878434",
"e.	c #828331",
"f.	c #59834A",
"g.	c #72AE5F",
"h.	c #8EE37A",
"i.	c #90E07A",
"j.	c #8CE077",
"k.	c #82DC6E",
"l.	c #8BE16B",
"m.	c #82DF65",
"n.	c #7FDF5D",
"o.	c #75DD5D",
"p.	c #72D95A",
"q.	c #6CDC56",
"r.	c #63BE4A",
"s.	c #6ADB52",
"t.	c #68DF57",
"u.	c #71DA55",
"v.	c #74DA51",
"w.	c #6EDD51",
"x.	c #6EDC54",
"y.	c #71DA59",
"z.	c #E3F9DE",
"A.	c #D0F0C8",
"B.	c #BDEDAE",
"C.	c #B6E7AB",
"D.	c #B0D9A1",
"E.	c #8B8E4D",
"F.	c #7C5C15",
"G.	c #767033",
"H.	c #7C9C5C",
"I.	c #536E40",
"J.	c #5B7D4C",
"K.	c #374D31",
"L.	c #58834E",
"M.	c #5B874E",
"N.	c #55834A",
"O.	c #446C38",
"P.	c #456E39",
"Q.	c #588847",
"R.	c #457638",
"S.	c #355D2E",
"T.	c #487F3F",
"U.	c #59A445",
"V.	c #305A23",
"W.	c #20411A",
"X.	c #376C2A",
"Y.	c #53731F",
"Z.	c #5B7A24",
"`.	c #334F17",
" +	c #6CD653",
".+	c #6AD756",
"++	c #72DB59",
"@+	c #B9F0AA",
"#+	c #D1EECA",
"$+	c #C5EAB9",
"%+	c #AAC99A",
"&+	c #826623",
"*+	c #AD9341",
"=+	c #AEAB5E",
"-+	c #9C9C50",
";+	c #857C3D",
">+	c #8E7C33",
",+	c #735C1A",
"'+	c #5F4B11",
")+	c #4D3C0E",
"!+	c #382D0A",
"~+	c #535321",
"{+	c #4D491A",
"]+	c #5A6227",
"^+	c #536027",
"/+	c #27290E",
"(+	c #2E3D1D",
"_+	c #283918",
":+	c #181605",
"<+	c #43400E",
"[+	c #5A691D",
"}+	c #708D2B",
"|+	c #454D12",
"1+	c #65C24F",
"2+	c #4A8A3B",
"3+	c #407E31",
"4+	c #6DD950",
"5+	c #69DE53",
"6+	c #A4E796",
"7+	c #FAFDF9",
"8+	c #D0EBC9",
"9+	c #CAE8C7",
"0+	c #98A57B",
"a+	c #A79E5D",
"b+	c #758A6F",
"c+	c #BDE4B3",
"d+	c #A2C997",
"e+	c #819D74",
"f+	c #B2E6AA",
"g+	c #5E7856",
"h+	c #A4D899",
"i+	c #69814D",
"j+	c #A0CA76",
"k+	c #9ACA77",
"l+	c #819C56",
"m+	c #6B8142",
"n+	c #94B85F",
"o+	c #92B156",
"p+	c #6F7C33",
"q+	c #8BAE4E",
"r+	c #799440",
"s+	c #74B85B",
"t+	c #7ED768",
"u+	c #75D162",
"v+	c #5C6119",
"w+	c #284D26",
"x+	c #2F5B27",
"y+	c #214014",
"z+	c #6BDE53",
"A+	c #67D84B",
"B+	c #B5EAAA",
"C+	c #F5F8F3",
"D+	c #DAECD2",
"E+	c #D2E9CF",
"F+	c #83876E",
"G+	c #BCB270",
"H+	c #808D7A",
"I+	c #CAE8C1",
"J+	c #C2E2B7",
"K+	c #64735C",
"L+	c #C4E7AE",
"M+	c #779370",
"N+	c #374432",
"O+	c #495F44",
"P+	c #97C88A",
"Q+	c #ACE49B",
"R+	c #638553",
"S+	c #7DAA71",
"T+	c #8BC079",
"U+	c #A4E38B",
"V+	c #4A7046",
"W+	c #82C770",
"X+	c #86CE77",
"Y+	c #4D7D44",
"Z+	c #8DDA73",
"`+	c #538846",
" @	c #849E3E",
".@	c #548840",
"+@	c #233E1C",
"@@	c #182C14",
"#@	c #70D155",
"$@	c #72DB58",
"%@	c #CFF3CA",
"&@	c #F6F8F4",
"*@	c #DEECD9",
"=@	c #DCE7D1",
"-@	c #83846D",
";@	c #BFB273",
">@	c #9FB298",
",@	c #A7C1A1",
"'@	c #BBD8B2",
")@	c #697C66",
"!@	c #4A5245",
"~@	c #516051",
"{@	c #A2C79E",
"]@	c #546A4F",
"^@	c #627C60",
"/@	c #9FC48D",
"(@	c #44573C",
"_@	c #67825A",
":@	c #34472E",
"<@	c #537247",
"[@	c #4C7044",
"}@	c #68935B",
"|@	c #699A5C",
"1@	c #304528",
"2@	c #56834C",
"3@	c #4C773F",
"4@	c #89AA52",
"5@	c #405B2D",
"6@	c #477C3F",
"7@	c #33552C",
"8@	c #5E9D4E",
"9@	c #7EE16B",
"0@	c #D6F4D2",
"a@	c #F4FAF6",
"b@	c #E6E9E2",
"c@	c #E3EADF",
"d@	c #918C76",
"e@	c #C2B87F",
"f@	c #929B88",
"g@	c #535B51",
"h@	c #899583",
"i@	c #B6C9AD",
"j@	c #75846E",
"k@	c #98AE94",
"l@	c #ADC9A3",
"m@	c #ADD4A6",
"n@	c #323E31",
"o@	c #B7DCAE",
"p@	c #74926E",
"q@	c #BAE1AC",
"r@	c #688562",
"s@	c #B1E29F",
"t@	c #80AB77",
"u@	c #88BE78",
"v@	c #A2E28F",
"w@	c #648A59",
"x@	c #9AE28D",
"y@	c #5B8D56",
"z@	c #88A34A",
"A@	c #79A556",
"B@	c #446E3C",
"C@	c #2B4827",
"D@	c #4A7C3F",
"E@	c #87DF74",
"F@	c #D9F5D2",
"G@	c #F6F8F9",
"H@	c #E5EBE5",
"I@	c #E6EBE7",
"J@	c #8A8269",
"K@	c #CDC195",
"L@	c #C0C5B5",
"M@	c #8C9287",
"N@	c #D6E7D6",
"O@	c #B1BDA9",
"P@	c #4E564C",
"Q@	c #5E665D",
"R@	c #95A992",
"S@	c #B3CEB2",
"T@	c #60725E",
"U@	c #4F614C",
"V@	c #657C61",
"W@	c #8EAE87",
"X@	c #809B76",
"Y@	c #B8E6A8",
"Z@	c #AAE1A1",
"`@	c #81A77B",
" #	c #89B27D",
".#	c #7BA571",
"+#	c #8CC17D",
"@#	c #7CB06F",
"##	c #879C4C",
"$#	c #7A9750",
"%#	c #2A3C26",
"&#	c #517B44",
"*#	c #558348",
"=#	c #8DE17B",
"-#	c #DBF6D5",
";#	c #F5F5F2",
">#	c #EAEBEB",
",#	c #E9E8E9",
"'#	c #605034",
")#	c #CFC2A3",
"!#	c #E6E8DC",
"~#	c #757E73",
"{#	c #6D716C",
"]#	c #A4AD9D",
"^#	c #6E796E",
"/#	c #B0BBAB",
"(#	c #4B544A",
"_#	c #7D897A",
":#	c #B9D7BA",
"<#	c #CAECC1",
"[#	c #BAD4AA",
"}#	c #ACCFA3",
"|#	c #778E71",
"1#	c #748A6F",
"2#	c #72906E",
"3#	c #687D61",
"4#	c #8FB384",
"5#	c #6E8F67",
"6#	c #6B915E",
"7#	c #699061",
"8#	c #7C8242",
"9#	c #444721",
"0#	c #253222",
"a#	c #172215",
"b#	c #21311C",
"c#	c #97E17E",
"d#	c #DEF4DA",
"e#	c #F6F5F7",
"f#	c #F1EDEB",
"g#	c #EDECEC",
"h#	c #6C562A",
"i#	c #DFD6C5",
"j#	c #CAC9C2",
"k#	c #4D4C4C",
"l#	c #E4E9E1",
"m#	c #E5ECE1",
"n#	c #8F978C",
"o#	c #7B8078",
"p#	c #DEE9D9",
"q#	c #DAE8D5",
"r#	c #D0EDD8",
"s#	c #D4ECCF",
"t#	c #D3E7C5",
"u#	c #CDEBC1",
"v#	c #C6E9C4",
"w#	c #C6E7C1",
"x#	c #C9EBB9",
"y#	c #C4E6B7",
"z#	c #BAE9AD",
"A#	c #B5E3AF",
"B#	c #B2E8A7",
"C#	c #AFE5A5",
"D#	c #ABBB70",
"E#	c #4F5329",
"F#	c #283524",
"G#	c #445F3F",
"H#	c #91CD82",
"I#	c #9DE68D",
"J#	c #E9F6E5",
"K#	c #F2F0F1",
"L#	c #EEEEF0",
"M#	c #EDEEED",
"N#	c #83662E",
"O#	c #E7E4E2",
"P#	c #C8CAC9",
"Q#	c #747271",
"R#	c #E8E6E5",
"S#	c #797C7B",
"T#	c #A3A7A6",
"U#	c #E9EEE4",
"V#	c #E4EDE3",
"W#	c #E0ECD9",
"X#	c #DBE9D6",
"Y#	c #DCEAD6",
"Z#	c #D7E8D2",
"`#	c #D4E8CD",
" $	c #CCE7CA",
".$	c #D3E7CD",
"+$	c #D0EDC3",
"@$	c #CAE9B8",
"#$	c #C6E5B8",
"$$	c #C0E5B5",
"%$	c #C1E6B0",
"&$	c #B8E7A6",
"*$	c #B1BB76",
"=$	c #5B5D36",
"-$	c #566D50",
";$	c #88BA7E",
">$	c #A4E598",
",$	c #AAE799",
"'$	c #F0FAEB",
")$	c #EBECED",
"!$	c #ECEBED",
"~$	c #EEEAEB",
"{$	c #886A2E",
"]$	c #EBEDEC",
"^$	c #EFEAE9",
"/$	c #959095",
"($	c #595858",
"_$	c #D3D5D3",
":$	c #E7EFEA",
"<$	c #EEEEEC",
"[$	c #ECEFEC",
"}$	c #E6ECE5",
"|$	c #E0EAE1",
"1$	c #DFEEDB",
"2$	c #D7EBDF",
"3$	c #DCEBD9",
"4$	c #D9E9D1",
"5$	c #D6EDCE",
"6$	c #C8EBC6",
"7$	c #D3E6C8",
"8$	c #C6E6BC",
"9$	c #C5E9C2",
"0$	c #C6EBB5",
"a$	c #B4BF7D",
"b$	c #575530",
"c$	c #4C5F47",
"d$	c #8AB47F",
"e$	c #AEE99C",
"f$	c #ADE7A2",
"g$	c #F1F9ED",
"h$	c #EDEAEC",
"i$	c #EFECEC",
"j$	c #EFEBED",
"k$	c #83662B",
"l$	c #E8EDE7",
"m$	c #918E90",
"n$	c #838685",
"o$	c #E9E4E9",
"p$	c #EFEAED",
"q$	c #EFEDEA",
"r$	c #EAEAEE",
"s$	c #EDEEEA",
"t$	c #EBEFE5",
"u$	c #E8EEE7",
"v$	c #E7ECEB",
"w$	c #E2ECE0",
"x$	c #E4E9E3",
"y$	c #E1EEDC",
"z$	c #DDEDDA",
"A$	c #DBEBD5",
"B$	c #D4E8D0",
"C$	c #D2EACF",
"D$	c #D2E9CB",
"E$	c #CFE6C9",
"F$	c #C6E7C0",
"G$	c #BBC188",
"H$	c #7C7D4E",
"I$	c #C2E5B2",
"J$	c #B2D9AF",
"K$	c #B4EAAB",
"L$	c #B8E8A9",
"M$	c #F5FBF4",
"N$	c #F1EBEC",
"O$	c #ECEFF1",
"P$	c #7F6227",
"Q$	c #BFC0C0",
"R$	c #BCBCBE",
"S$	c #ECEBF0",
"T$	c #EFEBEB",
"U$	c #EDEDEE",
"V$	c #EEEBED",
"W$	c #EFF1EC",
"X$	c #F2EEEF",
"Y$	c #ECEEEE",
"Z$	c #EEECEE",
"`$	c #E9EBE7",
" %	c #E8ECE3",
".%	c #E3EEE3",
"+%	c #DFEAE2",
"@%	c #DDE7E1",
"#%	c #DEEED5",
"$%	c #DBEED5",
"%%	c #DCEBD5",
"&%	c #D6EBD0",
"*%	c #D6EACB",
"=%	c #C4CEA8",
"-%	c #967F42",
";%	c #C9E2C3",
">%	c #C7E4BA",
",%	c #BFE4B1",
"'%	c #CEECC1",
")%	c #EEEFEE",
"!%	c #ECEDEF",
"~%	c #EBEAED",
"{%	c #937437",
"]%	c #EAEBF0",
"^%	c #ECECEF",
"/%	c #EDEBEE",
"(%	c #EBEDED",
"_%	c #ECE9EE",
":%	c #EDEEEF",
"<%	c #F0EEED",
"[%	c #EBECEE",
"}%	c #EDEDF0",
"|%	c #EDECEB",
"1%	c #EEEDEE",
"2%	c #EDECE9",
"3%	c #ECEEED",
"4%	c #E9EDE9",
"5%	c #E5EDE3",
"6%	c #E7EAE2",
"7%	c #E5ECE2",
"8%	c #E5EBDE",
"9%	c #DCE9DC",
"0%	c #DEEFD8",
"a%	c #DAECD5",
"b%	c #D4E5CA",
"c%	c #BEB47A",
"d%	c #CDE4C8",
"e%	c #CFEBC3",
"f%	c #C9E9C1",
"g%	c #E2F5E3",
"h%	c #EEEDEF",
"i%	c #EFEEED",
"j%	c #E4DDD1",
"k%	c #ECEBEB",
"l%	c #EDEFED",
"m%	c #EEECEC",
"n%	c #E7EDEA",
"o%	c #D8D5D6",
"p%	c #BCBBBF",
"q%	c #D5D4D4",
"r%	c #EDEEEC",
"s%	c #E5E5E6",
"t%	c #E5E7E5",
"u%	c #F2EEEB",
"v%	c #ECECEE",
"w%	c #EDEEEB",
"x%	c #EBEEF0",
"y%	c #EBEFE8",
"z%	c #EBEFEA",
"A%	c #EBEDE6",
"B%	c #EEECE5",
"C%	c #E6E9E6",
"D%	c #E2ECDF",
"E%	c #E2EDDE",
"F%	c #DCE9D9",
"G%	c #DDECD5",
"H%	c #D8EAD1",
"I%	c #D1E2C4",
"J%	c #CBE0BF",
"K%	c #EAF5E9",
"L%	c #EEEBEB",
"M%	c #ECEAEC",
"N%	c #EBE9ED",
"O%	c #EFEBEA",
"P%	c #EFEFEF",
"Q%	c #C3C5C1",
"R%	c #363637",
"S%	c #000000",
"T%	c #464647",
"U%	c #242425",
"V%	c #A0A1A2",
"W%	c #EEEEEE",
"X%	c #EDEDEB",
"Y%	c #F0EDEE",
"Z%	c #EDEFEA",
"`%	c #E9EBEB",
" &	c #ECECEB",
".&	c #EEEBE7",
"+&	c #E6EBE6",
"@&	c #E6EDE6",
"#&	c #E1EBE0",
"$&	c #DFEDDC",
"%&	c #DCEADC",
"&&	c #222422",
"*&	c #CCCCCC",
"=&	c #F9F8F8",
"-&	c #F7F8F6",
";&	c #F7F8F8",
">&	c #F8F8F9",
",&	c #F9F7F9",
"'&	c #CCCBCB",
")&	c #0C0C0D",
"!&	c #2B2C2C",
"~&	c #A9A9A7",
"{&	c #D0CECD",
"]&	c #ACAAAD",
"^&	c #232222",
"/&	c #CCC9CD",
"(&	c #EEECF0",
"_&	c #EFEDEC",
":&	c #F1F0EE",
"<&	c #EFEEEB",
"[&	c #EBEDEB",
"}&	c #EEEEEA",
"|&	c #EEECEB",
"1&	c #EBEFE9",
"2&	c #EBEDEA",
"3&	c #ECEDEE",
"4&	c #E8ECE9",
"5&	c #E3EAE7",
"6&	c #E9EBE3",
"7&	c #E4EAE1",
"8&	c #A8AAA6",
"9&	c #020202",
"0&	c #F6F6F6",
"a&	c #4E4E4E",
"b&	c #1B1B1B",
"c&	c #FDFDFD",
"d&	c #FBFCFC",
"e&	c #BCBABB",
"f&	c #444444",
"g&	c #F1EFF2",
"h&	c #F4F8F7",
"i&	c #EAE8EA",
"j&	c #B3B1B2",
"k&	c #B8B3B0",
"l&	c #EEF0EB",
"m&	c #F3F0F4",
"n&	c #F7F3F5",
"o&	c #F3F2F4",
"p&	c #C2BEC2",
"q&	c #ACADB0",
"r&	c #E5E7E8",
"s&	c #CECECA",
"t&	c #CECFCC",
"u&	c #FAFAFA",
"v&	c #8B8B8B",
"w&	c #272727",
"x&	c #060606",
"y&	c #7A7A7A",
"z&	c #171717",
"A&	c #1F1F1F",
"B&	c #242424",
"C&	c #E2E2E2",
"D&	c #F5F5F5",
"E&	c #464646",
"F&	c #414141",
"G&	c #212121",
"H&	c #1C1C1C",
"I&	c #5D5D5D",
"J&	c #535353",
"K&	c #EBEBEB",
"L&	c #909090",
"M&	c #555555",
"N&	c #808080",
"O&	c #2E2E2E",
"P&	c #F7F7F7",
"Q&	c #2B2B2B",
"R&	c #696969",
"S&	c #848484",
"T&	c #1D1D1D",
"U&	c #868686",
"V&	c #303030",
"W&	c #7F7F7F",
"X&	c #131313",
"Y&	c #505050",
"Z&	c #EAEAEA",
"`&	c #949494",
" *	c #3E3E3E",
".*	c #2C2C2C",
"+*	c #B2B2B2",
"@*	c #AFAFAF",
"#*	c #585858",
"$*	c #4F4F4F",
"%*	c #646464",
"&*	c #ACACAC",
"**	c #1A1A1A",
"=*	c #FBFBFB",
"-*	c #070707",
";*	c #757575",
">*	c #DCDCDC",
",*	c #E4E4E4",
"'*	c #8A8A8A",
")*	c #040404",
"!*	c #6F6F6F",
"~*	c #656565",
"{*	c #111111",
"]*	c #8F8F8F",
"^*	c #5E5E5E",
"/*	c #363636",
"(*	c #F8F8F8",
"_*	c #494949",
":*	c #484848",
"<*	c #D4D4D4",
"[*	c #D8D8D8",
"}*	c #7B7B7B",
"|*	c #2D2D2D",
"1*	c #9B9B9B",
"2*	c #BEBEBE",
"3*	c #141414",
"4*	c #050505",
"5*	c #595959",
"6*	c #F9F9F9",
"7*	c #0C0C0C",
"8*	c #A6A6A6",
"9*	c #4A4A4A",
"0*	c #F2F2F2",
"a*	c #CACACA",
"b*	c #D5D5D5",
"c*	c #EDEDED",
"d*	c #CECECE",
"e*	c #E3E3E3",
"f*	c #CDCDCD",
"g*	c #ECECEC",
"h*	c #E9E9E9",
"i*	c #F1F1F1",
". . . . . . . . . . . . . . . . . . . . . . . . . . . . . . . . ",
". + . @ # $ % & * = - ; > , . . . . . . . . . . . . . . . . . . ",
". ' ) ! ~ { ] ^ / ( _ : < [ } | 1 2 3 4 5 6 . . . . . . . . . . ",
". 7 8 9 0 a b c d e f g h i j k l m n o p q r s t u v w x y z . ",
". A B C D E F G H I J K L M N O P Q R S T U V W X Y Z `  ...+.@.",
". #.$.%.&.*.=.-.;.>.,.'.).!.~.{.].^./.(._.:.<.[.}.|.1.2.3.4.5.6.",
". 7.8.9.0.a.b.c.d.e.f.g.h.i.j.k.l.m.n.o.p.n q.r.s.t.u.v.w.x.y.z.",
". A.B.C.D.E.F.G.H.I.J.K.L.M.N.O.P.Q.R.S.T.U.V.W.X.Y.Z.`. +.+++@+",
". #+$+%+&+*+=+-+;+>+,+'+)+!+~+{+]+^+/+(+_+:+<+[+}+|+1+2+3+4+5+6+",
"7+8+9+0+a+b+c+d+e+f+g+h+i+j+k+l+m+n+o+p+q+r+s+t+u+v+w+x+y+z+A+B+",
"C+D+E+F+G+H+I+J+K+L+M+N+O+P+Q+R+S+T+U+V+W+X+Y+Z+`+ @.@+@@@#@$@%@",
"&@*@=@-@;@>@,@'@)@!@~@{@]@^@/@(@_@:@<@[@}@|@1@2@3@4@5@6@7@8@9@0@",
"a@b@c@d@e@f@g@h@i@j@k@l@m@n@o@p@q@r@s@t@u@v@w@x@y@z@A@B@C@D@E@F@",
"G@H@I@J@K@L@M@N@O@P@Q@R@S@T@U@V@W@X@Y@Z@`@ #.#+#@###$#%#&#*#=#-#",
";#>#,#'#)#!#~#{#]#^#/#(#_#:#<#[#}#|#1#2#3#4#5#6#7#8#9#0#a#b#c#d#",
"e#f#g#h#i#j#k#l#m#n#o#p#q#r#s#t#u#v#w#x#y#z#A#B#C#D#E#F#G#H#I#J#",
"K#L#M#N#O#P#Q#R#S#T#U#V#W#X#Y#Z#`# $.$+$@$#$$$%$&$*$=$-$;$>$,$'$",
")$!$~${$]$^$/$($_$:$<$[$}$|$1$2$3$q#4$5$6$7$8$9$0$a$b$c$d$e$f$g$",
"h$i$j$k$l$m$n$o$p$q$r$s$t$u$v$w$x$y$z$A$B$C$D$E$F$G$H$I$J$K$L$M$",
"N$p$O$P$Q$R$S$T$]$U$V$W$X$Y$Z$`$ %.%+%@%#%$%%%&%*%=%-%;%>%,%'%+ ",
")%!%~%{%]%^%/%(%_%:%<%[%}%|%1%2%3%4%5%6%7%8%9%0%a%b%c%d%e%f%g%. ",
"h%3%i%j%k%l%m%n%o%p%q%r%s%t%u%v%w%x%y%z%A%B%C%D%E%F%G%H%I%J%K%. ",
"Z$L%M%N%O%P%Q%R%S%S%S%T%U%V%W%X%Y%~%Z%`%j$ &.&+&@&#&$&%&&&S%*&. ",
"=&-&;&>&,&'&)&!&~&{&]&^&S%/&(&_&:&<&[&}&|&1&2&3&4&5&6&7&8&9&0&. ",
". . . . . a&b&W%+ c&d&e&f&g&h&i&j&k&l&m&n&o&p&q&r&s&t&u&v&w&. . ",
". . . . u&x&y&. . . . . . . *&z&A&b&B&C&D&E&b&F&G&9&H&+ I&J&. . ",
". . . . K&S%L&. . P%M&M&M&N&O&M&c&P&Q&R&S&T&P%. U&S%K&. V&W&. . ",
". . . . c&X&Y&. . Z&`& *.*+*S%@*. . #*$*f&%*. . &***. =*-*&*. . ",
". . . . . S&S%;*>*,*'*)*!*. A&~*+ >*{*]*^*/*u&(*_*:*. <*S%[*. . ",
". . . . . c&}*-*S%S%|*G&1*. 2*3*3*4*5*6*[*H&z&H&7*S%8*S%S%9*. . ",
". . . . . . . 0*a*b*c&c*(*. . P&d*e*. . . P&f*W%g*h*P&h*h*i*. . ",
". . . . . . . . . . . . . . . . . . . . . . . . . . . . . . . . "};
