/* XPM */
static char * goal_xpm[] = {
"32 32 551 2",
"  	c None",
". 	c #BCBCBC",
"+ 	c #B09595",
"@ 	c #AA8181",
"# 	c #984747",
"$ 	c #870D0D",
"% 	c #984848",
"& 	c #8D2020",
"* 	c #A8E1A3",
"= 	c #A8E29F",
"- 	c #A8E498",
"; 	c #A1DF96",
"> 	c #A3E098",
", 	c #A2DB8D",
"' 	c #A1CD74",
") 	c #96CA6C",
"! 	c #92D674",
"~ 	c #8FDF77",
"{ 	c #8FE176",
"] 	c #8ADE73",
"^ 	c #8BD974",
"/ 	c #83DB71",
"( 	c #7EDE68",
"_ 	c #85DD67",
": 	c #7BDF62",
"< 	c #7CDD5C",
"[ 	c #76DF60",
"} 	c #6FDA52",
"| 	c #75D857",
"1 	c #74DF59",
"2 	c #6DD552",
"3 	c #6EDD53",
"4 	c #6DDF53",
"5 	c #6ADA5B",
"6 	c #72D751",
"7 	c #6FDA4E",
"8 	c #6DE152",
"9 	c #72DA51",
"0 	c #B7E7A6",
"a 	c #B3E9A6",
"b 	c #B4E6A2",
"c 	c #A4D694",
"d 	c #6F8958",
"e 	c #8C7F31",
"f 	c #6E6D2E",
"g 	c #6E7636",
"h 	c #65793F",
"i 	c #344A2D",
"j 	c #6CA65C",
"k 	c #7ABD6A",
"l 	c #92DF7C",
"m 	c #88D976",
"n 	c #72B759",
"o 	c #72BC5D",
"p 	c #6EB656",
"q 	c #69B94F",
"r 	c #6FCC5B",
"s 	c #71D15F",
"t 	c #71D759",
"u 	c #68CC4D",
"v 	c #417C31",
"w 	c #58B145",
"x 	c #60CC4D",
"y 	c #60A33A",
"z 	c #579833",
"A 	c #5DBA45",
"B 	c #6EDD54",
"C 	c #72DC58",
"D 	c #BFECB1",
"E 	c #BBE7AE",
"F 	c #899C70",
"G 	c #957829",
"H 	c #A5781B",
"I 	c #806720",
"J 	c #958F43",
"K 	c #807F38",
"L 	c #4A4A20",
"M 	c #41512F",
"N 	c #1D2819",
"O 	c #395533",
"P 	c #243620",
"Q 	c #406239",
"R 	c #263A20",
"S 	c #548246",
"T 	c #5B8E4C",
"U 	c #2F4F28",
"V 	c #284024",
"W 	c #375E2F",
"X 	c #2A4922",
"Y 	c #142610",
"Z 	c #243E16",
"` 	c #2F3D11",
" .	c #516318",
"..	c #5A862F",
"+.	c #69A938",
"@.	c #326026",
"#.	c #70DC57",
"$.	c #6BD953",
"%.	c #C9E9BD",
"&.	c #9AAE83",
"*.	c #9D7E2F",
"=.	c #9D975C",
"-.	c #AECA8E",
";.	c #AFD592",
">.	c #65764D",
",.	c #9AB173",
"'.	c #6B6833",
").	c #A1A14E",
"!.	c #958D3B",
"~.	c #71631D",
"{.	c #72621E",
"].	c #74621E",
"^.	c #70621E",
"/.	c #685817",
"(.	c #645717",
"_.	c #4F430F",
":.	c #42390D",
"<.	c #3F390D",
"[.	c #433D0E",
"}.	c #6D7020",
"|.	c #799D39",
"1.	c #7BBA48",
"2.	c #718A2A",
"3.	c #284519",
"4.	c #4A933D",
"5.	c #285022",
"6.	c #4E9C38",
"7.	c #6DDE50",
"8.	c #CCE6CA",
"9.	c #8E9972",
"0.	c #ACA260",
"a.	c #8EA98A",
"b.	c #A6C69E",
"c.	c #BEE2B1",
"d.	c #63795A",
"e.	c #B8E6AC",
"f.	c #81A174",
"g.	c #81A47A",
"h.	c #7BA172",
"i.	c #66895D",
"j.	c #A2E895",
"k.	c #7AB078",
"l.	c #90C77B",
"m.	c #537848",
"n.	c #A3E086",
"o.	c #94D278",
"p.	c #57763E",
"q.	c #90D16F",
"r.	c #88C96A",
"s.	c #558E4F",
"t.	c #86DF70",
"u.	c #5EA450",
"v.	c #80B247",
"w.	c #3D5220",
"x.	c #36622E",
"y.	c #1F3916",
"z.	c #39722D",
"A.	c #6CDF54",
"B.	c #D5EAD2",
"C.	c #7A7B66",
"D.	c #BDAE6C",
"E.	c #98A690",
"F.	c #A9C2A4",
"G.	c #C8E3BD",
"H.	c #7C9174",
"I.	c #9DB48A",
"J.	c #A6C79A",
"K.	c #354031",
"L.	c #455841",
"M.	c #4D6645",
"N.	c #AFE2A3",
"O.	c #87B177",
"P.	c #87B377",
"Q.	c #6D8F60",
"R.	c #97D084",
"S.	c #9AD283",
"T.	c #334E31",
"U.	c #5C8A4F",
"V.	c #5E9153",
"W.	c #345130",
"X.	c #93E176",
"Y.	c #538447",
"Z.	c #8FD26F",
"`.	c #595E1D",
" +	c #385D2C",
".+	c #467B39",
"++	c #1D3618",
"@+	c #7DDB5C",
"#+	c #DCE6D1",
"$+	c #7F7E67",
"%+	c #BEAE6D",
"&+	c #C7DEBD",
"*+	c #809580",
"=+	c #9EB797",
"-+	c #768A70",
";+	c #222721",
">+	c #839A82",
",+	c #6D816B",
"'+	c #ACD1A2",
")+	c #2A3529",
"!+	c #92B48B",
"~+	c #819E75",
"{+	c #495B42",
"]+	c #627955",
"^+	c #2B3A27",
"/+	c #5E8050",
"(+	c #71A567",
"_+	c #7FB370",
":+	c #95D77F",
"<+	c #4A6841",
"[+	c #537D4A",
"}+	c #2F4B2C",
"|+	c #8ED77B",
"1+	c #5D5D1C",
"2+	c #72B861",
"3+	c #4A8042",
"4+	c #0F1A0E",
"5+	c #76C967",
"6+	c #E4EAE2",
"7+	c #908A71",
"8+	c #C4B87F",
"9+	c #9AA290",
"0+	c #3F443E",
"a+	c #A1AD9B",
"b+	c #CFE4C4",
"c+	c #95A58E",
"d+	c #B3CCAE",
"e+	c #788570",
"f+	c #C4E9BA",
"g+	c #96BA95",
"h+	c #3E4B3B",
"i+	c #BCE4B5",
"j+	c #708A69",
"k+	c #BBE4AE",
"l+	c #6C8864",
"m+	c #B3E2A3",
"n+	c #8EBC85",
"o+	c #719B66",
"p+	c #A3E591",
"q+	c #62845A",
"r+	c #98DE87",
"s+	c #5C8658",
"t+	c #8FD478",
"u+	c #747023",
"v+	c #88D078",
"w+	c #233920",
"x+	c #3C6636",
"y+	c #598F47",
"z+	c #E5EBE7",
"A+	c #7B7258",
"B+	c #CBBE92",
"C+	c #D0D4C5",
"D+	c #878E83",
"E+	c #DDE9D8",
"F+	c #A5B39F",
"G+	c #545B54",
"H+	c #6A736A",
"I+	c #4A5448",
"J+	c #C7DFC4",
"K+	c #829781",
"L+	c #4E604C",
"M+	c #5C715A",
"N+	c #5B6D55",
"O+	c #748C6D",
"P+	c #7B9873",
"Q+	c #B9E6AA",
"R+	c #ADE5A6",
"S+	c #87AE83",
"T+	c #779669",
"U+	c #6C9062",
"V+	c #96CF86",
"W+	c #6F9D67",
"X+	c #96D080",
"Y+	c #786720",
"Z+	c #557A4B",
"`+	c #4C6F42",
" @	c #486F3B",
".@	c #528047",
"+@	c #EAE7E9",
"@@	c #564525",
"#@	c #CFC1A1",
"$@	c #E7E9DE",
"%@	c #787D74",
"&@	c #6C716C",
"*@	c #A1A89B",
"=@	c #A1AA9B",
"-@	c #9CA698",
";@	c #4E544C",
">@	c #6F7A6D",
",@	c #B4CCB1",
"'@	c #C9ECCA",
")@	c #CFEDC2",
"!@	c #CBEABC",
"~@	c #C2E8B6",
"{@	c #7E987B",
"]@	c #73886F",
"^@	c #718C6C",
"/@	c #6D8366",
"(@	c #A1C594",
"_@	c #8FBE88",
":@	c #698D5F",
"<@	c #688E62",
"[@	c #688B5B",
"}@	c #6F5A19",
"|@	c #3B5135",
"1@	c #10160E",
"2@	c #131C10",
"3@	c #4A6E40",
"4@	c #ECEBED",
"5@	c #654D1E",
"6@	c #DFD5C4",
"7@	c #CFCDC7",
"8@	c #464745",
"9@	c #DFDFDA",
"0@	c #E8EDE3",
"a@	c #B8C4B8",
"b@	c #63685F",
"c@	c #CAD2C9",
"d@	c #D9EAD7",
"e@	c #D7E9D6",
"f@	c #D7ECD2",
"g@	c #D2EBCE",
"h@	c #D3E8C7",
"i@	c #CCEBC0",
"j@	c #C7E8C5",
"k@	c #C6E7C1",
"l@	c #CBEBBA",
"m@	c #C4E8B9",
"n@	c #BDE9AD",
"o@	c #B4E4B2",
"p@	c #B5E8AA",
"q@	c #B1E7A6",
"r@	c #B1E0A2",
"s@	c #79601E",
"t@	c #3B5036",
"u@	c #425D3C",
"v@	c #4E6946",
"w@	c #9EE390",
"x@	c #EDECEE",
"y@	c #7D5E22",
"z@	c #E7E4E2",
"A@	c #D2D3D3",
"B@	c #6B6A68",
"C@	c #E7E5E5",
"D@	c #909290",
"E@	c #848685",
"F@	c #E0E5DF",
"G@	c #E5EEE7",
"H@	c #E3ECD9",
"I@	c #DDECDB",
"J@	c #DDE9D6",
"K@	c #D9EAD5",
"L@	c #D6E6D2",
"M@	c #D3E9CC",
"N@	c #CEE5CA",
"O@	c #D3E7CD",
"P@	c #D0EDC4",
"Q@	c #CAE9B7",
"R@	c #C9E7B9",
"S@	c #C1E5B4",
"T@	c #C0E6B4",
"U@	c #B9E6A8",
"V@	c #B8E4A8",
"W@	c #7A5F1E",
"X@	c #80A47B",
"Y@	c #384833",
"Z@	c #A4E496",
"`@	c #A8E69B",
" #	c #EEEAEA",
".#	c #826222",
"+#	c #EBEDEC",
"@#	c #EFEAEA",
"##	c #BFB9BE",
"$#	c #484746",
"%#	c #A7A9A8",
"&#	c #E7EFE9",
"*#	c #EDEEED",
"=#	c #EDEFEB",
"-#	c #EBEDE8",
";#	c #E3EBE6",
">#	c #DFECDD",
",#	c #DBEDDD",
"'#	c #D9EBDD",
")#	c #DCEAD9",
"!#	c #D9E9D2",
"~#	c #D9E9D1",
"{#	c #D7EDCE",
"]#	c #C8ECC4",
"^#	c #D4E6C9",
"/#	c #C5E6BB",
"(#	c #C8EAC5",
"_#	c #C5E9B9",
":#	c #BFE8B4",
"<#	c #7C601F",
"[#	c #4F6148",
"}#	c #4B6044",
"|#	c #B1EAA0",
"1#	c #ADE7A0",
"2#	c #E1DFDF",
"3#	c #896A2B",
"4#	c #EBEFEA",
"5#	c #A4A2A4",
"6#	c #747575",
"7#	c #D2D0D2",
"8#	c #F0E6ED",
"9#	c #EDEEEB",
"0#	c #EDEAF0",
"a#	c #EBEEE7",
"b#	c #EBF1EB",
"c#	c #E9EDE5",
"d#	c #E8EDE7",
"e#	c #E6ECE8",
"f#	c #E0EBE1",
"g#	c #E5EAE4",
"h#	c #E0EDDA",
"i#	c #DCECD9",
"j#	c #DBEBD4",
"k#	c #D4E8D0",
"l#	c #D3EAD0",
"m#	c #D0E9CB",
"n#	c #CFE9C9",
"o#	c #C9E6C5",
"p#	c #C5E8BD",
"q#	c #866924",
"r#	c #A6C79E",
"s#	c #B3D6A4",
"t#	c #B6E5B3",
"u#	c #B3E9AD",
"v#	c #DEE1E4",
"w#	c #856627",
"x#	c #C5C7C6",
"y#	c #9B9A9C",
"z#	c #ECEBF0",
"A#	c #EEEAEB",
"B#	c #F0ECEA",
"C#	c #E8EEEE",
"D#	c #EFEBEE",
"E#	c #EEEEEC",
"F#	c #F0F1ED",
"G#	c #F2F0EF",
"H#	c #EBEBED",
"I#	c #EFEAEC",
"J#	c #E7ECE5",
"K#	c #E6EDE4",
"L#	c #E2EEE3",
"M#	c #DFEAE2",
"N#	c #DDE6E0",
"O#	c #DCEDD5",
"P#	c #DCEFD4",
"Q#	c #DCEBD5",
"R#	c #D4E9D0",
"S#	c #D4EBC8",
"T#	c #D4EBCB",
"U#	c #A68B45",
"V#	c #A9B297",
"W#	c #C5E5BB",
"X#	c #C5E2B8",
"Y#	c #BDE9B2",
"Z#	c #EAEBED",
"`#	c #846425",
" $	c #EAECF0",
".$	c #EBEBF1",
"+$	c #EDEDED",
"@$	c #ECEDEC",
"#$	c #EBEAEE",
"$$	c #EAEEEF",
"%$	c #F1EDEE",
"&$	c #EAECED",
"*$	c #EDEEF1",
"=$	c #EFECEC",
"-$	c #EBEBEE",
";$	c #EDEEE6",
">$	c #E7ECE7",
",$	c #E5EDE1",
"'$	c #E6E9E2",
")$	c #E3EDE2",
"!$	c #E6EADC",
"~$	c #DBEADE",
"{$	c #E0EBD8",
"]$	c #D9F1D3",
"^$	c #D8E9D0",
"/$	c #BAB985",
"($	c #C5C89A",
"_$	c #CCE5C0",
":$	c #CDEBC6",
"<$	c #C5EAC4",
"[$	c #EEEDEB",
"}$	c #D9CCB1",
"|$	c #EDEAEC",
"1$	c #EEEEED",
"2$	c #E7ECEB",
"3$	c #EEECEC",
"4$	c #EEECEF",
"5$	c #EEEFF0",
"6$	c #F0ECED",
"7$	c #EBEEEC",
"8$	c #ECEBEC",
"9$	c #ECEDE9",
"0$	c #F0EEEB",
"a$	c #EBECEE",
"b$	c #EDEDEB",
"c$	c #EBEFE8",
"d$	c #EBEEE8",
"e$	c #EAEDE5",
"f$	c #EDEBE1",
"g$	c #E4E8E5",
"h$	c #E6EDE0",
"i$	c #DDEFDE",
"j$	c #DEE7D8",
"k$	c #DCEAD2",
"l$	c #D8EAD0",
"m$	c #DAE9CD",
"n$	c #D0EDC8",
"o$	c #D3E8C8",
"p$	c #EEE9ED",
"q$	c #ECE9EC",
"r$	c #EDEBE8",
"s$	c #EFEFEE",
"t$	c #F0F1EC",
"u$	c #EAECEC",
"v$	c #EEEEEA",
"w$	c #ECECEF",
"x$	c #EEEEEE",
"y$	c #EDEDEA",
"z$	c #ECECEC",
"A$	c #EFF0EC",
"B$	c #EBEDEF",
"C$	c #F0EDED",
"D$	c #EAEBEE",
"E$	c #EDF0EA",
"F$	c #E9EDEB",
"G$	c #EFECEB",
"H$	c #EBECEB",
"I$	c #EBE9E8",
"J$	c #EAEAE2",
"K$	c #E3EDE6",
"L$	c #E6ECE5",
"M$	c #DFECDA",
"N$	c #DBEBDA",
"O$	c #DCEADA",
"P$	c #E5F0E0",
"Q$	c #A46E6E",
"R$	c #A7A7A7",
"S$	c #7D7D7D",
"T$	c #545454",
"U$	c #151515",
"V$	c #3E3E3E",
"W$	c #2A2A2A",
"X$	c #929292",
"Y$	c #000000",
"Z$	c #686868",
". . . . . . . . . . . . . . . . . . . . . . . . . . . . . . . . ",
". + @ @ @ @ @ @ @ @ @ @ @ @ @ @ @ @ @ @ @ @ @ @ @ @ @ @ @ @ @ . ",
". # $ $ $ $ $ $ $ $ $ $ $ $ $ $ $ $ $ $ $ $ $ $ $ $ $ $ $ $ $ . ",
". # $ # # % % % % % % % # # # # % % % % # # # # # # # # # & $ . ",
". * = - ; > , ' ) ! ~ { ] ^ / ( _ : < [ } | 1 2 3 4 5 6 7 8 9 . ",
". 0 a b c d e f g h i j k l m n o p q r s t u v w x y z A B C . ",
". D E F G H I J K L M N O P Q R S T U V W X Y Z `  ...+.@.#.$.. ",
". %.&.*.=.-.;.>.,.'.).!.~.{.].^./.(._.:.<.[.}.|.1.2.3.4.5.6.7.. ",
". 8.9.0.a.b.c.d.e.f.g.h.i.j.k.l.m.n.o.p.q.r.s.t.u.v.w.x.y.z.A.. ",
". B.C.D.E.F.G.H.I.J.K.L.M.N.O.P.Q.R.S.T.U.V.W.X.Y.Z.`. +.+++@+. ",
". #+$+%+&+*+=+-+;+>+,+'+)+!+~+{+]+^+/+(+_+:+<+[+}+|+1+2+3+4+5+. ",
". 6+7+8+9+0+a+b+c+d+e+f+g+h+i+j+k+l+m+n+o+p+q+r+s+t+u+v+w+x+y+. ",
". z+A+B+C+D+E+F+G+H+I+J+K+L+M+N+O+P+Q+R+S+T+U+V+W+X+Y+Z+`+ @.@. ",
". +@@@#@$@%@&@*@=@-@;@>@,@'@)@!@~@{@]@^@/@(@_@:@<@[@}@|@1@2@3@. ",
". 4@5@6@7@8@9@0@a@b@c@d@e@f@g@h@i@j@k@l@m@n@o@p@q@r@s@t@u@v@w@. ",
". x@y@z@A@B@C@D@E@F@G@H@I@J@K@L@M@N@O@P@Q@R@S@T@U@V@W@X@Y@Z@`@. ",
".  #.#+#@###$#%#&#*#=#-#;#>#,#'#)#!#~#{#]#^#/#(#_#:#<#[#}#|#1#. ",
". 2#3#4#5#6#7#8#9#0#a#b#c#d#e#f#g#h#i#j#k#l#m#n#o#p#q#r#s#t#u#. ",
". v#w#x#y#z#A#B#C#D#E#F#G#H#I#J#K#L#M#N#O#P#Q#R#S#T#U#V#W#X#Y#. ",
". Z#`# $.$+$@$#$$$%$&$*$x@=$-$;$*#>$,$'$)$!$~${$]$^$/$($_$:$<$. ",
". [$}$|$1$4@2$3$4$5$6$7$8$9$0$a$b$$$c$d$e$f$g$h$i$j$k$l$m$n$o$. ",
". p$q$r$s$t$u$v$w$x$E#H#y$z$A$B$C$D$E$F$G$H$I$J$K$L$M$N$O$Q#P$. ",
". # $ $ $ $ $ $ $ $ $ $ $ $ $ $ $ $ $ $ $ $ $ $ $ $ $ $ $ $ $ . ",
". Q$# # # # # # # # # # # # # # # # # # # # # # # # # # # # # . ",
". . . . . . . . . . . . . . . . . . . . . . . R$S$R$. . . . . . ",
". . . . . . . . T$U$V$W$X$. . . . . . . . . . R$Y$R$. . . . . . ",
". . . . . . . V$W$. . R$R$. Z$V$Z$. . Z$V$V$X$R$Y$. . . . . . . ",
". . . . . . R$Y$X$. . . . V$Z$R$Y$S$T$Z$. Y$R$S$V$. . . . . . . ",
". . . . . . S$Y$. . U$U$Z$Y$. . Y$S$Y$. T$U$. T$T$. . . . . . . ",
". . . . . . R$Y$S$. V$T$S$Y$R$V$V$S$Y$Z$V$V$. W$S$. . . . . . . ",
". . . . . . . X$V$V$T$R$. T$V$Z$. R$V$S$Z$V$. V$Z$. . . . . . . ",
". . . . . . . . . . . . . . . . . . . . . . . . . . . . . . . . "};
