/* XPM */
static char * goto_8bit_xpm[] = {
"32 32 9 1",
" 	c None",
".	c #020204",
"+	c #642221",
"@	c #9A4644",
"#	c #6F6060",
"$	c #7E7E7C",
"%	c #AA8284",
"&	c #BDBDBB",
"*	c #860E0C",
"&&&&&&&&&&&&&&&&&&&&&&&&&&&&&&&&",
"&&&&&%%%%%%%%%%%%%%%%%%%%%%&&&&&",
"&&&&&@*********************&&&&&",
"&&&&&@*@@@@@@@@@@@@@@@@@@**&&&&&",
"&&&&&@*&&&&&&&&&&&&&&&&&&@*&&&&&",
"&&&&&@*&&&&&&&&&&&&&&&&&&@*&&&&&",
"&&&&&@*&*&&&&&&&&&&&&&&*&@*&&&&&",
"&&&&&@*&**@&&&&&&&&&&#**&@*&&&&&",
"&&&&&@*&****&&&&&&&&****&@*&&&&&",
"&&&&&@*&*****&&&&&&*****&@*&&&&&",
"&&&&&@*&******&**&******&@*&&&&&",
"&&&&&@*&****************&@*&&&&&",
"&&&&&@*&****************&@*&&&&&",
"&&&&&@*&****************&@*&&&&&",
"&&&&&@*&******&**&******&@*&&&&&",
"&&&&&@*&*****&&&&&&*****&@*&&&&&",
"&&&&&@*&****&&&&&&&&****&@*&&&&&",
"&&&&&@*&**@&&&&&&&&&&#**&@*&&&&&",
"&&&&&@*&%&&&&&&&&&&&&&&%&@*&&&&&",
"&&&&&@*&&&&&&&&&&&&&&&&&&@*&&&&&",
"&&&&&@*&&&&&&&&&&&&&&&&&&@*&&&&&",
"&&&&&@*%%%%%%%%%%%%%%%%%%+*&&&&&",
"&&&&&@*********************&&&&&",
"&&&&&%@@@@@@@@@@@@@@@@@@@@@&&&&&",
"&&&&&&&&&&&&&&&&&&&&&&&&&&&&&&&&",
"&&&&&&&&#.++%&&&&&%$&&&&&&&&&&&&",
"&&&&&&&+.&&&$&#+#&+.#&%+#%&&&&&&",
"&&&&&&&.&&&&&##&.$##&$+&++&&&&&&",
"&&&&&&$.&&..$.&&.$.$&.$&##&&&&&&",
"&&&&&&&.$&+#$.&+#&.$&.#$.$&&&&&&",
"&&&&&&&$#+#$&#+#&&##&$##&&&&&&&&",
"&&&&&&&&&&&&&&&&&&&&&&&&&&&&&&&&"};
