/* XPM */
static char * goto_xpm[] = {
"32 32 71 1",
" 	c None",
".	c #BCBCBC",
"+	c #B09696",
"@	c #AA8282",
"#	c #994747",
"$	c #870D0D",
"%	c #8D2121",
"&	c #BCBBBB",
"*	c #BBBABA",
"=	c #BBB9B9",
"-	c #BAB7B7",
";	c #BAB6B6",
">	c #BBBBBB",
",	c #9A4B4B",
"'	c #8B1919",
")	c #881212",
"!	c #A87A7A",
"~	c #9E5858",
"{	c #891313",
"]	c #A06161",
"^	c #A26868",
"/	c #891414",
"(	c #A16565",
"_	c #B8AFAF",
":	c #9F5C5C",
"<	c #891515",
"[	c #860C0C",
"}	c #9C5454",
"|	c #B19797",
"1	c #B29A9A",
"2	c #A77777",
"3	c #BAB8B8",
"4	c #8A1616",
"5	c #984949",
"6	c #B5A5A5",
"7	c #8F2D2D",
"8	c #8E2828",
"9	c #B3A0A0",
"0	c #A67575",
"a	c #881515",
"b	c #B29C9C",
"c	c #850D0D",
"d	c #B4A2A2",
"e	c #9E5A5A",
"f	c #B39E9E",
"g	c #9C5757",
"h	c #A87B7B",
"i	c #B7ACAC",
"j	c #891212",
"k	c #870E0E",
"l	c #B6A7A7",
"m	c #AD8C8C",
"n	c #881111",
"o	c #AA8181",
"p	c #B5A4A4",
"q	c #AA7F7F",
"r	c #B4A1A1",
"s	c #AB8585",
"t	c #AE8F8F",
"u	c #AC8888",
"v	c #933434",
"w	c #A56E6E",
"x	c #545454",
"y	c #151515",
"z	c #3E3E3E",
"A	c #2A2A2A",
"B	c #929292",
"C	c #A7A7A7",
"D	c #7D7D7D",
"E	c #686868",
"F	c #000000",
"................................",
".....+@@@@@@@@@@@@@@@@@@@@@.....",
".....#$$$$$$$$$$$$$$$$$$$$$.....",
".....#$##################%$.....",
".....#$....&*&.=-;-=*>...#$.....",
".....#$..................#$.....",
".....#$.,&&...........&'>#$.....",
".....#$.)!=...........~)>#$.....",
".....#$&{$]&.........^${*#$.....",
".....#$*/$$(_......*:$$/=#$.....",
".....#$*<$$[}&.|1.-2[$$<3#$.....",
".....#$*4$$$$567890$$$$43#$.....",
".....#$*<$$$[abccde[$$$<3#$.....",
".....#$&/$$$[1fghi|[$$$/=#$.....",
".....#$&j$$kb..li..m{$$j*#$.....",
".....#$.n$ko=.......p$$n>#$.....",
".....#$.k$q&.........r$k>#$.....",
".....#$.{s..&......&..,$.#$.....",
".....#$.t..............u.#$.....",
".....#$..................#$.....",
".....#$..................#$.....",
".....#$@@@@@@@@@@@@@@@@@@v$.....",
".....#$$$$$$$$$$$$$$$$$$$$$.....",
".....w#####################.....",
"................................",
"........xyzAB.....CD............",
".......zA..CC.EzE.AyE.BzxC......",
"......CFB....zECFDzx.DA.Az......",
"......DF..yyEF..FBAD.yD.zx......",
"......CFD.zxDFCzz.FD.FEDyC......",
".......BzzxC.xzE..xz.DzxC.......",
"................................"};
