/* XPM */
static char * goto_xpm[] = {
"32 32 46 1",
" 	c None",
".	c #BCBCBC s backgroundToolBarColor",
"+	c #B09696",
"@	c #AA8282",
"#	c #994747",
"$	c #870D0D",
"%	c #8D2121",
"&	c #BCBBBB",
"*	c #BBBABA",
"=	c #BBB8B8",
"-	c #BAB7B7",
";	c #BAB6B6",
">	c #BBB9B9",
",	c #BBBBBB",
"'	c #881212",
")	c #881111",
"!	c #A06262",
"~	c #891313",
"{	c #8B1B1B",
"]	c #891414",
"^	c #891515",
"/	c #860C0C",
"(	c #860D0D",
"_	c #8C1A1A",
":	c #870909",
"<	c #BAB8B8",
"[	c #8A1616",
"}	c #870E0E",
"|	c #850D0D",
"1	c #850E0E",
"2	c #860E0E",
"3	c #891212",
"4	c #8B1A1A",
"5	c #BAB5B5",
"6	c #AC8888",
"7	c #933434",
"8	c #A56E6E",
"9	c #545454",
"0	c #151515",
"a	c #3E3E3E",
"b	c #2A2A2A",
"c	c #929292",
"d	c #A7A7A7",
"e	c #7D7D7D",
"f	c #686868",
"g	c #000000",
"................................",
".....+@@@@@@@@@@@@@@@@@@@@@.....",
".....#$$$$$$$$$$$$$$$$$$$$$.....",
".....#$##################%$.....",
".....#$....&*===-;->*,...#$.....",
".....#$..................#$.....",
".....#$.'-=...........-',#$.....",
".....#$.')!..........!)',#$.....",
".....#$&~$'{........{'$~*#$.....",
".....#$*]$$$$......$$$$]>#$.....",
".....#$*^$$/$(._:.($/$$^<#$.....",
".....#$*[$$$$(}((}($$$$[<#$.....",
".....#$*^$$$/((||((/$$$^<#$.....",
".....#$&]$$$/}1221}/$$$]>#$.....",
".....#$&3$$$$2.4_.2$$$$3*#$.....",
".....#$.)$$}~......~}$$),#$.....",
".....#$.}$})..5<<5..)}$},#$.....",
".....#$.$[!&&......&&![$.#$.....",
".....#$.6..............6.#$.....",
".....#$..................#$.....",
".....#$..................#$.....",
".....#$@@@@@@@@@@@@@@@@@@7$.....",
".....#$$$$$$$$$$$$$$$$$$$$$.....",
".....8#####################.....",
"................................",
"........90abc.....de............",
".......ab..dd.faf.b0f.ca9d......",
"......dgc....afdgea9.eb.ba......",
"......eg..00fg..gcbe.0e.a9......",
"......dge.a9egdaa.ge.gfe0d......",
".......caa9d.9af..9a.ea9d.......",
"................................"};
