/* XPM */
static char * goto_8bit_xpm[] = {
"32 32 9 1",
" 	c None",
".	c #020202",
"+	c #5C2525",
"@	c #9A4646",
"#	c #7D5F5F",
"$	c #877D7D",
"%	c #AA8282",
"&	c #BDBCBC",
"*	c #860E0E",
"&&&&&&&&&&&&&&&&&&&&&&&&&&&&&&&&",
"&&&&&%%%%%%%%%%%%%%%%%%%%%%&&&&&",
"&&&&&@*********************&&&&&",
"&&&&&@*@@@@@@@@@@@@@@@@@@**&&&&&",
"&&&&&@*&&&&&&&&&&&&&&&&&&@*&&&&&",
"&&&&&@*&&&&&&&&&&&&&&&&&&@*&&&&&",
"&&&&&@*&@&&&&&&&&&&&&&&*&@*&&&&&",
"&&&&&@*&*%&&&&&&&&&&&&#*&@*&&&&&",
"&&&&&@*&**#&&&&&&&&&&%**&@*&&&&&",
"&&&&&@*&***#&&&&&&&&@***&@*&&&&&",
"&&&&&@*&****@&&%%&&%****&@*&&&&&",
"&&&&&@*&*****@&@@%%*****&@*&&&&&",
"&&&&&@*&******%**&@*****&@*&&&&&",
"&&&&&@*&*****&%@$&%*****&@*&&&&&",
"&&&&&@*&****%&&&&&&%****&@*&&&&&",
"&&&&&@*&***%&&&&&&&&&***&@*&&&&&",
"&&&&&@*&**%&&&&&&&&&&&**&@*&&&&&",
"&&&&&@*&*%&&&&&&&&&&&&@*&@*&&&&&",
"&&&&&@*&%&&&&&&&&&&&&&&%&@*&&&&&",
"&&&&&@*&&&&&&&&&&&&&&&&&&@*&&&&&",
"&&&&&@*&&&&&&&&&&&&&&&&&&@*&&&&&",
"&&&&&@*%%%%%%%%%%%%%%%%%$@*&&&&&",
"&&&&&@*********************&&&&&",
"&&&&&%@@@@@@@@@@@@@@@@@@@@@&&&&&",
"&&&&&&&&&&&&&&&&&&&&&&&&&&&&&&&&",
"&&&&&&&&#.++$&&&&&&$&&&&&&&&&&&&",
"&&&&&&&++&&&&&#+#&..$&$+#&&&&&&&",
"&&&&&&&.$&&&&+#&.$+#&$+&.+&&&&&&",
"&&&&&&$.&&..$.&&.$+$&.$&##&&&&&&",
"&&&&&&&.$&+#$.&+#&.$&.#$.&&&&&&&",
"&&&&&&&$#+#&&#+$&&#+&$##$&&&&&&&",
"&&&&&&&&&&&&&&&&&&&&&&&&&&&&&&&&"};
