/* XPM */
static char * help_8bit_xpm[] = {
"32 32 9 1",
" 	c None",
".	c #22210A",
"+	c #C0BEBB",
"@	c #B4998B",
"#	c #8D2321",
"$	c #717264",
"%	c #A27A73",
"&	c #4F5537",
"*	c #434133",
"+@%%%%%%%%%%%%%%%%%%%%%%%%%%%%%+",
"+##############################+",
"+............*$*....*..........+",
"+............&@&&..*&..........+",
"+...........*$@$&&*.*&.........+",
"@.......**...&&&*&&*.&.........+",
"+.......**.*...**$$&***........+",
"@.......*.*....*.*&$*.*........+",
"+........*...****.**&*.........+",
"@..........&*%$@@@$.*..........+",
"+.........&..&%*.*@@...........+",
"+.........*...*...@+$..........+",
"+.........$..&%*..@++..........@",
"@.........%.#%+&*#@+%..........+",
"+.........%.*#@@%@@@%..........+",
"+.........%&&*#%#@@@...........+",
"+.........%##*..#*#%...........+",
"@.........%*$#&$%&#$...........+",
"+.........@%#*%%@++@...........+",
"@.........%%&#%++++%...........+",
"+..........#$%@++%&&...........+",
"+##############################+",
"+%#############################+",
"++++++++++++++++++++++++++++++++",
"++++++++++++++++++@@++++++++++++",
"+++++++$.$+..@++++$.++++++++++++",
"+++++++@.++*$+@*$+$*@*@$*+++++++",
"+++++++&.**.$$*$.+*$+..&.$++++++",
"+++++++**+@.+..*@+.@+.$@.@++++++",
"+++++++.$+$.+.$+&@.+$.+*&+++++++",
"++++++&*$+**$$*&@$*$$..@++++++++",
"++++++++++++++++++++*$++++++++++"};
