/* XPM */
static char * info_8bit_xpm[] = {
"32 32 9 1",
" 	c None",
".	c #0504AC",
"+	c #763E50",
"@	c #7B586E",
"#	c #7B7B9E",
"$	c #860F0D",
"%	c #AA8284",
"&	c #BCBCBD",
"*	c #FEFEFC",
"&%%%%%%%%%%%%%%%%%%%%%%%%%%%%%%&",
"&@$$$$$$$$$$$$$$$$$$$$$$$$$$$$$&",
"&+$+@++@++@++++$+++++@++@++@+$$&",
"&@$&&&&&&&&#+......+%&&&&&&&&@$&",
"&+$&&&&&&&@....@##...@&&&&&&&+$&",
"&+$&&&&&&......%*&.....&&&&&&@$&",
"&+$&&&&&@......&**.....@&&&&&+$&",
"&@$&&&&#................%&&&&+$&",
"&@$&&&&+.....&&&&&......+&&&&+$&",
"&@$&&&%......****&.......%&&&@$&",
"&@$&&&#........&**.......#&&&+$&",
"&@$&&&#........%*&.......%&&&+$&",
"&@$&&&#........&**.......#&&&@$&",
"&@$&&&#........%*&.......%&&&+$&",
"&@$&&&%........&**.......%&&&+$&",
"&@$&&&&+.......%*&......+&&&&+$&",
"&+$&&&&#.......&**......#&&&&@$&",
"&@$&&&&&@....@@&**@+...@&&&&&+$&",
"&+$&&&&&&....******&...&&&&&&+$&",
"&@$&&&&&&&#..######@.@&&&&&&&@$&",
"&+$%%%%#%#%@+......+@#%%%%%%%$$&",
"&+$$$$$$$$$$$$$$$$$$$$$$$$$$$$$&",
"&%++++++++++@+@+@++++++++@+@+@+&",
"&&&&&&&&&&&&&&&&&&%%&&&&&&&&&&&&",
"&&&&&&&&%.+&&&&&&%@#&&&&&&&&&&&&",
"&&&&&&&&%.&+@%+&#..%&@+%&&&&&&&&",
"&&&&&&&&@.&++#.#&.&&.&@.&&&&&&&&",
"&&&&&&&&++&.+%.&%.&++&#$&&&&&&&&",
"&&&&&&&&.#&.&#.&#+&+.&.#&&&&&&&&",
"&&&&&&&#++&+&#+#+@&&++%&&&&&&&&&",
"&&&&&&&&&&&&&&&&.#&&&&&&&&&&&&&&",
"&&&&&&&&&&&&&&&&&&&&&&&&&&&&&&&&"};
