/* XPM */
static char * info_xpm[] = {
"32 32 80 1",
" 	c None",
".	c #BCBCBC s backgroundToolBarColor",
"+	c #B09595",
"@	c #AA8181",
"#	c #984747",
"$	c #870D0D",
"%	c #984848",
"&	c #8D3B3D",
"*	c #812F38",
"=	c #813039",
"-	c #8D3C3E",
";	c #8D2020",
">	c #787891",
",	c #2F2F99",
"'	c #1717A8",
")	c #0000BC",
"!	c #A5A5A7",
"~	c #5E5E8D",
"{	c #4F4FD1",
"]	c #7F7FDD",
"^	c #6F6FD9",
"/	c #0000BE",
"(	c #2020A2",
"_	c #9F9FE5",
":	c #FDFDFD",
"<	c #DEDEF5",
"[	c #870F0F",
"}	c #891313",
"|	c #994A4A",
"1	c #8A1818",
"2	c #0000BD",
"3	c #1717C3",
"4	c #BEBEED",
"5	c #A7A7E7",
"6	c #9A4C4C",
"7	c #8B1C1C",
"8	c #99999F",
"9	c #1F1FC5",
"0	c #9A4E4E",
"a	c #757590",
"b	c #0303BE",
"c	c #ABABE8",
"d	c #8C1E1E",
"e	c #994B4B",
"f	c #8B1B1B",
"g	c #984949",
"h	c #891414",
"i	c #881010",
"j	c #870E0E",
"k	c #0B0BC0",
"l	c #5F5FD5",
"m	c #C2C2EE",
"n	c #EAEAF8",
"o	c #5F5FD6",
"p	c #4747D0",
"q	c #FFFFFF",
"r	c #BFBFEE",
"s	c #0F0FC1",
"t	c #7F7FDE",
"u	c #AA8282",
"v	c #AA8383",
"w	c #AB8484",
"x	c #7D5667",
"y	c #4C256C",
"z	c #3C1475",
"A	c #2D0582",
"B	c #2D0481",
"C	c #2D0784",
"D	c #3C1576",
"E	c #923434",
"F	c #A46E6E",
"G	c #929292",
"H	c #7D7D7D",
"I	c #686868",
"J	c #000000",
"K	c #2A2A2A",
"L	c #545454",
"M	c #A7A7A7",
"N	c #3E3E3E",
"O	c #151515",
".+@@@@@@@@@@@@@@@@@@@@@@@@@@@@@.",
".#$$$$$$$$$$$$$$$$$$$$$$$$$$$$$.",
".#$##%%%%%%%#&**==-%#########;$.",
".#$........>,'))))',>........#$.",
".#$......!~)))){]^///~!......#$.",
".%$.....!()))))_:<////(!.....#$.",
".%[.....~/)))))_:</////~.....#$.",
".%}....>)/))))))))//////>....#$.",
".|1....,2/))344445//////,....#$.",
".67...8')/))9::::<//////'8...#$.",
".07...a22/))b99c:<///////a...#$.",
".0d...a/)/)))))_:<///////a...#$.",
".ed...a))/)))))_:<///////a...#$.",
".|f...a)2/)))))_:<///////a...#$.",
".gh...8')/)))))_:<//////'8...#$.",
".%i....,)/)))))_:<//////,....#$.",
".%[....>2/)))))_:<//////>....#$.",
".%j.....~/))kllm:nop///~.....#$.",
".#$.....!())9:::::qr//(!.....#$.",
".#$......!~)s]]]]]to/~!......#$.",
".#$@uuuvwwvxyzABCCDyxuu@@@@@@E$.",
".#$$$$$$$$$$$$$$$$$$$$$$$$$$$$$.",
".F#############################.",
"..................GH............",
"........IJK......ILIM...........",
"........GJMNIGNMHOKGMLNG........",
"........IJ.NNIJH.J.MOMIJ........",
"........NN.KNMJ.HO.LN.HO........",
"........OI.JMHO.IN.NKMOH........",
".......INNMN.HNGNL.MNNG.........",
"................OH..............",
"................................"};
