/* XPM */
static char * info_xpm[] = {
"32 32 78 1",
" 	c None",
".	c #BCBCBC s backgroundToolBarColor",
"+	c #B09696",
"@	c #AA8282",
"#	c #994747",
"$	c #870D0D",
"%	c #994848",
"&	c #8D3C3E",
"*	c #813039",
"=	c #813139",
"-	c #8D3C3F",
";	c #8D2121",
">	c #797991",
",	c #2F2F9A",
"'	c #1818A9",
")	c #0101BD",
"!	c #A5A5A8",
"~	c #5E5E8D",
"{	c #4F4FD2",
"]	c #7F7FDE",
"^	c #6F6FDA",
"/	c #0000BE",
"(	c #2020A2",
"_	c #9F9FE6",
":	c #FEFEFE",
"<	c #DFDFF6",
"[	c #870F0F",
"}	c #5E5E8E",
"|	c #994949",
"1	c #891313",
"2	c #994A4A",
"3	c #8A1818",
"4	c #0101BE",
"5	c #1818C4",
"6	c #BFBFEE",
"7	c #A7A7E8",
"8	c #9A4C4C",
"9	c #8B1C1C",
"0	c #9999A0",
"a	c #2020C6",
"b	c #9B4E4E",
"c	c #767690",
"d	c #0404BF",
"e	c #ABABE9",
"f	c #8C1E1E",
"g	c #994B4B",
"h	c #8B1B1B",
"i	c #0000BD",
"j	c #891414",
"k	c #881010",
"l	c #870E0E",
"m	c #0C0CC1",
"n	c #5F5FD6",
"o	c #C3C3EF",
"p	c #EBEBF9",
"q	c #4747D0",
"r	c #FFFFFF",
"s	c #1010C2",
"t	c #AB8383",
"u	c #AB8484",
"v	c #7E5767",
"w	c #4D266D",
"x	c #3D1576",
"y	c #2E0683",
"z	c #2E0582",
"A	c #2E0885",
"B	c #3D1677",
"C	c #933434",
"D	c #A56E6E",
"E	c #939393",
"F	c #7D7D7D",
"G	c #696969",
"H	c #000000",
"I	c #2A2A2A",
"J	c #545454",
"K	c #A7A7A7",
"L	c #3F3F3F",
"M	c #151515",
".+@@@@@@@@@@@@@@@@@@@@@@@@@@@@@.",
".#$$$$$$$$$$$$$$$$$$$$$$$$$$$$$.",
".#$##%%%%%%%#&**==-%#########;$.",
".#$........>,'))))',>........#$.",
".#$......!~)))){]^///~!......#$.",
".%$.....!()))))_:<////(!.....#$.",
".%[.....}/)))))_:</////~.....#$.",
".|1....>)/))))))))//////>....#$.",
".23....,4/))566667//////,....#$.",
".89...0')/))a::::<//////'0...#$.",
".b9...c44/))daae:<///////c...#$.",
".bf...c/)/)))))_:<///////c...#$.",
".gf...c))/)))))_:<///////c...#$.",
".gh...c)i/)))))_:<///////c...#$.",
".|j...0')/)))))_:<//////'0...#$.",
".|k....,)/)))))_:<//////,....#$.",
".%[....>4/)))))_:<//////>....#$.",
".%l.....~/))mnno:pnq///~.....#$.",
".#$.....!())a:::::r6//(!.....#$.",
".#$......!~)s]]]]]]n/~!......#$.",
".#$@@@@tuuuvwxyzAABwv@@@@@@@@C$.",
".#$$$$$$$$$$$$$$$$$$$$$$$$$$$$$.",
".D#############################.",
"..................EF............",
"........GHI......GJGK...........",
"........EHKLGELKFMIEKJLE........",
"........GH.LLGHF.H.KMKGH........",
"........LL.ILKH.FM.JL.FM........",
"........MG.HKFM.GL.LIKMF........",
".......GLLKL.FLELJ.KLLE.........",
"................MF..............",
"................................"};
