/* XPM */
static char * info_8bit_xpm[] = {
"32 32 9 1",
" 	c None",
".	c #0504AD",
"+	c #BAB6B6",
"@	c #8F4B54",
"#	c #861212",
"$	c #787692",
"%	c #DBDBF3",
"&	c #353559",
"*	c #FDFDFC",
"++$$$$$$$$$$$$$$$$$$$$$$$$$$$$$+",
"+@#############################+",
"+@#@@@@@@@@@@@@#@@@@@@@@@@@@@##+",
"+@#++++++++$&......&$++++++++@#+",
"+@#++%++%+$....&$$...$+++%++%@#+",
"+@#++++++......+*%....&++++++@#+",
"+@#+++++$......+*%.....$+++++@#+",
"+@#+%++$................$+%++@#+",
"+@#++++&.....+++++......&++++@#+",
"%@#++++.....&****%.......++++@#+",
"+@#%++$.......&+*%.......$+++@#+",
"%@#+++$........+*%.......$%++@#+",
"+@#%++$........$*%.......$+++@#+",
"+@#+++$........+*%.......$+++@#+",
"+@#+%++........+*%.......++++@#+",
"+@#++++&.......+*%......&++++@#+",
"+@#++++$.......$*%......$+%++@#+",
"+@#+++++$....$$+*%$&...$+++++@#+",
"+@#+%++++....******+...++++%+@#+",
"+@#+++++++$..$$$$$$$.$+++++++@#+",
"+@#$$+$$$$$@&&..&.#&@$$$+$$$$@#+",
"+@#############################+",
"+$@@@@@@@@@@@@@@@@@@@@@@@@@@@@@+",
"++++++++++++++++++$$++++++++++++",
"++++++++$.&++++++$@$++++++++++++",
"++%++%++$.+&$$&+$.&$+@&$%++++%++",
"++++++++$.+&&$.$+.++.+$.++%+++++",
"+++++%++&&+&&+.+$&+&&+$&++++++++",
"+%+++++%.$+.+$.+$&+&&+.$++%+%+++",
"+++%+++$&&+&+$&$&$++&&+++++++%++",
"++++++++++++%+%+&$++++++++++++++",
"%+++++++%++++++++++++++++++++%++"};
