/* XPM */
static char * prev_xpm[] = {
"32 32 398 2",
"  	c None",
". 	c #535353",
"+ 	c #525252",
"@ 	c #4B4B4B",
"# 	c #464646",
"$ 	c #424242",
"% 	c #404040",
"& 	c #444444",
"* 	c #4E4E4E",
"= 	c #4C4C4C",
"- 	c #575757",
"; 	c #454545",
"> 	c #4D4D4D",
", 	c #474747",
"' 	c #414141",
") 	c #585858",
"! 	c #515151",
"~ 	c #484848",
"{ 	c #4F4F4F",
"] 	c #555555",
"^ 	c #B4B4B4",
"/ 	c #B9B9B9",
"( 	c #BCBCBC",
"_ 	c #BBBBBB",
": 	c #B3B3B3",
"< 	c #C2C2BD",
"[ 	c #DBDAD2",
"} 	c #BE9CBA",
"| 	c #A69D9D",
"1 	c #9B939C",
"2 	c #B2B2B2",
"3 	c #B5B5B5",
"4 	c #C1C1C1",
"5 	c #B8B8B8",
"6 	c #CECECA",
"7 	c #DAE5C6",
"8 	c #A66278",
"9 	c #6D1549",
"0 	c #56182C",
"a 	c #605659",
"b 	c #AEAEAE",
"c 	c #C0BEC0",
"d 	c #DDD4D8",
"e 	c #CB9DAB",
"f 	c #B88391",
"g 	c #928690",
"h 	c #A8A7A9",
"i 	c #C0C0BD",
"j 	c #D4CFCA",
"k 	c #DDC4E1",
"l 	c #C7A1D2",
"m 	c #944288",
"n 	c #751541",
"o 	c #600D32",
"p 	c #320B20",
"q 	c #3A383A",
"r 	c #A4A4A4",
"s 	c #D0C3C8",
"t 	c #D6ADB0",
"u 	c #791152",
"v 	c #66103F",
"w 	c #483440",
"x 	c #949494",
"y 	c #BFBFBF",
"z 	c #D6CCD6",
"A 	c #E3CCD1",
"B 	c #CAAEB7",
"C 	c #E6B2D4",
"D 	c #B370A0",
"E 	c #AF6498",
"F 	c #8B1158",
"G 	c #6C153C",
"H 	c #620E33",
"I 	c #5A0C2E",
"J 	c #2B081A",
"K 	c #444042",
"L 	c #A9A9A9",
"M 	c #BABABA",
"N 	c #D6D0C2",
"O 	c #B16263",
"P 	c #690F36",
"Q 	c #4E0B2A",
"R 	c #23131E",
"S 	c #8A8989",
"T 	c #C8C2C8",
"U 	c #CBCFCF",
"V 	c #E0C7D7",
"W 	c #C6A0A6",
"X 	c #BF7A9E",
"Y 	c #905346",
"Z 	c #7D2547",
"` 	c #843950",
" .	c #781C45",
"..	c #6D1139",
"+.	c #650E34",
"@.	c #600E32",
"#.	c #5F0D31",
"$.	c #490A26",
"%.	c #18080E",
"&.	c #52544F",
"*.	c #ABABAB",
"=.	c #BEBEBE",
"-.	c #D8CDDA",
";.	c #D5BBAA",
">.	c #A0334D",
",.	c #520C2B",
"'.	c #261420",
").	c #8C8A8B",
"!.	c #CECCCD",
"~.	c #D3D0D4",
"{.	c #D2BCE2",
"].	c #AD67A0",
"^.	c #9F4C82",
"/.	c #7C1056",
"(.	c #711A3C",
"_.	c #6E1338",
":.	c #640E34",
"<.	c #600E31",
"[.	c #5E0D30",
"}.	c #2B0816",
"|.	c #181617",
"1.	c #7F7F7F",
"2.	c #C6C6C6",
"3.	c #DFD9DC",
"4.	c #C2A1DB",
"5.	c #983B48",
"6.	c #6C0F37",
"7.	c #360E20",
"8.	c #3F443D",
"9.	c #B0B2A1",
"0.	c #C5829A",
"a.	c #B26276",
"b.	c #813B52",
"c.	c #70193A",
"d.	c #670F35",
"e.	c #520B2B",
"f.	c #15060D",
"g.	c #525150",
"h.	c #AAAAAA",
"i.	c #D1CED3",
"j.	c #CEBAD3",
"k.	c #BFB3A7",
"l.	c #B8788F",
"m.	c #903262",
"n.	c #72143A",
"o.	c #57122F",
"p.	c #823B50",
"q.	c #963E65",
"r.	c #821B4C",
"s.	c #701637",
"t.	c #690E36",
"u.	c #610E32",
"v.	c #39071E",
"w.	c #161113",
"x.	c #807E80",
"y.	c #B1B1B1",
"z.	c #D7CDD8",
"A.	c #CEACCC",
"B.	c #992F6C",
"C.	c #7E2F3C",
"D.	c #731B3B",
"E.	c #660E35",
"F.	c #620E32",
"G.	c #630E33",
"H.	c #5E0D31",
"I.	c #370A1B",
"J.	c #3F3836",
"K.	c #DBD1D4",
"L.	c #E0C1B6",
"M.	c #8C436D",
"N.	c #6D1239",
"O.	c #35091D",
"P.	c #393036",
"Q.	c #DFB8C4",
"R.	c #952557",
"S.	c #6B0F37",
"T.	c #410B20",
"U.	c #41393B",
"V.	c #A8A8A8",
"W.	c #B6A395",
"X.	c #711B47",
"Y.	c #4F0D30",
"Z.	c #422734",
"`.	c #908F8F",
" +	c #9D889F",
".+	c #69154A",
"++	c #5B0F31",
"@+	c #290C20",
"#+	c #6B6C6E",
"$+	c #B6B6B6",
"%+	c #A89CAA",
"&+	c #6C3659",
"*+	c #5F1032",
"=+	c #490D26",
"-+	c #3F0B22",
";+	c #430C24",
">+	c #4F0B2D",
",+	c #580C2D",
"'+	c #5C0D2F",
")+	c #550C2C",
"!+	c #240D17",
"~+	c #6E6D6A",
"{+	c #AFA9B1",
"]+	c #747569",
"^+	c #53223C",
"/+	c #5D0D32",
"(+	c #5D0D30",
"_+	c #540C2C",
":+	c #450A24",
"<+	c #280815",
"[+	c #160B0F",
"}+	c #1B141A",
"|+	c #2E2528",
"1+	c #412431",
"2+	c #2C0B1D",
"3+	c #3A1627",
"4+	c #590C32",
"5+	c #530C2B",
"6+	c #221112",
"7+	c #686763",
"8+	c #A3A7A1",
"9+	c #818174",
"0+	c #5D2944",
"a+	c #480C24",
"b+	c #16080F",
"c+	c #1A1215",
"d+	c #212521",
"e+	c #575957",
"f+	c #868686",
"g+	c #A1A1A1",
"h+	c #999495",
"i+	c #666568",
"j+	c #676262",
"k+	c #3A2931",
"l+	c #3A1327",
"m+	c #470926",
"n+	c #591030",
"o+	c #590C2E",
"p+	c #2D1417",
"q+	c #74736F",
"r+	c #ADB6AD",
"s+	c #706150",
"t+	c #611430",
"u+	c #5F0E31",
"v+	c #4B122B",
"w+	c #5C5253",
"x+	c #726F6C",
"y+	c #919392",
"z+	c #AFAFAF",
"A+	c #ABA9A9",
"B+	c #95978F",
"C+	c #655F5F",
"D+	c #47423B",
"E+	c #3D1D29",
"F+	c #531B2A",
"G+	c #5C0E31",
"H+	c #2A1518",
"I+	c #636161",
"J+	c #B3AFB0",
"K+	c #8D8780",
"L+	c #5C2B3F",
"M+	c #56112C",
"N+	c #5F0D34",
"O+	c #650D39",
"P+	c #654D4A",
"Q+	c #7F8177",
"R+	c #A2A0A1",
"S+	c #A5A1A5",
"T+	c #7F797F",
"U+	c #5D494F",
"V+	c #541F52",
"W+	c #5D0F36",
"X+	c #5C0D30",
"Y+	c #491C2C",
"Z+	c #5D5B5F",
"`+	c #A7A5AB",
" @	c #ACAAAB",
".@	c #848686",
"+@	c #6B3D53",
"@@	c #5E132F",
"#@	c #5F0D30",
"$@	c #600D31",
"%@	c #480E27",
"&@	c #342D27",
"*@	c #949492",
"=@	c #B0B0B0",
"-@	c #A7A5A5",
";@	c #6E6672",
">@	c #481F3B",
",@	c #551437",
"'@	c #5B1031",
")@	c #412428",
"!@	c #6F726B",
"~@	c #ADADAD",
"{@	c #AFAFAC",
"]@	c #897681",
"^@	c #491B32",
"/@	c #4A1024",
"(@	c #550C2B",
"_@	c #520B2A",
":@	c #2F0719",
"<@	c #282324",
"[@	c #9A999A",
"}@	c #9FA3A3",
"|@	c #817C79",
"1@	c #56314D",
"2@	c #571433",
"3@	c #34071B",
"4@	c #3B383A",
"5@	c #A7A7A7",
"6@	c #85847E",
"7@	c #574053",
"8@	c #342730",
"9@	c #1D0D19",
"0@	c #171415",
"a@	c #4E4B4B",
"b@	c #9C9B9C",
"c@	c #858186",
"d@	c #583D40",
"e@	c #401124",
"f@	c #2C0717",
"g@	c #0E0609",
"h@	c #4E4F4F",
"i@	c #A09BA0",
"j@	c #888688",
"k@	c #726F71",
"l@	c #7A7A7A",
"m@	c #A5A5A5",
"n@	c #B0B0AF",
"o@	c #949190",
"p@	c #3F433C",
"q@	c #252424",
"r@	c #444743",
"s@	c #919292",
"t@	c #C3C3CB",
"u@	c #C3B8BE",
"v@	c #C2CDD7",
"w@	c #BABDBE",
"x@	c #BEBDB4",
"y@	c #BFC1B0",
"z@	c #B5BCB5",
"A@	c #CBC5B8",
"B@	c #CBC5C5",
"C@	c #C6C6D3",
"D@	c #BCBABC",
"E@	c #C1B7C1",
"F@	c #B5C1B5",
"G@	c #C5D1C5",
"H@	c #B3BAB8",
"I@	c #BDC3C3",
"J@	c #C4BEBE",
"K@	c #C6CBC1",
"L@	c #C3C3D8",
"M@	c #C8BCC3",
"N@	c #ADB7C1",
"O@	c #BEC5C0",
"P@	c #B8CBC3",
"Q@	c #CABFC5",
"R@	c #BCCAD0",
"S@	c #BDC5C5",
"T@	c #B6BBBB",
"U@	c #C2CCC2",
"V@	c #C4C7D1",
"W@	c #C0C0C0",
"X@	c #BAB5BA",
"Y@	c #CEC7C0",
"Z@	c #525048",
"`@	c #5C3E59",
" #	c #34605E",
".#	c #353C37",
"+#	c #593C41",
"@#	c #484735",
"##	c #514851",
"$#	c #704435",
"%#	c #545656",
"&#	c #3D5044",
"*#	c #494A39",
"=#	c #4B4D5B",
"-#	c #574A50",
";#	c #4C643E",
">#	c #303C54",
",#	c #5C5E64",
"'#	c #486471",
")#	c #584B4A",
"!#	c #5A4660",
"~#	c #48363E",
"{#	c #304D55",
"]#	c #584B5B",
"^#	c #30494F",
"/#	c #634E4F",
"(#	c #406360",
"_#	c #485552",
":#	c #344D53",
"<#	c #3F5C50",
"[#	c #33415A",
"}#	c #3D3B46",
"|#	c #4D444D",
"1#	c #57625A",
". + @ # $ $ % & # * + = $ # # # - ; > ; , $ ' > ) ! ; # ; ~ { ] ",
"^ ^ ^ ^ ^ ^ ^ ^ ^ ^ ^ ^ ^ ^ ^ ^ ^ ^ ^ ^ ^ ^ ^ ^ ^ ^ ^ ^ ^ ^ ^ ^ ",
"^ ^ ^ ^ ^ ^ ^ ^ ^ ^ ^ ^ ^ ^ ^ ^ ^ ^ ^ ^ ^ ^ ^ ^ ^ ^ ^ / ( _ ^ : ",
"^ ^ ^ ^ ^ ^ ^ ^ ^ ^ ^ ^ ^ ^ ^ ^ ^ ^ ^ ^ ^ ^ ^ ^ ^ ^ < [ } | 1 2 ",
"^ ^ ^ ^ ^ ^ ^ 3 ( ( 4 5 : ^ ^ ^ ^ ^ ^ ^ ^ ^ ^ 3 5 6 7 8 9 0 a b ",
"^ ^ ^ ^ ^ ^ ^ c d e f g h ^ ^ ^ ^ ^ ^ 3 _ _ i j k l m n o p q r ",
"^ ^ ^ ^ ^ ^ ^ s t u v w x ^ ^ ^ 3 5 y z A B C D E F G H I J K L ",
"^ ^ ^ ^ ^ ^ M N O P Q R S 3 M T U V W X Y Z `  ...+.@.#.$.%.&.*.",
"^ ^ ^ ^ ^ =.-.;.>.+.,.'.).!.~.{.].^./.(._.:.:.H @.@.<.[.}.|.1.: ",
"^ ^ / ( 2.3.4.5.6.[.7.8.9.0.a.b.c.d.@.@.@.@.@.@.@.@.#.e.f.g.h.^ ",
"^ _ i.j.k.l.m.n.H #.o.p.q.r.s.t.u.@.@.@.@.@.@.@.@.@.#.v.w.x.y.^ ",
"/ z.A.B.C.D.E.F.@.<.<.:.G.u.@.@.@.@.@.@.@.@.@.@.@.@.H.I.J.*.: ^ ",
"K.L.M.N.H u.@.@.@.@.@.@.@.@.@.@.@.@.@.@.@.@.@.@.@.@.H.O.P.r ^ ^ ",
"Q.R.S.H @.@.@.@.@.@.@.@.@.@.@.@.@.@.@.@.@.@.@.@.@.@.#.T.U.V.: 3 ",
"W.X.<.@.@.@.@.@.@.@.@.@.@.@.@.@.@.@.@.@.@.@.@.@.@.@.#.Y.Z.`.: / ",
" +.+<.@.@.@.@.@.@.@.@.@.@.@.@.@.@.@.@.@.@.@.@.@.@.@.#.++@+#+2 $+",
"%+&+*+<.@.@.@.@.@.@.H.I =+-+;+>+,+'+#.<.@.@.@.@.@.@.@.)+!+~+2 : ",
"{+]+^+/+<.@.@.#.(+_+:+<+[+}+|+1+2+3+4+(+#.#.<.@.@.@.@.5+6+7+y.: ",
"2 8+9+0+<.<.@.(+a+b+c+d+e+f+g+h+i+j+k+l+m+n+(+#.@.@.@.o+p+q+2 ^ ",
": : r+s+t+u+<.H.v+w+x+y+*.: : : z+A+B+C+D+E+F+G+u+@.@.o+H+I+y.: ",
"^ ^ J+K+L+M+#.#.N+O+P+Q+R+^ ^ ^ ^ : : b S+T+U+V+W+#.<.X+Y+Z+`+2 ",
"^ : :  @.@+@@@#@$@#@%@&@*@^ ^ ^ ^ ^ ^ : : =@-@;@>@,@u+#.'@)@!@~@",
"^ ^ ^ : {@]@^@/@(@_@:@<@[@^ ^ ^ ^ ^ ^ ^ ^ ^ : }@|@1@2@#.'+3@4@5@",
"^ ^ ^ : : L 6@7@8@9@0@a@b@^ ^ ^ ^ ^ ^ ^ ^ ^ : : =@c@d@e@f@g@h@y.",
"^ ^ ^ ^ ^ : : i@j@k@l@m@y.^ ^ ^ ^ ^ ^ ^ ^ ^ ^ ^ : n@o@p@q@r@s@: ",
"^ ^ ^ ^ ^ ^ ^ ^ ^ ^ ^ ^ ^ ^ ^ ^ ^ ^ ^ ^ ^ ^ ^ ^ ^ : =@*.b : 2 ^ ",
"^ ^ ^ ^ ^ ^ ^ ^ ^ ^ ^ ^ ^ ^ ^ ^ ^ ^ ^ ^ ^ ^ ^ ^ ^ ^ ^ ^ ^ ^ ^ ^ ",
"^ ^ ^ ^ ^ ^ ^ ^ ^ ^ ^ ^ ^ ^ ^ ^ ^ ^ ^ ^ ^ ^ ^ ^ ^ ^ ^ ^ ^ ^ ^ ^ ",
"^ ^ ^ ^ ^ ^ ^ ^ ^ ^ ^ ^ ^ ^ ^ ^ ^ ^ ^ ^ ^ ^ ^ ^ ^ ^ ^ ^ ^ ^ ^ ^ ",
"^ ^ ^ ^ ^ ^ ^ ^ ^ ^ ^ ^ ^ ^ ^ ^ ^ ^ ^ ^ ^ ^ ^ ^ ^ ^ ^ ^ ^ ^ ^ ^ ",
"t@u@v@w@x@y@z@A@B@C@D@E@F@G@H@I@J@K@L@M@N@O@P@Q@R@S@T@U@V@W@X@Y@",
"Z@`@ #.#+#@###$#%#&#*#=#-#;#>#,#'#)#!#~#{#]#^#/#(#_#:#<#[#}#|#1#"};
