<?xml version="1.0" encoding="UTF-8" standalone="no"?>
<!-- Created with Inkscape (http://www.inkscape.org/) -->
<svg
   xmlns:dc="http://purl.org/dc/elements/1.1/"
   xmlns:cc="http://web.resource.org/cc/"
   xmlns:rdf="http://www.w3.org/1999/02/22-rdf-syntax-ns#"
   xmlns:svg="http://www.w3.org/2000/svg"
   xmlns="http://www.w3.org/2000/svg"
   xmlns:xlink="http://www.w3.org/1999/xlink"
   xmlns:sodipodi="http://sodipodi.sourceforge.net/DTD/sodipodi-0.dtd"
   xmlns:inkscape="http://www.inkscape.org/namespaces/inkscape"
   width="24"
   height="24"
   id="svg2"
   sodipodi:version="0.32"
   inkscape:version="0.45.1"
   version="1.0"
   sodipodi:docbase="/home/da/cvs/PG/ProofGeneral.working/images"
   sodipodi:docname="pg-restart.svg"
   inkscape:output_extension="org.inkscape.output.svg.inkscape">
  <defs
     id="defs4">
    <linearGradient
       id="linearGradient10266">
      <stop
         id="stop10268"
         offset="0"
         style="stop-color:#850f0f;stop-opacity:1;" />
      <stop
         id="stop10270"
         offset="1"
         style="stop-color:#dcdcdc;stop-opacity:1;" />
    </linearGradient>
    <linearGradient
       id="linearGradient7856">
      <stop
         style="stop-color:#004700;stop-opacity:1;"
         offset="0"
         id="stop7858" />
      <stop
         style="stop-color:#dcdcdc;stop-opacity:1;"
         offset="1"
         id="stop7860" />
    </linearGradient>
    <marker
       inkscape:stockid="Arrow2Mend"
       orient="auto"
       refY="0.0"
       refX="0.0"
       id="Arrow2Mend"
       style="overflow:visible;">
      <path
         id="path3202"
         style="font-size:12.0;fill-rule:evenodd;stroke-width:0.62500000;stroke-linejoin:round;"
         d="M 8.7185878,4.0337352 L -2.2072895,0.016013256 L 8.7185884,-4.0017078 C 6.9730900,-1.6296469 6.9831476,1.6157441 8.7185878,4.0337352 z "
         transform="scale(0.6) rotate(180) translate(0,0)" />
    </marker>
    <marker
       inkscape:stockid="Arrow2Sstart"
       orient="auto"
       refY="0.0"
       refX="0.0"
       id="Arrow2Sstart"
       style="overflow:visible">
      <path
         id="path3205"
         style="font-size:12.0;fill-rule:evenodd;stroke-width:0.62500000;stroke-linejoin:round"
         d="M 8.7185878,4.0337352 L -2.2072895,0.016013256 L 8.7185884,-4.0017078 C 6.9730900,-1.6296469 6.9831476,1.6157441 8.7185878,4.0337352 z "
         transform="scale(0.3) translate(-2.3,0)" />
    </marker>
    <marker
       inkscape:stockid="Arrow2Send"
       orient="auto"
       refY="0.0"
       refX="0.0"
       id="Arrow2Send"
       style="overflow:visible;">
      <path
         id="path3208"
         style="font-size:12.0;fill-rule:evenodd;stroke-width:0.62500000;stroke-linejoin:round;"
         d="M 8.7185878,4.0337352 L -2.2072895,0.016013256 L 8.7185884,-4.0017078 C 6.9730900,-1.6296469 6.9831476,1.6157441 8.7185878,4.0337352 z "
         transform="scale(0.3) rotate(180) translate(-2.3,0)" />
    </marker>
    <marker
       inkscape:stockid="Arrow1Send"
       orient="auto"
       refY="0.0"
       refX="0.0"
       id="Arrow1Send"
       style="overflow:visible;">
      <path
         id="path3152"
         d="M 0.0,0.0 L 5.0,-5.0 L -12.5,0.0 L 5.0,5.0 L 0.0,0.0 z "
         style="fill-rule:evenodd;stroke:#000000;stroke-width:1.0pt;marker-start:none;"
         transform="scale(0.2) rotate(180) translate(6,0)" />
    </marker>
    <marker
       inkscape:stockid="Arrow1Lstart"
       orient="auto"
       refY="0.0"
       refX="0.0"
       id="Arrow1Lstart"
       style="overflow:visible">
      <path
         id="path3137"
         d="M 0.0,0.0 L 5.0,-5.0 L -12.5,0.0 L 5.0,5.0 L 0.0,0.0 z "
         style="fill-rule:evenodd;stroke:#000000;stroke-width:1.0pt;marker-start:none"
         transform="scale(0.8) translate(12.5,0)" />
    </marker>
    <marker
       inkscape:stockid="Arrow1Mstart"
       orient="auto"
       refY="0.0"
       refX="0.0"
       id="Arrow1Mstart"
       style="overflow:visible">
      <path
         id="path3143"
         d="M 0.0,0.0 L 5.0,-5.0 L -12.5,0.0 L 5.0,5.0 L 0.0,0.0 z "
         style="fill-rule:evenodd;stroke:#000000;stroke-width:1.0pt;marker-start:none"
         transform="scale(0.4) translate(10,0)" />
    </marker>
    <marker
       inkscape:stockid="TriangleOutS"
       orient="auto"
       refY="0.0"
       refX="0.0"
       id="TriangleOutS"
       style="overflow:visible">
      <path
         id="path3241"
         d="M 5.77,0.0 L -2.88,5.0 L -2.88,-5.0 L 5.77,0.0 z "
         style="fill-rule:evenodd;stroke:#000000;stroke-width:1.0pt;marker-start:none"
         transform="scale(0.2)" />
    </marker>
    <marker
       inkscape:stockid="TriangleInS"
       orient="auto"
       refY="0.0"
       refX="0.0"
       id="TriangleInS"
       style="overflow:visible">
      <path
         id="path3232"
         d="M 5.77,0.0 L -2.88,5.0 L -2.88,-5.0 L 5.77,0.0 z "
         style="fill-rule:evenodd;stroke:#000000;stroke-width:1.0pt;marker-start:none"
         transform="scale(-0.2)" />
    </marker>
    <marker
       inkscape:stockid="TriangleOutM"
       orient="auto"
       refY="0"
       refX="0"
       id="TriangleOutM"
       style="overflow:visible">
      <path
         id="path3238"
         d="M 5.77,0 L -2.88,5 L -2.88,-5 L 5.77,0 z "
         style="fill-rule:evenodd;stroke:#000000;stroke-width:1pt;marker-start:none"
         transform="scale(0.4,0.4)" />
    </marker>
    <marker
       inkscape:stockid="TriangleOutL"
       orient="auto"
       refY="0"
       refX="0"
       id="TriangleOutL"
       style="overflow:visible">
      <path
         id="path3235"
         d="M 5.77,0 L -2.88,5 L -2.88,-5 L 5.77,0 z "
         style="fill-rule:evenodd;stroke:#000000;stroke-width:1pt;marker-start:none"
         transform="scale(0.8,0.8)" />
    </marker>
    <linearGradient
       inkscape:collect="always"
       xlink:href="#linearGradient7856"
       id="linearGradient7862"
       x1="7.2352862"
       y1="-3.8060107"
       x2="15.597629"
       y2="27.606647"
       gradientUnits="userSpaceOnUse" />
    <linearGradient
       inkscape:collect="always"
       xlink:href="#linearGradient10266"
       id="linearGradient10264"
       gradientUnits="userSpaceOnUse"
       x1="7.2352862"
       y1="-3.8060107"
       x2="15.597629"
       y2="27.606647"
       gradientTransform="translate(10.39494,10.02025)" />
  </defs>
  <sodipodi:namedview
     id="base"
     pagecolor="#ffffff"
     bordercolor="#666666"
     borderopacity="1.0"
     gridtolerance="10000"
     guidetolerance="10"
     objecttolerance="10"
     inkscape:pageopacity="0.0"
     inkscape:pageshadow="2"
     inkscape:zoom="16.458333"
     inkscape:cx="22.924146"
     inkscape:cy="13.643434"
     inkscape:document-units="px"
     inkscape:current-layer="layer1"
     width="24px"
     height="24px"
     showgrid="true"
     inkscape:window-width="822"
     inkscape:window-height="583"
     inkscape:window-x="73"
     inkscape:window-y="47" />
  <metadata
     id="metadata7">
    <rdf:RDF>
      <cc:Work
         rdf:about="">
        <dc:format>image/svg+xml</dc:format>
        <dc:type
           rdf:resource="http://purl.org/dc/dcmitype/StillImage" />
      </cc:Work>
    </rdf:RDF>
  </metadata>
  <g
     inkscape:label="Layer 1"
     inkscape:groupmode="layer"
     id="layer1"
     transform="translate(-220.71429,-104.1479)">
    <path
       style="fill:url(#linearGradient10264);fill-opacity:1.0;stroke:#000000;stroke-width:0.6;stroke-linecap:square;stroke-linejoin:round;stroke-miterlimit:4.80000019;stroke-opacity:1;stroke-dasharray:none"
       d="M 11.625,1.84375 C 6.0885896,2.11081 1.76419,6.86984 2.03125,12.40625 C 2.3108801,18.20332 8.12002,21.89408 13.5625,20.9375 L 15.53125,20.5625 L 14.84375,16.625 L 12.875,16.96875 C 9.6494396,17.53568 6.18146,15.33276 6.03125,12.21875 C 5.8684701,8.8440797 8.43783,6.00653 11.8125,5.84375 C 13.31245,5.7714002 14.660862,6.0533 15.630222,6.625 C 16.599582,7.1967002 17.039832,7.82316 17.3125,9.28125 L 16.949684,10.663212 C 16.205388,10.545885 14.626632,10.709853 14.194541,10.592009 L 18.152848,15.032991 L 22.4375,10.84375 C 22.101734,10.943572 20.837267,10.771504 20.463608,10.819462 L 20.704905,8.7014241 C 20.649906,5.9945338 20.123737,4.9855244 18.451345,3.4912974 C 16.793075,2.0096885 13.71572,1.7429 11.625,1.84375 z "
       transform="translate(220.71429,104.1479)"
       id="path3170"
       sodipodi:nodetypes="csccccssscccccccsc" />
  </g>
</svg>
