/* XPM */
static char * next_xpm[] = {
"32 32 20 1",
" 	c None",
".	c #BCBCBC",
"+	c #B09595",
"@	c #AA8181",
"#	c #984747",
"$	c #870D0D",
"%	c #8D2020",
"&	c #9E5B5B",
"*	c #B6A8A8",
"=	c #923434",
"-	c #A46E6E",
";	c #686868",
">	c #000000",
",	c #7D7D7D",
"'	c #545454",
")	c #151515",
"!	c #929292",
"~	c #A7A7A7",
"{	c #3E3E3E",
"]	c #2A2A2A",
"................................",
".....+@@@@@@@@@@@@@@@@@@@@@.....",
".....#$$$$$$$$$$$$$$$$$$$$$.....",
".....#$##################%$.....",
".....#$..................#$.....",
".....#$..................#$.....",
".....#$..................#$.....",
".....#$...#.....&*.......#$.....",
".....#$...$#....#%*..#$..#$.....",
".....#$...$$#...#$%*.#$..#$.....",
".....#$...$$$#..#$$%*#$..#$.....",
".....#$...$$$$#.#$$$%=$..#$.....",
".....#$...$$$$$&#$$$$$$..#$.....",
".....#$...$$$$%*#$$$$$$..#$.....",
".....#$...$$$%*.#$$$##$..#$.....",
".....#$...$$%*..#$$#.#$..#$.....",
".....#$...$%*...#$#..#$..#$.....",
".....#$...$+....##...-#..#$.....",
".....#$...@.....@........#$.....",
".....#$..................#$.....",
".....#$..................#$.....",
".....#$@@@@@@@@@@@@@@@@@@=$.....",
".....#$$$$$$$$$$$$$$$$$$$$$.....",
".....-#####################.....",
"................................",
".......;>,.')!.........,~.......",
".......!)).,;.!{;.',;;;>{.......",
".......;,);{,,{,).;]],,)........",
".......{~;)).)]{!.~>;.;{........",
".......]..)).>;.;!{;;.{{........",
"......;{!.,;.,{'!;;.{!,{!.......",
"................................"};
