/* XPM */
static char * next_8bit_xpm[] = {
"32 32 9 1",
" 	c None",
".	c #020204",
"+	c #860E0C",
"@	c #3B2C2A",
"#	c #9A4644",
"$	c #6E6768",
"%	c #7E7E7C",
"&	c #AA8284",
"*	c #BDBDBB",
"********************************",
"*****&&&&&&&&&&&&&&&&&&&&&&*****",
"*****#+++++++++++++++++++++*****",
"*****#+##################++*****",
"*****#+******************#+*****",
"*****#+******************#+*****",
"*****#+**+***************#+*****",
"*****#+**+++*************#+*****",
"*****#+**++++++**********#+*****",
"*****#+**++++++++********#+*****",
"*****#+**+++++++++++*****#+*****",
"*****#+**+++++++++++++***#+*****",
"*****#+**+++++++++++++***#+*****",
"*****#+**+++++++++++++***#+*****",
"*****#+**++++++++++******#+*****",
"*****#+**+++++++#********#+*****",
"*****#+**+++++&**********#+*****",
"*****#+**++$*************#+*****",
"*****#+**&***************#+*****",
"*****#+******************#+*****",
"*****#+******************#+*****",
"*****#+&&&&&&&&&&&&&&%&&&++*****",
"*****#+++++++++++++++++++++*****",
"*****&#####################*****",
"********************************",
"*******$.%*$.%*********%&*******",
"*******&.@*%$*&@$*$$$$$.@*******",
"*******$%.$@%%@%.*$@@%%@********",
"*******@*$.@*.@@**&.$*$@********",
"*******@**.@*.$*$*@$$*@@********",
"******$@%*%$*%@$%$$*@*%@%*******",
"********************************"};
