/* XPM */
static char * next_8bit_xpm[] = {
"32 32 9 1",
" 	c None",
".	c #111110",
"+	c #757272",
"@	c #424240",
"#	c #BEBEBC",
"$	c #860F0D",
"%	c #9A4644",
"&	c #A68587",
"*	c #2A2A2C",
"################################",
"#####&&&&&&&&&&&&&&&&&&&&&&#####",
"#####%$$$$$$$$$$$$$$$$$$$$$#####",
"#####%$%%%%%%%%%%%%%%%%%%$$#####",
"#####%$##################%$#####",
"#####%$##################%$#####",
"#####%$##################%$#####",
"#####%$###%#####%&#######%$#####",
"#####%$###$%####%$###%$##%$#####",
"#####%$###$$%###%$$&#%$##%$#####",
"#####%$###$$$%##%$$$#%$##%$#####",
"#####%$###$$$$%#%$$$$$$##%$#####",
"#####%$###$$$$$%%$$$$$$##%$#####",
"#####%$###$$$$$#%$$$$$$##%$#####",
"#####%$###$$$$##%$$$%%$##%$#####",
"#####%$###$$$###%$$%#%$##%$#####",
"#####%$###$$####%$%##%$##%$#####",
"#####%$###$&####%%###+%##%$#####",
"#####%$###&#####&########%$#####",
"#####%$##################%$#####",
"#####%$##################%$#####",
"#####%$&+&&+&&+&&+&&&+&&&$$#####",
"#####%$$$$$$$$$$$$$$$$$$$$$#####",
"#####+%%%%%%%%%%%%%%%%%%%%%#####",
"################################",
"#######+.+#@.&#########+&#######",
"#######&..#++#&*+#@++++.@#######",
"#######++.+@++@+.#+**++.########",
"#######*#+..#.*@&#&.+#+*########",
"#######*##..#.+#+&*+@#@*########",
"######+*&#++#+*@&++#@&+@&#######",
"################################"};
