/* XPM */
static char * next_8bit_xpm[] = {
"32 32 9 1",
" 	c None",
".	c #161616",
"+	c #6F6A6C",
"@	c #424240",
"#	c #9B9797",
"$	c #860F0D",
"%	c #9A4644",
"&	c #9F8182",
"*	c #BEBEBC",
"********************************",
"*****#&&&&&&&&&&&&&&&&&&&&&*****",
"*****%$$$$$$$$$$$$$$$$$$$$$*****",
"*****%$%%%%%%%%%%%%%%%%%%$$*****",
"*****%$******************%$*****",
"*****%$******************%$*****",
"*****%$**$***************%$*****",
"*****%$**$$$*************%$*****",
"*****%$**$$$$$$**********%$*****",
"*****%$**$$$$$$$$********%$*****",
"*****%$**$$$$$$$$$$$*****%$*****",
"*****%$**$$$$$$$$$$$$$#**%$*****",
"*****%$**$$$$$$$$$$$$$***%$*****",
"*****%$**$$$$$$$$$$$$$***%$*****",
"*****%$**$$$$$$$$$$******%$*****",
"*#***%$**$$$$$$$%********%$*****",
"*****%$**$$$$$#**********%$*****",
"*****%$**$$%*************%$*****",
"*****%$**&***************%$*****",
"*****%$****************#*%$*****",
"*****%$******************%$*****",
"*****%$&&&&&&&&&&&&&&&&&&$$*****",
"*****%$$$$$$$$$$$$$$$$$$$$$*****",
"*****%%%%%%%%%%%%%%%%%%%%%%*****",
"********************************",
"*******+.+*@.&*********&#**#****",
"*******&..*&+*&@+*@++++.@*******",
"*******++.+@++@+.*+@.++.********",
"*******@#+..*.@@&*#.+*+@********",
"*******@**..*.+*+&@++*@@********",
"******+@&*++*+@@#++*@&+@&*******",
"****#**********************#****"};
