/* XPM */
static char * context_8bit_xpm[] = {
"32 32 9 1",
" 	c None",
".	c #09090A",
"+	c #856F70",
"@	c #958987",
"#	c #2E2E2F",
"$	c #FEFEFC",
"%	c #860E0C",
"&	c #BCBCBA",
"*	c #7B403E",
"&@@@@@@@@@@@@@@@@@@@@@@@@@@@@@@&",
"&*%%%%%%%%%%%%%%%%%%%%%%%%%%%%%&",
"&*%**************************%%&",
"&*%&&&&&&&&&&&&&&&&&&&&&&&&&&*%&",
"&*%&&&&&&@@@&&&&&&&@@@&&&&&&&*%&",
"&*%&&&&++@@@+&&&&@+@@@@&&&&&&*%&",
"&*%&&&+@+*....@&+@+#...*@&&&&*%&",
"&+%&&@++.#+@@+.#@*.*+@@*.@&&&*%&",
"&*%&&@@.+&$$$&&#..&$$$&&&.@&&*%&",
"&+%&&@*#&$$$#.&@.#$$$&##&**&&*%&",
"&*%&&@##$$$&#.+$.@$$$@..&@.&&*%&",
"&+%&&@##$$$$&+$$.@$$$$@&$&.&&*%&",
"&*%&&+##$$$$$$$$.@$$$$$$$@.&&*%&",
"&+%&&@##$$$$$$$$.@$$$$$$$@.&&*%&",
"&*%&&&*#$$$$$$$&.+$$$$$$$+.&&+%&",
"&+%&&&&.+$$$$$$#..&$$$$$&.@&&*%&",
"&*%&&&&+##&$&&##@##@$$&@#*&&&*%&",
"&*%&&&&&@#....*@&&*....#*&&&&*%&",
"&*%&&&&&&&@@@@&&&&&&+@@@&&&&&*%&",
"&*%&&&&&&&&&&&&&&&&&&&&&&&&&&*%&",
"&*%@@@@@@@@@@@@@@@@@@@@@@@@@@*%&",
"&*%%%%%%%%%%%%%%%%%%%%%%%%%%%%%&",
"&@*****************************&",
"&&&&&&&&&&&&&&&&&&&&&&&&&&&&&&&&",
"&&+.*#@&&&&&&&&&&&@&&&&&&&&&&&@&",
"&*#&&&@&+*&@*&+*&##+&@*+&*@+++.#",
"@.@&&&&.@+.&.*+.&#*&@*@.&+##++.&",
"@.&&&&+#&@.@.++#&#@&.#*@&@.+&+#&",
"@.+&&@##&.@@#&#+&.+&.+&+@#++&#*&",
"&@##+&&##@&++&*#&+#&+#+@++&#@@#@",
"&&&&&&&&&&&&&&&&&&&&&&&&&&&&&&&&",
"&&&&&&&&&&&&&&&&&&&&&&&&&&&&&&&&"};
