/* XPM */
static char * context_xpm[] = {
"32 32 145 2",
"  	c None",
". 	c #BCBCBC s backgroundToolBarColor",
"+ 	c #B09696",
"@ 	c #AA8282",
"# 	c #994747",
"$ 	c #870D0D",
"% 	c #994848",
"& 	c #8D2121",
"* 	c #A2A2A2",
"= 	c #919191",
"- 	c #959595",
"; 	c #AFAFAF",
"> 	c #B3B3B3",
", 	c #7A7A7A",
"' 	c #787878",
") 	c #7F7F7F",
"! 	c #7C7C7C",
"~ 	c #797979",
"{ 	c #A3A3A3",
"] 	c #878787",
"^ 	c #777777",
"/ 	c #808080",
"( 	c #870F0F",
"_ 	c #6D6D6D",
": 	c #4F4F4F",
"< 	c #0A0A0A",
"[ 	c #141414",
"} 	c #8E8E8E",
"| 	c #AEAEAE",
"1 	c #818181",
"2 	c #7E7E7E",
"3 	c #616161",
"4 	c #2F2F2F",
"5 	c #090909",
"6 	c #454545",
"7 	c #994949",
"8 	c #891313",
"9 	c #181818",
"0 	c #7D7D7D",
"a 	c #8D8D8D",
"b 	c #888888",
"c 	c #757575",
"d 	c #010101",
"e 	c #383838",
"f 	c #525252",
"g 	c #030303",
"h 	c #464646",
"i 	c #050505",
"j 	c #994A4A",
"k 	c #8A1818",
"l 	c #7B7B7B",
"m 	c #121212",
"n 	c #6E6E6E",
"o 	c #D3D3D3",
"p 	c #FBFBFB",
"q 	c #FDFDFD",
"r 	c #E1E1E1",
"s 	c #C4C4C4",
"t 	c #3D3D3D",
"u 	c #0D0D0D",
"v 	c #BABABA",
"w 	c #E6E6E6",
"x 	c #CECECE",
"y 	c #B8B8B8",
"z 	c #080808",
"A 	c #9A4C4C",
"B 	c #8B1C1C",
"C 	c #555555",
"D 	c #222222",
"E 	c #B9B9B9",
"F 	c #FCFCFC",
"G 	c #FEFEFE",
"H 	c #EBEBEB",
"I 	c #3A3A3A",
"J 	c #070707",
"K 	c #999999",
"L 	c #9B9B9B",
"M 	c #000000",
"N 	c #494949",
"O 	c #FFFFFF",
"P 	c #B2B2B2",
"Q 	c #131313",
"R 	c #2D2D2D",
"S 	c #C5C5C5",
"T 	c #3C3C3C",
"U 	c #9B4E4E",
"V 	c #303030",
"W 	c #393939",
"X 	c #F2F2F2",
"Y 	c #E4E4E4",
"Z 	c #171717",
"` 	c #939393",
" .	c #C7C7C7",
"..	c #8C1E1E",
"+.	c #3F3F3F",
"@.	c #BDBDBD",
"#.	c #868686",
"$.	c #F4F4F4",
"%.	c #9F9F9F",
"&.	c #F6F6F6",
"*.	c #949494",
"=.	c #FAFAFA",
"-.	c #994B4B",
";.	c #8B1B1B",
">.	c #F7F7F7",
",.	c #F3F3F3",
"'.	c #891414",
").	c #B0B0B0",
"!.	c #4B4B4B",
"~.	c #323232",
"{.	c #E3E3E3",
"].	c #D5D5D5",
"^.	c #F8F8F8",
"/.	c #0E0E0E",
"(.	c #881010",
"_.	c #0C0C0C",
":.	c #F0F0F0",
"<.	c #E8E8E8",
"[.	c #444444",
"}.	c #828282",
"|.	c #707070",
"1.	c #232323",
"2.	c #545454",
"3.	c #E2E2E2",
"4.	c #CBCBCB",
"5.	c #373737",
"6.	c #1A1A1A",
"7.	c #3E3E3E",
"8.	c #343434",
"9.	c #8F8F8F",
"0.	c #D9D9D9",
"a.	c #ECECEC",
"b.	c #870E0E",
"c.	c #4A4A4A",
"d.	c #515151",
"e.	c #202020",
"f.	c #8A8A8A",
"g.	c #AB8383",
"h.	c #AB8484",
"i.	c #933434",
"j.	c #A56E6E",
"k.	c #151515",
"l.	c #2A2A2A",
"m.	c #A7A7A7",
"n.	c #696969",
". + @ @ @ @ @ @ @ @ @ @ @ @ @ @ @ @ @ @ @ @ @ @ @ @ @ @ @ @ @ . ",
". # $ $ $ $ $ $ $ $ $ $ $ $ $ $ $ $ $ $ $ $ $ $ $ $ $ $ $ $ $ . ",
". # $ # # % % % % % % % # # # # % % % % # # # # # # # # # & $ . ",
". # $ . . . . . . . . . . . . . . . . . . . . . . . . . . # $ . ",
". # $ . . . . . * = = - . . . . . . ; = = = > . . . . . . # $ . ",
". % $ . . . . , ' ) ) ! ~ { . . . ] ^ / / / ~ . . . . . . # $ . ",
". % ( . . ; ' ) _ : < < < [ } | 1 2 3 4 5 5 5 6 = . . . . # $ . ",
". 7 8 . . } ) _ 9 9 0 a b c d e / f g h 1 = 1 h i ~ . . . # $ . ",
". j k . . l ) m n o p q r s s t u i v w p p x s y z b . . # $ . ",
". A B . . ) C D E F G H I J K L M N H O O P Q R S N T . . # $ . ",
". U B . . ) V W X G G Y Z g ' H M a q O O ` J m  .a M . . # $ . ",
". U ... . ) V +.G G G F @.#.$.O M %.O O O &.*.; =.%.d . . # $ . ",
". -.... . , V +.G G G G G G G O M %.O O O O O G G %.M . . # $ . ",
". -.;.. . } V T >.G G G G G G ,.M - q O O O O G q - d . . # $ . ",
". 7 '.. . ).!.~.{.G G G G G q ].M , ^.O O O O G ^., /.. . # $ . ",
". 7 (.. . . . _.l :.G G G G <.[.M M o ^.O O O ^.o d }.. . # $ . ",
". % ( . . . . |.1.2.].<.3.4.5.6.} 7.8.9.0.a.0.9.8.7.| . . # $ . ",
". % b.. . . . . ! T d d d i c.K . . d.e.M M M e.d.. . . . # $ . ",
". # $ . . . . . . P ] ] ] f.. . . . . %.] ] ] %.. . . . . # $ . ",
". # $ . . . . . . . . . . . . . . . . . . . . . . . . . . # $ . ",
". # $ @ @ @ @ g.h.h.h.h.h.@ @ @ h.h.h.h.h.@ @ @ @ @ @ @ @ i.$ . ",
". # $ $ $ $ $ $ $ $ $ $ $ $ $ $ $ $ $ $ $ $ $ $ $ $ $ $ $ $ $ . ",
". j.# # # # # # # # # # # # # # # # # # # # # # # # # # # # # . ",
". . . . . . . . . . . . . . . . . . . . . . . . . . . . . . . . ",
". . 2.k.+.l.0 . . . . . . . . . . m.0 . . . . . . . . . . . 0 m.",
". +.l.. . m.m.m.2.+.` ` +.` n.2.. l.k.n.. ` +.n.. 2.0 n.n.n.M +.",
"m.M ` . . . m.k.m.n.M . M 2.2.M . +.2.. 0 +.0 k.. n.l.l.0 0 k.. ",
"0 M . . . . 2.+.. 0 k.m.M 0 n.+.. l.0 . k.l.+.` . m.M n.. n.+.. ",
"m.M 0 . . m.+.l.m.k.0 0 l.. +.2.. M 0 . M n.. n.` +.n.n.. +.+.. ",
". ` +.+.n.m.m.+.+.` . 0 n.. 2.+.. 2.+.. 0 +.2.` n.n.. +.` 0 +.` ",
". . . . . . . . . . . . . . . . . . . . . . . . . . . . . . . . ",
". . . . . . . . . . . . . . . . . . . . . . . . . . . . . . . . "};
