/* XPM */
static char * find_8bit_xpm[] = {
"32 32 9 1",
" 	c None",
".	c #1B1C1D",
"+	c #8A4948",
"@	c #8C7E81",
"#	c #BABEBD",
"$	c #EBFEFC",
"%	c #373132",
"&	c #D4F4FA",
"*	c #761917",
"#@@@@@@@@@@@@@@@@@@@@@@@@@@@@@@#",
"#+*****************************#",
"#+*+++++++++++++++*+%#@#@++++**#",
"#+*###############@##&#&&@+##+*#",
"#+*################&#&&#&$###+*#",
"#+*############%#&&&&&&&&$&##+*#",
"#+*###########@%#&#&&&&&$$$#++*#",
"#+*###########%@&&&&&$$$$$&$#+*#",
"#+*###########.&&&&&&$$$$$$&@+*#",
"#+*###########@&&&&$$$$$$$$@++*#",
"#+*###########%&&&&$$$$$$$$%%+*#",
"#+*########@@#@&&$$$$$$$$&&@.+*#",
"#+*######+..@#&@@&&$$$$$&##%@+*#",
"#+*###@+%.%.@&&#@#&$$&#@.#&.@+*#",
"#+*###*%...%.%###@@@&%@@@@#@#+*#",
"#+*#@+..%%%%%@###@.%@@%@%%@##+*#",
"#+*%%%%%%%%@##########@######+*#",
"#+*%%%@#@@###################+*#",
"#+*%@#&######################+*#",
"#+*##########################+*#",
"#+*@@@@@@@@@@@@@@@@@@@@@@@@@@**#",
"#+*****************************#",
"#++++++++++++++++++++++++++++++#",
"################################",
"#############@@########@@@######",
"########+.+%++@#########*@######",
"########@.##@+@@%@+@##+%.#######",
"########+.%+#.#@.@%*#.@@*#######",
"########%+##@.#+.@%@@%#.+#######",
"########.@##+%#%@#.@%%+.@#######",
"#######+%%##@%#+@#%@@%#%@#######",
"################################"};
