/* XPM */
static char * find_xpm[] = {
"32 32 224 2",
"  	c None",
". 	c #BCBCBC s backgroundToolBarColor",
"+ 	c #B09696",
"@ 	c #AA8282",
"# 	c #994747",
"$ 	c #870D0D",
"% 	c #7B0C0C",
"& 	c #6A0D0E",
"* 	c #850D0D",
"= 	c #470707",
"- 	c #812125",
"; 	c #994848",
"> 	c #4A2323",
", 	c #3F414B",
"' 	c #375F74",
") 	c #8BAABF",
"! 	c #647F8C",
"~ 	c #68B3D9",
"{ 	c #7592AD",
"] 	c #846571",
"^ 	c #8D2121",
"/ 	c #B8BCBD",
"( 	c #ABBAC2",
"_ 	c #5994B2",
": 	c #92C5D9",
"< 	c #6EB7DB",
"[ 	c #C4E8F3",
"} 	c #A2D5E9",
"| 	c #B3E0F0",
"1 	c #B7E3F1",
"2 	c #668A99",
"3 	c #565656",
"4 	c #B1C5CF",
"5 	c #75BADC",
"6 	c #82C4E1",
"7 	c #CAF1F8",
"8 	c #B2E5F2",
"9 	c #C2EDF6",
"0 	c #B3E5F2",
"a 	c #B5E7F3",
"b 	c #C8F0F8",
"c 	c #E3FEFF",
"d 	c #86BCD4",
"e 	c #B0BBC0",
"f 	c #3B3B3B",
"g 	c #A4C4D3",
"h 	c #E2FAFC",
"i 	c #B6E6F2",
"j 	c #BCEAF5",
"k 	c #CCF2F9",
"l 	c #D0F4FA",
"m 	c #CDF3F9",
"n 	c #DEFBFD",
"o 	c #D2F5FA",
"p 	c #E5FFFF",
"q 	c #CBEEF5",
"r 	c #C7D1D1",
"s 	c #B5B5B5",
"t 	c #870F0F",
"u 	c #818181",
"v 	c #2F393C",
"w 	c #97D1E8",
"x 	c #B4E6F3",
"y 	c #E4FEFF",
"z 	c #E4FFFF",
"A 	c #E8FFFF",
"B 	c #F3FFFF",
"C 	c #F0FFFF",
"D 	c #E6FFFF",
"E 	c #A5B8B8",
"F 	c #464646",
"G 	c #994949",
"H 	c #891313",
"I 	c #3C3C3C",
"J 	c #8C9C9C",
"K 	c #C9F1F8",
"L 	c #D7F8FB",
"M 	c #EBFFFF",
"N 	c #F4FFFF",
"O 	c #FFFFFF",
"P 	c #E7FFFF",
"Q 	c #C1C8C8",
"R 	c #994A4A",
"S 	c #8A1818",
"T 	c #ADADAD",
"U 	c #0A0B0B",
"V 	c #DFF9F9",
"W 	c #C0ECF6",
"X 	c #DDFBFD",
"Y 	c #F5FFFF",
"Z 	c #F6FFFF",
"` 	c #CFEBEE",
" .	c #7AA1B4",
"..	c #9A4C4C",
"+.	c #8B1C1C",
"@.	c #91ADBB",
"#.	c #BBE5F2",
"$.	c #ECFFFF",
"%.	c #6F7C7C",
"&.	c #61686B",
"*.	c #9B4E4E",
"=.	c #3B474D",
"-.	c #B2D1D8",
";.	c #EFFFFF",
">.	c #F9FFFF",
",.	c #FAFFFF",
"'.	c #212728",
").	c #2E2E2E",
"!.	c #8C4141",
"~.	c #8C1E1E",
"{.	c #878787",
"].	c #7D7D7D",
"^.	c #BABCBD",
"/.	c #909698",
"(.	c #CEF0F4",
"_.	c #C3E5EC",
":.	c #4C7385",
"<.	c #212121",
"[.	c #994B4B",
"}.	c #6F6F6F",
"|.	c #2A2A2A",
"1.	c #282828",
"2.	c #6A7D87",
"3.	c #8CB7CD",
"4.	c #B5D6E5",
"5.	c #8A9EA4",
"6.	c #5D6868",
"7.	c #E2FCFC",
"8.	c #A7CDDA",
"9.	c #BADDE9",
"0.	c #3A4E56",
"a.	c #666666",
"b.	c #8B1B1B",
"c.	c #949494",
"d.	c #6C6C6C",
"e.	c #292929",
"f.	c #171717",
"g.	c #141617",
"h.	c #5A8DA7",
"i.	c #EFF7FB",
"j.	c #D4D8DB",
"k.	c #C7C7C7",
"l.	c #7396A6",
"m.	c #99BFCC",
"n.	c #D1EEF1",
"o.	c #E1FBFB",
"p.	c #B4C8C8",
"q.	c #7E9092",
"r.	c #1C262B",
"s.	c #70A1B8",
"t.	c #E1ECF0",
"u.	c #070707",
"v.	c #AAAAAA",
"w.	c #891414",
"x.	c #3A3A3A",
"y.	c #232323",
"z.	c #161616",
"A.	c #1B1B1B",
"B.	c #202020",
"C.	c #313131",
"D.	c #4C4C4C",
"E.	c #A5AFB5",
"F.	c #7A97A6",
"G.	c #47778F",
"H.	c #7AA5B8",
"I.	c #B2D4DD",
"J.	c #3E4545",
"K.	c #475F6A",
"L.	c #486C7E",
"M.	c #6091A8",
"N.	c #597F91",
"O.	c #99B3BD",
"P.	c #A1A1A1",
"Q.	c #881010",
"R.	c #A6A6A6",
"S.	c #8C8C8C",
"T.	c #4F4F4F",
"U.	c #2F2F2F",
"V.	c #050505",
"W.	c #3E3E3E",
"X.	c #272727",
"Y.	c #8E8E8E",
"Z.	c #000001",
"`.	c #394D56",
" +	c #6E93A6",
".+	c #537C90",
"++	c #334B56",
"@+	c #749EB3",
"#+	c #1B292F",
"$+	c #4F5456",
"%+	c #370606",
"&+	c #454545",
"*+	c #333333",
"=+	c #383838",
"-+	c #3D3D3D",
";+	c #323232",
">+	c #2C2C2C",
",+	c #6A6A6A",
"'+	c #AEAEAE",
")+	c #9C9C9C",
"!+	c #A6AAAC",
"~+	c #999999",
"{+	c #520B0B",
"]+	c #252525",
"^+	c #3F3F3F",
"/+	c #C5C5C5",
"(+	c #707070",
"_+	c #868686",
":+	c #ABABAB",
"<+	c #6D0A0A",
"[+	c #7F7F7F",
"}+	c #E7E7E7",
"|+	c #BFBFBF",
"1+	c #C8C8C8",
"2+	c #AB8383",
"3+	c #AB8484",
"4+	c #933434",
"5+	c #A56E6E",
"6+	c #939393",
"7+	c #A7A7A7",
"8+	c #696969",
"9+	c #000000",
"0+	c #545454",
"a+	c #151515",
". + @ @ @ @ @ @ @ @ @ @ @ @ @ @ @ @ @ @ @ @ @ @ @ @ @ @ @ @ @ . ",
". # $ $ $ $ $ $ $ $ $ $ $ $ $ $ $ $ $ % & * = - $ $ $ $ $ $ $ . ",
". # $ # # ; ; ; ; ; ; ; # # # # ; ; > , ' ) ! ~ { ] # # # ^ $ . ",
". # $ . . . . . . . . . . . . . / ( _ : < [ } | 1 2 3 . . # $ . ",
". # $ . . . . . . . . . . . . . 4 5 6 7 8 9 0 a b c d e . # $ . ",
". ; $ . . . . . . . . . . . . f g h i j k l m n o p q r s # $ . ",
". ; t . . . . . . . . . . . u v w 0 x y z p A B C D p E F # $ . ",
". G H . . . . . . . . . . . I J K b L p M N O O O P p p Q # $ . ",
". R S . . . . . . . . . . T U V W X p p Y O O O Z p p `  .# $ . ",
". ..+.. . . . . . . . . . . @.#.p p p P O O O O $.p p %.&.# $ . ",
". *.+.. . . . . . . . . . . =.-.p p p p ;.>.,.C p p p '.).!.$ . ",
". *.~.. . . . . . . T {.].^./.(.p p p p p p P p p p _.:.<.# $ . ",
". [.~.. . . . . . }.|.1.2.3.4.5.6.p p p p p p p 7.8.9.0.a.# $ . ",
". [.b.. . . c.d.e.f.|.g.h.i.j.k.l.m.n.p p o.p.q.r.s.t.u.v.# $ . ",
". G w.. . . x.y.z.A.B.C.1.D.. . E.F.G.H.I.J.K.L.M.N.O.P.. # $ . ",
". G Q.R.S.T.U.V.e.I W.y.X.].. . . Y.Z.`. +.+++@+#+$+c.. . # $ . ",
". ; %+&+*+=+f -+;+).>+,+. . . . . . '+)+. !+u . ~+. . . . # $ . ",
". ; {+]+^+^+a./+(+_+:+. . . . . . . . . . . . . . . . . . # $ . ",
". # <+&+[+s }+k.. . . . . . . . . . . . . . . . . . . . . # $ . ",
". # $ . |+1+. . . . . . . . . . . . . . . . . . . . . . . # $ . ",
". # $ @ @ @ @ 2+3+3+3+3+3+@ @ @ 3+3+3+3+3+@ @ @ @ @ @ @ @ 4+$ . ",
". # $ $ $ $ $ $ $ $ $ $ $ $ $ $ $ $ $ $ $ $ $ $ $ $ $ $ $ $ $ . ",
". 5+# # # # # # # # # # # # # # # # # # # # # # # # # # # # # . ",
". . . . . . . . . . . . . . . . . . . . . . . . . . . . . . . . ",
". . . . . . . . . . . . . 6+6+. . . . . . . . 7+].7+. . . . . . ",
". . . . . . . . 8+9+^+^+0+8+].. . . . . . . . 7+9+6+. . . . . . ",
". . . . . . . . 6+9+. . 6+^+6+8+^+7+0+].. 7+0+^+9+. . . . . . . ",
". . . . . . . . 8+a+^+0+. 9+. ].a+8+|.^+. a+7+].^+. . . . . . . ",
". . . . . . . . ^+0+7+7+].a+. 8+a+7+|.].].^+. a+0+. . . . . . . ",
". . . . . . . . a+].. . 8+^+. ^+8+. 9+6+^+|.0+|.].. . . . . . . ",
". . . . . . . 8+^+0+. . 8+^+. 0+6+7+^+8+].^+7+^+8+. . . . . . . ",
". . . . . . . . . . . . . . . . . . . . . . . . . . . . . . . . "};
