/* XPM */
static char * pg_goto_xpm[] = {
"32 32 66 1",
" 	c None",
".	c #BCBCBC s backgroundToolBarColor",
"+	c #B09696",
"@	c #AA8282",
"#	c #994747",
"$	c #870D0D",
"%	c #8D2121",
"&	c #9A4B4B",
"*	c #8B1919",
"=	c #881212",
"-	c #A87A7A",
";	c #BBB9B9",
">	c #9E5858",
",	c #891313",
"'	c #A06161",
")	c #BCBBBB",
"!	c #A26868",
"~	c #891414",
"{	c #A16565",
"]	c #B8AFAF",
"^	c #BBBABA",
"/	c #9F5C5C",
"(	c #891515",
"_	c #860C0C",
":	c #9C5454",
"<	c #B19797",
"[	c #B29A9A",
"}	c #BAB7B7",
"|	c #A77777",
"1	c #8A1616",
"2	c #984949",
"3	c #B5A5A5",
"4	c #8F2D2D",
"5	c #8E2828",
"6	c #B3A0A0",
"7	c #A67575",
"8	c #881515",
"9	c #850D0D",
"0	c #9E5A5A",
"a	c #9C5757",
"b	c #A87B7B",
"c	c #891212",
"d	c #870E0E",
"e	c #B29C9C",
"f	c #B6A7A7",
"g	c #B7ACAC",
"h	c #AD8C8C",
"i	c #881111",
"j	c #AA8181",
"k	c #B5A4A4",
"l	c #AA7F7F",
"m	c #B4A1A1",
"n	c #AB8585",
"o	c #AE8F8F",
"p	c #AC8888",
"q	c #933434",
"r	c #A56E6E",
"s	c #545454",
"t	c #151515",
"u	c #3E3E3E",
"v	c #2A2A2A",
"w	c #929292",
"x	c #A7A7A7",
"y	c #7D7D7D",
"z	c #686868",
"A	c #000000",
"................................",
".....+@@@@@@@@@@@@@@@@@@@@@.....",
".....#$$$$$$$$$$$$$$$$$$$$$.....",
".....#$##################%$.....",
".....#$..................#$.....",
".....#$..................#$.....",
".....#$.&..............*.#$.....",
".....#$.=-;...........>=.#$.....",
".....#$.,$').........!$,.#$.....",
".....#$.~$${]......^/$$~.#$.....",
".....#$.($$_:).<[.}|_$$(.#$.....",
".....#$.1$$$$234567$$$$1.#$.....",
".....#$.($$$_8.99.0_$$$(.#$.....",
".....#$.~$$$_[.ab.<_$$$~.#$.....",
".....#$.c$$de..fg..h,$$c.#$.....",
".....#$.i$dj;.......k$$i.#$.....",
".....#$.d$l).........m$d.#$.....",
".....#$.,n............&$.#$.....",
".....#$.o..............p.#$.....",
".....#$..................#$.....",
".....#$..................#$.....",
".....#$@@@@@@@@@@@@@@@@@@q$.....",
".....#$$$$$$$$$$$$$$$$$$$$$.....",
".....r#####################.....",
"................................",
"........stuvw.....xy............",
".......uv..xx.zuz.vtz.wusx......",
"......xAw....uzxAyus.yv.vu......",
"......yA..ttzA..Awvy.ty.us......",
"......xAy.usyAxuu.Ay.Azytx......",
".......wuusx.suz..su.yusx.......",
"................................"};
