/* XPM */
static char * interrupt_8bit_xpm[] = {
"32 32 9 1",
" 	c None",
".	c #373130",
"+	c #9A4746",
"@	c #957979",
"#	c #860E0C",
"$	c #BDBDBB",
"%	c #8A1819",
"&	c #FEFEFC",
"*	c #F80405",
"$@@@@@@@@@@@@@@@@@@@@@@@@@@@@@@$",
"$+%%%%%%%%%%%%%%%%%%%%%%%%%%%%#$",
"$+%++++++++@*#*#*#*#*%+++++++%%$",
"$+#$$$$$$&*************&$$$$$+#$",
"$+#$$$$$&***************&$$$$+#$",
"$+#$$$$&*****************&$$$+#$",
"$+#$$$&*******************&$$+#$",
"$+#$$$********************&$$+#$",
"$+%$$$*********************$$+#$",
"$+%$$$**&&&&&&&&&&&&&&&&&**$$+#$",
"$+%$$$*&&&&&&&&&&&&&&&&&&&*$$+#$",
"$+%$$$*&&&&&&&&&&&&&&&&&&&*$$+#$",
"$+%$$$**&&&&&&&&&&&&&&&&&**$$+#$",
"$+%$$$*********************$$+#$",
"$+%$$$@*******************&$$+#$",
"$+#$$$@*******************&$$+#$",
"$+#$$$&******************&&$$+#$",
"$+#$$$&&****************&&$$$+#$",
"$+#$$$$&&**************&&$$$$+#$",
"$+#$$$$$&*************&&$$$$$+#$",
"$+#@@@@@@$$**********$@@@@@@@+#$",
"$+#%#%%%%##############%#%#####$",
"$@+++++++++++++.#++++++++++++++$",
"$$$$$$$$$$$$$$$$$$$$$$$$$$$$$$$$",
"$$$$$$@...$@@$$$$$$$$$$$$$$$$$$$",
"$$$$$$..$$$...$@..$@.@.@$$$$$$$$",
"$$$$$$$..@$@.$@.$.@$.@@.@$$$$$$$",
"$$$$$$$$@.$@.$.@$@.$.@$.@$$$$$$$",
"$$$$$$.$@.$@.$@.$.@$.@$.@$$$$$$$",
"$$$$$$@..@$$.@$@..$$...@$$$$$$$$",
"$$$$$$$$$$$$$$$$$$$$..$$$$$$$$$$",
"$$$$$$$$$$$$$$$$$$$$$$$$$$$$$$$$"};
