/* XPM */
static char * interrupt_xpm[] = {
"32 32 52 1",
" 	c None",
".	c #BCBCBC s backgroundToolBarColor",
"+	c #B09696",
"@	c #AA8282",
"#	c #994747",
"$	c #870D0D",
"%	c #994848",
"&	c #AF5E5E",
"*	c #AF0909",
"=	c #AF1C1C",
"-	c #AF1919",
";	c #8D2121",
">	c #FFFFFF",
",	c #FF0000",
"'	c #FF3131",
")	c #870F0F",
"!	c #994949",
"~	c #891313",
"{	c #994A4A",
"]	c #8A1818",
"^	c #9A4C4C",
"/	c #8B1C1C",
"(	c #9B4E4E",
"_	c #8C1E1E",
":	c #994B4B",
"<	c #8B1B1B",
"[	c #891414",
"}	c #FF7B7B",
"|	c #881010",
"1	c #870E0E",
"2	c #AB8383",
"3	c #AB8484",
"4	c #D8B1B1",
"5	c #D7B0B0",
"6	c #D70606",
"7	c #D70505",
"8	c #D70404",
"9	c #D80707",
"0	c #D7AFAF",
"a	c #933434",
"b	c #A56E6E",
"c	c #5A0909",
"d	c #830909",
"e	c #7D7D7D",
"f	c #3F3F3F",
"g	c #2A2A2A",
"h	c #A7A7A7",
"i	c #151515",
"j	c #696969",
"k	c #545454",
"l	c #939393",
"m	c #000000",
".+@@@@@@@@@@@@@@@@@@@@@@@@@@@@@.",
".#$$$$$$$$$$$$$$$$$$$$$$$$$$$$$.",
".#$##%%%%%&&********=-#######;$.",
".#$......>,,,,,,,,,,,,,>.....#$.",
".#$.....>,,,,,,,,,,,,,,'>....#$.",
".%$....>,,,,,,,,,,,,,,,,,>...#$.",
".%)...>,,,,,,,,,,,,,,,,,,,>..#$.",
".!~...,,,,,,,,,,,,,,,,,,,,>..#$.",
".{]...,,,,,,,,,,,,,,,,,,,,,..#$.",
".^/...,,>>>>>>>>>>>>>>>>>,,..#$.",
".(/...,>>>>>>>>>>>>>>>>>>>,..#$.",
".(_...,>>>>>>>>>>>>>>>>>>>,..#$.",
".:_...,,>>>>>>>>>>>>>>>>>,,..#$.",
".:<...,,,,,,,,,,,,,,,,,,,,,..#$.",
".![...},,,,,,,,,,,,,,,,,,,>..#$.",
".!|...},,,,,,,,,,,,,,,,,,,>..#$.",
".%)...>,,,,,,,,,,,,,,,,,,>>..#$.",
".%1...>>,,,,,,,,,,,,,,,,>>...#$.",
".#$....>>,,,,,,,,,,,,,,>>....#$.",
".#$.....>',,,,,,,,,,,,>>.....#$.",
".#$@@@@234566778996660@@@@@@@a$.",
".#$$$$$$$$$$$$$$$$$$$$$$$$$$$$$.",
".b#############cd##############.",
"................................",
"......effg.he...................",
"......ff...gij.jfk.lfefj........",
"......hiih.ef.jf.fj.fkhil.......",
"........ji.ef.fe.ef.fe.fe.......",
"......j.hm.ef.jf.fk.fjhil.......",
"......effl..kj.jfk..fkfe........",
"...................hgk..........",
"................................"};
