/* XPM */
static char * qed_8bit_xpm[] = {
"32 32 9 1",
" 	c None",
".	c #161210",
"+	c #C2C0BD",
"@	c #A38B85",
"#	c #860E0C",
"$	c #615047",
"%	c #954F4D",
"&	c #372D2A",
"*	c #563938",
"++++++++++++++++++++++++++++++++",
"+@@@@@@@@@@@@@@@@@@@@@@@@@@@@@@+",
"+%#############################+",
"+%#%%%%%%%%%%%%%%%%%%%%%%%%%%##+",
"+.........#.&..................+",
"+....#.#.&**$#&#&.&....&&*&....+",
"+..**&&&&#$%%%*&&&&&&.&&&+@&...+",
"+.&%@%*&&%@++%****&*&&&&$+@*...+",
"+.&%+@**#*@++@%$$@$*&&&&$$$&...+",
"+.&*%%***%@++%*$@+@$&&$$$&&&&..+",
"+.#&&*%**%%%%%$*$@$$&$$&&&$&...+",
"+..&&&&%$%%%%***$$&$$$&&&$$*&..+",
"+&&&&&&***$$%****$$$$&$&$$+@...+",
"+.&&*******$%$&$&$$$$&&&$$+$&..+",
"+&****$*$%%%%$*&$$@@$$$&$$$$&..+",
"+**%%%$**%++%$&&$$@++@$&&&&&...+",
"+&$++@$**$%%$$**$$++++&&&......+",
"+*%++@$******$&$$$+@@$$&&&.....+",
"+&*@@%$*&&&&*$$&&&+@*&&.&......+",
"+&&**@%&&&&&&$$$$+&&&&.........+",
"+.&&&&$%&..&&@$$++$..&.........+",
"+.&.&&&%.....**$*&.............+",
"+%#############################+",
"+%%%%%%%%%%%%%%%%%%%%%%%*%%%%%%+",
"++++++++++++++++++++++++++@+++++",
"++++$&*.$+++@.&&.+++$.*&&@++@+++",
"+++@.++$.++++.@+++++@.++*$++++++",
"+++.$++@.+++@.&.++++$&++&&++++++",
"+++.@++.$+++@.+@++++&$++.@++++++",
"@++.$+$.+$$+$&+@@$@+.@+&&+*@@+++",
"+++@&&$++$@@&$&&+&+$$&&@++&+++++",
"++++++$$&+++++++++++++++++++++++"};
