/* XPM */
static char * retract_xpm[] = {
"32 32 27 1",
" 	c None",
".	c #BCBCBC s backgroundToolBarColor",
"+	c #B09696",
"@	c #AA8282",
"#	c #994747",
"$	c #870D0D",
"%	c #8D2121",
"&	c #860C0C",
"*	c #9E5959",
"=	c #B09595",
"-	c #902D2D",
";	c #A16363",
">	c #A06262",
",	c #B29A9A",
"'	c #8A1616",
")	c #AC8888",
"!	c #933434",
"~	c #A56E6E",
"{	c #696969",
"]	c #000000",
"^	c #3F3F3F",
"/	c #151515",
"(	c #7D7D7D",
"_	c #A7A7A7",
":	c #545454",
"<	c #939393",
"[	c #2A2A2A",
"................................",
".....+@@@@@@@@@@@@@@@@@@@@@.....",
".....#$$$$$$$$$$$$$$$$$$$$$.....",
".....#$##################%$.....",
".....#$..................#$.....",
".....#$..................#$.....",
".....#$..@$$$$$$$&$$$$$..#$.....",
".....#$..@$$$$$$$$$$$$$..#$.....",
".....#$........$$$.......#$.....",
".....#$.......$$$$$......#$.....",
".....#$.......$$$$$......#$.....",
".....#$......$$$$$$*.....#$.....",
".....#$......$$$$$$$.....#$.....",
".....#$.....$$$$$$$$=....#$.....",
".....#$.....$$$$$$$$-....#$.....",
".....#$....;$$$$$$$$$....#$.....",
".....#$....$$$$$$$$$$>...#$.....",
".....#$...,$$$$$$$$$$'...#$.....",
".....#$..,$$$$$$$$$$$$)..#$.....",
".....#$..................#$.....",
".....#$..................#$.....",
".....#$@@@@@@@@@@@@@@@@@@!$.....",
".....#$$$$$$$$$$$$$$$$$$$$$.....",
".....~#####################.....",
"................................",
".{]^/(......(_...............(_.",
".(/.^:._::_{]^<^<:__:^^..{^{{]^.",
".:[{/__[_]<(/..]:(_/_([.^^.{(/..",
".^:/(.:/^{.{^.(]<.{^./:<]...{^..",
".]<{/_^[.<<^^.{^..^[:[((]__.^^..",
"{^{.^{_^^(.(^<{{..(^_^{.:^{.(^<.",
"................................"};
