/* XPM */
static char * restart_8bit_xpm[] = {
"32 32 9 1",
" 	c None",
".	c #020204",
"+	c #860E0C",
"@	c #353230",
"#	c #9A4644",
"$	c #7D5E5C",
"%	c #797574",
"&	c #AA8284",
"*	c #BDBDBB",
"********************************",
"*****&&&&&&&&&&&&&&&&&&&&&&*****",
"*****#+++++++++++++++++++++*****",
"*****#+##################++*****",
"*****#+******************#+*****",
"*****#+*******$+++$******#+*****",
"*****#+*****$+++++++*****#+*****",
"*****#+****&+++++++++****#+*****",
"*****#+****+++$****$+****#+*****",
"*****#+***+++&******+****#+*****",
"*****#+*+++++++****+++***#+*****",
"*****#+*&++++++***+++++**#+*****",
"*****#+**+++++***++++++&*#+*****",
"*****#+***+++****+++++++*#+*****",
"*****#+****+******$+++***#+*****",
"*****#+****+#****#+++****#+*****",
"*****#+****+++++++++$****#+*****",
"*****#+*****+++++++$*****#+*****",
"*****#+******$+++&*******#+*****",
"*****#+******************#+*****",
"*****#+******************#+*****",
"*****#+&&&&&&&&&&&&&&&&&&++*****",
"*****#+++++++++++++++++++++*****",
"*****$#####################*****",
"********************************",
"**$.@.%**********%&***********%*",
"**%.*$$*&$@*&$@%%.@**@@@*@$%%@.%",
"**$@%.&*@*.&@@&*&.**.*%@*@@%&@$*",
"**@$.%*$.@%**.@*%@*%@*.$*.$**@%*",
"**.&%.*@@*&&%*.%@@*@@$@%*.***.%*",
"*%@%*@%*@@%*@@%*%$&%@*@%%@***$@*",
"********************************"};
