/* XPM */
static char * state_8bit_xpm[] = {
"32 32 9 1",
" 	c None",
".	c #050507",
"+	c #7F4644",
"@	c #8D7D7D",
"#	c #BABAB9",
"$	c #FEFEFC",
"%	c #1A1A1A",
"&	c #EFEFF0",
"*	c #781514",
"#@@@@@@@@@@@@@@@@@@@@@@@@@@@@@@#",
"#+*****************************#",
"#+*++++++++++++++++++++++++++**#",
"#+*##########################+*#",
"#+*######@@@######@@@@#######+*#",
"#+*####+*...%+###+%%..+@#####+*#",
"#+*###+%@&&&@++@%%&&&#+%@####+*#",
"#+*##@.&$&$$$#..+&&$$$$@%####+*#",
"#+*##%@&$$$$$$@.#$$$$$$&%+###+*#",
"#+*##.@$$$$$$$@.&$$$$$$&++@##+*#",
"#++##.#&$$$$$$#.$$$$$$$$%%@##+*#",
"#+*##.#$#@&$$$@.$&@#$$$$++@##+*#",
"#+*##.@#%.@$$$@.&@.%&$$&%%@##+*#",
"&+*##++#%%#$$&+.#@.%&$$#%@@##+*#",
"#+*##@%##&&$&#..%&#&$$#@%@@##+*#",
"#+*###@.+@@@+.+@%.@@@@%%@@@##+*#",
"#+*####@+%.%%@@@#@%%.%+@@@###+*#",
"#+*######@@@@@@####@@@@@@####+*#",
"#+*#######@@@#######@@@@#####+*#",
"#+*##########################+*#",
"#+*@#@@@@#@@@@@@@@@@#@@@@@@@@+*#",
"#+*****************************#",
"#@+++++++++++++++++++++++++++++#",
"#############&##################",
"#######*+%&@@#######@###########",
"######+%##@%%##@++@@.+##++######",
"######@%+##%@#+@#.#@%##%#.@#####",
"########%+#.##.#+%#++#+.+@######",
"#####@@#%@@.#@.@%+#%+#%%#@######",
"######+%+##%+#%@@+#@%##%+@######",
"################################",
"################################"};
