/* XPM */
static char * state_xpm[] = {
"32 32 145 2",
"  	c None",
". 	c #BCBCBC s backgroundToolBarColor",
"+ 	c #B09696",
"@ 	c #AA8282",
"# 	c #994747",
"$ 	c #870D0D",
"% 	c #994848",
"& 	c #8D2121",
"* 	c #9F9F9F",
"= 	c #878787",
"- 	c #8A8A8A",
"; 	c #B2B2B2",
"> 	c #515151",
", 	c #202020",
"' 	c #000000",
") 	c #999999",
"! 	c #4A4A4A",
"~ 	c #050505",
"{ 	c #010101",
"] 	c #3C3C3C",
"^ 	c #7C7C7C",
"/ 	c #870F0F",
"( 	c #AEAEAE",
"_ 	c #3E3E3E",
": 	c #343434",
"< 	c #8F8F8F",
"[ 	c #D9D9D9",
"} 	c #ECECEC",
"| 	c #8E8E8E",
"1 	c #1A1A1A",
"2 	c #373737",
"3 	c #CBCBCB",
"4 	c #E2E2E2",
"5 	c #E8E8E8",
"6 	c #D5D5D5",
"7 	c #545454",
"8 	c #232323",
"9 	c #707070",
"0 	c #994949",
"a 	c #891313",
"b 	c #828282",
"c 	c #D3D3D3",
"d 	c #F8F8F8",
"e 	c #FFFFFF",
"f 	c #444444",
"g 	c #FEFEFE",
"h 	c #F0F0F0",
"i 	c #7B7B7B",
"j 	c #0C0C0C",
"k 	c #994A4A",
"l 	c #8A1818",
"m 	c #0E0E0E",
"n 	c #7A7A7A",
"o 	c #FDFDFD",
"p 	c #E3E3E3",
"q 	c #323232",
"r 	c #4B4B4B",
"s 	c #B0B0B0",
"t 	c #9A4C4C",
"u 	c #8B1C1C",
"v 	c #959595",
"w 	c #F3F3F3",
"x 	c #F7F7F7",
"y 	c #303030",
"z 	c #9B4E4E",
"A 	c #3F3F3F",
"B 	c #8C1E1E",
"C 	c #FAFAFA",
"D 	c #AFAFAF",
"E 	c #949494",
"F 	c #F6F6F6",
"G 	c #F4F4F4",
"H 	c #868686",
"I 	c #BDBDBD",
"J 	c #FCFCFC",
"K 	c #7F7F7F",
"L 	c #994B4B",
"M 	c #8D8D8D",
"N 	c #C7C7C7",
"O 	c #121212",
"P 	c #070707",
"Q 	c #939393",
"R 	c #EBEBEB",
"S 	c #787878",
"T 	c #030303",
"U 	c #171717",
"V 	c #E4E4E4",
"W 	c #F2F2F2",
"X 	c #393939",
"Y 	c #8B1B1B",
"Z 	c #494949",
"` 	c #C5C5C5",
" .	c #2D2D2D",
"..	c #131313",
"+.	c #9B9B9B",
"@.	c #3A3A3A",
"#.	c #B9B9B9",
"$.	c #222222",
"%.	c #555555",
"&.	c #891414",
"*.	c #888888",
"=.	c #080808",
"-.	c #B8B8B8",
";.	c #C4C4C4",
">.	c #CECECE",
",.	c #FBFBFB",
"'.	c #E6E6E6",
").	c #BABABA",
"!.	c #0D0D0D",
"~.	c #3D3D3D",
"{.	c #E1E1E1",
"].	c #6E6E6E",
"^.	c #881010",
"/.	c #797979",
"(.	c #464646",
"_.	c #818181",
":.	c #919191",
"<.	c #525252",
"[.	c #808080",
"}.	c #383838",
"|.	c #757575",
"1.	c #7D7D7D",
"2.	c #181818",
"3.	c #6D6D6D",
"4.	c #454545",
"5.	c #090909",
"6.	c #2F2F2F",
"7.	c #616161",
"8.	c #7E7E7E",
"9.	c #141414",
"0.	c #0A0A0A",
"a.	c #4F4F4F",
"b.	c #870E0E",
"c.	c #777777",
"d.	c #A3A3A3",
"e.	c #B3B3B3",
"f.	c #A2A2A2",
"g.	c #AB8383",
"h.	c #AB8484",
"i.	c #933434",
"j.	c #A56E6E",
"k.	c #2A2A2A",
"l.	c #A7A7A7",
"m.	c #151515",
"n.	c #696969",
". + @ @ @ @ @ @ @ @ @ @ @ @ @ @ @ @ @ @ @ @ @ @ @ @ @ @ @ @ @ . ",
". # $ $ $ $ $ $ $ $ $ $ $ $ $ $ $ $ $ $ $ $ $ $ $ $ $ $ $ $ $ . ",
". # $ # # % % % % % % % # # # # % % % % # # # # # # # # # & $ . ",
". # $ . . . . . . . . . . . . . . . . . . . . . . . . . . # $ . ",
". # $ . . . . . * = = = * . . . . . - = = = ; . . . . . . # $ . ",
". % $ . . . . > , ' ' ' , > . . ) ! ~ { { { ] ^ . . . . . # $ . ",
". % / . . ( _ : < [ } [ < : _ | 1 2 3 4 5 6 7 8 9 . . . . # $ . ",
". 0 a . . b { c d e e e d c ' ' f 5 g g g g h i j . . . . # $ . ",
". k l . . m n d g e e e e d n ' 6 o g g g g g p q r s . . # $ . ",
". t u . . { v o g e e e e o v ' w g g g g g g x ] y | . . # $ . ",
". z u . . ' * g g e e e e e * ' e g g g g g g g A y n . . # $ . ",
". z B . . { * C D E F e e e * ' e G H I J g g g A y K . . # $ . ",
". L B . . ' M N O P Q e e o M ' R S T U V g g W X y K . . # $ . ",
". L Y . . ] Z `  ...; e e R Z ' +.) P @.R g J #.$.%.K . . # $ . ",
". 0 &.. . *.=.-.;.>.,.,.'.).~ !.~.;.;.{.o ,.c ].O K i . . # $ . ",
". 0 ^.. . . /.~ (._.:._.(.T <.[.}.{ |.*.M 1.2.2.3.K | . . # $ . ",
". % / . . . . :.4.5.5.5.6.7.8._.( | 9.0.0.0.a.3.K S D . . # $ . ",
". % b.. . . . . . /.[.[.[.c.= . . . d./.^ K K S n . . . . # $ . ",
". # $ . . . . . . e.:.:.:.D . . . . . . v :.:.f.. . . . . # $ . ",
". # $ . . . . . . . . . . . . . . . . . . . . . . . . . . # $ . ",
". # $ @ @ @ @ g.h.h.h.h.h.@ @ @ h.h.h.h.h.@ @ @ @ @ @ @ @ i.$ . ",
". # $ $ $ $ $ $ $ $ $ $ $ $ $ $ $ $ $ $ $ $ $ $ $ $ $ $ $ $ $ . ",
". j.# # # # # # # # # # # # # # # # # # # # # # # # # # # # # . ",
". . . . . . . . . . . . . . . . . . . . . . . . . . . . . . . . ",
". . . . . . Q k.A k.. Q Q . . . . . . . 1.l.. . . . . . . . . . ",
". . . . . . A k.. . Q m.k.Q . n.A A Q n.' A . l.7 7 l.. . . . . ",
". . . . . . Q ' A . . ' Q . 7 n.. ' . 1.m.. l.k.l.' Q . . . . . ",
". . . . . . . l.m.7 l.' . l.' . 7 m.. n.A . 7 m.A n.. . . . . . ",
". . . . . Q 1.. k.n.1.' . 1.' n.A A . A A . A k.. Q Q . . . . . ",
". . . . . l.A A n.. l.A n.l.A 1.n.A . 1.A Q l.A A 1.. . . . . . ",
". . . . . . . . . . . . . . . . . . . . . . . . . . . . . . . . ",
". . . . . . . . . . . . . . . . . . . . . . . . . . . . . . . . "};
