/* XPM */
static char * pgmini_xpm[] = {
"16 16 222 2",
"  	c None",
". 	c #291D00",
"+ 	c #231B00",
"@ 	c #1A0F00",
"# 	c #0F0000",
"$ 	c #0A0000",
"% 	c #000000",
"& 	c #004512",
"* 	c #00430F",
"= 	c #0D5C13",
"- 	c #003C0B",
"; 	c #120000",
"> 	c #241600",
", 	c #281D00",
"' 	c #221B00",
") 	c #312200",
"! 	c #251B00",
"~ 	c #1D1300",
"{ 	c #100000",
"] 	c #0E0000",
"^ 	c #001C00",
"/ 	c #026424",
"( 	c #00510A",
"_ 	c #044D09",
": 	c #FFFF97",
"< 	c #1A6A21",
"[ 	c #050000",
"} 	c #1A0E00",
"| 	c #2A2200",
"1 	c #292200",
"2 	c #2D2200",
"3 	c #1D1600",
"4 	c #150C00",
"5 	c #061200",
"6 	c #005915",
"7 	c #1B5F09",
"8 	c #759E32",
"9 	c #707B37",
"0 	c #7E8640",
"a 	c #125322",
"b 	c #020F00",
"c 	c #0B0200",
"d 	c #201700",
"e 	c #272100",
"f 	c #2F2301",
"g 	c #181000",
"h 	c #030000",
"i 	c #011700",
"j 	c #004C09",
"k 	c #445E26",
"l 	c #936D4A",
"m 	c #7E4B46",
"n 	c #6C3E45",
"o 	c #1F2316",
"p 	c #1C1400",
"q 	c #272000",
"r 	c #150F00",
"s 	c #070100",
"t 	c #3D602F",
"u 	c #FFCDB1",
"v 	c #FFBFB7",
"w 	c #F9B5B5",
"x 	c #3F3130",
"y 	c #010000",
"z 	c #010100",
"A 	c #181200",
"B 	c #221900",
"C 	c #0E0700",
"D 	c #100A00",
"E 	c #080000",
"F 	c #956F54",
"G 	c #FFDDC0",
"H 	c #FFBFAB",
"I 	c #825A45",
"J 	c #CD8D80",
"K 	c #4A4130",
"L 	c #060A00",
"M 	c #020500",
"N 	c #0B0700",
"O 	c #160F00",
"P 	c #0E0400",
"Q 	c #150E00",
"R 	c #0F0900",
"S 	c #FFD5AF",
"T 	c #FFF3CE",
"U 	c #FFB093",
"V 	c #C66658",
"W 	c #60402A",
"X 	c #0B0100",
"Y 	c #373228",
"Z 	c #1E2019",
"` 	c #0A0600",
" .	c #161000",
"..	c #090100",
"+.	c #150A00",
"@.	c #070000",
"#.	c #FFD7B6",
"$.	c #FFEBC6",
"%.	c #FFAD92",
"&.	c #D3856F",
"*.	c #482B16",
"=.	c #2F2014",
"-.	c #171508",
";.	c #181100",
">.	c #060000",
",.	c #140100",
"'.	c #140300",
").	c #000700",
"!.	c #AA7D7E",
"~.	c #F59D87",
"{.	c #FFA684",
"].	c #FFC8AF",
"^.	c #433321",
"/.	c #050400",
"(.	c #080500",
"_.	c #1D1700",
":.	c #020000",
"<.	c #182210",
"[.	c #162711",
"}.	c #0F230C",
"|.	c #081C04",
"1.	c #001904",
"2.	c #001E12",
"3.	c #919A9F",
"4.	c #A88DBD",
"5.	c #9FA5AF",
"6.	c #0A0300",
"7.	c #060300",
"8.	c #080200",
"9.	c #130D00",
"0.	c #131B0C",
"a.	c #193426",
"b.	c #1A2E1E",
"c.	c #122719",
"d.	c #092012",
"e.	c #001606",
"f.	c #093418",
"g.	c #063218",
"h.	c #654B74",
"i.	c #D8C4F9",
"j.	c #001401",
"k.	c #0E0500",
"l.	c #110400",
"m.	c #0E0300",
"n.	c #0A0400",
"o.	c #2B4A2B",
"p.	c #264628",
"q.	c #2E462B",
"r.	c #223B21",
"s.	c #162E14",
"t.	c #122B14",
"u.	c #153716",
"v.	c #0B320D",
"w.	c #182420",
"x.	c #5B3C70",
"y.	c #0E2D1B",
"z.	c #7C8D76",
"A.	c #372913",
"B.	c #120600",
"C.	c #0B0300",
"D.	c #0D0600",
"E.	c #2D4C2C",
"F.	c #294226",
"G.	c #314D2F",
"H.	c #304C2E",
"I.	c #2B4728",
"J.	c #233C22",
"K.	c #10270F",
"L.	c #19341A",
"M.	c #133A16",
"N.	c #0B2915",
"O.	c #15421F",
"P.	c #92A190",
"Q.	c #B1A09C",
"R.	c #0E0600",
"S.	c #2C462A",
"T.	c #243D22",
"U.	c #3C563A",
"V.	c #2C472A",
"W.	c #203D1C",
"X.	c #192F18",
"Y.	c #010903",
"Z.	c #000F00",
"`.	c #193219",
" +	c #173319",
".+	c #0D2912",
"++	c #51534C",
"@+	c #B7ABAE",
"#+	c #161A06",
"$+	c #0B0000",
"%+	c #180800",
"&+	c #253F24",
"*+	c #263F25",
"=+	c #3B533A",
"-+	c #233D21",
";+	c #21391F",
">+	c #263222",
",+	c #2F371F",
"'+	c #2F3E1D",
")+	c #1E361D",
"!+	c #0F2B0F",
"~+	c #354833",
"{+	c #FFFFFF",
"]+	c #385139",
"^+	c #0F0E00",
"/+	c #270E00",
"(+	c #2A391E",
"_+	c #2A4323",
":+	c #2F3819",
"<+	c #1F321A",
"[+	c #2D4825",
"}+	c #314928",
"|+	c #1B3419",
"1+	c #223E25",
"2+	c #233625",
"3+	c #123214",
"4+	c #152C0E",
"5+	c #19311E",
"6+	c #1A3F1B",
"7+	c #072716",
"8+	c #233314",
"9+	c #1A0C00",
". + @ # # $ % & * = - ; $ > , ' ",
") ! ~ { ] ^ / ( _ : < % [ } | 1 ",
"2 3 4 # 5 6 7 8 9 0 a b % c d e ",
"f g [ h i j k l m n % o % [ p q ",
"3 r s % % t u v % w x y y z A B ",
"C D E % % F G H I J K % L M N O ",
"P Q R % % h S T U V W X Y Z `  .",
"..D +.@.% % #.$.%.&.*.c =.-.` ;.",
">.,.'.$ h ).!.~.{.].^.% % /.(._.",
":.<.[.}.|.1.2.3.4.5.% y 6.7.8.9.",
"0.a.b.c.d.e.f.g.h.i.j.% k.l.m.n.",
"o.p.q.r.s.t.u.v.w.x.y.z.A.B.C.D.",
"E.F.G.H.I.J.K.L.M.N.O.P.Q.[ ] R.",
"S.T.U.V.W.X.Y.Z.`. +.+++@+#+$+%+",
"&+*+=+-+;+>+,+'+)+`.!+~+{+]+^+/+",
"(+_+:+<+[+}+|+1+2+3+4+5+6+7+8+9+"};
