/* XPM */
static char * qed_xpm[] = {
"32 32 330 2",
"  	c None",
". 	c #BEBEBE",
"+ 	c #BFBFBF",
"@ 	c #CFCDCE",
"# 	c #C6BEC2",
"$ 	c #C0BDBF",
"% 	c #CDC8CA",
"& 	c #9E637D",
"* 	c #752045",
"= 	c #692C46",
"- 	c #99828C",
"; 	c #AB9DA3",
"> 	c #BABABA",
", 	c #C1C1C1",
"' 	c #C9C8C8",
") 	c #C4C3C3",
"! 	c #C2C2C2",
"~ 	c #D1CECF",
"{ 	c #C5B9BE",
"] 	c #B9ADB2",
"^ 	c #BAB8B9",
"/ 	c #A17E8D",
"( 	c #6B1138",
"_ 	c #410C23",
": 	c #430D24",
"< 	c #681137",
"[ 	c #631537",
"} 	c #715D66",
"| 	c #B8B7B8",
"1 	c #C8C8C8",
"2 	c #C4ABB6",
"3 	c #995F78",
"4 	c #856171",
"5 	c #AEAAAC",
"6 	c #C4BEC1",
"7 	c #8C4564",
"8 	c #741A41",
"9 	c #6C163C",
"0 	c #6A3B50",
"a 	c #9F989B",
"b 	c #BDBDBD",
"c 	c #C5C4C5",
"d 	c #7D3F5A",
"e 	c #500C2A",
"f 	c #443E41",
"g 	c #6C696A",
"h 	c #311C25",
"i 	c #510E2B",
"j 	c #5B1232",
"k 	c #73676C",
"l 	c #BCBCBC",
"m 	c #B5ABB0",
"n 	c #741F44",
"o 	c #630D32",
"p 	c #640F34",
"q 	c #5D283F",
"r 	c #959193",
"s 	c #A09B9D",
"t 	c #5B1836",
"u 	c #4C0C28",
"v 	c #3D0E23",
"w 	c #600E31",
"x 	c #5A213A",
"y 	c #928B8E",
"z 	c #BAB7B8",
"A 	c #6A2442",
"B 	c #450D25",
"C 	c #767475",
"D 	c #AAAAAA",
"E 	c #4F3F46",
"F 	c #5D0E31",
"G 	c #45182C",
"H 	c #9F9D9E",
"I 	c #A4999E",
"J 	c #661337",
"K 	c #370F20",
"L 	c #391625",
"M 	c #620E32",
"N 	c #4E3540",
"O 	c #B1AEB0",
"P 	c #6C2644",
"Q 	c #450E26",
"R 	c #504C4D",
"S 	c #3A1D2A",
"T 	c #4E2336",
"U 	c #A4A2A3",
"V 	c #BCB8B9",
"W 	c #6C2242",
"X 	c #7C7A7A",
"Y 	c #A6A4A5",
"Z 	c #542137",
"` 	c #580E2E",
" .	c #635C5F",
"..	c #A3989D",
"+.	c #371222",
"@.	c #6D6669",
"#.	c #581432",
"$.	c #430F26",
"%.	c #858182",
"&.	c #682341",
"*.	c #460D25",
"=.	c #7B7879",
"-.	c #928F90",
";.	c #481C2F",
">.	c #600E32",
",.	c #59434D",
"'.	c #B7B7B7",
").	c #AFA4A8",
"!.	c #6A163B",
"~.	c #371122",
"{.	c #929292",
"].	c #745865",
"^.	c #640E33",
"/.	c #3A2C32",
"(.	c #A1969B",
"_.	c #989797",
":.	c #422F37",
"<.	c #2C1B22",
"[.	c #918D8F",
"}.	c #7A7175",
"|.	c #5E1233",
"1.	c #3E1125",
"2.	c #959495",
"3.	c #A18A94",
"4.	c #6A1137",
"5.	c #2E1721",
"6.	c #8B707C",
"7.	c #660E34",
"8.	c #34242B",
"9.	c #A0959A",
"0.	c #9F9F9F",
"a.	c #AFAEAE",
"b.	c #A6A6A6",
"c.	c #B7B4B5",
"d.	c #AEA8AB",
"e.	c #66193A",
"f.	c #3E0F23",
"g.	c #8D8C8D",
"h.	c #33232A",
"i.	c #B9B8B9",
"j.	c #411629",
"k.	c #A99BA1",
"l.	c #B9A6AE",
"m.	c #AEA9AB",
"n.	c #BAB6B8",
"o.	c #6B2242",
"p.	c #AFA9AC",
"q.	c #B9B9B9",
"r.	c #670F35",
"s.	c #6F153C",
"t.	c #6D133A",
"u.	c #3E2932",
"v.	c #AEA6A9",
"w.	c #6A193C",
"x.	c #3D0F23",
"y.	c #8B8A8A",
"z.	c #B4ABAF",
"A.	c #6A183C",
"B.	c #C9C9C9",
"C.	c #C6BBC0",
"D.	c #B8B5B6",
"E.	c #480D26",
"F.	c #341220",
"G.	c #2E131F",
"H.	c #4B4548",
"I.	c #9D8C93",
"J.	c #6A1138",
"K.	c #321320",
"L.	c #9C9C9C",
"M.	c #9D8B93",
"N.	c #691137",
"O.	c #311421",
"P.	c #A0A0A0",
"Q.	c #846D77",
"R.	c #650E34",
"S.	c #3B202C",
"T.	c #B3B3B3",
"U.	c #B1A3A9",
"V.	c #752145",
"W.	c #503641",
"X.	c #956F80",
"Y.	c #33252B",
"Z.	c #361222",
"`.	c #828282",
" +	c #9E9E9E",
".+	c #B8B8B8",
"++	c #97858D",
"@+	c #671036",
"#+	c #311722",
"$+	c #B0B0B0",
"%+	c #997F8A",
"&+	c #680F36",
"*+	c #2E1B24",
"=+	c #918B8D",
"-+	c #4E112C",
";+	c #888385",
">+	c #999194",
",+	c #611435",
"'+	c #551832",
")+	c #823054",
"!+	c #4D0C28",
"~+	c #4F494C",
"{+	c #A59A9F",
"]+	c #671337",
"^+	c #C0C0C0",
"/+	c #98868E",
"(+	c #C3C3C3",
"_+	c #8E6376",
":+	c #600D31",
"<+	c #372C31",
"[+	c #B6B6B6",
"}+	c #533341",
"|+	c #610E32",
"1+	c #5B293F",
"2+	c #681A3C",
"3+	c #670E34",
"4+	c #620D32",
"5+	c #2C161F",
"6+	c #979797",
"7+	c #A38291",
"8+	c #691037",
"9+	c #2D1620",
"0+	c #A8A8A8",
"a+	c #CBBCC2",
"b+	c #98697E",
"c+	c #6A1037",
"d+	c #B1B0B0",
"e+	c #C8C5C7",
"f+	c #7C3654",
"g+	c #5B5759",
"h+	c #878485",
"i+	c #3A1727",
"j+	c #6D183D",
"k+	c #6C1139",
"l+	c #320F1E",
"m+	c #666465",
"n+	c #79475D",
"o+	c #5B0D2F",
"p+	c #4D4247",
"q+	c #BDBCBC",
"r+	c #C6C3C4",
"s+	c #803A59",
"t+	c #6C1037",
"u+	c #331924",
"v+	c #B3A0A9",
"w+	c #6E153B",
"x+	c #341020",
"y+	c #8A898A",
"z+	c #878586",
"A+	c #34232A",
"B+	c #390F22",
"C+	c #550E2D",
"D+	c #4F0C29",
"E+	c #4F4A4C",
"F+	c #6B4053",
"G+	c #640D33",
"H+	c #641B3B",
"I+	c #7F6671",
"J+	c #B399A4",
"K+	c #70183E",
"L+	c #520C2A",
"M+	c #5C0D2F",
"N+	c #5F1736",
"O+	c #875169",
"P+	c #8A3D5F",
"Q+	c #3E3338",
"R+	c #BDA6B0",
"S+	c #9D8F95",
"T+	c #ADADAD",
"U+	c #8E8C8D",
"V+	c #642B44",
"W+	c #676365",
"X+	c #787375",
"Y+	c #301A24",
"Z+	c #510D2B",
"`+	c #70143C",
" @	c #590D2E",
".@	c #2F2127",
"+@	c #38252D",
"@@	c #590C2E",
"#@	c #5A0C2E",
"$@	c #2E121E",
"%@	c #767072",
"&@	c #6A2141",
"*@	c #3D1426",
"=@	c #979697",
"-@	c #BDBCBD",
";@	c #653D4E",
">@	c #5D0D30",
",@	c #50474B",
"'@	c #A87A8E",
")@	c #6F495A",
"!@	c #959494",
"~@	c #494044",
"{@	c #331220",
"]@	c #2B1A22",
"^@	c #888687",
"/@	c #B9A8AF",
"(@	c #684353",
"_@	c #3A3034",
":@	c #352C30",
"<@	c #797778",
"[@	c #463D41",
"}@	c #433C3F",
"|@	c #7A676F",
"1@	c #630F33",
"2@	c #3E212E",
"3@	c #AAA8A8",
"4@	c #4D2335",
"5@	c #33101F",
"6@	c #848383",
"7@	c #999999",
"8@	c #A6A5A5",
"9@	c #714A5B",
"0@	c #4B0D28",
"a@	c #5C5759",
"b@	c #979294",
"c@	c #551430",
"d@	c #54102D",
"e@	c #6F696C",
"f@	c #838182",
"g@	c #716F70",
"h@	c #B5B5B5",
"i@	c #7E7B7C",
"j@	c #443D40",
"k@	c #B6B5B5",
"l@	c #4B4045",
"m@	c #2C151F",
"n@	c #737172",
"o@	c #BBBBBB",
". . . . . . . . . . . . . . . . . . . . . . . . . . . . . . . . ",
". . . . . . . . . . . . . . . . . . . . . . . . . . . . . . . . ",
". . . . . . . . . . . . . . . . . . . . . . . . . . . . . . . . ",
". . . . . . . . . . . . . . . . . . . . . . . . . . . . . . . . ",
". . . . . . . . . . . . . . . . . . . . . . . . . . . . . . . . ",
". . . . + @ # $ + . . . . . . . . . . . . . . . . . . . . . . . ",
". . . . % & * = - ; > . . . , ' ) . . ! ~ { ] ^ . . . . . . . . ",
". . . , / ( _ : < [ } | . 1 2 3 4 5 . 6 7 8 9 0 a b . . . . . . ",
". . . c d e f g h i j k l m n o p q r s t u v w x y b . . . . . ",
". . . z A B C l D E F G H I J K L M N O P Q R S w T U b . . . . ",
". . . V W : X . b Y Z `  ...J +.@.#.$.%.&.*.=.-.;.>.,.'.. . . . ",
". . . ).!.~.{.. . b ].^./.(.J +._.:.<.[.&.*.=.l }.|.1.2.. . . . ",
". . + 3.4.5.D . . + 6.7.8.9.J +.0.a.b.c.&.*.=.b d.e.f.g.. . . . ",
". . + 6.7.h.i.. . + 6.7.8.9.J j.k.l.m.n.o.: X . p.e.f.g.. . . . ",
". . + 6.7.8.q.. . + 6.7.8.9.J r.s.t.u.v.w.x.y.. z.A.x.g.. . . . ",
". . + 6.7.8.> B.C.D.6.7.8.9.J E.F.G.H.I.J.K.L.. M.N.O.P.. . . . ",
". . + Q.R.S.T.U.V.W.X.R.Y.9.J Z.`. +.+++@+#+$++ %+&+*+T.. . . . ",
". . . =+#.-+;+>+,+'+)+!+~+{+]+Z.0.. ^+/+@+#+$+(+_+:+<+> . . . . ",
". . . [+}+|+1+M.2+3+4+5+6+7+8+9+0+! a+b+c+#+d+e+f+u g+l . . . . ",
". . . b h+i+:+j+k+o l+m+^+n+o+p+q+r+s+t+7.u+i.v+w+x+y++ . . . . ",
". . . . l z+A+B+C+D+E+'.^+F+G+H+I+J+K+L+M+N+O+P+M+Q+R+S+> . . . ",
". . . . . l T+U+V+D+W+. B.X+Y+Z+< `+ @.@+@*.@@#@$@%@&@*@=@. . . ",
". . . . . . . -@;@>@,@c '@)@!@~@K.{@]@^@/@(@_@:@<@d+[@}@a.. . . ",
". . . . . . . . |@1@2@3@4@5@6@.+ +7@8@+ 9@0@a@.+l b > > b . . . ",
". . . . . . . . b@c@d@e@f@g@h@. . . . b i@j@!@b . . . . . . . . ",
". . . . . . . . k@l@m@n@b . . . . . . b l o@l . . . . . . . . . ",
". . . . . . . . b h@P.q.. . . . . . . . . . . . . . . . . . . . ",
". . . . . . . . . . . . . . . . . . . . . . . . . . . . . . . . ",
". . . . . . . . . . . . . . . . . . . . . . . . . . . . . . . . ",
". . . . . . . . . . . . . . . . . . . . . . . . . . . . . . . . ",
". . . . . . . . . . . . . . . . . . . . . . . . . . . . . . . . ",
". . . . . . . . . . . . . . . . . . . . . . . . . . . . . . . . "};
