/* XPM */
static char * qed_xpm[] = {
"32 32 538 2",
"  	c None",
". 	c #BCBCBC",
"+ 	c #B09595",
"@ 	c #AA8181",
"# 	c #984747",
"$ 	c #870D0D",
"% 	c #984848",
"& 	c #8D2020",
"* 	c #140B0D",
"= 	c #1A0F10",
"- 	c #1E1112",
"; 	c #231414",
"> 	c #241514",
", 	c #241513",
"' 	c #2B1916",
") 	c #321D18",
"! 	c #36201A",
"~ 	c #422922",
"{ 	c #432B24",
"] 	c #38251F",
"^ 	c #2A1A16",
"/ 	c #2A1D17",
"( 	c #281D18",
"_ 	c #221916",
": 	c #1F1815",
"< 	c #1A1512",
"[ 	c #191513",
"} 	c #1C1A14",
"| 	c #1C1B16",
"1 	c #1B1B15",
"2 	c #1F2219",
"3 	c #1B1F15",
"4 	c #161A12",
"5 	c #12140F",
"6 	c #090A07",
"7 	c #040503",
"8 	c #010101",
"9 	c #1B1112",
"0 	c #221515",
"a 	c #2B1A19",
"b 	c #2F1C1B",
"c 	c #321E1B",
"d 	c #331E1C",
"e 	c #351F1C",
"f 	c #3E231D",
"g 	c #502E25",
"h 	c #663F33",
"i 	c #653F34",
"j 	c #462A21",
"k 	c #3E2821",
"l 	c #37251F",
"m 	c #30231E",
"n 	c #2D221F",
"o 	c #29211D",
"p 	c #201B17",
"q 	c #1E1A15",
"r 	c #1D1A15",
"s 	c #1C1C15",
"t 	c #212219",
"u 	c #2B3223",
"v 	c #394932",
"w 	c #2B3826",
"x 	c #171D13",
"y 	c #0E100B",
"z 	c #080907",
"A 	c #050604",
"B 	c #1F1315",
"C 	c #301F1E",
"D 	c #422926",
"E 	c #50302C",
"F 	c #4A2C28",
"G 	c #412723",
"H 	c #3D2420",
"I 	c #462923",
"J 	c #502C22",
"K 	c #784333",
"L 	c #B36A50",
"M 	c #A15E47",
"N 	c #6D4030",
"O 	c #57372D",
"P 	c #442F27",
"Q 	c #3A2B25",
"R 	c #352A25",
"S 	c #2F2622",
"T 	c #2A241F",
"U 	c #2A241E",
"V 	c #24211A",
"W 	c #22211A",
"X 	c #25281D",
"Y 	c #394831",
"Z 	c #A4C096",
"` 	c #6D8D64",
" .	c #263221",
"..	c #171B13",
"+.	c #0D0F0A",
"@.	c #231617",
"#.	c #362221",
"$.	c #704540",
"%.	c #CF988B",
"&.	c #945D53",
"*.	c #512F2B",
"=.	c #452823",
"-.	c #4B2A23",
";.	c #693A2D",
">.	c #B86547",
",.	c #FDD0A5",
"'.	c #F2B385",
").	c #AD6248",
"!.	c #6A4334",
"~.	c #50382F",
"{.	c #473731",
"].	c #4B3F39",
"^.	c #413833",
"/.	c #3F3731",
"(.	c #363029",
"_.	c #302C24",
":.	c #2C2B22",
"<.	c #303225",
"[.	c #49573C",
"}.	c #9FB990",
"|.	c #7C9B71",
"1.	c #384330",
"2.	c #23271D",
"3.	c #161712",
"4.	c #0E0F0B",
"5.	c #27191A",
"6.	c #402929",
"7.	c #80504A",
"8.	c #F0BEB2",
"9.	c #BC8175",
"0.	c #5D3934",
"a.	c #50302B",
"b.	c #56312A",
"c.	c #7A4536",
"d.	c #DB8059",
"e.	c #FEFBED",
"f.	c #FEE8CA",
"g.	c #D27D5B",
"h.	c #835544",
"i.	c #6A4F44",
"j.	c #685852",
"k.	c #7A7472",
"l.	c #635C57",
"m.	c #474039",
"n.	c #3A332C",
"o.	c #322D26",
"p.	c #2E2C23",
"q.	c #414635",
"r.	c #59654C",
"s.	c #546349",
"t.	c #3F4934",
"u.	c #2B3023",
"v.	c #1C1E16",
"w.	c #181812",
"x.	c #141410",
"y.	c #27191B",
"z.	c #392526",
"A.	c #523433",
"B.	c #774C48",
"C.	c #7F534D",
"D.	c #613E39",
"E.	c #50312D",
"F.	c #56332D",
"G.	c #7A493D",
"H.	c #CD7E60",
"I.	c #F2AE81",
"J.	c #E79064",
"K.	c #9A5942",
"L.	c #6D4639",
"M.	c #634A41",
"N.	c #867E7A",
"O.	c #F0E4CB",
"P.	c #7E7D78",
"Q.	c #4C453D",
"R.	c #3E3730",
"S.	c #38322A",
"T.	c #4D5140",
"U.	c #555C48",
"V.	c #333326",
"W.	c #38392A",
"X.	c #36372A",
"Y.	c #2A2B20",
"Z.	c #201F18",
"`.	c #191813",
" +	c #100E0B",
".+	c #27191D",
"++	c #312023",
"@+	c #402A2C",
"#+	c #493031",
"$+	c #533635",
"%+	c #6A4642",
"&+	c #5C3B38",
"*+	c #623F3B",
"=+	c #784D44",
"-+	c #8C5547",
";+	c #945643",
">+	c #9D5E47",
",+	c #764A3A",
"'+	c #604035",
")+	c #594239",
"!+	c #655751",
"~+	c #8B8680",
"{+	c #645E57",
"]+	c #4E453C",
"^+	c #413A30",
"/+	c #555845",
"(+	c #4E503F",
"_+	c #342F26",
":+	c #353025",
"<+	c #3E392C",
"[+	c #3F392E",
"}+	c #312D23",
"|+	c #27241D",
"1+	c #181611",
"2+	c #0F0E0A",
"3+	c #26191F",
"4+	c #2F1F24",
"5+	c #3A272B",
"6+	c #3D292D",
"7+	c #3F292C",
"8+	c #503536",
"9+	c #6A4845",
"0+	c #6B4946",
"a+	c #67433E",
"b+	c #6D463E",
"c+	c #7B4D41",
"d+	c #915C47",
"e+	c #5D3B32",
"f+	c #573C34",
"g+	c #533D35",
"h+	c #56453D",
"i+	c #5C4F46",
"j+	c #4C4138",
"k+	c #4B4136",
"l+	c #5A5846",
"m+	c #51513F",
"n+	c #342D23",
"o+	c #342E24",
"p+	c #40382B",
"q+	c #534638",
"r+	c #665544",
"s+	c #4D4034",
"t+	c #2B251D",
"u+	c #191611",
"v+	c #11100C",
"w+	c #2B1D23",
"x+	c #322229",
"y+	c #3C2A31",
"z+	c #3E2A31",
"A+	c #402B30",
"B+	c #472F33",
"C+	c #654748",
"D+	c #5F4040",
"E+	c #614140",
"F+	c #62403E",
"G+	c #6C453F",
"H+	c #825344",
"I+	c #583931",
"J+	c #523A33",
"K+	c #533E36",
"L+	c #544238",
"M+	c #544539",
"N+	c #504637",
"O+	c #595342",
"P+	c #575340",
"Q+	c #3D3427",
"R+	c #3B3227",
"S+	c #3F3529",
"T+	c #483C2F",
"U+	c #886F5B",
"V+	c #E1CFB9",
"W+	c #7C6250",
"X+	c #332A22",
"Y+	c #1F1A14",
"Z+	c #15110E",
"`+	c #31222A",
" @	c #3B2A33",
".@	c #46323C",
"+@	c #48333C",
"@@	c #483139",
"#@	c #50393F",
"$@	c #523A3F",
"%@	c #5A3E41",
"&@	c #614144",
"*@	c #5F3D3F",
"=@	c #674341",
"-@	c #8A5847",
";@	c #774F41",
">@	c #503A34",
",@	c #513C35",
"'@	c #544237",
")@	c #594B3B",
"!@	c #5E533F",
"~@	c #686047",
"{@	c #514430",
"]@	c #423727",
"^@	c #403627",
"/@	c #3B3125",
"(@	c #473B2D",
"_@	c #7B6452",
":@	c #C6AC95",
"<@	c #7B6352",
"[@	c #3B3128",
"}@	c #231E18",
"|@	c #17130F",
"1@	c #33222C",
"2@	c #493441",
"3@	c #58414E",
"4@	c #5B4250",
"5@	c #573F4A",
"6@	c #5D444E",
"7@	c #573E46",
"8@	c #5B3E44",
"9@	c #67434A",
"0@	c #905C67",
"a@	c #8D5C64",
"b@	c #87594F",
"c@	c #724C41",
"d@	c #4A3531",
"e@	c #4C3931",
"f@	c #544236",
"g@	c #696048",
"h@	c #796D4E",
"i@	c #958154",
"j@	c #77653F",
"k@	c #5C4E34",
"l@	c #463B2A",
"m@	c #473C2D",
"n@	c #4F4335",
"o@	c #56483A",
"p@	c #635244",
"q@	c #493C31",
"r@	c #302821",
"s@	c #1E1914",
"t@	c #110D0B",
"u@	c #463340",
"v@	c #543C4C",
"w@	c #7A5C71",
"x@	c #805F76",
"y@	c #795C6E",
"z@	c #634956",
"A@	c #583E48",
"B@	c #5F4249",
"C@	c #845963",
"D@	c #ECBCC1",
"E@	c #DAA5AC",
"F@	c #7B504F",
"G@	c #734C41",
"H@	c #48332E",
"I@	c #43322B",
"J@	c #544839",
"K@	c #6B6247",
"L@	c #A28C59",
"M@	c #F8EBCB",
"N@	c #E9DAAC",
"O@	c #99885E",
"P@	c #665940",
"Q@	c #493F2F",
"R@	c #372E23",
"S@	c #342B22",
"T@	c #312720",
"U@	c #272019",
"V@	c #1B1511",
"W@	c #13100C",
"X@	c #0E0A08",
"Y@	c #43303E",
"Z@	c #6D5168",
"`@	c #BF98B9",
" #	c #E5C7E1",
".#	c #9B7693",
"+#	c #624758",
"@#	c #543B47",
"##	c #553B44",
"$#	c #67454E",
"%#	c #895665",
"&#	c #90606C",
"*#	c #5F3E3F",
"=#	c #744C3F",
"-#	c #4B352E",
";#	c #45372F",
">#	c #5B5341",
",#	c #66553E",
"'#	c #AB9561",
")#	c #FDF1DB",
"!#	c #F8EAC7",
"~#	c #938155",
"{#	c #4D412D",
"]#	c #362D20",
"^#	c #2C241B",
"/#	c #29221B",
"(#	c #251E18",
"_#	c #1E1813",
":#	c #0F0C09",
"<#	c #0A0707",
"[#	c #4A3746",
"}#	c #73566E",
"|#	c #D9B5D5",
"1#	c #FDF3FC",
"2#	c #B48BAC",
"3#	c #705567",
"4#	c #59424E",
"5#	c #4E3841",
"6#	c #4C353D",
"7#	c #4D333A",
"8#	c #563C40",
"9#	c #4C3536",
"0#	c #7B5140",
"a#	c #4A362F",
"b#	c #504B3E",
"c#	c #473B2F",
"d#	c #514231",
"e#	c #A28D5B",
"f#	c #9C895B",
"g#	c #615338",
"h#	c #4A402E",
"i#	c #332B1F",
"j#	c #272018",
"k#	c #211B15",
"l#	c #1C1814",
"m#	c #181411",
"n#	c #100F0B",
"o#	c #0C0A08",
"p#	c #080605",
"q#	c #3D2C3A",
"r#	c #5A4255",
"s#	c #886682",
"t#	c #A881A1",
"u#	c #806279",
"v#	c #5D4655",
"w#	c #493540",
"x#	c #402E36",
"y#	c #3E2B32",
"z#	c #3D2A30",
"A#	c #433034",
"B#	c #453232",
"C#	c #764E3E",
"D#	c #51453A",
"E#	c #443B32",
"F#	c #3D332A",
"G#	c #43382C",
"H#	c #5C4F3A",
"I#	c #534632",
"J#	c #3F3526",
"K#	c #2E271C",
"L#	c #29231A",
"M#	c #28221B",
"N#	c #201B15",
"O#	c #191512",
"P#	c #12100D",
"Q#	c #080706",
"R#	c #050404",
"S#	c #332430",
"T#	c #3E2C3A",
"U#	c #553F50",
"V#	c #5C4557",
"W#	c #3C2C36",
"X#	c #37272F",
"Y#	c #302228",
"Z#	c #2D1F24",
"`#	c #322427",
" $	c #3E2F2E",
".$	c #825A47",
"+$	c #615443",
"@$	c #594638",
"#$	c #423B30",
"$$	c #F5E8C5",
"%$	c #4A4034",
"&$	c #332A20",
"*$	c #2F271D",
"=$	c #352C22",
"-$	c #221C15",
";$	c #1D1713",
">$	c #1B1612",
",$	c #191511",
"'$	c #181412",
")$	c #12110E",
"!$	c #0C0B09",
"~$	c #070605",
"{$	c #040303",
"]$	c #251923",
"^$	c #31232E",
"/$	c #382935",
"($	c #3F2F3B",
"_$	c #3C2D38",
":$	c #2C1F26",
"<$	c #291E23",
"[$	c #281D22",
"}$	c #291D20",
"|$	c #332B29",
"1$	c #7D6A52",
"2$	c #645442",
"3$	c #755540",
"4$	c #F3D9B5",
"5$	c #322B23",
"6$	c #241D17",
"7$	c #201914",
"8$	c #261F19",
"9$	c #1C1713",
"0$	c #16120F",
"a$	c #130F0D",
"b$	c #100D0A",
"c$	c #100C0B",
"d$	c #0E0C0A",
"e$	c #070606",
"f$	c #030302",
"g$	c #1C131B",
"h$	c #281D26",
"i$	c #261A23",
"j$	c #2E222B",
"k$	c #2B2029",
"l$	c #2E222A",
"m$	c #23191F",
"n$	c #21171C",
"o$	c #1F161A",
"p$	c #22181C",
"q$	c #261E1F",
"r$	c #573C30",
"s$	c #50372C",
"t$	c #3D2921",
"u$	c #33221C",
"v$	c #28201D",
"w$	c #1A1412",
"x$	c #181311",
"y$	c #16110F",
"z$	c #171210",
"A$	c #0D0909",
"B$	c #0B0807",
"C$	c #020202",
"D$	c #A46E6E",
"E$	c #7D7D7D",
"F$	c #2A2A2A",
"G$	c #3E3E3E",
"H$	c #151515",
"I$	c #929292",
"J$	c #686868",
"K$	c #000000",
"L$	c #A7A7A7",
"M$	c #545454",
". . . . . . . . . . . . . . . . . . . . . . . . . . . . . . . . ",
". + @ @ @ @ @ @ @ @ @ @ @ @ @ @ @ @ @ @ @ @ @ @ @ @ @ @ @ @ @ . ",
". # $ $ $ $ $ $ $ $ $ $ $ $ $ $ $ $ $ $ $ $ $ $ $ $ $ $ $ $ $ . ",
". # $ # # % % % % % % % # # # # % % % % # # # # # # # # # & $ . ",
". * = - ; > > , ' ) ! ~ { ] ^ / ( _ : < [ } | 1 2 3 4 5 6 7 8 . ",
". 9 0 a b c d e ) f g h i j k l m n o p q r s t u v w x y z A . ",
". B C D E F G H I J K L M N O P Q R S T U V W X Y Z `  ...+.z . ",
". @.#.$.%.&.*.=.-.;.>.,.'.).!.~.{.].^./.(._.:.<.[.}.|.1.2.3.4.. ",
". 5.6.7.8.9.0.a.b.c.d.e.f.g.h.i.j.k.l.m.n.o.p.q.r.s.t.u.v.w.x.. ",
". y.z.A.B.C.D.E.F.G.H.I.J.K.L.M.N.O.P.Q.R.S.T.U.V.W.X.Y.Z.`. +. ",
". .+++@+#+$+%+&+*+=+-+;+>+,+'+)+!+~+{+]+^+/+(+_+:+<+[+}+|+1+2+. ",
". 3+4+5+6+7+8+9+0+a+b+c+d+e+f+g+h+i+j+k+l+m+n+o+p+q+r+s+t+u+v+. ",
". w+x+y+z+A+B+C+D+E+F+G+H+I+J+K+L+M+N+O+P+Q+R+S+T+U+V+W+X+Y+Z+. ",
". `+ @.@+@@@#@$@%@&@*@=@-@;@>@,@'@)@!@~@{@]@^@/@(@_@:@<@[@}@|@. ",
". 1@2@3@4@5@6@7@8@9@0@a@b@c@d@e@f@g@h@i@j@k@l@m@n@o@p@q@r@s@t@. ",
". u@v@w@x@y@z@A@B@C@D@E@F@G@H@I@J@K@L@M@N@O@P@Q@R@S@T@U@V@W@X@. ",
". Y@Z@`@ #.#+#@###$#%#&#*#=#-#;#>#,#'#)#!#~#{#]#^#/#(#_#Z+:#<#. ",
". [#}#|#1#2#3#4#5#6#7#8#9#0#a#b#c#d#!#e#f#g#h#i#j#k#l#m#n#o#p#. ",
". q#r#s#t#u#v#w#x#y#z#A#B#C#D#E#F#G#!#H#I#J#K#L#M#N#O#P#o#Q#R#. ",
". S#T#U#V#u#u#W#X#Y#Z#`# $.$+$@$#$$$%$&$*$=$-$;$>$,$'$)$!$~${$. ",
". ]$^$/$($_$u#u#:$<$[$}$|$1$2$3$4$!#5$6$7$8$9$0$a$b$c$d$o#e$f$. ",
". g$h$i$j$k$l$u#m$n$o$p$q$r$s$t$u$v$w$x$y$z$< t@A$B$<#Q#~${$C$. ",
". # $ $ $ $ $ $ $ $ $ $ $ $ $ $ $ $ $ $ $ $ $ $ $ $ $ $ $ $ $ . ",
". D$# # # # # # # # # # # # # # # # # # # # # # # # # # # # # . ",
". . . . . . . . . . . . . . . . . . . . . . . . . . . . . . . . ",
". . . . E$F$G$H$E$. . . I$H$F$G$F$. . . J$K$G$G$F$L$. . . . . . ",
". . . E$H$L$. J$K$. . . . H$E$. . . . . I$H$. . G$G$. . . . . . ",
". . . H$J$. . E$K$. . . L$K$G$F$. . . . J$G$. . G$G$. . . . . . ",
". . . K$E$. . F$M$. . . E$H$. I$. . . . G$M$. . H$E$. . . . . . ",
". . . H$J$. J$F$L$E$J$. M$G$. I$I$M$I$. H$E$. G$G$. M$I$. . . . ",
". . . I$G$F$G$. . J$E$I$G$G$G$G$. G$L$J$G$G$G$J$. . G$L$. . . . ",
". . . . . . J$M$G$L$. . . . . . . . . . . . . . . . . . . . . . "};
