/* XPM */
static char * qed_8bit_xpm[] = {
"32 32 9 1",
" 	c None",
".	c #29221F",
"+	c #A28C85",
"@	c #67554E",
"#	c #6C2422",
"$	c #9B4F4B",
"%	c #E1CFB4",
"&	c #BFBCBA",
"*	c #FAEDD1",
"&&&&&&&&&&&&&&&&&&&&&&&&&&&&&&&&",
"&++++++++++++++++++++++++++++++&",
"&$#############################&",
"&$#$$$$$$$$$$$$$$$$$$$$$$$$$$##&",
"&..........#.#.................&",
"&.........###.#................&",
"&...##.##.$+$@#.#.......@&+....&",
"&..@+$#.##$%%$@#.@......@&+....&",
"&.#$%+#.@@+**+$@@@@@...@@@@....&",
"&..#$@@##$+&+$@@+*+@@.@@.@.....&",
"&....#@#@@$$$$#@@+@..@@..@.....&",
"&..#...#@#$@$@.@.@@@@@...@@....&",
"&...#@.@@#@@$.@#@@.@@.@.@+%@...&",
"&..@.#.@#@#@$@@.@@@@@.@..@&@...&",
"&.#@@@@.@@@$@@#.@@@+@@.@@@@@...&",
"&@.@@@@@#$%&@@@.@@+**+@........&",
"&.@+%+#.@@$$#@.@@@+**+@........&",
"&@$&*+@@.#.@#$.@.@*++@@........&",
"&.@$+$@.#....@@.@.*@@..........&",
"&..@@@@@....#@@@@*.............&",
"&....#@@.....+@@%*.............&",
"&......$......#................&",
"&$#############################&",
"&$$$$$$$$$$$$$$$$#$$#$$#$$#$$#$&",
"&&&&&&&&&&&&&&&&&&&&&&&&&&&&&&&&",
"&&&&+...@&&&+..#.&&&@..#.+&&&&&&",
"&&&@.+&@.&&&&.@&&&&&+.&&@.&&&&&&",
"&&&.@&&@.&&&+.@.&&&&@.&&.@&&&&&&",
"&&&.+&&.@&&&+.&+&&&&@@&&.+&&&&&&",
"&&&.@&@.++@&@.&++@+&.+&@.&@+&&&&",
"&&&+@.@&&@++.@.@&.&@.@.@&&.&&&&&",
"&&&&&&@@.&&&&&&&&&&&&&&&&&&&&&&&"};
