/* XPM */
static char * qed_xpm[] = {
"32 32 7 1",
" 	c None",
".	c #BDBDBC",
"+	c #938A8D",
"@	c #69183A",
"#	c #604853",
"$	c #411A2B",
"%	c #7D656F",
"................................",
"................................",
"................................",
"................................",
"................................",
"................................",
".....+@#+.......................",
"....+@@$@@%....%%...%@@#+.......",
"....#@$%$$@%..@@@@+.@@$@@+......",
"....@$%..$@$.+@$$@$.@$#$@$......",
"....@$%..+$@#+@$%$$%@$%+$@#.....",
"....@$+...%@$+@$+$$+@$+.%@$+....",
"...+@$....%@$+@$+...@$%..@$+....",
"...%@$....%@$+@$+.+.@$+.+@$+....",
"...%@$....+@$+@@@@$.@$%..@$+....",
"...%$$....%@$+@$$$#+@$+.+@$.....",
"...%@$..@#%@$+@$%+.+@$..%@$.....",
"...+@$++@@#$#+@$+..%@$..%$$.....",
"....$@@+@@@$++@$...%@$..@@#.....",
"....+$@@@@$%.#$#..#@@$..@$+.....",
".....+$$$$#..#@@%+@@$@#@@$.+....",
"......++@$#..%$@@@@$$@@$$%@$+...",
"........#@#.+#+#$$$%.#$$+.##....",
"........%@$.$$%.+++.#$#.........",
"........+$@%%%......+#+.........",
".........#$%....................",
"..........+.....................",
"................................",
"................................",
"................................",
"................................",
"................................"};
