/* XPM */
static char * recycle_xpm[] = {
"32 32 608 2",
"  	c None",
". 	c #FFFFFF",
"+ 	c #EAD9DC",
"@ 	c #915C69",
"# 	c #9C5F69",
"$ 	c #9E5F68",
"% 	c #995F6A",
"& 	c #99626A",
"* 	c #965E68",
"= 	c #9D5C6B",
"- 	c #96606B",
"; 	c #995F6B",
"> 	c #A06167",
", 	c #9B626D",
"' 	c #9A5E6D",
") 	c #9D5E68",
"! 	c #9B5F6C",
"~ 	c #9B606D",
"{ 	c #9B636D",
"] 	c #96616B",
"^ 	c #9B5F6F",
"/ 	c #9B5E6D",
"( 	c #9B5F6A",
"_ 	c #9A5B6A",
": 	c #965E6C",
"< 	c #9D646A",
"[ 	c #9C646B",
"} 	c #E7CBD1",
"| 	c #762836",
"1 	c #99384B",
"2 	c #993A4D",
"3 	c #9A3246",
"4 	c #9E3845",
"5 	c #9D3945",
"6 	c #9D3745",
"7 	c #983346",
"8 	c #833141",
"9 	c #63212F",
"0 	c #4B1D26",
"a 	c #441F25",
"b 	c #4B2221",
"c 	c #662735",
"d 	c #8E2F45",
"e 	c #A1364B",
"f 	c #983947",
"g 	c #953148",
"h 	c #9E374A",
"i 	c #9B3348",
"j 	c #9A3748",
"k 	c #9C3746",
"l 	c #97374A",
"m 	c #9C324A",
"n 	c #E4CDCF",
"o 	c #762A3C",
"p 	c #9E3047",
"q 	c #9E354B",
"r 	c #98304C",
"s 	c #9A3947",
"t 	c #99344A",
"u 	c #832A41",
"v 	c #39181E",
"w 	c #13080F",
"x 	c #0A0B07",
"y 	c #0C0A09",
"z 	c #08090C",
"A 	c #09080B",
"B 	c #0B090C",
"C 	c #1A0D0D",
"D 	c #591F27",
"E 	c #9F3248",
"F 	c #9E3D49",
"G 	c #9B3045",
"H 	c #A0354B",
"I 	c #963049",
"J 	c #94324C",
"K 	c #973749",
"L 	c #953348",
"M 	c #E5CCD2",
"N 	c #722C3A",
"O 	c #993547",
"P 	c #9B3146",
"Q 	c #96304F",
"R 	c #953447",
"S 	c #782B37",
"T 	c #1A100C",
"U 	c #0A0808",
"V 	c #0C0808",
"W 	c #140F0D",
"X 	c #100D0F",
"Y 	c #11080A",
"Z 	c #130C0E",
"` 	c #0B0709",
" .	c #0A090C",
"..	c #0D080C",
"+.	c #30151A",
"@.	c #9D364C",
"#.	c #A43C49",
"$.	c #9C3544",
"%.	c #993648",
"&.	c #94384C",
"*.	c #9A3346",
"=.	c #913347",
"-.	c #E5CDCF",
";.	c #732632",
">.	c #98384A",
",.	c #993249",
"'.	c #9D3543",
").	c #7F2C3B",
"!.	c #170B0C",
"~.	c #0C0A06",
"{.	c #080D0A",
"].	c #1D1010",
"^.	c #832D42",
"/.	c #7D263B",
"(.	c #4A1A24",
"_.	c #88303E",
":.	c #62252C",
"<.	c #0C0D0B",
"[.	c #0C0A0A",
"}.	c #0B0A0A",
"|.	c #311815",
"1.	c #AD3C56",
"2.	c #9A394A",
"3.	c #91394C",
"4.	c #9A3A47",
"5.	c #9A3547",
"6.	c #9C3A48",
"7.	c #E3CAD2",
"8.	c #74283B",
"9.	c #963546",
"0.	c #9A3448",
"a.	c #922F42",
"b.	c #28131B",
"c.	c #0C0C0B",
"d.	c #0B0E06",
"e.	c #0B0B0C",
"f.	c #682831",
"g.	c #A6374C",
"h.	c #983642",
"i.	c #421D23",
"j.	c #A13A4C",
"k.	c #9B3647",
"l.	c #411A22",
"m.	c #090A08",
"n.	c #0B080C",
"o.	c #0B0A0B",
"p.	c #4F2528",
"q.	c #BA3F57",
"r.	c #9E3345",
"s.	c #983549",
"t.	c #98334F",
"u.	c #94334E",
"v.	c #E4CFCE",
"w.	c #782B39",
"x.	c #973A47",
"y.	c #9C354B",
"z.	c #682737",
"A.	c #0D0A0B",
"B.	c #0A0B0C",
"C.	c #090A0B",
"D.	c #2D141A",
"E.	c #AB394F",
"F.	c #9D3848",
"G.	c #682331",
"H.	c #080A09",
"I.	c #833243",
"J.	c #B24655",
"K.	c #6A2635",
"L.	c #0B0A0C",
"M.	c #080706",
"N.	c #09080C",
"O.	c #150908",
"P.	c #A63550",
"Q.	c #A7384E",
"R.	c #963646",
"S.	c #9E3247",
"T.	c #9B3C49",
"U.	c #E7CBD0",
"V.	c #7A233C",
"W.	c #9A374C",
"X.	c #3B191D",
"Y.	c #08090A",
"Z.	c #0A080B",
"`.	c #0B0A0D",
" +	c #0F0C0B",
".+	c #4E1C25",
"++	c #882F43",
"@+	c #1D0D0E",
"#+	c #2E1316",
"$+	c #6F2732",
"%+	c #2F1319",
"&+	c #140A0C",
"*+	c #0A0907",
"=+	c #0B0607",
"-+	c #6C2834",
";+	c #B54055",
">+	c #95364F",
",+	c #993445",
"'+	c #973645",
")+	c #E4CBD1",
"!+	c #782639",
"~+	c #953346",
"{+	c #923745",
"]+	c #231112",
"^+	c #0B070A",
"/+	c #080C0C",
"(+	c #38161C",
"_+	c #35151E",
":+	c #0C0C0D",
"<+	c #110E09",
"[+	c #0B0B07",
"}+	c #0E080A",
"|+	c #080B0A",
"1+	c #160A0F",
"2+	c #531F24",
"3+	c #772E37",
"4+	c #180F12",
"5+	c #090804",
"6+	c #0A0909",
"7+	c #41161D",
"8+	c #C44759",
"9+	c #9B304A",
"0+	c #9B374C",
"a+	c #9A3847",
"b+	c #E4CCD0",
"c+	c #76283C",
"d+	c #9B3449",
"e+	c #91353E",
"f+	c #160B0C",
"g+	c #0A0807",
"h+	c #1E1012",
"i+	c #9B344C",
"j+	c #973447",
"k+	c #3F1921",
"l+	c #090807",
"m+	c #0C0A08",
"n+	c #070908",
"o+	c #080B0B",
"p+	c #1E1112",
"q+	c #B64452",
"r+	c #9F384C",
"s+	c #592530",
"t+	c #080908",
"u+	c #0A0D0D",
"v+	c #C34559",
"w+	c #9D324B",
"x+	c #9D394A",
"y+	c #9A3B44",
"z+	c #E5CBCF",
"A+	c #73293B",
"B+	c #973845",
"C+	c #97304B",
"D+	c #160B0F",
"E+	c #0A0709",
"F+	c #6B2632",
"G+	c #AF3A50",
"H+	c #902D3D",
"I+	c #201017",
"J+	c #0B0A07",
"K+	c #080B0D",
"L+	c #080808",
"M+	c #070909",
"N+	c #10070A",
"O+	c #722631",
"P+	c #B64158",
"Q+	c #8B2F40",
"R+	c #060809",
"S+	c #311418",
"T+	c #BF435D",
"U+	c #97354D",
"V+	c #973947",
"W+	c #9F374A",
"X+	c #E3CCD2",
"Y+	c #782737",
"Z+	c #9C3447",
"`+	c #962D44",
" @	c #261216",
".@	c #090B08",
"+@	c #552328",
"@@	c #BE4058",
"#@	c #571F29",
"$@	c #100D0B",
"%@	c #120A10",
"&@	c #120D0B",
"*@	c #070508",
"=@	c #0C050B",
"-@	c #0D0B0A",
";@	c #1E0F16",
">@	c #A53D4B",
",@	c #88303D",
"'@	c #1D0D11",
")@	c #4A1A29",
"!@	c #BD405A",
"~@	c #963541",
"{@	c #9C3248",
"]@	c #973347",
"^@	c #E7CDD2",
"/@	c #762C3E",
"(@	c #9C3548",
"_@	c #983745",
":@	c #481D2B",
"<@	c #110D0B",
"[@	c #812C40",
"}@	c #892F3D",
"|@	c #8A313C",
"1@	c #742C3B",
"2@	c #5E212A",
"3@	c #0D090D",
"4@	c #5F1D2A",
"5@	c #782A39",
"6@	c #5A202D",
"7@	c #632536",
"8@	c #3C151D",
"9@	c #0A070A",
"0@	c #090C0B",
"a@	c #782D35",
"b@	c #AD3657",
"c@	c #9B3847",
"d@	c #9D3449",
"e@	c #A32F49",
"f@	c #E8CCCF",
"g@	c #732F36",
"h@	c #9D3649",
"i@	c #9A334A",
"j@	c #7B2840",
"k@	c #110C0E",
"l@	c #0A090A",
"m@	c #1E0F12",
"n@	c #B53D57",
"o@	c #A63848",
"p@	c #9B3246",
"q@	c #7F2A39",
"r@	c #10090E",
"s@	c #9A354C",
"t@	c #A63B50",
"u@	c #9A364A",
"v@	c #83303F",
"w@	c #15090E",
"x@	c #07090C",
"y@	c #261113",
"z@	c #A8394C",
"A@	c #A1344D",
"B@	c #9C3146",
"C@	c #99374C",
"D@	c #E7D0D0",
"E@	c #762E42",
"F@	c #933447",
"G@	c #9B3846",
"H@	c #932F48",
"I@	c #491A23",
"J@	c #080B09",
"K@	c #0A0B0B",
"L@	c #3E1820",
"M@	c #511E2A",
"N@	c #4E1E29",
"O@	c #381923",
"P@	c #34121B",
"Q@	c #57222B",
"R@	c #3E1825",
"S@	c #241417",
"T@	c #110B0D",
"U@	c #762C38",
"V@	c #A73A57",
"W@	c #963346",
"X@	c #933444",
"Y@	c #9B3743",
"Z@	c #983744",
"`@	c #E3CAD0",
" #	c #782939",
".#	c #9A314B",
"+#	c #993047",
"@#	c #973748",
"##	c #8A3345",
"$#	c #2F171B",
"%#	c #060807",
"&#	c #080A0A",
"*#	c #070A07",
"=#	c #080809",
"-#	c #08080C",
";#	c #080C08",
">#	c #0A0708",
",#	c #08080B",
"'#	c #52232D",
")#	c #A13347",
"!#	c #9B344E",
"~#	c #9A374D",
"{#	c #A23049",
"]#	c #9E3647",
"^#	c #9C364F",
"/#	c #E6CDD0",
"(#	c #772633",
"_#	c #943543",
":#	c #963648",
"<#	c #973C45",
"[#	c #9C3542",
"}#	c #8B3345",
"|#	c #37171D",
"1#	c #0C0909",
"2#	c #0D0B0B",
"3#	c #090B07",
"4#	c #070907",
"5#	c #0B090B",
"6#	c #0D0B07",
"7#	c #090B09",
"8#	c #130B11",
"9#	c #562029",
"0#	c #8E333F",
"a#	c #9F3750",
"b#	c #9C344A",
"c#	c #923648",
"d#	c #9F3349",
"e#	c #96374E",
"f#	c #E6CBCF",
"g#	c #792B39",
"h#	c #9C334A",
"i#	c #A2374B",
"j#	c #9E3546",
"k#	c #973549",
"l#	c #983245",
"m#	c #943246",
"n#	c #261212",
"o#	c #0A0C0B",
"p#	c #0B0809",
"q#	c #0D090B",
"r#	c #0F0C0E",
"s#	c #190E0E",
"t#	c #391418",
"u#	c #662630",
"v#	c #943048",
"w#	c #9B3A45",
"x#	c #993747",
"y#	c #9C3144",
"z#	c #9C3848",
"A#	c #993144",
"B#	c #973348",
"C#	c #983248",
"D#	c #E4CED2",
"E#	c #742739",
"F#	c #98334C",
"G#	c #983746",
"H#	c #983448",
"I#	c #9C364A",
"J#	c #943840",
"K#	c #932E47",
"L#	c #7E2939",
"M#	c #642537",
"N#	c #5F242D",
"O#	c #5E2135",
"P#	c #792638",
"Q#	c #853145",
"R#	c #99384A",
"S#	c #9B3343",
"T#	c #963748",
"U#	c #983348",
"V#	c #9C3443",
"W#	c #98314D",
"X#	c #9B384E",
"Y#	c #993245",
"Z#	c #E8CED3",
"`#	c #732A37",
" $	c #9C324C",
".$	c #A1344C",
"+$	c #95354E",
"@$	c #992F48",
"#$	c #97364C",
"$$	c #97314C",
"%$	c #9C334B",
"&$	c #9E384B",
"*$	c #98344E",
"=$	c #99344B",
"-$	c #983946",
";$	c #9B334A",
">$	c #9B3547",
",$	c #9B3144",
"'$	c #9B364B",
")$	c #973648",
"!$	c #9D3747",
"~$	c #9C334D",
"{$	c #9D324E",
"]$	c #A4334B",
"^$	c #983350",
"/$	c #F0E3E8",
"($	c #362C2D",
"_$	c #0E0A0B",
":$	c #3E2F32",
"<$	c #CB99A2",
"[$	c #CD9AA2",
"}$	c #CC98A4",
"|$	c #CD9CA6",
"1$	c #CF97A6",
"2$	c #CB9EA2",
"3$	c #CB9CA4",
"4$	c #C998A5",
"5$	c #CF9AA1",
"6$	c #C99BA0",
"7$	c #B0868A",
"8$	c #A6818A",
"9$	c #CD96A7",
"0$	c #C9969E",
"a$	c #CC9CA6",
"b$	c #CD9BA1",
"c$	c #CE9AA4",
"d$	c #C89DA6",
"e$	c #CC96A6",
"f$	c #CCCCCC",
"g$	c #E2E2E2",
"h$	c #FBFBFB",
"i$	c #0F0F0F",
"j$	c #A8A8A8",
"k$	c #FCFCFC",
"l$	c #909090",
"m$	c #1C1C1C",
"n$	c #F6F6F6",
"o$	c #B3B3B3",
"p$	c #D3D3D3",
"q$	c #FDFDFD",
"r$	c #C8C8C8",
"s$	c #F0F0F0",
"t$	c #F7F7F7",
"u$	c #4C4C4C",
"v$	c #333333",
"w$	c #EDEDED",
"x$	c #E8E8E8",
"y$	c #BFBFBF",
"z$	c #FEFEFE",
"A$	c #CFCFCF",
"B$	c #E0E0E0",
"C$	c #D7D7D7",
"D$	c #212121",
"E$	c #5E5E5E",
"F$	c #010101",
"G$	c #929292",
"H$	c #9D9D9D",
"I$	c #2B2B2B",
"J$	c #979797",
"K$	c #D8D8D8",
"L$	c #242424",
"M$	c #787878",
"N$	c #232323",
"O$	c #AFAFAF",
"P$	c #737373",
"Q$	c #575757",
"R$	c #646464",
"S$	c #DCDCDC",
"T$	c #1B1B1B",
"U$	c #525252",
"V$	c #D0D0D0",
"W$	c #252525",
"X$	c #848484",
"Y$	c #222222",
"Z$	c #B8B8B8",
"`$	c #6D6D6D",
" %	c #272727",
".%	c #838383",
"+%	c #999999",
"@%	c #121212",
"#%	c #616161",
"$%	c #454545",
"%%	c #0A0A0A",
"&%	c #E9E9E9",
"*%	c #474747",
"=%	c #282828",
"-%	c #5C5C5C",
";%	c #2F2F2F",
">%	c #7C7C7C",
",%	c #1F1F1F",
"'%	c #717171",
")%	c #CDCDCD",
"!%	c #C6C6C6",
"~%	c #D6D6D6",
"{%	c #666666",
"]%	c #C4C4C4",
"^%	c #7D7D7D",
"/%	c #BABABA",
"(%	c #0E0E0E",
"_%	c #C2C2C2",
":%	c #0C0C0C",
"<%	c #ECECEC",
"[%	c #3D3D3D",
"}%	c #808080",
"|%	c #EAEAEA",
"1%	c #8E8E8E",
"2%	c #A7A7A7",
"3%	c #A2A2A2",
"4%	c #2D2D2D",
"5%	c #626262",
"6%	c #EBEBEB",
"7%	c #8C8C8C",
"8%	c #171717",
"9%	c #DBDBDB",
"0%	c #090909",
"a%	c #C5C5C5",
"b%	c #828282",
"c%	c #373737",
"d%	c #111111",
"e%	c #6A6A6A",
"f%	c #161616",
"g%	c #363636",
"h%	c #B7B7B7",
"i%	c #020202",
"j%	c #9B9B9B",
"k%	c #303030",
"l%	c #191919",
"m%	c #353535",
"n%	c #BBBBBB",
"o%	c #F5F5F5",
"p%	c #7A7A7A",
"q%	c #D5D5D5",
". . . . . . . . . . . . . . . . . . . . . . . . . . . . . . . . ",
". + @ # $ % & * = - ; > , ' ) ! ~ { ] ^ / ( _ : < [ . . . . . . ",
". } | 1 2 3 4 5 6 7 8 9 0 a b c d e f g h i j k l m . . . . . . ",
". n o p q r s t u v w x y z A B C D E F G H I J K L . . . . . . ",
". M N O P Q R S T U V W X Y Z `  ...+.@.#.$.%.&.*.=.. . . . . . ",
". -.;.>.,.'.).!.~.{.].^./.(._.:.<.[.}.|.1.2.3.4.5.6.. . . . . . ",
". 7.8.9.0.a.b.c.d.e.f.g.h.i.j.k.l.m.n.o.p.q.r.s.t.u.. . . . . . ",
". v.w.x.y.z.A.B.C.D.E.F.G.H.I.J.K.L.M.N.O.P.Q.R.S.T.. . . . . . ",
". U.V.*.W.X.Y.Z.`. +.+++@+o.#+$+%+&+*+=+m.-+;+>+,+'+. . . . . . ",
". )+!+~+{+]+^+/+(+_+:+<+[+}+|+1+2+3+4+5+6+7+8+9+0+a+. . . . . . ",
". b+c+d+e+f+g+h+i+j+k+l+m+n+o+p+q+r+s+t+u+%+v+w+x+y+. . . . . . ",
". z+A+B+C+D+E+F+G+H+I+J+K+L+M+N+O+P+Q+h+R+S+T+U+V+W+. . . . . . ",
". X+Y+Z+`+ @.@+@@@#@$@%@&@*@=@-@;@>@,@'@C.)@!@~@{@]@. . . . . . ",
". ^@/@(@_@:@m.<@[@}@|@1@2@3@4@5@6@7@8@9@0@a@b@c@d@e@. . . . . . ",
". f@g@h@i@j@k@l@m@n@o@p@q@r@s@t@u@v@w@x@y@z@A@B@s.C@. . . . . . ",
". D@E@F@G@H@I@J@K@L@M@N@O@Z.P@Q@R@S@K@T@U@V@W@X@Y@Z@. . . . . . ",
". `@ #.#+#@###$#%#&#*#=#-#H..@;#>#,#<.'#)#!#~#{#]#^#. . . . . . ",
". /#(#_#:#<#[#}#|#1#2#3#4#5#N.6#7#8#9#0#a#b#c#d#i e#. . . . . . ",
". f#g#h#i#j#k#l#m#G.n#o#p#q#r#s#t#u#v#w#x#y#z#A#B#C#. . . . . . ",
". D#E#>.F#G#H#i@I#J#K#L#M#N#O#P#Q#R#d+S#T#U#V#W#X#Y#. . . . . . ",
". Z#`# $.$+$@$#$$$%$&$*$=$-$;$>$b#,$'$)$!$~${$b#]$^$. . . . . . ",
". /$($1#_$>#:$<$[$}$|$1$2$3$4$5$6$7$8$9$0$a$b$c$d$e$. . f$g$. . ",
". h$i$j$k$l$m$. n$o$p$. q$r$o$s$t$u$v$w$x$o$y$z$g$A$B$C$D$E$. . ",
". A$F$G$H$I$J$K$L$M$N$O$P$Q$R$I$S$T$U$V$W$X$Y$Z$`$W$ %H$F$.%. . ",
". +%@%#%$%%%&%*%=%-%;%>%u$,%'%)%s$L+!%~%{%-%i$]%v$^%. /%(%n$. . ",
". #%Q$. _%:%<%[%}%|%1%2%3%y$4%5%y$%%6%I$7%G$8%9%0%a%. b%c%z$. . ",
". m$+%. +%m$. _%Y$d%e%y$f%g%D$a%h%i%j%k%l%m%v$n%l%o%. p%0%q%. . ",
". . . . . . . . . . . . . . . . . . . . . . . . . . . . . . . . ",
". . . . . . . . . . . . . . . . . . . . . . . . . . . . . . . . ",
". . . . . . . . . . . . . . . . . . . . . . . . . . . . . . . . ",
". . . . . . . . . . . . . . . . . . . . . . . . . . . . . . . . ",
". . . . . . . . . . . . . . . . . . . . . . . . . . . . . . . . "};
