/* XPM */
static char * restart_xpm[] = {
"32 32 7 1",
" 	c None",
".	c #1D1315",
"+	c #B19EA2",
"@	c #636362",
"#	c #933346",
"$	c #FAF9F7",
"%	c #A35867",
"$$$$$$$$$$$$$$$$$$$$$$$$$$$$$$$$",
"$$%%%%%%%%%%%%%%%%%%%%%%%%$$$$$$",
"$+##%##%####.#.###%###%###$$$$$$",
"$$#######.........#%######$$$$$$",
"$+######...........#######$$$$$$",
"$$#####....##.#.....%##%##$$$$$$",
"$+####.....##.##.....%####$$$$$$",
"$$###.....###.#%.....#####$$$$$$",
"$+###......#...#.....#####$$$$$$",
"$+###............#....%###$$$$$$",
"$$###...##......##....%##%$$$$$$",
"$+###..###......###...%###$$$$$$",
"$$###...##.......##...####$$$$$$",
"$+###...####...#.#...#####$$$$$$",
"$$####...####.####...#####$$$$$$",
"$+####.........#....######$$$$$$",
"$$#####.............######$$$$$$",
"$+######..........########$$$$$$",
"$$#######.........########$$$$$$",
"$+##########.#.###########$$$$$$",
"$$########################$$$$$$",
"$$....#+++++++++++++++++++$$+$$$",
"$$.+$@.$$+$$$++$$#.$$+$$$+$$.@$$",
"$+.++.+$.@.+@@@.$.@$.@.+@..+.+$$",
"$+.@@.$..@@@@.@$$.+$@@.$.+$+.$$$",
"$@@$+.$@@$++++.@+.$.@+.$.+$+.$$$",
"$.+$+.$+..@+.@.++.+..@.+.$$@.$$$",
"$$$$$$$$$$$$$$$$$$$$$$$$$$$$$$$$",
"$$$$$$$$$$$$$$$$$$$$$$$$$$$$$$$$",
"$$$$$$$$$$$$$$$$$$$$$$$$$$$$$$$$",
"$$$$$$$$$$$$$$$$$$$$$$$$$$$$$$$$",
"$$$$$$$$$$$$$$$$$$$$$$$$$$$$$$$$"};
