/* XPM */
static char * restart_xpm[] = {
"32 32 20 1",
" 	c None",
".	c #BCBCBC s backgroundToolBarColor",
"+	c #B09595",
"@	c #AA8181",
"#	c #984747",
"$	c #870D0D",
"%	c #8D2020",
"&	c #A26666",
"*	c #A97E7E",
"=	c #923434",
"-	c #A46E6E",
";	c #686868",
">	c #000000",
",	c #3E3E3E",
"'	c #151515",
")	c #7D7D7D",
"!	c #A7A7A7",
"~	c #545454",
"{	c #2A2A2A",
"]	c #929292",
"................................",
".....+@@@@@@@@@@@@@@@@@@@@@.....",
".....#$$$$$$$$$$$$$$$$$$$$$.....",
".....#$##################%$.....",
".....#$..................#$.....",
".....#$.......&$$$&......#$.....",
".....#$.....&$$$$$$$.....#$.....",
".....#$....&$$$$$$$$$....#$.....",
".....#$....$$$&....&$....#$.....",
".....#$...$$$&......$....#$.....",
".....#$.$$$$$$$....$$$...#$.....",
".....#$.*$$$$$$...$$$$$..#$.....",
".....#$..$$$$$...$$$$$$*.#$.....",
".....#$...$$$....$$$$$$$.#$.....",
".....#$....$......&$$$...#$.....",
".....#$....$&....&$$$....#$.....",
".....#$....$$$$$$$$$&....#$.....",
".....#$.....$$$$$$$&.....#$.....",
".....#$......&$$$&.......#$.....",
".....#$..................#$.....",
".....#$..................#$.....",
".....#$@@@@@@@@@@@@@@@@@@=$.....",
".....#$$$$$$$$$$$$$$$$$$$$$.....",
".....-#####################.....",
"................................",
"..;>,')..........)!..........!).",
"..)'.,~.!~~!!~,);>,.!~,,.,;)){';",
"..~{;'!!{!>],{!!)'..'!){.,,;],~.",
"..,~').~',;.!',.;,.;,.'~.>~..{).",
"..>];'!,{.]];!>),,.,{~{)!>...>).",
".;,;.,;!,,).,,;.),]),!,;],...~,.",
"................................"};
