/* XPM */
static char * restart_8bit_xpm[] = {
"32 32 9 1",
" 	c None",
".	c #0E0E0D",
"+	c #876868",
"@	c #454543",
"#	c #BDBDBB",
"$	c #9B8384",
"%	c #860E0C",
"&	c #9A4644",
"*	c #2A2A2C",
"################################",
"#####$$$$$$$$$$$$$$$$$$$$$$#####",
"#####&%%%%%%%%%%%%%%%%%%%%%#####",
"#####&%&&&&&&&&&&&&&&&&&&%%#####",
"#####&%##################&%#####",
"#####&%##################&%#####",
"#####&%######++%%%+######&%#####",
"#####&%#####&%%%%%%%#####&%#####",
"#####&%####+%%+####&%####&%#####",
"#####&%####%%&###########&%#####",
"#####&%###%%%#######%####&%#####",
"#####&%#%%%%%%%####%%%###&%#####",
"#####&%##%%%%%####%%%%%##&%#####",
"#####&%###%%%####%%%%%%%#&%#####",
"#####&%####%#######%%%###&%#####",
"#####&%###########+%%####&%#####",
"#####&%####%&####&%%+####&%#####",
"#####&%#####%%%%%%%&#####&%#####",
"#####&%######+%%%++######&%#####",
"#####&%##################&%#####",
"#####&%##################&%#####",
"#####&%$$$$$$$$$$$$$$$$$$%%#####",
"#####&%%%%%%%%%%%%%%%%%%%%%#####",
"#####+&&&&&&&&&&&&&&&&&&&&&#####",
"################################",
"##+.@.+##########$$##########$$#",
"##+.#@@#$+@$#@@++.@#$@@*#@++$*.+",
"##@*+.##*#.$@*$#+.##.#$*#@@+$@@#",
"##@@.$#@.*+##.@#+@#+@#.@#.@##*$#",
"##.$+.#@*#$$+$.$@@#@*@*$$.###.$#",
"#+@+#*+$@@$#@@+#+@$$@#@+$@###@@#",
"################################"};
