/* XPM */
static char * retract_8bit_xpm[] = {
"32 32 9 1",
" 	c None",
".	c #141414",
"+	c #71696B",
"@	c #454543",
"#	c #A19D9D",
"$	c #860E0C",
"%	c #9A4644",
"&	c #9E8182",
"*	c #BEBEBC",
"********************************",
"*****#&&&&&&&&&&&&&&&&&&&&&*****",
"*****%$$$$$$$$$$$$$$$$$$$$$*****",
"*****%$%%%%%%%%%%%%%%%%%%$$*****",
"*****%$******************%$*****",
"*****%$******************%$*****",
"*****%$**&$$$$$$$$$$$$$**%$*****",
"**#**%$**&$$$$$$$$$$$$$**%$*****",
"*****%$********$$$*******%$*****",
"*****%$*******$$$$$******%$#****",
"*****%$*******$$$$$*#****%$*****",
"**#**%$******$$$$$$%*****%$*****",
"*****%$******$$$$$$$*****%$*****",
"*****%$**#**$$$$$$$$&****%$*****",
"*****%$*****$$$$$$$$%#***%$*****",
"*****%$****%$$$$$$$$$****%$*****",
"****#%$****$$$$$$$$$$%***%$*****",
"*****%$***#$$$$$$$$$$$***%$*****",
"*****%$**#$$$$$$$$$$$$&**%$*****",
"*****%$******************%$#****",
"*****%$****************#*%$*****",
"*#***%$&&&&&&&&&&&&&&&&&&%$*****",
"*****%$$$$$$$$$$$$$$$$$$$$$*****",
"*****%%%%%%%%%%%%%%%%%%%%%%*****",
"********************************",
"*+.@.&******+#***************+#*",
"*+.*@@*#@@#+.@&@&@##@@@#*+@@+.@*",
"*@.+.##@#.#+.**.@&#.#&.*@@*++.**",
"*@+.&*@.@+*+@*+.&*+@*.@#.#**+@**",
"*.&+.#@.*&&@@*+@**@.@@&+.##*@@**",
"+@+*@+#@@+*+@&++**&@#@+*@@+*+@&*",
"********************************"};
