/* XPM */
static char * retract_8bit_xpm[] = {
"32 32 9 1",
" 	c None",
".	c #020204",
"+	c #860E0C",
"@	c #3A3231",
"#	c #9A4644",
"$	c #686263",
"%	c #807D7B",
"&	c #AA8284",
"*	c #BDBCBA",
"********************************",
"*****&&&&&&&&&&&&&&&&&&&&&&*****",
"*****#+++++++++++++++++++++*****",
"*****#+##################++*****",
"*****#+******************#+*****",
"*****#+******************#+*****",
"*****#+**&+++++++++++++**#+*****",
"*****#+**&+++++++++++++**#+*****",
"*****#+********+++*******#+*****",
"*****#+*******+++++******#+*****",
"*****#+*******+++++******#+*****",
"*****#+******++++++#*****#+*****",
"*****#+******+++++++*****#+*****",
"*****#+*****++++++++&****#+*****",
"*****#+*****++++++++#****#+*****",
"*****#+****#+++++++++****#+*****",
"*****#+****++++++++++$***#+*****",
"*****#+****+++++++++++***#+*****",
"*****#+**&++++++++++++&**#+*****",
"*****#+******************#+*****",
"*****#+******************#+*****",
"*****#+&&&&&&&&&&&&&&&&&&#+*****",
"*****#+++++++++++++++++++++*****",
"*****&#####################*****",
"********************************",
"*$.@.%******%****************%**",
"*%.*@$*&$$&$.@&@&$*&$@@**$@$$.@*",
"*$@$@&*@*.&%.**.$%*.*%@*@@*$%.**",
"*@$.%*$.@$*%@*%.%*$@*.$%.***%@**",
"*.%$.*@@*%%$@*%@**@@$@%%.***@@**",
"$@%*@$*@$%*%@%%$**%@*@$*$@$*%$%*",
"********************************"};
