/* XPM */
static char * retract_xpm[] = {
"32 32 26 1",
" 	c None",
".	c #BCBCBC",
"+	c #B09595",
"@	c #AA8181",
"#	c #984747",
"$	c #870D0D",
"%	c #8D2020",
"&	c #860C0C",
"*	c #9D5858",
"=	c #B09494",
"-	c #902D2D",
";	c #A06262",
">	c #B19A9A",
",	c #891515",
"'	c #AC8888",
")	c #923434",
"!	c #A46E6E",
"~	c #686868",
"{	c #000000",
"]	c #3E3E3E",
"^	c #151515",
"/	c #7D7D7D",
"(	c #A7A7A7",
"_	c #545454",
":	c #929292",
"<	c #2A2A2A",
"................................",
".....+@@@@@@@@@@@@@@@@@@@@@.....",
".....#$$$$$$$$$$$$$$$$$$$$$.....",
".....#$##################%$.....",
".....#$..................#$.....",
".....#$..................#$.....",
".....#$..@$$$$$$$&$$$$$..#$.....",
".....#$..@$$$$$$$$$$$$$..#$.....",
".....#$........$$$.......#$.....",
".....#$.......$$$$$......#$.....",
".....#$.......$$$$$......#$.....",
".....#$......$$$$$$*.....#$.....",
".....#$......$$$$$$$.....#$.....",
".....#$.....$$$$$$$$=....#$.....",
".....#$.....$$$$$$$$-....#$.....",
".....#$....;$$$$$$$$$....#$.....",
".....#$....$$$$$$$$$$;...#$.....",
".....#$...>$$$$$$$$$$,...#$.....",
".....#$..>$$$$$$$$$$$$'..#$.....",
".....#$..................#$.....",
".....#$..................#$.....",
".....#$@@@@@@@@@@@@@@@@@@)$.....",
".....#$$$$$$$$$$$$$$$$$$$$$.....",
".....!#####################.....",
"................................",
".~{]^/....../(.............../(.",
"./^.]_.(__(~{]:]:_((_]]..~]~~{].",
"._<~^((<({:/^..{_/(^(/<.]].~/^..",
".]_^/._^]~.~]./{:.~].^_:{...~]..",
".{:~^(]<.::]].~]..]<_<//{((.]]..",
"~]~.]~(]]/./]:~~../](]~._]~./]:.",
"................................"};
