/* XPM */
static char * retract_8bit_xpm[] = {
"32 32 9 1",
" 	c None",
".	c #0D0D0C",
"+	c #747373",
"@	c #454543",
"#	c #BDBDBB",
"$	c #860F0D",
"%	c #9A4644",
"&	c #A68587",
"*	c #2A2A2C",
"################################",
"#####&&&&&&&&&&&&&&&&&&&&&&#####",
"#####%$$$$$$$$$$$$$$$$$$$$$#####",
"#####%$%%%%%%%%%%%%%%%%%%$$#####",
"#####%$##################%$#####",
"#####%$##################%$#####",
"#####%$##################%$#####",
"#####%$########&&########%$#####",
"#####%$########$$&#######%$#####",
"#####%$#######$$$$&######%$#####",
"#####%$#####&$$$$$$&#####%$#####",
"#####%$#####$$$$$$$$&####%$#####",
"#####%$###&%$$$$$$$$$&###%$#####",
"#####%$###$$$$$$$$$$$$&##%$#####",
"#####%$##################%$#####",
"#####%$##&$$$$$$$$$$$$$##%$#####",
"#####%$##&$$$$$$$$$$$$$##%$#####",
"#####%$##################%$#####",
"#####%$##################%$#####",
"#####%$##################%$#####",
"#####%$##################%$#####",
"#####%$&&&&&&&&&&&&&&&&&&$$#####",
"#####%$$$$$$$$$$$$$$$$$$$$$#####",
"#####%%%%%%%%%%%%%%%%%%%%%%#####",
"################################",
"#@.@.+######+&###############+&#",
"#+.#@@#&@@#+.@&*&@&#@*@##+*++.@#",
"#@*+.##*#.&+.##.++#.#+*#@*#++.##",
"#@@.+#@.*+#+@#+.&#+*#.@&.###+@##",
"#.&+.#@*#&&*@#+*##@*@*++.#&#*@##",
"+@+#@+&@@+#+@&++##+@#@+#@@+#+@&#",
"################################"};
