/* XPM */
static char * right_xpm[] = {
"32 32 7 1",
" 	c None",
".	c #515151",
"+	c #3B1727",
"@	c #B8B8B7",
"#	c #A39A9E",
"$	c #9B607D",
"%	c #641137",
"...+........+...............+...",
"@@@@@@@@@@@@@@@@@@@@@@@@@@@@@@@@",
"@@@@@@@@@@@@@@@@@@@@@@@@@@@@@@@@",
"@@@@@@@@@@@@@@@@@@@@@@@@@@@@@@@@",
"@@@@@@@@@@@@@@@@@@@@@@@@@@@@@@@@",
"@@@@@@@@@@@@@@@@@@#@#@@@#@@@#@@@",
"@#@@#@@#@@#@@@#@@@@@@@@@@@@@@@#@",
"@#.+.#@@@@@@@@@#@@@@#$.##@#@@@@@",
"@.++++##@@#@@@@@@@##.+++.$@@@@@@",
"#++%%+.$#@@#@@@@@@@#++++++$#@#@@",
"@.++%%%+.@@@@#@@@@@#++%%%%.##@@@",
"@@.+%%%%+.$#@@@#@@@#$.%%%%%+##@@",
"@@.+%%%%%++..##@@@@@#..+%%%%.@@@",
"@@$++%%%%+%++...###.++++%%%%+##@",
"@@.++%%%%%%%%%+++++++++%%%%%%+$@",
"@@.+%%%%%%%%%%%%++++%%%%%%%%%%.#",
"@@.+%%%%%%%%%%%%%%%%%%%%%%%%%%%#",
"@@#++%%%%%%%%%%%%%%%%%%%%%%%%%%#",
"@@#++%%%%%%%%%%%%%%%%%%%%%%%%%%@",
"@@@++%%%%%%%%%%%%%%%%%%%%%%%%$@@",
"@@#.+%%%%%%%%%%%%%%%%%%%%%%%$#@@",
"@@$++%%%%%%%%%%%%%%$%+%%%$$@@@@@",
"@#.++%%%%%%%%%%%%$##.+%%%#@@@@@@",
"@$++%%%%%%%%%%$$@@@$+%%$@@@@@@@@",
"@.++%%%%%%%$$@@@@@@#++%$@@@@@@@@",
"@++%%%%$$@@@@@@@@@@#+%%@@@@@@@@@",
"#.+%%$#@@@@@@@@@@@@####@@@@@@@@@",
"#.%%$@@@@@@@@@@@@@@@@@@@@@@@@#@@",
"@###@@@@@@@@@@@@@#@@@@@@@@@#@@@@",
"@@@@@@@@@@@@@@@@@@@@@@@@@@@@@@@@",
"@@@@@@@@@@@@@#@@#@@@@@@@@#@@#@@@",
"..........+........+............"};
