/* XPM */
static char * right_xpm[] = {
"32 32 398 2",
"  	c None",
". 	c #57625A",
"+ 	c #4D444D",
"@ 	c #3D3B46",
"# 	c #33415A",
"$ 	c #3F5C50",
"% 	c #344D53",
"& 	c #485552",
"* 	c #406360",
"= 	c #634E4F",
"- 	c #30494F",
"; 	c #584B5B",
"> 	c #304D55",
", 	c #48363E",
"' 	c #5A4660",
") 	c #584B4A",
"! 	c #486471",
"~ 	c #5C5E64",
"{ 	c #303C54",
"] 	c #4C643E",
"^ 	c #574A50",
"/ 	c #4B4D5B",
"( 	c #494A39",
"_ 	c #3D5044",
": 	c #545656",
"< 	c #704435",
"[ 	c #514851",
"} 	c #484735",
"| 	c #593C41",
"1 	c #353C37",
"2 	c #34605E",
"3 	c #5C3E59",
"4 	c #525048",
"5 	c #CEC7C0",
"6 	c #BAB5BA",
"7 	c #C0C0C0",
"8 	c #C4C7D1",
"9 	c #C2CCC2",
"0 	c #B6BBBB",
"a 	c #BDC5C5",
"b 	c #BCCAD0",
"c 	c #CABFC5",
"d 	c #B8CBC3",
"e 	c #BEC5C0",
"f 	c #ADB7C1",
"g 	c #C8BCC3",
"h 	c #C3C3D8",
"i 	c #C6CBC1",
"j 	c #C4BEBE",
"k 	c #BDC3C3",
"l 	c #B3BAB8",
"m 	c #C5D1C5",
"n 	c #B5C1B5",
"o 	c #C1B7C1",
"p 	c #BCBABC",
"q 	c #C6C6D3",
"r 	c #CBC5C5",
"s 	c #CBC5B8",
"t 	c #B5BCB5",
"u 	c #BFC1B0",
"v 	c #BEBDB4",
"w 	c #BABDBE",
"x 	c #C2CDD7",
"y 	c #C3B8BE",
"z 	c #C3C3CB",
"A 	c #B4B4B4",
"B 	c #B2B2B2",
"C 	c #B3B3B3",
"D 	c #AEAEAE",
"E 	c #ABABAB",
"F 	c #B0B0B0",
"G 	c #919292",
"H 	c #444743",
"I 	c #252424",
"J 	c #3F433C",
"K 	c #949190",
"L 	c #B0B0AF",
"M 	c #B1B1B1",
"N 	c #A5A5A5",
"O 	c #7A7A7A",
"P 	c #726F71",
"Q 	c #888688",
"R 	c #A09BA0",
"S 	c #4E4F4F",
"T 	c #0E0609",
"U 	c #2C0717",
"V 	c #401124",
"W 	c #583D40",
"X 	c #858186",
"Y 	c #9C9B9C",
"Z 	c #4E4B4B",
"` 	c #171415",
" .	c #1D0D19",
"..	c #342730",
"+.	c #574053",
"@.	c #85847E",
"#.	c #A9A9A9",
"$.	c #A7A7A7",
"%.	c #3B383A",
"&.	c #34071B",
"*.	c #5C0D2F",
"=.	c #5F0D31",
"-.	c #571433",
";.	c #56314D",
">.	c #817C79",
",.	c #9FA3A3",
"'.	c #9A999A",
").	c #282324",
"!.	c #2F0719",
"~.	c #520B2A",
"{.	c #550C2B",
"].	c #4A1024",
"^.	c #491B32",
"/.	c #897681",
"(.	c #AFAFAC",
"_.	c #ADADAD",
":.	c #6F726B",
"<.	c #412428",
"[.	c #5B1031",
"}.	c #5F0E31",
"|.	c #551437",
"1.	c #481F3B",
"2.	c #6E6672",
"3.	c #A7A5A5",
"4.	c #949492",
"5.	c #342D27",
"6.	c #480E27",
"7.	c #5F0D30",
"8.	c #600D31",
"9.	c #5E132F",
"0.	c #6B3D53",
"a.	c #848686",
"b.	c #ACAAAB",
"c.	c #A7A5AB",
"d.	c #5D5B5F",
"e.	c #491C2C",
"f.	c #5C0D30",
"g.	c #600E31",
"h.	c #5D0F36",
"i.	c #541F52",
"j.	c #5D494F",
"k.	c #7F797F",
"l.	c #A5A1A5",
"m.	c #A2A0A1",
"n.	c #7F8177",
"o.	c #654D4A",
"p.	c #650D39",
"q.	c #5F0D34",
"r.	c #56112C",
"s.	c #5C2B3F",
"t.	c #8D8780",
"u.	c #B3AFB0",
"v.	c #636161",
"w.	c #2A1518",
"x.	c #590C2E",
"y.	c #600E32",
"z.	c #5C0E31",
"A.	c #531B2A",
"B.	c #3D1D29",
"C.	c #47423B",
"D.	c #655F5F",
"E.	c #95978F",
"F.	c #ABA9A9",
"G.	c #AFAFAF",
"H.	c #919392",
"I.	c #726F6C",
"J.	c #5C5253",
"K.	c #4B122B",
"L.	c #5E0D31",
"M.	c #611430",
"N.	c #706150",
"O.	c #ADB6AD",
"P.	c #74736F",
"Q.	c #2D1417",
"R.	c #5D0D30",
"S.	c #591030",
"T.	c #470926",
"U.	c #3A1327",
"V.	c #3A2931",
"W.	c #676262",
"X.	c #666568",
"Y.	c #999495",
"Z.	c #A1A1A1",
"`.	c #868686",
" +	c #575957",
".+	c #212521",
"++	c #1A1215",
"@+	c #16080F",
"#+	c #480C24",
"$+	c #5D2944",
"%+	c #818174",
"&+	c #A3A7A1",
"*+	c #686763",
"=+	c #221112",
"-+	c #530C2B",
";+	c #590C32",
">+	c #3A1627",
",+	c #2C0B1D",
"'+	c #412431",
")+	c #2E2528",
"!+	c #1B141A",
"~+	c #160B0F",
"{+	c #280815",
"]+	c #450A24",
"^+	c #540C2C",
"/+	c #5D0D32",
"(+	c #53223C",
"_+	c #747569",
":+	c #AFA9B1",
"<+	c #6E6D6A",
"[+	c #240D17",
"}+	c #550C2C",
"|+	c #580C2D",
"1+	c #4F0B2D",
"2+	c #430C24",
"3+	c #3F0B22",
"4+	c #490D26",
"5+	c #5A0C2E",
"6+	c #5F1032",
"7+	c #6C3659",
"8+	c #A89CAA",
"9+	c #B6B6B6",
"0+	c #6B6C6E",
"a+	c #290C20",
"b+	c #5B0F31",
"c+	c #69154A",
"d+	c #9D889F",
"e+	c #B9B9B9",
"f+	c #908F8F",
"g+	c #422734",
"h+	c #4F0D30",
"i+	c #711B47",
"j+	c #B6A395",
"k+	c #B5B5B5",
"l+	c #A8A8A8",
"m+	c #41393B",
"n+	c #410B20",
"o+	c #620E33",
"p+	c #6B0F37",
"q+	c #952557",
"r+	c #DFB8C4",
"s+	c #A4A4A4",
"t+	c #393036",
"u+	c #35091D",
"v+	c #610E32",
"w+	c #6D1239",
"x+	c #8C436D",
"y+	c #E0C1B6",
"z+	c #DBD1D4",
"A+	c #3F3836",
"B+	c #370A1B",
"C+	c #630E33",
"D+	c #640E34",
"E+	c #620E32",
"F+	c #660E35",
"G+	c #731B3B",
"H+	c #7E2F3C",
"I+	c #992F6C",
"J+	c #CEACCC",
"K+	c #D7CDD8",
"L+	c #807E80",
"M+	c #161113",
"N+	c #39071E",
"O+	c #690E36",
"P+	c #701637",
"Q+	c #821B4C",
"R+	c #963E65",
"S+	c #823B50",
"T+	c #57122F",
"U+	c #72143A",
"V+	c #903262",
"W+	c #B8788F",
"X+	c #BFB3A7",
"Y+	c #CEBAD3",
"Z+	c #D1CED3",
"`+	c #BBBBBB",
" @	c #AAAAAA",
".@	c #525150",
"+@	c #15060D",
"@@	c #520B2B",
"#@	c #670F35",
"$@	c #70193A",
"%@	c #813B52",
"&@	c #B26276",
"*@	c #C5829A",
"=@	c #B0B2A1",
"-@	c #3F443D",
";@	c #360E20",
">@	c #5E0D30",
",@	c #6C0F37",
"'@	c #983B48",
")@	c #C2A1DB",
"!@	c #DFD9DC",
"~@	c #C6C6C6",
"{@	c #BCBCBC",
"]@	c #7F7F7F",
"^@	c #181617",
"/@	c #2B0816",
"(@	c #6E1338",
"_@	c #711A3C",
":@	c #7C1056",
"<@	c #9F4C82",
"[@	c #AD67A0",
"}@	c #D2BCE2",
"|@	c #D3D0D4",
"1@	c #CECCCD",
"2@	c #8C8A8B",
"3@	c #261420",
"4@	c #520C2B",
"5@	c #650E34",
"6@	c #A0334D",
"7@	c #D5BBAA",
"8@	c #D8CDDA",
"9@	c #BEBEBE",
"0@	c #52544F",
"a@	c #18080E",
"b@	c #490A26",
"c@	c #6D1139",
"d@	c #781C45",
"e@	c #843950",
"f@	c #7D2547",
"g@	c #905346",
"h@	c #BF7A9E",
"i@	c #C6A0A6",
"j@	c #E0C7D7",
"k@	c #CBCFCF",
"l@	c #C8C2C8",
"m@	c #BABABA",
"n@	c #8A8989",
"o@	c #23131E",
"p@	c #4E0B2A",
"q@	c #690F36",
"r@	c #B16263",
"s@	c #D6D0C2",
"t@	c #444042",
"u@	c #2B081A",
"v@	c #6C153C",
"w@	c #8B1158",
"x@	c #AF6498",
"y@	c #B370A0",
"z@	c #E6B2D4",
"A@	c #CAAEB7",
"B@	c #E3CCD1",
"C@	c #D6CCD6",
"D@	c #BFBFBF",
"E@	c #B8B8B8",
"F@	c #949494",
"G@	c #483440",
"H@	c #66103F",
"I@	c #791152",
"J@	c #D6ADB0",
"K@	c #D0C3C8",
"L@	c #3A383A",
"M@	c #320B20",
"N@	c #600D32",
"O@	c #751541",
"P@	c #944288",
"Q@	c #C7A1D2",
"R@	c #DDC4E1",
"S@	c #D4CFCA",
"T@	c #C0C0BD",
"U@	c #A8A7A9",
"V@	c #928690",
"W@	c #B88391",
"X@	c #CB9DAB",
"Y@	c #DDD4D8",
"Z@	c #C0BEC0",
"`@	c #605659",
" #	c #56182C",
".#	c #6D1549",
"+#	c #A66278",
"@#	c #DAE5C6",
"##	c #CECECA",
"$#	c #C1C1C1",
"%#	c #9B939C",
"&#	c #A69D9D",
"*#	c #BE9CBA",
"=#	c #DBDAD2",
"-#	c #C2C2BD",
";#	c #555555",
">#	c #4F4F4F",
",#	c #484848",
"'#	c #454545",
")#	c #464646",
"!#	c #515151",
"~#	c #585858",
"{#	c #4D4D4D",
"]#	c #414141",
"^#	c #424242",
"/#	c #474747",
"(#	c #575757",
"_#	c #4C4C4C",
":#	c #525252",
"<#	c #4E4E4E",
"[#	c #444444",
"}#	c #404040",
"|#	c #4B4B4B",
"1#	c #535353",
". + @ # $ % & * = - ; > , ' ) ! ~ { ] ^ / ( _ : < [ } | 1 2 3 4 ",
"5 6 7 8 9 0 a b c d e f g h i j k l m n o p q r s t u v w x y z ",
"A A A A A A A A A A A A A A A A A A A A A A A A A A A A A A A A ",
"A A A A A A A A A A A A A A A A A A A A A A A A A A A A A A A A ",
"A A A A A A A A A A A A A A A A A A A A A A A A A A A A A A A A ",
"A A A A A A A A A A A A A A A A A A A A A A A A A A A A A A A A ",
"A B C D E F C A A A A A A A A A A A A A A A A A A A A A A A A A ",
"C G H I J K L C A A A A A A A A A A A M N O P Q R C C A A A A A ",
"M S T U V W X F C C A A A A A A A A A Y Z `  ...+.@.#.C C A A A ",
"$.%.&.*.=.-.;.>.,.C A A A A A A A A A '.).!.~.{.].^./.(.C A A A ",
"_.:.<.[.=.}.|.1.2.3.F C C A A A A A A 4.5.6.7.8.7.9.0.a.b.C C A ",
"B c.d.e.f.g.=.h.i.j.k.l.D C C A A A A m.n.o.p.q.=.=.r.s.t.u.A A ",
"C M v.w.x.y.y.}.z.A.B.C.D.E.F.G.C C C E H.I.J.K.L.g.}.M.N.O.C C ",
"A B P.Q.x.y.y.y.=.R.S.T.U.V.W.X.Y.Z.`. +.+++@+#+R.y.g.g.$+%+&+B ",
"C M *+=+-+y.y.y.y.g.=.=.R.;+>+,+'+)+!+~+{+]+^+R.=.y.y.g./+(+_+:+",
"C B <+[+}+y.y.y.y.y.y.y.g.=.*.|+1+2+3+4+5+L.y.y.y.y.y.y.g.6+7+8+",
"9+B 0+a+b+=.y.y.y.y.y.y.y.y.y.y.y.y.y.y.y.y.y.y.y.y.y.y.y.g.c+d+",
"e+C f+g+h+=.y.y.y.y.y.y.y.y.y.y.y.y.y.y.y.y.y.y.y.y.y.y.y.g.i+j+",
"k+C l+m+n+=.y.y.y.y.y.y.y.y.y.y.y.y.y.y.y.y.y.y.y.y.y.y.o+p+q+r+",
"A A s+t+u+L.y.y.y.y.y.y.y.y.y.y.y.y.y.y.y.y.y.y.y.y.v+o+w+x+y+z+",
"A C E A+B+L.y.y.y.y.y.y.y.y.y.y.y.y.v+C+D+g.g.y.E+F+G+H+I+J+K+e+",
"A M L+M+N+=.y.y.y.y.y.y.y.y.y.v+O+P+Q+R+S+T+=.o+U+V+W+X+Y+Z+`+A ",
"A  @.@+@@@=.y.y.y.y.y.y.y.y.#@$@%@&@*@=@-@;@>@,@'@)@!@~@{@e+A A ",
"C ]@^@/@>@g.y.y.o+D+D+(@_@:@<@[@}@|@1@2@3@4@5@6@7@8@9@A A A A A ",
"E 0@a@b@=.y.5@c@d@e@f@g@h@i@j@k@l@m@k+n@o@p@q@r@s@m@A A A A A A ",
"#.t@u@5+o+v@w@x@y@z@A@B@C@D@E@k+A A A F@G@H@I@J@K@A A A A A A A ",
"s+L@M@N@O@P@Q@R@S@T@`+`+k+A A A A A A U@V@W@X@Y@Z@A A A A A A A ",
"D `@ #.#+#@###E@k+A A A A A A A A A A C E@$#{@{@k+A A A A A A A ",
"B %#&#*#=#-#A A A A A A A A A A A A A A A A A A A A A A A A A A ",
"C A `+{@e+A A A A A A A A A A A A A A A A A A A A A A A A A A A ",
"A A A A A A A A A A A A A A A A A A A A A A A A A A A A A A A A ",
";#>#,#'#)#'#!#~#{#]#^#/#'#{#'#(#)#)#)#^#_#:#<#)#[#}#^#^#)#|#:#1#"};
