/* XPM */
static char * show_8bit_xpm[] = {
"32 32 9 1",
" 	c None",
".	c #050507",
"+	c #3E3E3C",
"@	c #8B7B7B",
"#	c #959494",
"$	c #FEFEFC",
"%	c #711514",
"&	c #C1C1BF",
"*	c #914847",
"&#@#@@#@@#@@#@@#@@#@@#@@#@@#@@#&",
"&*%%%%%%%%%%%%%%%%%%%%%%%%%%%%%&",
"&*%**************************%%&",
"&*%&&&&&&&&&&&&&&&&&&&&&&&&&&*%&",
"&*%&&&&&#@@@#&&&&&@@@@&&&&&&&*%&",
"&*%&#&&*%...%*&&#*....%@#&&&&*%&",
"&*%&&#++@&$&#+%@.+&$$&*+*&&&&*%&",
"&*%&&@.&$$$$$&..+$$$$$$@.&#&&*%&",
"&*%&&.@$$$$$$$@.&$$$$$$&+*&&&*%&",
"&*%&&.#$$$$$$$#.$$$$$$$$+%@&&*%&",
"&*%&&.#$$$$$$$#.$$$$$$$$++@&#*%&",
"&*%&&.#$&#$$$$#.$$@&$$$$++@&&*%&",
"&*%&&.#&..#$$$#.$@..$$$$+.@&&*%&",
"&*%&&++&+.&$$$+.##.+&$$#+*@&&*%&",
"&*%&&@.&&&$$&&..+&&$$$&@.@@&&*%&",
"&*%&&&@.+@##+.+@+.@@##..@@@&&*%&",
"&*%&&&&#+...+@@@&@....+@@@#&&*%&",
"&*%&&&&&&@@@@@@&&&#@@#@@@&&&&*%&",
"&*%&#&&&&&####&&&&&&####&&&#&*%&",
"&*%&&&&#&&&&&&&&&&&&&&&&&&&&&*%&",
"&*%@@@#@#@@@@@@@@@@@@@@@@@@@@*%&",
"&*%%%%%%%%%%%%%%%%%%%%%%%%%%%%%&",
"&******************************&",
"&&&&&&&&&&&&&&&&&&&&&&&&&&&&&&&&",
"&&&&&&&&&&@@&&&&&&&&&&&&&&&&&&&&",
"&&&&&@%+%&+%&&&&&&&#&&&&&#&&#&&&",
"&&#&&++#&&+@*+&&*+*&%##@&%#&&&&&",
"&&&&&#.+&&.++.&+*&.@+@*+&.#&&&&&",
"&&&&#&#.+&.@@+#.&&.#@++.@@&&#&&&",
"#&&&#@&+@@.&++@.#++&@.#.+&&&&&&&",
"&&&&#++@&@@&@+&++@&&#@&+&&&&&#&&",
"&&&&&&&#&&&&&&&&&&&&&&&&&&&&&&&&"};
