/* XPM */
static char * show_8bit_xpm[] = {
"32 32 9 1",
" 	c None",
".	c #070708",
"+	c #9C898A",
"@	c #8C4948",
"#	c #F4F4F3",
"$	c #87100E",
"%	c #787777",
"&	c #383837",
"*	c #BDBDBB",
"*++++++++++++++++++++++++++++++*",
"*@$$$$$$$$$$$$$$$$$$$$$$$$$$$$$*",
"*@$@@@@@@@@@@@@@@@@@@@@@@@@@@$$*",
"*@$**************************@$*",
"*@$*****++%++*****+%+%*******@$*",
"*@$****&&....@**+&....&%*****@$*",
"*@$**+&&+*##+&&+.&*##*@.%****@$*",
"*@$**+.######*..&######%.****@$*",
"*@$**.%#######%.########&&***@$*",
"*@$**.+#######+.########&&+**@$*",
"*@$**.*#######*.########&&%**@$*",
"*@$**.+#*+####+.##+*####&&%**@$*",
"*@$**.+*..+###+.#%..####&&%**@$*",
"*@$**&%*&.*###&.*+.&###*.@%**@$*",
"*@$**%.**####*..&**####%.%%**@$*",
"*@$***%.&%++&.&+&.%++%..%%+**@$*",
"*@$****+&...&%%+*+....%%%%***@$*",
"*@$******%+%%%%****%%%%%%****@$*",
"*@$*******+++*******++++*****@$*",
"*@$**************************@$*",
"*@$++++++++++++++++++++++++++$$*",
"*@$$$$$$$$$$$$$$$$$$$$$$$$$$$$$*",
"*%@@@@@@@@@@@@@@@@@@@@@@@@@@@@@*",
"********************************",
"**********%%********************",
"*****+&&&*&&********************",
"*****&&***&%@&**@&%*&++%*&+*****",
"*****+.&**.&&.*&%+.%&%%&*.+*****",
"******+.@*.+%&+.**.+%&&.%%******",
"****++*&%%.*&%%.*&&*+.+.@*******",
"****+&&%*%%*%&*&&%**+%*%********",
"********************************"};
