/* XPM */
static char * show_xpm[] = {
"32 32 146 2",
"  	c None",
". 	c #BCBCBC s backgroundToolBarColor",
"+ 	c #B09595",
"@ 	c #AA8181",
"# 	c #984747",
"$ 	c #870D0D",
"% 	c #984848",
"& 	c #8D2020",
"* 	c #9E9E9E",
"= 	c #868686",
"- 	c #898989",
"; 	c #B2B2B2",
"> 	c #515151",
", 	c #202020",
"' 	c #000000",
") 	c #989898",
"! 	c #4A4A4A",
"~ 	c #050505",
"{ 	c #3C3C3C",
"] 	c #7B7B7B",
"^ 	c #870F0F",
"/ 	c #ADADAD",
"( 	c #3D3D3D",
"_ 	c #343434",
": 	c #8F8F8F",
"< 	c #D9D9D9",
"[ 	c #ECECEC",
"} 	c #8D8D8D",
"| 	c #191919",
"1 	c #363636",
"2 	c #CACACA",
"3 	c #E1E1E1",
"4 	c #E7E7E7",
"5 	c #D4D4D4",
"6 	c #545454",
"7 	c #222222",
"8 	c #707070",
"9 	c #891313",
"0 	c #818181",
"a 	c #D2D2D2",
"b 	c #F7F7F7",
"c 	c #FFFFFF",
"d 	c #F8F8F8",
"e 	c #D3D3D3",
"f 	c #444444",
"g 	c #FDFDFD",
"h 	c #EFEFEF",
"i 	c #0B0B0B",
"j 	c #994A4A",
"k 	c #8A1818",
"l 	c #0E0E0E",
"m 	c #7A7A7A",
"n 	c #D5D5D5",
"o 	c #FCFCFC",
"p 	c #E2E2E2",
"q 	c #323232",
"r 	c #B0B0B0",
"s 	c #9A4C4C",
"t 	c #8B1C1C",
"u 	c #959595",
"v 	c #F3F3F3",
"w 	c #F6F6F6",
"x 	c #3B3B3B",
"y 	c #2F2F2F",
"z 	c #8E8E8E",
"A 	c #9A4E4E",
"B 	c #9F9F9F",
"C 	c #3F3F3F",
"D 	c #8C1E1E",
"E 	c #F9F9F9",
"F 	c #AFAFAF",
"G 	c #949494",
"H 	c #FBFBFB",
"I 	c #7F7F7F",
"J 	c #994B4B",
"K 	c #C6C6C6",
"L 	c #111111",
"M 	c #070707",
"N 	c #939393",
"O 	c #EBEBEB",
"P 	c #787878",
"Q 	c #020202",
"R 	c #161616",
"S 	c #E3E3E3",
"T 	c #F1F1F1",
"U 	c #383838",
"V 	c #8B1B1B",
"W 	c #494949",
"X 	c #C4C4C4",
"Y 	c #2C2C2C",
"Z 	c #131313",
"` 	c #9B9B9B",
" .	c #999999",
"..	c #060606",
"+.	c #393939",
"@.	c #EAEAEA",
"#.	c #B9B9B9",
"$.	c #212121",
"%.	c #555555",
"&.	c #984949",
"*.	c #891414",
"=.	c #878787",
"-.	c #080808",
";.	c #B8B8B8",
">.	c #C3C3C3",
",.	c #CECECE",
"'.	c #E6E6E6",
").	c #BABABA",
"!.	c #0D0D0D",
"~.	c #E0E0E0",
"{.	c #FAFAFA",
"].	c #6E6E6E",
"^.	c #881010",
"/.	c #464646",
"(.	c #919191",
"_.	c #030303",
":.	c #525252",
"<.	c #808080",
"[.	c #757575",
"}.	c #888888",
"|.	c #7D7D7D",
"1.	c #171717",
"2.	c #6D6D6D",
"3.	c #909090",
"4.	c #454545",
"5.	c #090909",
"6.	c #616161",
"7.	c #141414",
"8.	c #4F4F4F",
"9.	c #777777",
"0.	c #AEAEAE",
"a.	c #870E0E",
"b.	c #A2A2A2",
"c.	c #7C7C7C",
"d.	c #A1A1A1",
"e.	c #AA8282",
"f.	c #AA8383",
"g.	c #AB8484",
"h.	c #923434",
"i.	c #A46E6E",
"j.	c #929292",
"k.	c #2A2A2A",
"l.	c #3E3E3E",
"m.	c #686868",
"n.	c #A7A7A7",
"o.	c #151515",
". + @ @ @ @ @ @ @ @ @ @ @ @ @ @ @ @ @ @ @ @ @ @ @ @ @ @ @ @ @ . ",
". # $ $ $ $ $ $ $ $ $ $ $ $ $ $ $ $ $ $ $ $ $ $ $ $ $ $ $ $ $ . ",
". # $ # # % % % % % % % # # # # % % % % # # # # # # # # # & $ . ",
". # $ . . . . . . . . . . . . . . . . . . . . . . . . . . # $ . ",
". # $ . . . . . * = = = * . . . . . - = = = ; . . . . . . # $ . ",
". % $ . . . . > , ' ' ' , > . . ) ! ~ ' ' ' { ] . . . . . # $ . ",
". % ^ . . / ( _ : < [ < : _ ( } | 1 2 3 4 5 6 7 8 . . . . # $ . ",
". % 9 . . 0 ' a b c c c d e ' ' f 4 g g g g h ] i . . . . # $ . ",
". j k . . l m b g c c c c d m ' n o g g g g g p q ! r . . # $ . ",
". s t . . ' u o g c c c c g u ' v g g g g g g w x y z . . # $ . ",
". A t . . ' B g g c c c c c B ' c g g g g g g g C y m . . # $ . ",
". A D . . ' B E F G w c c c B ' c v = . H g g g C y I . . # $ . ",
". J D . . ' } K L M N c c g } ' O P Q R S g g T U y I . . # $ . ",
". j V . . { W X Y Z ; c c O W ' `  ...+.@.g H #.$.%.I . . # $ . ",
". &.*.. . =.-.;.>.,.H H '.).~ !.( >.>.~.o {.a ].L I ] . . # $ . ",
". % ^.. . . P ~ /.0 (.0 /._.:.<.U ' [.}.} |.1.1.2.I z . . # $ . ",
". % ^ . . . . 3.4.5.5.5.y 6.|.<./ } 7.5.5.5.8.2.I 9.0.. . # $ . ",
". % a.. . . . . . P <.<.<.9.=.. . . b.P c.I I P m . . . . # $ . ",
". # $ . . . . . . ; (.(.(.F . . . . . . u (.(.d.. . . . . # $ . ",
". # $ . . . . . . . . . . . . . . . . . . . . . . . . . . # $ . ",
". # $ @ e.e.e.f.g.g.f.f.f.e.e.@ g.g.f.f.f.e.e.@ @ @ @ @ @ h.$ . ",
". # $ $ $ $ $ $ $ $ $ $ $ $ $ $ $ $ $ $ $ $ $ $ $ $ $ $ $ $ $ . ",
". i.# # # # # # # # # # # # # # # # # # # # # # # # # # # # # . ",
". . . . . . . . . . . . . . . . . . . . . . . . . . . . . . . . ",
". . . . . . . . . . |.|.. . . . . . . . . . . . . . . . . . . . ",
". . . . . j.k.l.k.. l.l.. . . . . . . . . . . . . . . . . . . . ",
". . . . . l.k.. . . l.m.m.6 . . m.l.m.. l.j.n.|.. l.j.. . . . . ",
". . . . . j.' l.. . o.l.l.' . l.m.n.' |.l.m.m.l.. ' n.. . . . . ",
". . . . . . n.o.6 . ' |.|.l.j.' . . ' j.|.l.l.' m.|.. . . . . . ",
". . . . j.|.. k.m.|.o.. l.6 |.' n.l.l.. |.' n.' 6 . . . . . . . ",
". . . . n.l.l.m.. |.m.. m.l.. 6 l.m.. . j.|.. 6 . . . . . . . . ",
". . . . . . . . . . . . . . . . . . . . . . . . . . . . . . . . "};
