/* XPM */
static char * undo_xpm[] = {
"32 32 24 1",
" 	c None",
".	c #BCBCBC s backgroundToolBarColor",
"+	c #B09696",
"@	c #AA8282",
"#	c #994747",
"$	c #870D0D",
"%	c #8D2121",
"&	c #902D2D",
"*	c #9E5959",
"=	c #B09595",
"-	c #A06262",
";	c #8A1616",
">	c #AC8888",
",	c #933434",
"'	c #A56E6E",
")	c #939393",
"!	c #7D7D7D",
"~	c #3F3F3F",
"{	c #000000",
"]	c #696969",
"^	c #151515",
"/	c #2A2A2A",
"(	c #A7A7A7",
"_	c #545454",
"................................",
".....+@@@@@@@@@@@@@@@@@@@@@.....",
".....#$$$$$$$$$$$$$$$$$$$$$.....",
".....#$##################%$.....",
".....#$..................#$.....",
".....#$..................#$.....",
".....#$..............$...#$.....",
".....#$............$$$...#$.....",
".....#$.........$$$$$$...#$.....",
".....#$.......$$$$$$$$...#$.....",
".....#$....$$$$$$$$$$$...#$.....",
".....#$..$$$$$$$$$$$$$...#$.....",
".....#$..$$$$$$$$$$$$$...#$.....",
".....#$..&$$$$$$$$$$$$...#$.....",
".....#$.....$$$$$$$$$$...#$.....",
".....#$.......*$$$$$$$...#$.....",
".....#$.........=&$$$$...#$.....",
".....#$............-;$...#$.....",
".....#$..............>...#$.....",
".....#$..................#$.....",
".....#$..................#$.....",
".....#$@@@@@@@@@@@@@@@@@@,$.....",
".....#$$$$$$$$$$$$$$$$$$$$$.....",
".....'#####################.....",
"....................)!..........",
"......~{].^/........]^..........",
"......!^..~(~])~(.)~/~.(_~).....",
"......~~..{.~~]{!)/.~](^(]{.....",
"......{!.(~./~({.~!){)_~.!^.....",
"......^].]].{(!^.{_~{.~/(^!.....",
"......)~~].(~.!~)__)~)(~~)......",
"................................"};
