/* XPM */
static char * undo_8bit_xpm[] = {
"32 32 9 1",
" 	c None",
".	c #0B0B0B",
"+	c #767373",
"@	c #424240",
"#	c #BDBDBB",
"$	c #860F0D",
"%	c #9A4644",
"&	c #A68587",
"*	c #2A2A2C",
"################################",
"#####&&&&&&&&&&&&&&&&&&&&&&#####",
"#####%$$$$$$$$$$$$$$$$$$$$$#####",
"#####%$%%%%%%%%%%%%%%%%%%$$#####",
"#####%$##################%$#####",
"#####%$##################%$#####",
"#####%$########&######&##%$#####",
"#####%$########$#####&&##%$#####",
"#####%$##%$##&%$####&$&##%$#####",
"#####%$##%$##$$$###&$$&##%$#####",
"#####%$##%$&$$$$##&$$$&##%$#####",
"#####%$##%$$$$$$#&$$$$&##%$#####",
"#####%$##%$$$$$$&$$$$$&##%$#####",
"#####%$##%$$$$$$#%$$$$&##%$#####",
"#####%$##%$&$$$$##%$$$&##%$#####",
"#####%$##%$#&$$$###%$$&##%$#####",
"#####%$##%$##&$$####%$&##%$#####",
"#####%$##&&###&$#####%&##%$#####",
"#####%$########&######&##%$#####",
"#####%$##################%$#####",
"#####%$##################%$#####",
"#####%$&&&&&&&&&&&&&&&&&&$$#####",
"#####%$$$$$$$$$$$$$$$$$$$$$#####",
"#####+%%%%%%%%%%%%%%%%%%%%%#####",
"####################&+##########",
"######@.+#.*########+.##########",
"######+.##@&@+&*##&@*@#&@@&#####",
"######@*##.#@*+.+&*#*+#*&+.#####",
"######.+##*#*@&.#@+&.&@@#+.#####",
"######.+#++#.#+.#.@@.#@*#.+#####",
"######&*@@#&@#+@&@+&@&#*@&######",
"################################"};
