/* XPM */
static char * undo_8bit_xpm[] = {
"32 32 9 1",
" 	c None",
".	c #121212",
"+	c #746A6B",
"@	c #424240",
"#	c #9D9B9B",
"$	c #860F0D",
"%	c #9A4644",
"&	c #A28183",
"*	c #BEBEBC",
"********************************",
"*****#&&&&&&&&&&&&&&&&&&&&&*****",
"*****%$$$$$$$$$$$$$$$$$$$$$*****",
"*****%$%%%%%%%%%%%%%%%%%%$$*****",
"*****%$******************%$*****",
"*****%$******************%$*****",
"*****%$**************$***%$*****",
"*#***%$************$$$***%$*****",
"*****%$*********$$$$$$***%$*****",
"*****%$****#**$$$$$$$$***%$*****",
"*****%$*#**$$$$$$$$$$$**#%$*****",
"***#*%$**$$$$$$$$$$$$$***%$#****",
"*****%$**$$$$$$$$$$$$$***%$*****",
"*****%$**$$$$$$$$$$$$$***%$*****",
"*****%$*****$$$$$$$$$$***%$*****",
"*****%$*******%$$$$$$$***%$*****",
"*****%$*********&$$$$$***%$*****",
"**#**%$************%$$***%$*****",
"*****%$**************&***%$*****",
"*****%$#*****************%$*****",
"*****%$***************#**%$*****",
"*****%$&&&&&&&&&&&&&&&&&&$$*****",
"*****%$$$$$$$$$$$$$$$$$$$$$*****",
"**#**+%%%%%%%%%%%%%%%%%%%%%*****",
"********************&+**********",
"******@.+*..********+.*****#****",
"******+.**@#@+&@#*#@.@*#@@#*****",
"******@@**.*@@+.+#.*@+#.#+.*****",
"******.+*#@*.@#.*@&#.#@@*+.*****",
"***#**.+*++*.#+.*.@@.*@@#.+*****",
"******&@@+*#@*+@#@@#@&#@@#******",
"********************************"};
