/* XPM */
static char * up_xpm[] = {
"32 32 398 2",
"  	c None",
". 	c #525048",
"+ 	c #C3C3CB",
"@ 	c #B4B4B4",
"# 	c #B3B3B3",
"$ 	c #B2B2B2",
"% 	c #AFA9B1",
"& 	c #A89CAA",
"* 	c #9D889F",
"= 	c #B6A395",
"- 	c #DFB8C4",
"; 	c #DBD1D4",
"> 	c #B9B9B9",
", 	c #535353",
"' 	c #5C3E59",
") 	c #C3B8BE",
"! 	c #A3A7A1",
"~ 	c #747569",
"{ 	c #6C3659",
"] 	c #69154A",
"^ 	c #711B47",
"/ 	c #952557",
"( 	c #E0C1B6",
"_ 	c #D7CDD8",
": 	c #BBBBBB",
"< 	c #525252",
"[ 	c #34605E",
"} 	c #C2CDD7",
"| 	c #B3AFB0",
"1 	c #ADB6AD",
"2 	c #818174",
"3 	c #53223C",
"4 	c #5F1032",
"5 	c #600E31",
"6 	c #6B0F37",
"7 	c #8C436D",
"8 	c #CEACCC",
"9 	c #D1CED3",
"0 	c #4B4B4B",
"a 	c #353C37",
"b 	c #BABDBE",
"c 	c #ACAAAB",
"d 	c #8D8780",
"e 	c #706150",
"f 	c #5D2944",
"g 	c #5D0D32",
"h 	c #600E32",
"i 	c #620E33",
"j 	c #6D1239",
"k 	c #992F6C",
"l 	c #CEBAD3",
"m 	c #BCBCBC",
"n 	c #464646",
"o 	c #593C41",
"p 	c #BEBDB4",
"q 	c #AFAFAC",
"r 	c #848686",
"s 	c #5C2B3F",
"t 	c #611430",
"u 	c #7E2F3C",
"v 	c #BFB3A7",
"w 	c #C6C6C6",
"x 	c #424242",
"y 	c #484735",
"z 	c #BFC1B0",
"A 	c #A9A9A9",
"B 	c #897681",
"C 	c #6B3D53",
"D 	c #56112C",
"E 	c #5F0E31",
"F 	c #610E32",
"G 	c #731B3B",
"H 	c #B8788F",
"I 	c #DFD9DC",
"J 	c #BEBEBE",
"K 	c #514851",
"L 	c #B5BCB5",
"M 	c #85847E",
"N 	c #491B32",
"O 	c #5E132F",
"P 	c #5F0D31",
"Q 	c #660E35",
"R 	c #903262",
"S 	c #C2A1DB",
"T 	c #D8CDDA",
"U 	c #BABABA",
"V 	c #404040",
"W 	c #704435",
"X 	c #CBC5B8",
"Y 	c #A09BA0",
"Z 	c #574053",
"` 	c #4A1024",
" .	c #5F0D30",
"..	c #5E0D31",
"+.	c #5D0D30",
"@.	c #620E32",
"#.	c #72143A",
"$.	c #983B48",
"%.	c #D5BBAA",
"&.	c #D6D0C2",
"*.	c #D0C3C8",
"=.	c #C0BEC0",
"-.	c #B5B5B5",
";.	c #444444",
">.	c #545656",
",.	c #CBC5C5",
"'.	c #888688",
").	c #342730",
"!.	c #550C2B",
"~.	c #600D31",
"{.	c #5F0D34",
"].	c #4B122B",
"^.	c #480C24",
"/.	c #6C0F37",
"(.	c #A0334D",
"_.	c #B16263",
":.	c #D6ADB0",
"<.	c #DDD4D8",
"[.	c #3D5044",
"}.	c #C6C6D3",
"|.	c #726F71",
"1.	c #1D0D19",
"2.	c #520B2A",
"3.	c #650D39",
"4.	c #5C5253",
"5.	c #16080F",
"6.	c #540C2C",
"7.	c #5E0D30",
"8.	c #650E34",
"9.	c #690F36",
"0.	c #791152",
"a.	c #CB9DAB",
"b.	c #4E4E4E",
"c.	c #494A39",
"d.	c #BCBABC",
"e.	c #7A7A7A",
"f.	c #171415",
"g.	c #2F0719",
"h.	c #480E27",
"i.	c #654D4A",
"j.	c #726F6C",
"k.	c #1A1215",
"l.	c #450A24",
"m.	c #57122F",
"n.	c #360E20",
"o.	c #520C2B",
"p.	c #4E0B2A",
"q.	c #66103F",
"r.	c #B88391",
"s.	c #C1C1C1",
"t.	c #4B4D5B",
"u.	c #C1B7C1",
"v.	c #A5A5A5",
"w.	c #4E4B4B",
"x.	c #282324",
"y.	c #342D27",
"z.	c #7F8177",
"A.	c #919392",
"B.	c #212521",
"C.	c #280815",
"D.	c #5A0C2E",
"E.	c #640E34",
"F.	c #823B50",
"G.	c #3F443D",
"H.	c #261420",
"I.	c #23131E",
"J.	c #483440",
"K.	c #928690",
"L.	c #B8B8B8",
"M.	c #4C4C4C",
"N.	c #574A50",
"O.	c #B5C1B5",
"P.	c #B1B1B1",
"Q.	c #9C9B9C",
"R.	c #9A999A",
"S.	c #949492",
"T.	c #A2A0A1",
"U.	c #ABABAB",
"V.	c #575957",
"W.	c #160B0F",
"X.	c #490D26",
"Y.	c #630E33",
"Z.	c #963E65",
"`.	c #B0B2A1",
" +	c #8C8A8B",
".+	c #8A8989",
"++	c #949494",
"@+	c #A8A7A9",
"#+	c #4C643E",
"$+	c #C5D1C5",
"%+	c #868686",
"&+	c #1B141A",
"*+	c #3F0B22",
"=+	c #821B4C",
"-+	c #C5829A",
";+	c #CECCCD",
">+	c #303C54",
",+	c #B3BAB8",
"'+	c #A1A1A1",
")+	c #2E2528",
"!+	c #430C24",
"~+	c #701637",
"{+	c #B26276",
"]+	c #D3D0D4",
"^+	c #5C5E64",
"/+	c #BDC3C3",
"(+	c #999495",
"_+	c #412431",
":+	c #4F0B2D",
"<+	c #690E36",
"[+	c #813B52",
"}+	c #D2BCE2",
"|+	c #C8C2C8",
"1+	c #486471",
"2+	c #C4BEBE",
"3+	c #AFAFAF",
"4+	c #666568",
"5+	c #2C0B1D",
"6+	c #580C2D",
"7+	c #70193A",
"8+	c #AD67A0",
"9+	c #CBCFCF",
"0+	c #575757",
"a+	c #584B4A",
"b+	c #C6CBC1",
"c+	c #ABA9A9",
"d+	c #676262",
"e+	c #3A1627",
"f+	c #5C0D2F",
"g+	c #670F35",
"h+	c #9F4C82",
"i+	c #E0C7D7",
"j+	c #454545",
"k+	c #5A4660",
"l+	c #C3C3D8",
"m+	c #95978F",
"n+	c #3A2931",
"o+	c #590C32",
"p+	c #7C1056",
"q+	c #C6A0A6",
"r+	c #BFBFBF",
"s+	c #4D4D4D",
"t+	c #48363E",
"u+	c #C8BCC3",
"v+	c #AEAEAE",
"w+	c #655F5F",
"x+	c #3A1327",
"y+	c #711A3C",
"z+	c #BF7A9E",
"A+	c #D6CCD6",
"B+	c #304D55",
"C+	c #ADB7C1",
"D+	c #A5A1A5",
"E+	c #47423B",
"F+	c #470926",
"G+	c #6E1338",
"H+	c #905346",
"I+	c #E3CCD1",
"J+	c #474747",
"K+	c #584B5B",
"L+	c #BEC5C0",
"M+	c #B0B0B0",
"N+	c #7F797F",
"O+	c #3D1D29",
"P+	c #591030",
"Q+	c #7D2547",
"R+	c #CAAEB7",
"S+	c #30494F",
"T+	c #B8CBC3",
"U+	c #A7A5A5",
"V+	c #5D494F",
"W+	c #531B2A",
"X+	c #843950",
"Y+	c #E6B2D4",
"Z+	c #C0C0BD",
"`+	c #414141",
" @	c #634E4F",
".@	c #CABFC5",
"+@	c #9FA3A3",
"@@	c #6E6672",
"#@	c #541F52",
"$@	c #5C0E31",
"%@	c #781C45",
"&@	c #B370A0",
"*@	c #D4CFCA",
"=@	c #406360",
"-@	c #BCCAD0",
";@	c #817C79",
">@	c #481F3B",
",@	c #5D0F36",
"'@	c #6D1139",
")@	c #AF6498",
"!@	c #DDC4E1",
"~@	c #585858",
"{@	c #485552",
"]@	c #BDC5C5",
"^@	c #B0B0AF",
"/@	c #858186",
"(@	c #56314D",
"_@	c #551437",
":@	c #8B1158",
"<@	c #C7A1D2",
"[@	c #CECECA",
"}@	c #515151",
"|@	c #344D53",
"1@	c #B6BBBB",
"2@	c #949190",
"3@	c #583D40",
"4@	c #571433",
"5@	c #6C153C",
"6@	c #944288",
"7@	c #DAE5C6",
"8@	c #C2C2BD",
"9@	c #3F5C50",
"0@	c #C2CCC2",
"a@	c #3F433C",
"b@	c #401124",
"c@	c #5C0D30",
"d@	c #590C2E",
"e@	c #530C2B",
"f@	c #550C2C",
"g@	c #5B0F31",
"h@	c #4F0D30",
"i@	c #410B20",
"j@	c #35091D",
"k@	c #370A1B",
"l@	c #39071E",
"m@	c #520B2B",
"n@	c #751541",
"o@	c #A66278",
"p@	c #DBDAD2",
"q@	c #33415A",
"r@	c #C4C7D1",
"s@	c #252424",
"t@	c #2C0717",
"u@	c #5B1031",
"v@	c #491C2C",
"w@	c #2A1518",
"x@	c #2D1417",
"y@	c #221112",
"z@	c #240D17",
"A@	c #290C20",
"B@	c #422734",
"C@	c #41393B",
"D@	c #393036",
"E@	c #3F3836",
"F@	c #161113",
"G@	c #15060D",
"H@	c #2B0816",
"I@	c #490A26",
"J@	c #600D32",
"K@	c #6D1549",
"L@	c #BE9CBA",
"M@	c #3D3B46",
"N@	c #C0C0C0",
"O@	c #444743",
"P@	c #0E0609",
"Q@	c #34071B",
"R@	c #412428",
"S@	c #5D5B5F",
"T@	c #636161",
"U@	c #74736F",
"V@	c #686763",
"W@	c #6E6D6A",
"X@	c #6B6C6E",
"Y@	c #908F8F",
"Z@	c #A8A8A8",
"`@	c #A4A4A4",
" #	c #807E80",
".#	c #525150",
"+#	c #181617",
"@#	c #18080E",
"##	c #2B081A",
"$#	c #320B20",
"%#	c #56182C",
"&#	c #A69D9D",
"*#	c #484848",
"=#	c #4D444D",
"-#	c #BAB5BA",
";#	c #919292",
">#	c #4E4F4F",
",#	c #3B383A",
"'#	c #6F726B",
")#	c #A7A5AB",
"!#	c #AAAAAA",
"~#	c #7F7F7F",
"{#	c #52544F",
"]#	c #444042",
"^#	c #3A383A",
"/#	c #605659",
"(#	c #9B939C",
"_#	c #4F4F4F",
":#	c #57625A",
"<#	c #CEC7C0",
"[#	c #A7A7A7",
"}#	c #ADADAD",
"|#	c #B6B6B6",
"1#	c #555555",
". + @ @ @ @ @ @ @ @ @ @ # $ % & * = - ; > @ @ @ @ @ @ @ @ @ @ , ",
"' ) @ @ @ @ @ @ @ @ # @ # ! ~ { ] ^ / ( _ : @ @ @ @ @ @ @ @ @ < ",
"[ } @ @ @ @ @ @ @ @ # | 1 2 3 4 5 5 6 7 8 9 > @ @ @ @ @ @ @ @ 0 ",
"a b @ @ @ @ @ @ # # c d e f g 5 h h i j k l m @ @ @ @ @ @ @ @ n ",
"o p @ @ @ @ @ @ # q r s t 5 5 h h h h i u v w @ @ @ @ @ @ @ @ x ",
"y z @ @ @ @ @ # A B C D E 5 h h h h h F G H I J @ @ @ @ @ @ @ x ",
"K L @ @ @ @ @ # M N O P 5 h h h h h h h Q R S T U @ @ @ @ @ @ V ",
"W X @ @ @ @ @ Y Z `  .P ..+.P h h h h h @.#.$.%.&.*.=.-.@ @ @ ;.",
">.,.@ @ @ @ @ '.).!.~.{.].^.+.h h h h h h i /.(._.:.<.m @ @ @ n ",
"[.}.@ @ @ @ @ |.1.2. .3.4.5.6.h h h h h 5 P 7.8.9.0.a.m @ @ @ b.",
"c.d.@ @ @ @ @ e.f.g.h.i.j.k.l...h h h h 5 m.n.o.p.q.r.s.@ @ @ < ",
"t.u.@ @ @ @ @ v.w.x.y.z.A.B.C.D.h h h h E.F.G.H.I.J.K.L.@ @ @ M.",
"N.O.@ @ @ @ @ P.Q.R.S.T.U.V.W.X.h h h h Y.Z.`. +.+++@+# @ @ @ x ",
"#+$+@ @ @ @ @ @ @ @ @ @ # %+&+*+h h h h F =+-+;+-.@ @ @ @ @ @ n ",
">+,+@ @ @ @ @ @ @ @ @ @ # '+)+!+h h h h h ~+{+]+U @ @ @ @ @ @ n ",
"^+/+@ @ @ @ @ @ @ @ @ @ # (+_+:+h h h h h <+[+}+|+@ @ @ @ @ @ n ",
"1+2+@ @ @ @ @ @ @ @ @ @ 3+4+5+6+h h h h h F 7+8+9+-.@ @ @ @ @ 0+",
"a+b+@ @ @ @ @ @ @ @ @ # c+d+e+f+h h h h h h g+h+i+L.@ @ @ @ @ j+",
"k+l+@ @ @ @ @ @ @ @ @ # m+n+o+P h h h h h h h p+q+r+@ @ @ @ @ s+",
"t+u+@ @ @ @ @ @ @ @ # v+w+x++.5 h h h h h h h y+z+A+-.@ @ @ @ j+",
"B+C+@ @ @ @ @ @ @ @ # D+E+F+P h h h h h h h h G+H+I+: @ @ @ @ J+",
"K+L+@ @ @ @ @ @ @ @ M+N+O+P+P h h h h h h h h E.Q+R+: @ @ @ @ x ",
"S+T+@ @ @ @ @ @ # # U+V+W++.5 h h h h h h h h E.X+Y+Z+@ @ @ @ `+",
" @.@@ @ @ @ @ @ # +@@@#@$@P h h h h h h h h h i %@&@*@-.@ @ @ s+",
"=@-@@ @ @ @ @ # M+;@>@,@E h h h h h h h h h h h '@)@!@L.@ @ @ ~@",
"{@]@@ @ @ @ # ^@/@(@_@P h h h h h h h h h h h h 8.:@<@[@@ @ @ }@",
"|@1@@ @ @ @ M+2@3@4@E 5 h h h h P P P ....P P 5 h 5@6@7@8@@ @ j+",
"9@0@@ @ @ @ U.a@b@P P c@d@d@e@f@g@h@i@j@k@l@m@7.P i n@o@p@> @ n ",
"q@r@@ @ @ @ v+s@t@f+u@v@w@x@y@z@A@B@C@D@E@F@G@H@I@D.J@K@L@m @ j+",
"M@N@@ @ @ @ # O@P@Q@R@S@T@U@V@W@X@Y@Z@`@U. #.#+#@###$#%#&#: @ *#",
"=#-#@ @ @ @ $ ;#>#,#'#)#P.$ P.$ $ # # @ # P.!#~#{#]#^#/#(#@ @ _#",
":#<#@ @ @ @ @ # P.[#}#$ # @ # # |#> -.@ @ @ @ # U.A `@v+$ # @ 1#"};
