/* XPM */
static char * use_8bit_xpm[] = {
"32 32 9 1",
" 	c None",
".	c #0A0A0B",
"+	c #78696B",
"@	c #424240",
"#	c #9F9A9A",
"$	c #860E0C",
"%	c #9A4644",
"&	c #A48283",
"*	c #BEBEBC",
"********************************",
"*****%%%%%%%%%%%%%%%%%%%%%+*****",
"*****$$$$$$$$$$$$$$$$$$$$$%*****",
"*****$%&&&&&&&&&&&&&&&&&&$%*****",
"*****$%******************$%*****",
"*****$%******************$%*****",
"*****$%**&$$$$$$$$$$$$&**$%*****",
"*#***$%***&$$$$$$$$$$$***$%*****",
"*****$%****$$$$$$$$$$%***$%*****",
"*****$%****%$$$$$$$$$****$%#****",
"*****$%*****$$$$$$$$%****$%*****",
"**#**$%*****$$$$$$$$##***$%*****",
"*****$%******$$$$$$$*****$%*****",
"*****$%******$$$$$$%*****$%*****",
"*****$%*******$$$$$******$%*****",
"*****$%#******$$$$$******$%#****",
"*****$%********$$$***#***$%*****",
"**#**$%**&$$$$$$$$$$$$$**$%*****",
"*****$%**&$$$$$$$$$$$$$**$%*****",
"*****$%******************$%*****",
"*****$%******************$%*****",
"*****$$%%%%%%%%%%%%%%%%%%$%#****",
"*****$$$$$$$$$$$$$$$$$$$$$%*****",
"**#**&&&&&&&&&&&&&&&&&&&&&#*****",
"********************************",
"*********@.+*..*****************",
"*********+.**@##@@#*+@&**#******",
"***#*****@@**.*.+&*@+@@*********",
"*********.+*#@*+.+#.@@**********",
"*********.+*++##+.+.##+****#****",
"*****#***#@@+*&@@#*@@+#*********",
"********************************"};
