/* XPM */
static char * use_xpm[] = {
"32 32 26 1",
" 	c None",
".	c #BCBCBC",
"+	c #984747",
"@	c #A46E6E",
"#	c #870D0D",
"$	c #923434",
"%	c #AA8181",
"&	c #B19A9A",
"*	c #AC8888",
"=	c #891515",
"-	c #A06262",
";	c #902D2D",
">	c #B09494",
",	c #9D5858",
"'	c #860C0C",
")	c #8D2020",
"!	c #B09595",
"~	c #3E3E3E",
"{	c #000000",
"]	c #686868",
"^	c #151515",
"/	c #2A2A2A",
"(	c #7D7D7D",
"_	c #A7A7A7",
":	c #929292",
"<	c #545454",
"................................",
".....+++++++++++++++++++++@.....",
".....#####################+.....",
".....#$%%%%%%%%%%%%%%%%%%#+.....",
".....#+..................#+.....",
".....#+..................#+.....",
".....#+..&############*..#+.....",
".....#+...&##########=...#+.....",
".....#+....##########-...#+.....",
".....#+....-#########....#+.....",
".....#+.....########;....#+.....",
".....#+.....########>....#+.....",
".....#+......#######.....#+.....",
".....#+......######,.....#+.....",
".....#+.......#####......#+.....",
".....#+.......#####......#+.....",
".....#+........###.......#+.....",
".....#+..%#############..#+.....",
".....#+..%#######'#####..#+.....",
".....#+..................#+.....",
".....#+..................#+.....",
".....#)++++++++++++++++++#+.....",
".....#####################+.....",
".....%%%%%%%%%%%%%%%%%%%%%!.....",
"................................",
".........~{].^/.................",
".........(^..~_:~~_.]~:.........",
".........~~..{.{]:.~(~<.........",
".........{(._~.({(:{~<_.........",
".........^].]]::]{({__(.........",
".........:~~].:~~:.<~]_.........",
"................................"};
