/* XPM */
static char * use_8bit_xpm[] = {
"32 32 9 1",
" 	c None",
".	c #070708",
"+	c #767273",
"@	c #424240",
"#	c #BEBDBC",
"$	c #860F0D",
"%	c #9A4644",
"&	c #A68587",
"*	c #2A2A2C",
"################################",
"#####%%%%%%%%%%%%%%%%%%%%%+#####",
"#####$$$$$$$$$$$$$$$$$$$$$%#####",
"#####$%&&&&&&&&&&&&&&&&&&$%#####",
"#####$%##################$%#####",
"#####$%##################$%#####",
"#####$%##################$%#####",
"#####$%##################$%#####",
"#####$%##$$$$$$$$$$$$$&##$%#####",
"#####$%##$$$$$$$$$$$$$&##$%#####",
"#####$%##################$%#####",
"#####$%##&$$$$$$$$$$$$&##$%#####",
"#####$%###&$$$$$$$$$$####$%#####",
"#####$%####&$$$$$$$$#####$%#####",
"#####$%#####&$$$$$$######$%#####",
"#####$%######&$$$$&######$%#####",
"#####$%#######&$$########$%#####",
"#####$%########&#########$%#####",
"#####$%##################$%#####",
"#####$%##################$%#####",
"#####$%##################$%#####",
"#####$$%%%%%%%%%%%%%%%%%%$%#####",
"#####$$$$$$$$$$$$$$$$$$$$$%#####",
"#####&&&&&&&&&&&&&&&&&&&&&&#####",
"################################",
"#########*.+#.*#################",
"#########+.##@&&*@&#+*&#########",
"#########@@##.#.+&#@+@@#########",
"#########.+##*#+.+&.@@##########",
"#########.+#++&&+.+.#&+#########",
"#########&@*+#&@@&#@@+##########",
"################################"};
