/* XPM */
static char * use_xpm[] = {
"32 32 19 1",
" 	c None",
".	c #BCBCBC",
"+	c #984747",
"@	c #A46E6E",
"#	c #870D0D",
"$	c #923434",
"%	c #AA8181",
"&	c #8D2020",
"*	c #B6A8A8",
"=	c #B09595",
"-	c #3E3E3E",
";	c #000000",
">	c #686868",
",	c #151515",
"'	c #2A2A2A",
")	c #7D7D7D",
"!	c #A7A7A7",
"~	c #929292",
"{	c #545454",
"................................",
".....+++++++++++++++++++++@.....",
".....#####################+.....",
".....#$%%%%%%%%%%%%%%%%%%#+.....",
".....#+..................#+.....",
".....#+..................#+.....",
".....#+..................#+.....",
".....#+..................#+.....",
".....#+..#############%..#+.....",
".....#+..#############%..#+.....",
".....#+..................#+.....",
".....#+..%###########&*..#+.....",
".....#+...%#########&*...#+.....",
".....#+....%#######&*....#+.....",
".....#+.....%#####&*.....#+.....",
".....#+......%###&*......#+.....",
".....#+.......%#&*.......#+.....",
".....#+........%*........#+.....",
".....#+..................#+.....",
".....#+..................#+.....",
".....#+..................#+.....",
".....#&++++++++++++++++++#+.....",
".....#####################+.....",
".....%%%%%%%%%%%%%%%%%%%%%=.....",
"................................",
".........-;>.,'.................",
".........),..-!~--!.>-~.........",
".........--..;.;>~.-)-{.........",
".........;).!-.);)~;-{!.........",
".........,>.>>~~>;);!!).........",
".........~-->.~--~.{->!.........",
"................................"};
