#define Face_smile_width 24
#define Face_smile_height 16
static char Face_smile_bits[] = {
  0x00,0x00,0x00,
  0xf8,0xc1,0x0f,
  0x04,0x22,0x10,
  0x00,0x00,0x00,
  0xf0,0xc0,0x07,
  0x68,0xa1,0x09,
  0x68,0xa1,0x09,
  0x68,0xa1,0x09,
  0xf0,0xc0,0x07,
  0x00,0x00,0x00,
  0x00,0x00,0x00,
  0x50,0x80,0x04,
  0x00,0x00,0x00,
  0x20,0x22,0x01,
  0x00,0x1c,0x00,
  0x00,0x00,0x00};
