#define Face_ase2_width 32
#define Face_ase2_height 16
static char Face_ase2_bits[] = {
  0x00,0x00,0x00,0x00,
  0xf0,0x83,0x1f,0x00,
  0x08,0x44,0x20,0x00,
  0x00,0x00,0x00,0x00,
  0xe0,0x81,0x07,0x00,
  0xd0,0x42,0x0b,0x00,
  0xd0,0x42,0x0b,0x00,
  0xd0,0x42,0x0b,0x00,
  0xe0,0x81,0x87,0x10,
  0x00,0x00,0x80,0x10,
  0x00,0x00,0x40,0x29,
  0xa0,0x80,0x44,0x29,
  0x00,0x00,0x40,0x29,
  0x40,0x22,0x81,0x10,
  0x00,0x1c,0x00,0x00,
  0x00,0x00,0x00,0x00};
