#define Face_weep_width 24
#define Face_weep_height 16
static char Face_weep_bits[] = {
  0x1c,0x00,0x3c,
  0xe2,0x80,0x43,
  0x00,0x63,0x00,
  0x18,0x00,0x18,
  0x60,0x00,0x07,
  0x80,0xe3,0x00,
  0xfc,0xf7,0x3f,
  0x80,0xe3,0x00,
  0x60,0x00,0x07,
  0x58,0x00,0x1a,
  0x40,0x00,0x02,
  0xa0,0x00,0x05,
  0xa0,0x00,0x05,
  0xa0,0x1c,0x05,
  0x40,0x22,0x02,
  0x00,0x00,0x00
};
