/* XPM */
static char *xsymb[] = {
/* width height ncolors chars_per_pixel */
"22 3 66 1",
/* colors */
"0 c Black",
"1 c Gray5",
"2 c Gray10",
"3 c Gray15",
"4 c Gray20",
"5 c Gray25",
"6 c Gray30",
"7 c Gray35",
"8 c Gray40",
"9 c Gray45",
": c Gray50",
"; c Gray55",
"< c Gray60",
"= c Gray65",
"> c Gray70",
"@ c Gray75",
"A c Gray80",
"B c Gray85",
"C c Gray90",
"D c Gray95",
"E c forestgreen",
"F c firebrick1",
"G c firebrick2",
"H c firebrick3",
"I c firebrick4",
"J c blue1",
"K c blue2",
"L c blue3",
"M c blue4",
"N c red1",
"O c red2",
"P c red3",
"Q c red4",
"R c paleturquoise1",
"S c paleturquoise2",
"T c paleturquoise3",
"U c paleturquoise4",
"V c purple1",
"W c purple2",
"X c purple3",
"Y c purple4",
"Z c LemonChiffon",
"` c yellow1",
"a c yellow2",
"b c yellow3",
"c c yellow4",
"d c pink1",
"e c pink2",
"f c pink3",
"g c pink4",
"h c darkseagreen1",
"i c darkseagreen2",
"j c darkseagreen3",
"k c darkseagreen4",
"l c khaki1",
"m c khaki2",
"n c khaki3",
"o c khaki4",
"p c navajowhite1",
"q c navajowhite2",
"r c navajowhite3",
"s c navajowhite4",
"t c rosybrown1",
"u c rosybrown2",
"v c rosybrown3",
"w c rosybrown4",
/* pixels */
"0123456789:;<=>@ABCDEF",
"GHIJKLMNOPQRSTUVWXYZ`a",
"bcdefghijklmnopqrstuvw"
};
