/* XPM */
static char *xsymb[] = {
/* width height ncolors chars_per_pixel */
"33 5 138 2",
/* colors */
/* saturation 100% */
"00 c black",
"XX c white",
"a1 c red",
"b1 c orange",
"c1 c gold",
"d1 c yellow",
"f1 c green",
"g1 c cyan",
"h1 c DeepSkyBlue1",
"i1 c blue",
"j1 c magenta",
/* saturation 75% */
"m1 c OliveDrab1",
"n1 c SeaGreen1",
"p1 c purple1",
"q1 c HotPink1",
/* saturation 50% */
"r1 c LightSalmon1",
"s1 c khaki1",
"t1 c PaleGreen1",
"u1 c aquamarine1",
"v1 c Steelblue1",
"w1 c orchid1",
"x1 c PaleVioletRed1",
/* saturation 30% */
"y1 c pink",
"z1 c wheat1",
"A1 c LemonChiffon",
"B1 c DarkSeaGreen1",
"C1 c PaleTurquoise1",
"D1 c LightSteelBlue1",
"E1 c plum1",
/* saturation 10% */
"F1 c seashell1",
"G1 c ivory1",
"H1 c honeydew1",
"I1 c azure1",
"J1 c lavenderblush1",
/* saturation 100% */
"a2 c red2",
"b2 c orange2",
"c2 c gold2",
"d2 c yellow2",
"f2 c green2",
"g2 c cyan2",
"h2 c DeepSkyBlue2",
"i2 c blue2",
"j2 c magenta2",
/* saturation 75% */
"k2 c brown2",
"m2 c OliveDrab2",
"n2 c SeaGreen2",
"p2 c purple2",
"q2 c HotPink2",
/* saturation 50% */
"r2 c LightSalmon2",
"s2 c khaki2",
"t2 c PaleGreen2",
"u2 c aquamarine2",
"v2 c Steelblue2",
"w2 c orchid2",
"x2 c PaleVioletRed2",
/* saturation 30% */
"y2 c pink2",
"z2 c wheat2",
"A2 c LemonChiffon2",
"B2 c DarkSeaGreen2",
"C2 c paleturquoise",
"D2 c LightSteelBlue2",
"E2 c plum2",
/* saturation 10% */
"F2 c seashell2",
"G2 c ivory2",
"H2 c honeydew2",
"I2 c azure2",
"J2 c lavenderblush2",
/* saturation 100% */
"a3 c red3",
"b3 c orange3",
"c3 c gold3",
"d3 c yellow3",
"f3 c green3",
"g3 c cyan3",
"h3 c DeepSkyBlue3",
"i3 c blue3",
"j3 c magenta3",
/* saturation 75% */
"k3 c brown3",
"m3 c OliveDrab3",
"n3 c SeaGreen3",
"p3 c purple3",
"q3 c HotPink3",
/* saturation 50% */
"r3 c LightSalmon3",
"s3 c khaki3",
"t3 c PaleGreen3",
"u3 c aquamarine3",
"v3 c Steelblue3",
"w3 c orchid3",
"x3 c PaleVioletRed3",
/* saturation 30% */
"y3 c pink3",
"z3 c wheat3",
"A3 c LemonChiffon3",
"B3 c DarkSeaGreen3",
"C3 c PaleTurquoise3",
"D3 c LightSteelBlue3",
"E3 c plum3",
/* saturation 10% */
"F3 c seashell3",
"G3 c ivory3",
"H3 c honeydew3",
"I3 c azure3",
"J3 c lavenderblush3",
/* saturation 100% */
"a4 c red4",
"b4 c orange4",
"c4 c gold4",
"d4 c yellow4",
"f4 c green4",
"g4 c cyan4",
"h4 c DeepSkyBlue4",
"i4 c blue4",
"j4 c magenta4",
/* saturation 75% */
"k4 c brown4",
"p4 c purple4",
"q4 c HotPink4",
/* saturation 50% */
"v4 c Steelblue",
/* saturation 30% */
"A4 c LemonChiffon4",
"B4 c DarkSeaGreen4",
"C4 c PaleTurquoise4",
"D4 c LightSteelBlue4",
"E4 c plum4",
/* saturation 10% */
"F4 c seashell4",
"G4 c ivory4",
"H4 c honeydew4",
"I4 c azure4",
"J4 c lavenderblush4",
"10 c gray10",
"20 c gray20",
"30 c gray30",
"40 c gray40",
"45 c gray45",
"50 c gray50",
"55 c gray55",
"60 c gray60",
"65 c gray65",
"70 c gray70",
"75 c gray75",
"80 c gray80",
"85 c gray85",
"90 c gray90",
"95 c gray95",
/* pixels */
"a1b1c1d1f1g1h1i1j100m1n1p1q1r1s1t1u1v1w1x1y1z1A1B1C1D1E1F1G1H1I1J1",
"a2b2c2d2f2g2h2i2j2k2m2n2p2q2r2s2t2u2v2w2x2y2z2A2B2C2D2E2F2G2H2I2J2",
"a3b3c3d3f3g3h3i3j3k3m3n3p3q3r3s3t3u3v3w3x3y3z3A3B3C3D3E3F3G3H3I3J3",
"a4b4c4d4f4g4h4i4j4k40000p4q400000000v400000000A4B4C4D4E4F4G4H4I4J4",
"XXXX95959090858580807575707065656060555550504545404030302020101000"
};
