#define drafting_width 64
#define drafting_height 54
static char drafting_bits[] = {
 0x00,0x00,0x00,0x00,0x00,0x00,0x00,0x00,0x00,0x00,0x00,0x00,0x00,0x00,0x00,
 0x00,0x00,0x00,0x00,0x00,0x00,0x00,0x00,0x00,0x00,0x00,0x00,0x00,0x00,0x00,
 0x40,0x00,0x00,0x00,0x00,0x00,0x00,0x00,0x60,0x00,0x00,0x00,0x00,0x00,0x00,
 0xf8,0x31,0x00,0x00,0x00,0x00,0x00,0x00,0xce,0x1b,0x00,0x00,0x00,0x00,0x00,
 0x00,0x83,0x07,0x00,0x00,0x00,0x00,0x00,0x80,0xe1,0x1f,0x00,0x00,0x00,0x00,
 0x00,0xc0,0xf8,0x1f,0x00,0x00,0x00,0x00,0x00,0xc0,0x3e,0x3e,0x00,0x00,0x00,
 0x00,0x40,0xc0,0x07,0x33,0x00,0x00,0x00,0x00,0x80,0xe1,0x01,0x13,0x00,0x00,
 0x00,0x00,0x80,0x79,0x80,0x11,0x00,0x00,0x00,0x00,0x00,0x1e,0x80,0x19,0x00,
 0x00,0x00,0x00,0x00,0x0e,0xc0,0x08,0x00,0x00,0xc0,0x7f,0x00,0x0b,0xc0,0x0c,
 0x00,0x00,0xf0,0xff,0xc0,0x10,0x60,0x07,0x00,0x00,0xf8,0xff,0x31,0x20,0xe0,
 0x03,0x00,0x00,0xfc,0x7f,0x0c,0x40,0xf0,0x00,0x00,0x00,0xfe,0x1f,0x07,0x80,
 0x18,0x00,0x00,0x00,0xfe,0xcf,0x0f,0x00,0x19,0xf0,0x00,0x00,0xff,0xf3,0x1f,
 0x00,0x0e,0xff,0x00,0x00,0xff,0xfc,0x1f,0x00,0xfc,0x3f,0x00,0x00,0x7f,0xff,
 0x1f,0x00,0x7e,0x39,0x00,0x00,0xff,0xff,0x1f,0xd0,0x7e,0x3e,0x00,0x00,0xff,
 0xff,0x1f,0x7c,0xff,0x27,0x00,0x00,0xff,0xff,0xff,0x7f,0xff,0x3b,0x00,0x00,
 0xff,0x3f,0xe0,0xbf,0xfd,0x1f,0x00,0x00,0xff,0x3b,0x7e,0x85,0xf1,0x01,0x00,
 0x00,0xff,0xb1,0x03,0xc0,0x73,0x00,0x00,0x00,0xfe,0x21,0x00,0x40,0x7e,0x00,
 0x00,0x00,0xfe,0x40,0x00,0x60,0x38,0x00,0x00,0x00,0xfc,0x80,0x00,0x20,0x1c,
 0x00,0x00,0x00,0x78,0x00,0x01,0x30,0x1e,0x00,0x00,0x00,0x60,0x00,0x02,0x10,
 0x17,0x00,0x00,0x00,0x20,0x00,0x04,0x98,0x13,0x00,0x00,0x00,0x20,0x00,0x08,
 0xc8,0x10,0x00,0x00,0x00,0x10,0x00,0x10,0x6c,0x10,0x00,0x00,0x00,0x10,0x00,
 0x20,0x3c,0x10,0x00,0x00,0x00,0x08,0x00,0x40,0x0e,0x10,0x00,0x00,0x00,0x08,
 0x00,0x80,0x06,0x10,0x00,0x00,0x00,0x04,0x00,0x00,0x01,0x10,0x00,0x00,0x00,
 0x04,0x00,0x00,0x02,0x10,0x00,0x00,0x00,0xfe,0xff,0xff,0x03,0x10,0x00,0x00,
 0x00,0x00,0x20,0x00,0x00,0x10,0x00,0x00,0x00,0x00,0x20,0x00,0x00,0x10,0x00,
 0x00,0x00,0x00,0x20,0x00,0x00,0x10,0x00,0x00,0x00,0x00,0x20,0x00,0x00,0x10,
 0x00,0x00,0x00,0x00,0x20,0x00,0x00,0x10,0x00,0x00,0x00,0x00,0xe0,0xff,0xff,
 0x1f,0x00,0x00,0x00,0x00,0x00,0x00,0x00,0x00,0x00,0x00,0x00,0x00,0x00,0x00,
 0x00,0x00,0x00,0x00,0x00,0x00,0x00,0x00,0x00,0x00,0x00,0x00};
