#define filing_width 64
#define filing_height 54
static char filing_bits[] = {
   0x00, 0x00, 0x00, 0x00, 0x00, 0x00, 0x00, 0x00, 0x00, 0x00, 0x00, 0xe0,
   0x01, 0x00, 0x00, 0x00, 0x00, 0x00, 0x00, 0x5c, 0x06, 0x00, 0x00, 0x00,
   0x00, 0x00, 0xc0, 0x13, 0x19, 0x00, 0x00, 0x00, 0x00, 0x00, 0x78, 0x44,
   0x64, 0x00, 0x00, 0x00, 0x00, 0x00, 0x17, 0x11, 0x91, 0x01, 0x00, 0x00,
   0x00, 0xf0, 0x44, 0x44, 0x44, 0x06, 0x00, 0x00, 0x00, 0x1c, 0x11, 0x11,
   0x11, 0x19, 0x00, 0x00, 0x00, 0x4c, 0x44, 0x44, 0x44, 0x74, 0x00, 0x00,
   0x00, 0x34, 0x11, 0x11, 0x11, 0x6e, 0x00, 0x00, 0x00, 0xc4, 0x44, 0x44,
   0xc4, 0x55, 0x00, 0x00, 0x00, 0x04, 0x13, 0x11, 0xb9, 0x6a, 0x00, 0x00,
   0x00, 0x04, 0x4c, 0x44, 0x57, 0x55, 0x00, 0x00, 0x00, 0x04, 0x30, 0xf1,
   0xaa, 0x6a, 0x00, 0x00, 0x00, 0x04, 0xc0, 0x5c, 0x55, 0x55, 0x00, 0x00,
   0x00, 0x04, 0x00, 0xab, 0xaa, 0x6a, 0x00, 0x00, 0x00, 0x84, 0x00, 0x56,
   0x55, 0x55, 0x00, 0x00, 0x00, 0x84, 0x01, 0xaa, 0xaa, 0x6a, 0x00, 0x00,
   0x00, 0x04, 0x16, 0x56, 0x55, 0x55, 0x00, 0x00, 0x00, 0x04, 0x18, 0xaa,
   0xaa, 0x6a, 0x00, 0x00, 0x00, 0x0f, 0x00, 0x56, 0x55, 0x55, 0x00, 0x00,
   0x00, 0x1d, 0x00, 0xaa, 0xaa, 0x6a, 0x00, 0x00, 0x00, 0x71, 0x00, 0x56,
   0x55, 0x55, 0x00, 0x00, 0x00, 0xc1, 0x01, 0xaa, 0xaa, 0x6a, 0x00, 0x00,
   0x00, 0x01, 0x07, 0x56, 0x55, 0x55, 0x00, 0x00, 0x00, 0x01, 0x1c, 0xaa,
   0xaa, 0x6a, 0x00, 0x00, 0x00, 0x01, 0x70, 0x56, 0x55, 0x55, 0x00, 0x00,
   0x00, 0x01, 0xc0, 0xab, 0xaa, 0x6a, 0x00, 0x00, 0x00, 0x21, 0x00, 0x57,
   0x55, 0x55, 0x00, 0x00, 0x00, 0x61, 0x00, 0xab, 0xaa, 0x6a, 0x00, 0x00,
   0x00, 0x81, 0x05, 0x57, 0x55, 0x55, 0x00, 0x00, 0x00, 0x01, 0x06, 0xab,
   0xaa, 0x6a, 0x00, 0x00, 0x00, 0x03, 0x00, 0x57, 0x55, 0x55, 0x00, 0x00,
   0x00, 0x0c, 0x00, 0xab, 0xaa, 0x6a, 0x00, 0x00, 0x00, 0x34, 0x00, 0x57,
   0x55, 0x55, 0x00, 0x00, 0x00, 0xc4, 0x00, 0xab, 0xaa, 0x6a, 0x00, 0x00,
   0x00, 0x04, 0x03, 0x57, 0x55, 0x55, 0x00, 0x00, 0x00, 0x04, 0x0c, 0xab,
   0xaa, 0x6a, 0x00, 0x00, 0x00, 0x04, 0x30, 0x57, 0x55, 0x55, 0x00, 0x00,
   0x00, 0x04, 0xc0, 0xab, 0xaa, 0x6a, 0x00, 0x00, 0x00, 0x84, 0x00, 0x56,
   0x55, 0x55, 0x00, 0x00, 0x00, 0x84, 0x01, 0xaa, 0xaa, 0x6a, 0x00, 0x00,
   0x00, 0x04, 0x16, 0x56, 0x55, 0x55, 0x00, 0x00, 0x00, 0x04, 0x18, 0xaa,
   0xaa, 0x6a, 0x00, 0x00, 0x00, 0x0c, 0x00, 0x56, 0x55, 0x75, 0x00, 0x00,
   0x00, 0x30, 0x00, 0xaa, 0xaa, 0xbe, 0x01, 0x00, 0x00, 0xc0, 0x00, 0x56,
   0xd5, 0xef, 0x06, 0x00, 0x00, 0x00, 0x03, 0xaa, 0xfa, 0xbb, 0x1b, 0x00,
   0x00, 0x00, 0x0c, 0x56, 0xef, 0xee, 0x6e, 0x00, 0x00, 0x00, 0x30, 0xea,
   0xbb, 0xbb, 0x3b, 0x00, 0x00, 0x00, 0xc0, 0xfe, 0xee, 0xee, 0x6e, 0x00,
   0x00, 0x00, 0x00, 0xbf, 0xbb, 0xbb, 0x3b, 0x00, 0x00, 0x00, 0x00, 0x00,
   0x00, 0x00, 0x00, 0x00, 0x00, 0x00, 0x00, 0x00, 0x00, 0x00, 0x00, 0x00};
