#define recycle_width 64
#define recycle_height 54
static char recycle_bits[] = {
 0x00,0x00,0x00,0x00,0x00,0x00,0x00,0x00,0x00,0x00,0x00,0x00,0x00,0x00,0x00,
 0x00,0x00,0x00,0x00,0x00,0x00,0x00,0x00,0x00,0x00,0x00,0x80,0xff,0xff,0x03,
 0x00,0x00,0x00,0x00,0x60,0x00,0x78,0x0d,0x00,0x00,0x00,0x00,0x10,0x00,0xbc,
 0x10,0x00,0x00,0x00,0x00,0x08,0x00,0x5e,0x20,0x00,0x00,0x00,0x00,0x08,0x00,
 0x2f,0x20,0x00,0x00,0x00,0x00,0x04,0x00,0x17,0x40,0x1c,0x00,0x00,0x00,0x04,
 0x80,0x0a,0x40,0x1f,0x00,0x00,0x00,0x02,0x80,0x06,0x80,0x0d,0x00,0x00,0x00,
 0x02,0x40,0x04,0x00,0x04,0x00,0x00,0x00,0x01,0x40,0x04,0x00,0x02,0x00,0x00,
 0x00,0x01,0x20,0x08,0x00,0x03,0x00,0x00,0x80,0x00,0x20,0x08,0x00,0x01,0x00,
 0x00,0x00,0x03,0x10,0x10,0x80,0x00,0x00,0x00,0x00,0x0c,0x10,0x18,0xc0,0x00,
 0x00,0x00,0x00,0x30,0x08,0x07,0x40,0x00,0x00,0x00,0x00,0xc0,0x08,0xff,0x3f,
 0x0e,0x00,0x80,0xff,0x1f,0x07,0x00,0x80,0x09,0x00,0x80,0x00,0x30,0x04,0x00,
 0x60,0x10,0x00,0x00,0x03,0x20,0x00,0x00,0x18,0x10,0x00,0x00,0x0c,0x60,0x00,
 0x00,0x06,0x20,0x00,0x00,0x08,0x40,0x00,0x00,0x01,0x20,0x00,0x00,0x04,0x80,
 0x00,0x00,0x01,0x40,0x00,0x00,0x04,0x80,0x01,0x00,0x02,0x40,0x00,0x00,0x02,
 0x00,0x01,0x00,0x02,0x80,0x00,0x00,0x02,0x00,0x02,0x00,0x04,0x80,0x00,0x00,
 0x02,0x40,0x06,0x00,0x04,0x80,0x00,0x00,0x02,0xe0,0x05,0x00,0x08,0x80,0x00,
 0x00,0x02,0x20,0x06,0x60,0x08,0x80,0x00,0x00,0x04,0x10,0x00,0x60,0x10,0x40,
 0x00,0x00,0x04,0x10,0x00,0x50,0x10,0x40,0x00,0x00,0x08,0x08,0x00,0x50,0x20,
 0x20,0x00,0x00,0x08,0x08,0x00,0x48,0x20,0x3c,0x00,0x00,0x10,0xfc,0x7f,0xc8,
 0xff,0x1f,0x00,0x00,0x10,0xbc,0x40,0x04,0x00,0x18,0x00,0x00,0x20,0x5e,0x40,
 0x04,0x00,0x0c,0x00,0x00,0x20,0x2e,0x40,0x02,0x00,0x0c,0x00,0x00,0x40,0x17,
 0x40,0x02,0x00,0x06,0x00,0x00,0x40,0x0f,0x40,0x01,0x00,0x06,0x00,0x00,0x80,
 0x07,0x40,0x01,0x00,0x02,0x00,0x00,0x80,0x07,0x40,0x02,0x00,0x03,0x00,0x00,
 0x00,0x07,0x40,0x02,0x80,0x01,0x00,0x00,0x00,0x02,0x40,0x04,0xc0,0x00,0x00,
 0x00,0x00,0x0c,0x40,0x04,0x70,0x00,0x00,0x00,0x00,0xf0,0x7f,0xc8,0x1f,0x00,
 0x00,0x00,0x00,0x00,0x00,0x48,0x00,0x00,0x00,0x00,0x00,0x00,0x00,0x50,0x00,
 0x00,0x00,0x00,0x00,0x00,0x00,0x50,0x00,0x00,0x00,0x00,0x00,0x00,0x00,0x60,
 0x00,0x00,0x00,0x00,0x00,0x00,0x00,0x60,0x00,0x00,0x00,0x00,0x00,0x00,0x00,
 0x00,0x00,0x00,0x00,0x00,0x00,0x00,0x00,0x00,0x00,0x00,0x00};
