#define dead_width 64
#define dead_height 54
static char dead_bits[] = {
   0x00, 0x00, 0x00, 0x00, 0x00, 0x00, 0x00, 0x00, 0x00, 0x00, 0x00, 0xfe,
   0x03, 0x00, 0x00, 0x00, 0x00, 0x00, 0x80, 0xf5, 0x0f, 0x00, 0x00, 0x00,
   0x00, 0x00, 0xe0, 0x5e, 0x74, 0x00, 0x00, 0x00, 0x00, 0x00, 0x78, 0x13,
   0xd1, 0x01, 0x00, 0x00, 0x00, 0x00, 0xec, 0x22, 0x22, 0x02, 0x00, 0x00,
   0x00, 0x00, 0xd6, 0x88, 0x88, 0x04, 0x00, 0x00, 0x00, 0x00, 0x6d, 0x44,
   0x44, 0x0c, 0x00, 0x00, 0x00, 0x80, 0x1a, 0x11, 0x11, 0x19, 0x00, 0x00,
   0x00, 0x80, 0x2d, 0x22, 0x22, 0x22, 0x00, 0x00, 0x00, 0x40, 0x8b, 0x88,
   0x88, 0x28, 0x00, 0x00, 0x00, 0xc0, 0x45, 0x44, 0x44, 0x44, 0x00, 0x00,
   0x00, 0x60, 0x17, 0x11, 0x11, 0x51, 0x00, 0x00, 0x00, 0xa0, 0x25, 0x22,
   0x22, 0x62, 0x00, 0x00, 0x00, 0x70, 0x8b, 0x88, 0x88, 0x88, 0x00, 0x00,
   0x00, 0xf0, 0x46, 0x44, 0x44, 0xc4, 0x00, 0x00, 0x00, 0x50, 0x13, 0x11,
   0x11, 0x91, 0x00, 0x00, 0x00, 0xb0, 0x22, 0x22, 0x22, 0xa2, 0x00, 0x00,
   0x00, 0x50, 0x8b, 0x88, 0x88, 0x88, 0x00, 0x00, 0x00, 0xb0, 0xfe, 0xff,
   0xff, 0xff, 0x00, 0x00, 0x00, 0x50, 0x07, 0x00, 0x00, 0xc0, 0x00, 0x00,
   0x00, 0xb0, 0xf6, 0x81, 0xc7, 0xcf, 0x00, 0x00, 0x00, 0x50, 0x67, 0x02,
   0x83, 0xd9, 0x00, 0x00, 0x00, 0xb0, 0x66, 0x06, 0x83, 0xd9, 0x00, 0x00,
   0x00, 0x50, 0x67, 0x06, 0x83, 0xd9, 0x00, 0x00, 0x00, 0xb0, 0x66, 0x02,
   0x83, 0xd9, 0x00, 0x00, 0x00, 0x50, 0xe7, 0x01, 0x83, 0xcf, 0x00, 0x00,
   0x00, 0xb0, 0x66, 0x01, 0x83, 0xc1, 0x00, 0x00, 0x00, 0x50, 0x67, 0x03,
   0x83, 0xc1, 0x00, 0x00, 0x00, 0xb0, 0x66, 0x03, 0x83, 0xc1, 0x00, 0x00,
   0x00, 0x50, 0x67, 0x2e, 0x93, 0xc9, 0x00, 0x00, 0x00, 0xb0, 0xf6, 0xac,
   0xd7, 0xcb, 0x00, 0x00, 0x00, 0x50, 0x07, 0x00, 0x00, 0xc0, 0x00, 0x00,
   0x00, 0xb0, 0xfe, 0xff, 0xff, 0xff, 0x00, 0x00, 0x00, 0x50, 0x13, 0x11,
   0x11, 0x91, 0x00, 0x00, 0x00, 0xb0, 0x22, 0x22, 0x22, 0xa2, 0x00, 0x00,
   0x00, 0x50, 0x8b, 0x88, 0x88, 0x88, 0x00, 0x00, 0x00, 0xb1, 0x46, 0x44,
   0x44, 0xc4, 0x00, 0x00, 0x00, 0x59, 0x13, 0x11, 0x11, 0x91, 0x00, 0x00,
   0x80, 0xba, 0x22, 0x22, 0x22, 0xa2, 0x10, 0x00, 0x80, 0x56, 0x8b, 0x88,
   0x88, 0x88, 0x10, 0x00, 0x80, 0xf6, 0x67, 0x44, 0x44, 0xc6, 0x38, 0x00,
   0x20, 0x5d, 0x33, 0x15, 0x51, 0xd3, 0x38, 0x01, 0x40, 0xfd, 0xb3, 0xaf,
   0xb2, 0xa2, 0xd5, 0x00, 0x40, 0xf5, 0xbb, 0xbe, 0xba, 0xeb, 0xf5, 0x00,
   0x80, 0xf9, 0xd7, 0x75, 0x55, 0xd6, 0xeb, 0x00, 0x80, 0xaa, 0xff, 0xff,
   0xff, 0xff, 0xe7, 0x00, 0x00, 0x87, 0xe9, 0xea, 0x56, 0xea, 0x35, 0x01,
   0x00, 0x07, 0x69, 0xea, 0xba, 0x16, 0x2b, 0x01, 0x00, 0x00, 0x30, 0x5c,
   0x92, 0x7a, 0x14, 0x00, 0x00, 0x00, 0x00, 0xd0, 0x6a, 0x24, 0x00, 0x00,
   0x00, 0x00, 0x00, 0x00, 0x86, 0x00, 0x00, 0x00, 0x00, 0x00, 0x00, 0x00,
   0x02, 0x00, 0x00, 0x00, 0x00, 0x00, 0x00, 0x00, 0x00, 0x00, 0x00, 0x00};
