#define scroll_width 64
#define scroll_height 54
static char scroll_bits[] = {
   0x00, 0x00, 0x00, 0x00, 0xf8, 0x0f, 0x00, 0x00, 0x00, 0x00, 0x00, 0xc0,
   0x07, 0x10, 0x00, 0x00, 0x00, 0x00, 0x80, 0x3f, 0x00, 0x20, 0x00, 0x00,
   0x00, 0xf0, 0x7f, 0x00, 0x00, 0x40, 0x00, 0x00, 0xc0, 0x0f, 0x00, 0x00,
   0x00, 0x40, 0x00, 0x00, 0xf8, 0x03, 0x00, 0x00, 0x00, 0x40, 0xc0, 0x3f,
   0x06, 0x0c, 0x00, 0x00, 0x00, 0x40, 0x38, 0x20, 0xf2, 0x18, 0x00, 0x00,
   0x00, 0x20, 0x06, 0x20, 0x99, 0x31, 0x00, 0x00, 0x00, 0xa0, 0xe1, 0x13,
   0x09, 0x62, 0x40, 0x01, 0x00, 0x41, 0x1e, 0x1e, 0xc9, 0x64, 0xe8, 0x04,
   0x4a, 0x30, 0x00, 0x08, 0x92, 0x54, 0x10, 0x80, 0x22, 0x8c, 0x7f, 0x04,
   0x62, 0xce, 0x00, 0x30, 0x01, 0x73, 0xc0, 0x03, 0x0c, 0x83, 0x00, 0x20,
   0x80, 0x00, 0x00, 0x03, 0xf0, 0x80, 0x00, 0x00, 0x60, 0xf8, 0x87, 0x00,
   0x00, 0x80, 0x00, 0x00, 0x90, 0x07, 0x7c, 0x00, 0x00, 0x80, 0x00, 0x19,
   0x0c, 0x00, 0x30, 0x00, 0x00, 0x00, 0xb1, 0x04, 0x83, 0x7f, 0x08, 0x00,
   0x00, 0x00, 0x11, 0x83, 0x7c, 0xc0, 0x07, 0x00, 0x00, 0x00, 0x21, 0x40,
   0x00, 0x00, 0x01, 0x00, 0x00, 0x00, 0x01, 0x30, 0xfc, 0xc1, 0x01, 0x00,
   0x00, 0x00, 0x02, 0xc8, 0x03, 0x3f, 0x01, 0x00, 0x00, 0x00, 0x02, 0x06,
   0x00, 0x8c, 0x01, 0x00, 0x00, 0x00, 0x82, 0xe1, 0x87, 0x43, 0x01, 0x00,
   0x00, 0x00, 0x64, 0x1e, 0x78, 0x80, 0x02, 0x00, 0x00, 0x00, 0x10, 0x00,
   0x38, 0x40, 0x03, 0x00, 0x00, 0x00, 0x8c, 0x0f, 0x07, 0x80, 0x02, 0x00,
   0x00, 0x00, 0x72, 0xf0, 0x01, 0x40, 0x05, 0x00, 0x00, 0x80, 0x01, 0x3e,
   0x00, 0x80, 0x06, 0x00, 0x00, 0xe0, 0xc0, 0x01, 0x00, 0x40, 0x05, 0x00,
   0x00, 0x30, 0x3f, 0x00, 0x00, 0x80, 0x8a, 0x01, 0x00, 0x18, 0x10, 0x00,
   0x00, 0x40, 0x5d, 0x06, 0x00, 0x0f, 0x10, 0x00, 0x00, 0xa0, 0x3a, 0x0c,
   0xc0, 0x07, 0x20, 0x00, 0x00, 0x50, 0x1d, 0x18, 0xe0, 0x07, 0x20, 0x00,
   0x00, 0xa8, 0x06, 0x30, 0xf8, 0x01, 0x20, 0x00, 0x00, 0xd4, 0x01, 0x28,
   0x3c, 0x3e, 0x60, 0x00, 0x00, 0x3f, 0x00, 0x34, 0x8e, 0xc1, 0x40, 0xe0,
   0xff, 0x00, 0x00, 0x2a, 0x41, 0x7f, 0x41, 0x78, 0x00, 0x00, 0x00, 0x35,
   0xc0, 0x00, 0x41, 0x86, 0x01, 0x00, 0xa0, 0x1a, 0x80, 0xdb, 0x40, 0x32,
   0x03, 0x00, 0x54, 0x0f, 0x80, 0x24, 0x81, 0x5a, 0x06, 0x00, 0xea, 0x00,
   0x40, 0x24, 0x81, 0x92, 0x06, 0x40, 0x3f, 0x00, 0x20, 0x42, 0x82, 0x44,
   0x06, 0xe0, 0x01, 0x00, 0x10, 0x81, 0x0c, 0x39, 0x03, 0x1f, 0x00, 0x00,
   0xcc, 0xff, 0x11, 0x82, 0xf1, 0x00, 0x00, 0x00, 0xfc, 0xff, 0x1f, 0xcc,
   0x0c, 0x00, 0x00, 0x00, 0xfc, 0xff, 0x1f, 0xf0, 0x03, 0x00, 0x00, 0x00,
   0xfc, 0xff, 0x1f, 0x00, 0x00, 0x00, 0x00, 0x00, 0xfc, 0xff, 0x1f, 0x00,
   0x00, 0x00, 0x00, 0x00, 0xf0, 0xff, 0x07, 0x00, 0x00, 0x00, 0x00, 0x00,
   0xc0, 0xff, 0x01, 0x00, 0x00, 0x00, 0x00, 0x00, 0x00, 0x00, 0x00, 0x00,
   0x00, 0x00, 0x00, 0x00, 0x00, 0x00, 0x00, 0x00, 0x00, 0x00, 0x00, 0x00};
