STARTFONT 2.1
FONT -Adobe-Helvetica-Medium-R-Normal--24-240-75-75-P-130-ISO8859-2
SIZE 24 75 75
FONTBOUNDINGBOX 28 29 -3 -5
COMMENT $XConsortium: helvR24.bdf,v 1.13 95/01/26 18:03:10 gildea Exp $
COMMENT 
COMMENT +
COMMENT  Copyright 1984-1989, 1994 Adobe Systems Incorporated.
COMMENT  Copyright 1988, 1994 Digital Equipment Corporation.
COMMENT
COMMENT  Adobe is a trademark of Adobe Systems Incorporated which may be
COMMENT  registered in certain jurisdictions.
COMMENT  Permission to use these trademarks is hereby granted only in
COMMENT  association with the images described in this file.
COMMENT
COMMENT  Permission to use, copy, modify, distribute and sell this software
COMMENT  and its documentation for any purpose and without fee is hereby
COMMENT  granted, provided that the above copyright notices appear in all
COMMENT  copies and that both those copyright notices and this permission
COMMENT  notice appear in supporting documentation, and that the names of
COMMENT  Adobe Systems and Digital Equipment Corporation not be used in
COMMENT  advertising or publicity pertaining to distribution of the software
COMMENT  without specific, written prior permission.  Adobe Systems and
COMMENT  Digital Equipment Corporation make no representations about the
COMMENT  suitability of this software for any purpose.  It is provided "as
COMMENT  is" without express or implied warranty.
COMMENT -
COMMENT  
COMMENT  Translation to ISO8859-2 by Cub Soft;  Petr.Kolar@vslib.cz
COMMENT  
STARTPROPERTIES 28
FOUNDRY "Adobe"
FAMILY_NAME "Helvetica"
WEIGHT_NAME "Medium"
SLANT "R"
SETWIDTH_NAME "Normal"
ADD_STYLE_NAME ""
PIXEL_SIZE 24
POINT_SIZE 240
RESOLUTION_X 75
RESOLUTION_Y 75
SPACING "P"
AVERAGE_WIDTH 130
CHARSET_REGISTRY "ISO8859"
CHARSET_ENCODING "2"
CAP_HEIGHT 19
X_HEIGHT 14
FONT_ASCENT 22
FONT_DESCENT 5
FACE_NAME "Helvetica"
COPYRIGHT "Copyright (c) 1984, 1987 Adobe Systems Incorporated. All Rights Reserved. Copyright (c) 1988, 1991 Digital Equipment Corporation. All Rights Reserved., Copyright 1996 Cub Soft"
NOTICE "Helvetica is a trademark of Linotype-Hell AG and/or its subsidiaries.  "
_DEC_DEVICE_FONTNAMES "PS=Helvetica"
_DEC_PRODUCTINFO "DECwindows Fonts V2.2, 07-Nov-1991"
DEFAULT_CHAR 32
RELATIVE_SETWIDTH 50
RELATIVE_WEIGHT 50
CHARSET_COLLECTIONS "ASCII ISO8859-2 ADOBE-STANDARD"
FULL_NAME "Helvetica"
ENDPROPERTIES
CHARS 191
STARTCHAR space
ENCODING 32
SWIDTH 278 0
DWIDTH 6 0
BBX 1 1 0 0
BITMAP
00
ENDCHAR
STARTCHAR exclam
ENCODING 33
SWIDTH 278 0
DWIDTH 6 0
BBX 2 19 2 0
BITMAP
c0
c0
c0
c0
c0
c0
c0
c0
c0
c0
c0
c0
80
80
00
00
c0
c0
c0
ENDCHAR
STARTCHAR quotedbl
ENCODING 34
SWIDTH 355 0
DWIDTH 8 0
BBX 6 6 1 13
BITMAP
cc
cc
cc
cc
cc
44
ENDCHAR
STARTCHAR numbersign
ENCODING 35
SWIDTH 556 0
DWIDTH 14 0
BBX 11 17 2 0
BITMAP
0cc0
0cc0
0cc0
1980
ffe0
ffe0
1980
1980
3300
3300
ffe0
ffe0
3300
3300
6600
6600
6600
ENDCHAR
STARTCHAR dollar
ENCODING 36
SWIDTH 556 0
DWIDTH 13 0
BBX 11 21 1 -2
BITMAP
0600
0600
3f80
7fc0
e6e0
c660
c600
e600
7600
3e00
0f80
07c0
06e0
0660
c660
c660
e6e0
7fc0
3f80
0600
0600
ENDCHAR
STARTCHAR percent
ENCODING 37
SWIDTH 889 0
DWIDTH 22 0
BBX 19 18 1 0
BITMAP
000600
3c0c00
7e0c00
c31800
c31800
c33000
c33000
7e6000
3c6000
00c000
00c780
018fc0
019860
031860
031860
061860
060fc0
040780
ENDCHAR
STARTCHAR ampersand
ENCODING 38
SWIDTH 667 0
DWIDTH 17 0
BBX 14 18 1 0
BITMAP
0f00
1f80
39c0
30c0
30c0
30c0
1980
0f00
1e00
3f18
7398
61d8
c0f0
c060
c0f0
e1d8
7f9c
1e00
ENDCHAR
STARTCHAR apostrophe
ENCODING 39
SWIDTH 222 0
DWIDTH 6 0
BBX 2 6 2 13
BITMAP
c0
c0
c0
40
40
80
ENDCHAR
STARTCHAR parenleft
ENCODING 40
SWIDTH 333 0
DWIDTH 8 0
BBX 5 24 2 -5
BITMAP
18
18
30
30
60
60
60
c0
c0
c0
c0
c0
c0
c0
c0
c0
c0
60
60
60
30
30
18
18
ENDCHAR
STARTCHAR parenright
ENCODING 41
SWIDTH 333 0
DWIDTH 8 0
BBX 5 24 1 -5
BITMAP
c0
c0
60
60
30
30
30
18
18
18
18
18
18
18
18
18
18
30
30
30
60
60
c0
c0
ENDCHAR
STARTCHAR asterisk
ENCODING 42
SWIDTH 389 0
DWIDTH 10 0
BBX 7 7 1 12
BITMAP
10
10
d6
7c
38
6c
44
ENDCHAR
STARTCHAR plus
ENCODING 43
SWIDTH 584 0
DWIDTH 14 0
BBX 12 12 1 1
BITMAP
0600
0600
0600
0600
0600
fff0
fff0
0600
0600
0600
0600
0600
ENDCHAR
STARTCHAR comma
ENCODING 44
SWIDTH 278 0
DWIDTH 6 0
BBX 2 6 2 -3
BITMAP
c0
c0
c0
40
40
80
ENDCHAR
STARTCHAR minus
ENCODING 45
SWIDTH 584 0
DWIDTH 15 0
BBX 11 2 2 6
BITMAP
ffe0
ffe0
ENDCHAR
STARTCHAR period
ENCODING 46
SWIDTH 278 0
DWIDTH 6 0
BBX 2 3 2 0
BITMAP
c0
c0
c0
ENDCHAR
STARTCHAR slash
ENCODING 47
SWIDTH 278 0
DWIDTH 7 0
BBX 7 19 0 0
BITMAP
06
06
06
0c
0c
0c
18
18
18
18
30
30
30
60
60
60
c0
c0
c0
ENDCHAR
STARTCHAR zero
ENCODING 48
SWIDTH 556 0
DWIDTH 13 0
BBX 11 18 1 0
BITMAP
1f00
3f80
71c0
60c0
60c0
c060
c060
c060
c060
c060
c060
c060
c060
60c0
60c0
71c0
3f80
1f00
ENDCHAR
STARTCHAR one
ENCODING 49
SWIDTH 556 0
DWIDTH 13 0
BBX 6 18 2 0
BITMAP
0c
0c
1c
fc
fc
0c
0c
0c
0c
0c
0c
0c
0c
0c
0c
0c
0c
0c
ENDCHAR
STARTCHAR two
ENCODING 50
SWIDTH 556 0
DWIDTH 13 0
BBX 11 18 1 0
BITMAP
1e00
7f80
61c0
c0c0
c060
c060
0060
00c0
01c0
0380
0f00
1c00
3800
7000
e000
c000
ffe0
ffe0
ENDCHAR
STARTCHAR three
ENCODING 51
SWIDTH 556 0
DWIDTH 13 0
BBX 11 18 1 0
BITMAP
1f00
7f80
6180
c0c0
c0c0
c0c0
00c0
0180
0f00
0fc0
00c0
0060
0060
c060
c0c0
61c0
7f80
1f00
ENDCHAR
STARTCHAR four
ENCODING 52
SWIDTH 556 0
DWIDTH 13 0
BBX 11 18 1 0
BITMAP
0180
0380
0380
0780
0f80
0d80
1980
3980
3180
6180
e180
c180
ffe0
ffe0
0180
0180
0180
0180
ENDCHAR
STARTCHAR five
ENCODING 53
SWIDTH 556 0
DWIDTH 13 0
BBX 11 18 1 0
BITMAP
7fc0
7fc0
6000
6000
6000
6000
6e00
7f80
71c0
00c0
0060
0060
0060
c060
c0c0
e1c0
7f80
1e00
ENDCHAR
STARTCHAR six
ENCODING 54
SWIDTH 556 0
DWIDTH 13 0
BBX 11 18 1 0
BITMAP
0f00
3fc0
70c0
6060
e060
c000
c000
cf00
df80
f1c0
e0c0
c060
c060
c060
e060
60c0
7fc0
1f00
ENDCHAR
STARTCHAR seven
ENCODING 55
SWIDTH 556 0
DWIDTH 13 0
BBX 11 18 1 0
BITMAP
ffe0
ffe0
00e0
00c0
0180
0180
0300
0300
0600
0600
0c00
0c00
1c00
1800
1800
3800
3000
3000
ENDCHAR
STARTCHAR eight
ENCODING 56
SWIDTH 556 0
DWIDTH 13 0
BBX 11 18 1 0
BITMAP
0e00
3f80
3180
60c0
60c0
60c0
60c0
3180
1f00
3f80
60c0
e0e0
c060
c060
c060
71c0
7fc0
1f00
ENDCHAR
STARTCHAR nine
ENCODING 57
SWIDTH 556 0
DWIDTH 13 0
BBX 11 18 1 0
BITMAP
1f00
7fc0
71c0
e0c0
c060
c060
c060
c060
e0e0
71e0
7f60
1e60
0060
00e0
c0c0
e1c0
7f80
1e00
ENDCHAR
STARTCHAR colon
ENCODING 58
SWIDTH 278 0
DWIDTH 6 0
BBX 2 14 2 0
BITMAP
c0
c0
c0
00
00
00
00
00
00
00
00
c0
c0
c0
ENDCHAR
STARTCHAR semicolon
ENCODING 59
SWIDTH 278 0
DWIDTH 6 0
BBX 2 17 2 -3
BITMAP
c0
c0
c0
00
00
00
00
00
00
00
00
c0
c0
c0
40
40
80
ENDCHAR
STARTCHAR less
ENCODING 60
SWIDTH 584 0
DWIDTH 15 0
BBX 12 12 1 1
BITMAP
0030
00f0
03c0
0f00
3c00
e000
e000
3c00
0f00
03c0
00f0
0030
ENDCHAR
STARTCHAR equal
ENCODING 61
SWIDTH 584 0
DWIDTH 15 0
BBX 10 6 2 5
BITMAP
ffc0
ffc0
0000
0000
ffc0
ffc0
ENDCHAR
STARTCHAR greater
ENCODING 62
SWIDTH 584 0
DWIDTH 15 0
BBX 12 12 1 1
BITMAP
c000
f000
3c00
0f00
03c0
0070
0070
03c0
0f00
3c00
f000
c000
ENDCHAR
STARTCHAR question
ENCODING 63
SWIDTH 556 0
DWIDTH 12 0
BBX 10 19 1 0
BITMAP
1f00
7f80
71c0
e0c0
c0c0
c1c0
0180
0380
0700
0600
0c00
0c00
0c00
0c00
0000
0000
0c00
0c00
0c00
ENDCHAR
STARTCHAR at
ENCODING 64
SWIDTH 1015 0
DWIDTH 25 0
BBX 22 23 2 -4
BITMAP
00ff00
03ffc0
0f01e0
1c0070
380018
300018
60730c
60fb0c
c1c70c
c3860c
c3060c
c6060c
c60c1c
c60c18
c60c38
e71c70
63f7e0
71e380
380000
1c0000
0f0300
07ff00
00fc00
ENDCHAR
STARTCHAR A
ENCODING 65
SWIDTH 667 0
DWIDTH 17 0
BBX 15 19 1 0
BITMAP
0380
0380
06c0
06c0
0c40
0c60
0c60
1830
1830
1830
3018
3ff8
3ff8
600c
600c
600c
c006
c006
c006
ENDCHAR
STARTCHAR B
ENCODING 66
SWIDTH 667 0
DWIDTH 17 0
BBX 14 19 2 0
BITMAP
ffc0
fff0
c070
c018
c018
c018
c018
c030
ffe0
fff0
c018
c00c
c00c
c00c
c00c
c01c
c038
fff0
ffc0
ENDCHAR
STARTCHAR C
ENCODING 67
SWIDTH 722 0
DWIDTH 18 0
BBX 16 19 1 0
BITMAP
07e0
1ff8
3c3c
700e
6006
e006
c000
c000
c000
c000
c000
c000
c003
e003
6006
700e
3c3c
1ff8
07e0
ENDCHAR
STARTCHAR D
ENCODING 68
SWIDTH 722 0
DWIDTH 18 0
BBX 15 19 2 0
BITMAP
ffc0
fff0
c078
c01c
c00c
c00e
c006
c006
c006
c006
c006
c006
c006
c00e
c00c
c01c
c078
fff0
ffc0
ENDCHAR
STARTCHAR E
ENCODING 69
SWIDTH 667 0
DWIDTH 16 0
BBX 12 19 2 0
BITMAP
fff0
fff0
c000
c000
c000
c000
c000
c000
ffe0
ffe0
c000
c000
c000
c000
c000
c000
c000
fff0
fff0
ENDCHAR
STARTCHAR F
ENCODING 70
SWIDTH 611 0
DWIDTH 14 0
BBX 11 19 2 0
BITMAP
ffe0
ffe0
c000
c000
c000
c000
c000
c000
c000
ffc0
ffc0
c000
c000
c000
c000
c000
c000
c000
c000
ENDCHAR
STARTCHAR G
ENCODING 71
SWIDTH 778 0
DWIDTH 19 0
BBX 16 19 1 0
BITMAP
07e0
1ff8
3c3c
700e
6006
e006
c000
c000
c000
c07f
c07f
c003
c003
e003
6007
700f
3c3f
1ffb
07e3
ENDCHAR
STARTCHAR H
ENCODING 72
SWIDTH 722 0
DWIDTH 18 0
BBX 14 19 2 0
BITMAP
c00c
c00c
c00c
c00c
c00c
c00c
c00c
c00c
fffc
fffc
c00c
c00c
c00c
c00c
c00c
c00c
c00c
c00c
c00c
ENDCHAR
STARTCHAR I
ENCODING 73
SWIDTH 278 0
DWIDTH 8 0
BBX 2 19 3 0
BITMAP
c0
c0
c0
c0
c0
c0
c0
c0
c0
c0
c0
c0
c0
c0
c0
c0
c0
c0
c0
ENDCHAR
STARTCHAR J
ENCODING 74
SWIDTH 500 0
DWIDTH 13 0
BBX 10 19 1 0
BITMAP
00c0
00c0
00c0
00c0
00c0
00c0
00c0
00c0
00c0
00c0
00c0
00c0
c0c0
c0c0
c0c0
c0c0
6180
7f80
3f00
ENDCHAR
STARTCHAR K
ENCODING 75
SWIDTH 667 0
DWIDTH 18 0
BBX 15 19 2 0
BITMAP
c038
c070
c0e0
c1c0
c380
c700
ce00
dc00
fc00
fe00
e700
c380
c1c0
c0e0
c070
c038
c01c
c00e
c006
ENDCHAR
STARTCHAR L
ENCODING 76
SWIDTH 556 0
DWIDTH 14 0
BBX 11 19 2 0
BITMAP
c000
c000
c000
c000
c000
c000
c000
c000
c000
c000
c000
c000
c000
c000
c000
c000
c000
ffe0
ffe0
ENDCHAR
STARTCHAR M
ENCODING 77
SWIDTH 833 0
DWIDTH 21 0
BBX 17 19 2 0
BITMAP
c00180
e00380
e00380
f00780
f00780
d80d80
d80d80
d80d80
cc1980
cc1980
cc1980
c63180
c63180
c63180
c36180
c36180
c36180
c1c180
c1c180
ENDCHAR
STARTCHAR N
ENCODING 78
SWIDTH 722 0
DWIDTH 18 0
BBX 14 19 2 0
BITMAP
e00c
f00c
f00c
d80c
dc0c
cc0c
ce0c
c60c
c70c
c30c
c38c
c18c
c1cc
c0cc
c0ec
c06c
c03c
c03c
c01c
ENDCHAR
STARTCHAR O
ENCODING 79
SWIDTH 778 0
DWIDTH 18 0
BBX 16 19 1 0
BITMAP
07e0
1ff8
3c3c
700e
6006
e007
c003
c003
c003
c003
c003
c003
c003
e007
6006
700e
3c3c
1ff8
07e0
ENDCHAR
STARTCHAR P
ENCODING 80
SWIDTH 667 0
DWIDTH 16 0
BBX 13 19 2 0
BITMAP
ffe0
fff0
c030
c018
c018
c018
c018
c030
fff0
ffe0
c000
c000
c000
c000
c000
c000
c000
c000
c000
ENDCHAR
STARTCHAR Q
ENCODING 81
SWIDTH 778 0
DWIDTH 18 0
BBX 16 19 1 0
BITMAP
07e0
1ff8
3c3c
700e
6006
e007
c003
c003
c003
c003
c003
c003
c003
e007
60e6
707e
3c1c
1ffe
07e7
ENDCHAR
STARTCHAR R
ENCODING 82
SWIDTH 722 0
DWIDTH 17 0
BBX 13 19 2 0
BITMAP
ffe0
fff0
c030
c018
c018
c018
c018
c030
fff0
ffe0
c070
c030
c018
c018
c018
c018
c018
c018
c018
ENDCHAR
STARTCHAR S
ENCODING 83
SWIDTH 667 0
DWIDTH 16 0
BBX 14 19 1 0
BITMAP
07c0
1ff0
3838
7018
6018
6000
7000
3e00
0fc0
01f0
0078
001c
000c
c00c
c00c
e01c
7838
3ff0
0fc0
ENDCHAR
STARTCHAR T
ENCODING 84
SWIDTH 611 0
DWIDTH 16 0
BBX 14 19 1 0
BITMAP
fffc
fffc
0300
0300
0300
0300
0300
0300
0300
0300
0300
0300
0300
0300
0300
0300
0300
0300
0300
ENDCHAR
STARTCHAR U
ENCODING 85
SWIDTH 722 0
DWIDTH 18 0
BBX 14 19 2 0
BITMAP
c00c
c00c
c00c
c00c
c00c
c00c
c00c
c00c
c00c
c00c
c00c
c00c
c00c
c00c
c00c
6018
7038
3ff0
0fc0
ENDCHAR
STARTCHAR V
ENCODING 86
SWIDTH 667 0
DWIDTH 17 0
BBX 15 19 1 0
BITMAP
c006
c006
e00e
600c
701c
3018
3018
3838
1830
1830
1c70
0c60
0c60
0ee0
06c0
06c0
0380
0380
0380
ENDCHAR
STARTCHAR W
ENCODING 87
SWIDTH 944 0
DWIDTH 22 0
BBX 20 19 1 0
BITMAP
c06030
c06030
c06030
c0f030
60f060
619860
619860
619860
619860
3198c0
330cc0
330cc0
330cc0
1b0d80
1b0d80
1e0780
0e0700
0c0300
0c0300
ENDCHAR
STARTCHAR X
ENCODING 88
SWIDTH 667 0
DWIDTH 17 0
BBX 15 19 1 0
BITMAP
c006
e00e
701c
3018
1830
1c70
0ee0
07c0
0380
0380
07c0
0ee0
0c60
1c70
3838
3018
600c
e00e
c006
ENDCHAR
STARTCHAR Y
ENCODING 89
SWIDTH 667 0
DWIDTH 16 0
BBX 14 19 1 0
BITMAP
c00c
e01c
6018
7038
3030
3870
1860
1ce0
0cc0
0fc0
0780
0780
0300
0300
0300
0300
0300
0300
0300
ENDCHAR
STARTCHAR Z
ENCODING 90
SWIDTH 611 0
DWIDTH 15 0
BBX 13 19 1 0
BITMAP
fff8
fff8
0038
0070
00e0
01c0
01c0
0380
0700
0700
0e00
1c00
1c00
3800
7000
7000
e000
fff8
fff8
ENDCHAR
STARTCHAR bracketleft
ENCODING 91
SWIDTH 278 0
DWIDTH 7 0
BBX 4 24 2 -5
BITMAP
f0
f0
c0
c0
c0
c0
c0
c0
c0
c0
c0
c0
c0
c0
c0
c0
c0
c0
c0
c0
c0
c0
f0
f0
ENDCHAR
STARTCHAR backslash
ENCODING 92
SWIDTH 278 0
DWIDTH 7 0
BBX 7 19 0 0
BITMAP
c0
c0
c0
60
60
60
30
30
30
30
18
18
18
0c
0c
0c
06
06
06
ENDCHAR
STARTCHAR bracketright
ENCODING 93
SWIDTH 278 0
DWIDTH 7 0
BBX 4 24 1 -5
BITMAP
f0
f0
30
30
30
30
30
30
30
30
30
30
30
30
30
30
30
30
30
30
30
30
f0
f0
ENDCHAR
STARTCHAR asciicircum
ENCODING 94
SWIDTH 469 0
DWIDTH 12 0
BBX 10 9 1 10
BITMAP
0c00
0c00
1e00
1200
3300
6180
6180
c0c0
c0c0
ENDCHAR
STARTCHAR underscore
ENCODING 95
SWIDTH 556 0
DWIDTH 14 0
BBX 14 2 0 -5
BITMAP
fffc
fffc
ENDCHAR
STARTCHAR grave
ENCODING 96
SWIDTH 333 0
DWIDTH 7 0
BBX 5 4 1 15
BITMAP
c0
60
30
18
ENDCHAR
STARTCHAR a
ENCODING 97
SWIDTH 556 0
DWIDTH 13 0
BBX 11 14 1 0
BITMAP
1f00
3f80
61c0
60c0
00c0
07c0
3fc0
78c0
e0c0
c0c0
c1c0
e3c0
7ee0
3c60
ENDCHAR
STARTCHAR b
ENCODING 98
SWIDTH 556 0
DWIDTH 14 0
BBX 11 19 2 0
BITMAP
c000
c000
c000
c000
c000
cf00
df80
f1c0
e0c0
c060
c060
c060
c060
c060
c060
e0c0
f1c0
df80
cf00
ENDCHAR
STARTCHAR c
ENCODING 99
SWIDTH 500 0
DWIDTH 12 0
BBX 10 14 1 0
BITMAP
1f00
3f80
71c0
60c0
c000
c000
c000
c000
c000
c000
60c0
71c0
3f80
1f00
ENDCHAR
STARTCHAR d
ENCODING 100
SWIDTH 556 0
DWIDTH 14 0
BBX 11 19 1 0
BITMAP
0060
0060
0060
0060
0060
1e60
3f60
71e0
60e0
c060
c060
c060
c060
c060
c060
60e0
71e0
3f60
1e60
ENDCHAR
STARTCHAR e
ENCODING 101
SWIDTH 556 0
DWIDTH 13 0
BBX 11 14 1 0
BITMAP
0e00
3f80
71c0
60c0
c060
c060
ffe0
ffe0
c000
c000
6060
70e0
3fc0
0f00
ENDCHAR
STARTCHAR f
ENCODING 102
SWIDTH 278 0
DWIDTH 8 0
BBX 6 19 1 0
BITMAP
1c
3c
30
30
30
fc
fc
30
30
30
30
30
30
30
30
30
30
30
30
ENDCHAR
STARTCHAR g
ENCODING 103
SWIDTH 556 0
DWIDTH 14 0
BBX 11 19 1 -5
BITMAP
1e60
3f60
71e0
60e0
c060
c060
c060
c060
c060
c060
60e0
71e0
3f60
1e60
0060
c060
e0c0
7fc0
1f00
ENDCHAR
STARTCHAR h
ENCODING 104
SWIDTH 556 0
DWIDTH 13 0
BBX 10 19 2 0
BITMAP
c000
c000
c000
c000
c000
ce00
df80
f180
e0c0
c0c0
c0c0
c0c0
c0c0
c0c0
c0c0
c0c0
c0c0
c0c0
c0c0
ENDCHAR
STARTCHAR i
ENCODING 105
SWIDTH 222 0
DWIDTH 6 0
BBX 2 19 2 0
BITMAP
c0
c0
c0
00
00
c0
c0
c0
c0
c0
c0
c0
c0
c0
c0
c0
c0
c0
c0
ENDCHAR
STARTCHAR j
ENCODING 106
SWIDTH 222 0
DWIDTH 6 0
BBX 4 24 0 -5
BITMAP
30
30
30
00
00
30
30
30
30
30
30
30
30
30
30
30
30
30
30
30
30
30
f0
e0
ENDCHAR
STARTCHAR k
ENCODING 107
SWIDTH 500 0
DWIDTH 12 0
BBX 10 19 2 0
BITMAP
c000
c000
c000
c000
c000
c180
c380
c700
ce00
dc00
f800
fc00
ce00
c600
c700
c380
c180
c1c0
c0c0
ENDCHAR
STARTCHAR l
ENCODING 108
SWIDTH 222 0
DWIDTH 6 0
BBX 2 19 2 0
BITMAP
c0
c0
c0
c0
c0
c0
c0
c0
c0
c0
c0
c0
c0
c0
c0
c0
c0
c0
c0
ENDCHAR
STARTCHAR m
ENCODING 109
SWIDTH 833 0
DWIDTH 20 0
BBX 16 14 2 0
BITMAP
ce3c
ff7e
e3c7
c183
c183
c183
c183
c183
c183
c183
c183
c183
c183
c183
ENDCHAR
STARTCHAR n
ENCODING 110
SWIDTH 556 0
DWIDTH 14 0
BBX 10 14 2 0
BITMAP
ce00
df80
f180
e0c0
c0c0
c0c0
c0c0
c0c0
c0c0
c0c0
c0c0
c0c0
c0c0
c0c0
ENDCHAR
STARTCHAR o
ENCODING 111
SWIDTH 556 0
DWIDTH 13 0
BBX 11 14 1 0
BITMAP
1f00
3f80
71c0
60c0
c060
c060
c060
c060
c060
c060
60c0
71c0
3f80
1f00
ENDCHAR
STARTCHAR p
ENCODING 112
SWIDTH 556 0
DWIDTH 14 0
BBX 11 19 2 -5
BITMAP
cf00
df80
f1c0
e0c0
c060
c060
c060
c060
c060
c060
e0c0
f1c0
df80
cf00
c000
c000
c000
c000
c000
ENDCHAR
STARTCHAR q
ENCODING 113
SWIDTH 556 0
DWIDTH 14 0
BBX 11 19 1 -5
BITMAP
1e60
3f60
71e0
60e0
c060
c060
c060
c060
c060
c060
60e0
71e0
3f60
1e60
0060
0060
0060
0060
0060
ENDCHAR
STARTCHAR r
ENCODING 114
SWIDTH 333 0
DWIDTH 9 0
BBX 6 14 2 0
BITMAP
cc
dc
fc
e0
c0
c0
c0
c0
c0
c0
c0
c0
c0
c0
ENDCHAR
STARTCHAR s
ENCODING 115
SWIDTH 500 0
DWIDTH 12 0
BBX 10 14 1 0
BITMAP
3e00
7f80
e1c0
c0c0
c000
f800
7f00
0f80
01c0
00c0
c0c0
c1c0
ff80
3f00
ENDCHAR
STARTCHAR t
ENCODING 116
SWIDTH 278 0
DWIDTH 8 0
BBX 6 18 1 0
BITMAP
30
30
30
30
fc
fc
30
30
30
30
30
30
30
30
30
30
3c
1c
ENDCHAR
STARTCHAR u
ENCODING 117
SWIDTH 556 0
DWIDTH 14 0
BBX 10 14 2 0
BITMAP
c0c0
c0c0
c0c0
c0c0
c0c0
c0c0
c0c0
c0c0
c0c0
c0c0
c1c0
63c0
7ec0
1cc0
ENDCHAR
STARTCHAR v
ENCODING 118
SWIDTH 500 0
DWIDTH 13 0
BBX 11 14 1 0
BITMAP
c060
c060
c060
60c0
60c0
71c0
3180
3180
1b00
1b00
1b00
0e00
0e00
0e00
ENDCHAR
STARTCHAR w
ENCODING 119
SWIDTH 722 0
DWIDTH 18 0
BBX 18 14 0 0
BITMAP
c0c0c0
c0c0c0
61e180
61e180
61e180
312300
333300
333300
1b3600
1a1600
1e1e00
0e1c00
0c0c00
0c0c00
ENDCHAR
STARTCHAR x
ENCODING 120
SWIDTH 500 0
DWIDTH 12 0
BBX 10 14 1 0
BITMAP
c0c0
e1c0
6180
3300
3f00
1e00
0c00
1e00
1e00
3300
7380
6180
e1c0
c0c0
ENDCHAR
STARTCHAR y
ENCODING 121
SWIDTH 500 0
DWIDTH 13 0
BBX 12 19 0 -5
BITMAP
c030
c030
6030
7060
3060
38e0
18c0
18c0
0d80
0d80
0780
0700
0300
0300
0600
0600
0c00
3c00
3800
ENDCHAR
STARTCHAR z
ENCODING 122
SWIDTH 500 0
DWIDTH 12 0
BBX 10 14 1 0
BITMAP
ffc0
ffc0
0180
0300
0700
0e00
0c00
1c00
3800
3000
6000
e000
ffc0
ffc0
ENDCHAR
STARTCHAR braceleft
ENCODING 123
SWIDTH 334 0
DWIDTH 8 0
BBX 6 24 1 -5
BITMAP
0c
18
30
30
30
30
30
30
30
30
60
c0
c0
60
30
30
30
30
30
30
30
30
18
0c
ENDCHAR
STARTCHAR bar
ENCODING 124
SWIDTH 260 0
DWIDTH 6 0
BBX 2 24 2 -5
BITMAP
c0
c0
c0
c0
c0
c0
c0
c0
c0
c0
c0
c0
c0
c0
c0
c0
c0
c0
c0
c0
c0
c0
c0
c0
ENDCHAR
STARTCHAR braceright
ENCODING 125
SWIDTH 334 0
DWIDTH 8 0
BBX 6 24 1 -5
BITMAP
c0
60
30
30
30
30
30
30
30
30
18
0c
0c
18
30
30
30
30
30
30
30
30
60
c0
ENDCHAR
STARTCHAR asciitilde
ENCODING 126
SWIDTH 584 0
DWIDTH 14 0
BBX 10 4 2 5
BITMAP
70c0
fcc0
cfc0
c380
ENDCHAR
STARTCHAR nobreakspace
ENCODING 160
SWIDTH 278 0
DWIDTH 6 0
BBX 1 1 0 0
BITMAP
00
ENDCHAR
STARTCHAR Aogonek
ENCODING 161
SWIDTH 667 0
DWIDTH 17 0
BBX 15 25 1 -6
BITMAP
0380
0380
06c0
06c0
0c40
0c60
0c60
1830
1830
1830
3018
3ff8
3ff8
600c
600c
600c
c006
c006
c006
0038
0060
00c0
00c0
00f8
0070
ENDCHAR
STARTCHAR breve
ENCODING 162
SWIDTH 333 0
DWIDTH 8 0
BBX 8 4 0 15
BITMAP
81
c3
7e
3c
ENDCHAR
STARTCHAR Lstroke
ENCODING 163
SWIDTH 556 0
DWIDTH 14 0
BBX 14 19 -1 0
BITMAP
1800
1800
1800
1800
1b00
1e00
1c00
1800
3800
7800
d800
1800
1800
1800
1800
1800
1800
1ffc
1ffc
ENDCHAR
STARTCHAR currency
ENCODING 164
SWIDTH 556 0
DWIDTH 13 0
BBX 11 12 1 3
BITMAP
c060
eee0
7fc0
3180
60c0
60c0
60c0
60c0
3180
7fc0
eee0
c060
ENDCHAR
STARTCHAR Lcaron
ENCODING 165
SWIDTH 556 0
DWIDTH 14 0
BBX 11 21 2 0
BITMAP
1800
1800
d800
c800
c800
d000
c000
c000
c000
c000
c000
c000
c000
c000
c000
c000
c000
c000
c000
ffe0
ffe0
ENDCHAR
STARTCHAR Sacute
ENCODING 166
SWIDTH 667 0
DWIDTH 16 0
BBX 14 24 1 0
BITMAP
0030
0060
00c0
0180
0000
07c0
1ff0
3838
7018
6018
6000
7000
3e00
0fc0
01f0
0078
001c
000c
c00c
c00c
e01c
7838
3ff0
0fc0
ENDCHAR
STARTCHAR section
ENCODING 167
SWIDTH 556 0
DWIDTH 13 0
BBX 11 24 1 -5
BITMAP
1f00
3f80
71c0
60c0
70c0
3800
1c00
7e00
e700
c380
c1c0
c0c0
6060
7060
3860
1cc0
0f80
0700
0380
61c0
60c0
71c0
3f80
1f00
ENDCHAR
STARTCHAR diaeresis
ENCODING 168
SWIDTH 333 0
DWIDTH 8 0
BBX 6 2 1 16
BITMAP
cc
cc
ENDCHAR
STARTCHAR Scaron
ENCODING 169
SWIDTH 667 0
DWIDTH 16 0
BBX 14 24 1 0
BITMAP
0c30
0660
03c0
0180
0000
07c0
1ff0
3838
7018
6018
6000
7000
3e00
0fc0
01f0
0078
001c
000c
c00c
c00c
e01c
7838
3ff0
0fc0
ENDCHAR
STARTCHAR Scedilla
ENCODING 170
SWIDTH 667 0
DWIDTH 16 0
BBX 14 25 1 -6
BITMAP
07c0
1ff0
3838
7018
6018
6000
7000
3e00
0fc0
01f0
0078
001c
000c
c00c
c00c
e01c
7838
3ff0
0fc0
0600
0700
0180
0180
0f80
0700
ENDCHAR
STARTCHAR Tcaron
ENCODING 171
SWIDTH 611 0
DWIDTH 16 0
BBX 14 24 1 0
BITMAP
1860
0cc0
0780
0300
0000
fffc
fffc
0300
0300
0300
0300
0300
0300
0300
0300
0300
0300
0300
0300
0300
0300
0300
0300
0300
ENDCHAR
STARTCHAR Zacute
ENCODING 172
SWIDTH 611 0
DWIDTH 15 0
BBX 13 24 1 0
BITMAP
0060
00c0
0180
0300
0000
fff8
fff8
0038
0070
00e0
01c0
01c0
0380
0700
0700
0e00
1c00
1c00
3800
7000
7000
e000
fff8
fff8
ENDCHAR
STARTCHAR hyphen
ENCODING 173
SWIDTH 333 0
DWIDTH 8 0
BBX 6 2 1 6
BITMAP
fc
fc
ENDCHAR
STARTCHAR Zcaron
ENCODING 174
SWIDTH 611 0
DWIDTH 15 0
BBX 13 24 1 0
BITMAP
1860
0cc0
0780
0300
0000
fff8
fff8
0038
0070
00e0
01c0
01c0
0380
0700
0700
0e00
1c00
1c00
3800
7000
7000
e000
fff8
fff8
ENDCHAR
STARTCHAR Zabovedot
ENCODING 175
SWIDTH 611 0
DWIDTH 15 0
BBX 13 22 1 0
BITMAP
0300
0300
0000
fff8
fff8
0038
0070
00e0
01c0
01c0
0380
0700
0700
0e00
1c00
1c00
3800
7000
7000
e000
fff8
fff8
ENDCHAR
STARTCHAR degree
ENCODING 176
SWIDTH 400 0
DWIDTH 9 0
BBX 8 7 0 11
BITMAP
3c
66
c3
c3
c3
66
3c
ENDCHAR
STARTCHAR aogonek
ENCODING 177
SWIDTH 556 0
DWIDTH 13 0
BBX 12 20 1 -6
BITMAP
1f00
3f80
61c0
60c0
00c0
07c0
3fc0
78c0
e0c0
c0c0
c1c0
e3c0
7ee0
3c60
0070
00c0
0180
0180
01f0
00e0
ENDCHAR
STARTCHAR ogonek
ENCODING 178
SWIDTH 333 0
DWIDTH 7 0
BBX 5 6 2 -5
BITMAP
38
60
c0
c0
f8
70
ENDCHAR
STARTCHAR lstroke
ENCODING 179
SWIDTH 222 0
DWIDTH 6 0
BBX 6 19 0 0
BITMAP
30
30
30
30
30
30
30
3c
38
70
f0
30
30
30
30
30
30
30
30
ENDCHAR
STARTCHAR acute
ENCODING 180
SWIDTH 333 0
DWIDTH 7 0
BBX 5 4 1 15
BITMAP
18
30
60
c0
ENDCHAR
STARTCHAR lcaron
ENCODING 181
SWIDTH 360 0
DWIDTH 9 0
BBX 5 21 2 0
BITMAP
18
18
d8
c8
c8
d0
c0
c0
c0
c0
c0
c0
c0
c0
c0
c0
c0
c0
c0
c0
c0
ENDCHAR
STARTCHAR sacute
ENCODING 182
SWIDTH 500 0
DWIDTH 12 0
BBX 10 19 1 0
BITMAP
0180
0300
0600
0c00
0000
3e00
7f80
e1c0
c0c0
c000
f800
7f00
0f80
01c0
00c0
c0c0
c1c0
ff80
3f00
ENDCHAR
STARTCHAR caron
ENCODING 183
SWIDTH 333 0
DWIDTH 8 0
BBX 8 4 0 15
BITMAP
c3
66
3c
18
ENDCHAR
STARTCHAR cedilla
ENCODING 184
SWIDTH 333 0
DWIDTH 7 0
BBX 5 6 1 -5
BITMAP
60
70
18
18
f8
70
ENDCHAR
STARTCHAR scaron
ENCODING 185
SWIDTH 500 0
DWIDTH 12 0
BBX 10 19 1 0
BITMAP
6180
3300
1e00
0c00
0000
3e00
7f80
e1c0
c0c0
c000
f800
7f00
0f80
01c0
00c0
c0c0
c1c0
ff80
3f00
ENDCHAR
STARTCHAR scedilla
ENCODING 186
SWIDTH 500 0
DWIDTH 12 0
BBX 10 20 1 -6
BITMAP
3e00
7f80
e1c0
c0c0
c000
f800
7f00
0f80
01c0
00c0
c0c0
c1c0
ff80
3f00
1800
1c00
0600
0600
3e00
1c00
ENDCHAR
STARTCHAR tcaron
ENCODING 187
SWIDTH 360 0
DWIDTH 9 0
BBX 7 21 1 0
BITMAP
06
06
06
32
32
34
30
fc
fc
30
30
30
30
30
30
30
30
30
30
3c
1c
ENDCHAR
STARTCHAR zacute
ENCODING 188
SWIDTH 500 0
DWIDTH 12 0
BBX 10 19 1 0
BITMAP
0180
0300
0600
0c00
0000
ffc0
ffc0
0180
0300
0700
0e00
0c00
1c00
3800
3000
6000
e000
ffc0
ffc0
ENDCHAR
STARTCHAR doubleacute
ENCODING 189
SWIDTH 333 0
DWIDTH 9 0
BBX 7 3 1 16
BITMAP
36
6c
d8
ENDCHAR
STARTCHAR zcaron
ENCODING 190
SWIDTH 500 0
DWIDTH 12 0
BBX 10 19 1 0
BITMAP
6180
3300
1e00
0c00
0000
ffc0
ffc0
0180
0300
0700
0e00
0c00
1c00
3800
3000
6000
e000
ffc0
ffc0
ENDCHAR
STARTCHAR zabovedot
ENCODING 191
SWIDTH 500 0
DWIDTH 12 0
BBX 10 17 1 0
BITMAP
0c00
0c00
0000
ffc0
ffc0
0180
0300
0700
0e00
0c00
1c00
3800
3000
6000
e000
ffc0
ffc0
ENDCHAR
STARTCHAR Racute
ENCODING 192
SWIDTH 722 0
DWIDTH 17 0
BBX 13 24 2 0
BITMAP
00c0
0180
0300
0600
0000
ffe0
fff0
c030
c018
c018
c018
c018
c030
fff0
ffe0
c070
c030
c018
c018
c018
c018
c018
c018
c018
ENDCHAR
STARTCHAR Aacute
ENCODING 193
SWIDTH 667 0
DWIDTH 17 0
BBX 15 24 1 0
BITMAP
0060
00c0
0180
0300
0000
0380
0380
06c0
06c0
0c40
0c60
0c60
1830
1830
1830
3018
3ff8
3ff8
600c
600c
600c
c006
c006
c006
ENDCHAR
STARTCHAR Acircumflex
ENCODING 194
SWIDTH 667 0
DWIDTH 17 0
BBX 15 24 1 0
BITMAP
0180
03c0
0660
0c30
0000
0380
0380
06c0
06c0
0c40
0c60
0c60
1830
1830
1830
3018
3ff8
3ff8
600c
600c
600c
c006
c006
c006
ENDCHAR
STARTCHAR Abreve
ENCODING 195
SWIDTH 667 0
DWIDTH 17 0
BBX 15 24 1 0
BITMAP
0810
0c30
07e0
03c0
0000
0380
0380
06c0
06c0
0c40
0c60
0c60
1830
1830
1830
3018
3ff8
3ff8
600c
600c
600c
c006
c006
c006
ENDCHAR
STARTCHAR Adiaeresis
ENCODING 196
SWIDTH 667 0
DWIDTH 17 0
BBX 15 23 1 0
BITMAP
0c60
0c60
0000
0000
0380
0380
06c0
06c0
0c40
0c60
0c60
1830
1830
1830
3018
3ff8
3ff8
600c
600c
600c
c006
c006
c006
ENDCHAR
STARTCHAR Lacute
ENCODING 197
SWIDTH 556 0
DWIDTH 14 0
BBX 11 24 2 0
BITMAP
1800
3000
6000
c000
0000
c000
c000
c000
c000
c000
c000
c000
c000
c000
c000
c000
c000
c000
c000
c000
c000
c000
ffe0
ffe0
ENDCHAR
STARTCHAR Cacute
ENCODING 198
SWIDTH 722 0
DWIDTH 18 0
BBX 16 24 1 0
BITMAP
0030
0060
00c0
0180
0000
07e0
1ff8
3c3c
700e
6006
e006
c000
c000
c000
c000
c000
c000
c003
e003
6006
700e
3c3c
1ff8
07e0
ENDCHAR
STARTCHAR Ccedilla
ENCODING 199
SWIDTH 722 0
DWIDTH 18 0
BBX 16 24 1 -5
BITMAP
07e0
1ff8
3c3c
700e
6006
e006
c000
c000
c000
c000
c000
c000
c003
e003
6006
700e
3c3c
1ff8
07e0
0380
00c0
00c0
07c0
0380
ENDCHAR
STARTCHAR Ccaron
ENCODING 200
SWIDTH 722 0
DWIDTH 18 0
BBX 16 24 1 0
BITMAP
0c30
0660
03c0
0180
0000
07e0
1ff8
3c3c
700e
6006
e006
c000
c000
c000
c000
c000
c000
c003
e003
6006
700e
3c3c
1ff8
07e0
ENDCHAR
STARTCHAR Eacute
ENCODING 201
SWIDTH 667 0
DWIDTH 16 0
BBX 12 24 2 0
BITMAP
0180
0300
0600
0c00
0000
fff0
fff0
c000
c000
c000
c000
c000
c000
ffe0
ffe0
c000
c000
c000
c000
c000
c000
c000
fff0
fff0
ENDCHAR
STARTCHAR Eogonek
ENCODING 202
SWIDTH 667 0
DWIDTH 16 0
BBX 13 25 1 -6
BITMAP
7ff8
7ff8
6000
6000
6000
6000
6000
6000
7ff0
7ff0
6000
6000
6000
6000
6000
6000
6000
7ff8
7ff8
3800
6000
c000
c000
f800
7000
ENDCHAR
STARTCHAR Ediaeresis
ENCODING 203
SWIDTH 667 0
DWIDTH 16 0
BBX 12 23 2 0
BITMAP
1980
1980
0000
0000
fff0
fff0
c000
c000
c000
c000
c000
c000
ffe0
ffe0
c000
c000
c000
c000
c000
c000
c000
fff0
fff0
ENDCHAR
STARTCHAR Ecaron
ENCODING 204
SWIDTH 667 0
DWIDTH 16 0
BBX 12 24 2 0
BITMAP
30c0
1980
0f00
0600
0000
fff0
fff0
c000
c000
c000
c000
c000
c000
ffe0
ffe0
c000
c000
c000
c000
c000
c000
c000
fff0
fff0
ENDCHAR
STARTCHAR Iacute
ENCODING 205
SWIDTH 278 0
DWIDTH 8 0
BBX 5 24 2 0
BITMAP
18
30
60
c0
00
60
60
60
60
60
60
60
60
60
60
60
60
60
60
60
60
60
60
60
ENDCHAR
STARTCHAR Icircumflex
ENCODING 206
SWIDTH 278 0
DWIDTH 8 0
BBX 8 24 0 0
BITMAP
18
3c
66
c3
00
18
18
18
18
18
18
18
18
18
18
18
18
18
18
18
18
18
18
18
ENDCHAR
STARTCHAR Dcaron
ENCODING 207
SWIDTH 722 0
DWIDTH 18 0
BBX 15 24 2 0
BITMAP
1860
0cc0
0780
0300
0000
ffc0
fff0
c078
c01c
c00c
c00e
c006
c006
c006
c006
c006
c006
c006
c00e
c00c
c01c
c078
fff0
ffc0
ENDCHAR
STARTCHAR Dstroke
ENCODING 208
SWIDTH 722 0
DWIDTH 18 0
BBX 17 19 0 0
BITMAP
3ff000
3ffc00
301e00
300700
300300
300380
300180
300180
ff0180
ff0180
300180
300180
300180
300380
300300
300700
301e00
3ffc00
3ff000
ENDCHAR
STARTCHAR Nacute
ENCODING 209
SWIDTH 722 0
DWIDTH 18 0
BBX 14 24 2 0
BITMAP
0060
00c0
0180
0300
0000
e00c
f00c
f00c
d80c
dc0c
cc0c
ce0c
c60c
c70c
c30c
c38c
c18c
c1cc
c0cc
c0ec
c06c
c03c
c03c
c01c
ENDCHAR
STARTCHAR Ncaron
ENCODING 210
SWIDTH 722 0
DWIDTH 18 0
BBX 14 24 2 0
BITMAP
1860
0cc0
0780
0300
0000
e00c
f00c
f00c
d80c
dc0c
cc0c
ce0c
c60c
c70c
c30c
c38c
c18c
c1cc
c0cc
c0ec
c06c
c03c
c03c
c01c
ENDCHAR
STARTCHAR Oacute
ENCODING 211
SWIDTH 778 0
DWIDTH 18 0
BBX 16 24 1 0
BITMAP
0030
0060
00c0
0180
0000
07e0
1ff8
3c3c
700e
6006
e007
c003
c003
c003
c003
c003
c003
c003
e007
6006
700e
3c3c
1ff8
07e0
ENDCHAR
STARTCHAR Ocircumflex
ENCODING 212
SWIDTH 778 0
DWIDTH 18 0
BBX 16 24 1 0
BITMAP
0180
03c0
0660
0c30
0000
07e0
1ff8
3c3c
700e
6006
e007
c003
c003
c003
c003
c003
c003
c003
e007
6006
700e
3c3c
1ff8
07e0
ENDCHAR
STARTCHAR Odoubleacute
ENCODING 213
SWIDTH 778 0
DWIDTH 18 0
BBX 16 23 1 0
BITMAP
01b0
0360
06c0
0000
07e0
1ff8
3c3c
700e
6006
e007
c003
c003
c003
c003
c003
c003
c003
e007
6006
700e
3c3c
1ff8
07e0
ENDCHAR
STARTCHAR Odiaeresis
ENCODING 214
SWIDTH 778 0
DWIDTH 18 0
BBX 16 23 1 0
BITMAP
0660
0660
0000
0000
07e0
1ff8
3c3c
700e
6006
e007
c003
c003
c003
c003
c003
c003
c003
e007
6006
700e
3c3c
1ff8
07e0
ENDCHAR
STARTCHAR multiply
ENCODING 215
SWIDTH 584 0
DWIDTH 14 0
BBX 13 12 0 1
BITMAP
c018
6030
3060
18c0
0d80
0700
0700
0d80
18c0
3060
6030
c018
ENDCHAR
STARTCHAR Rcaron
ENCODING 216
SWIDTH 722 0
DWIDTH 17 0
BBX 13 24 2 0
BITMAP
30c0
1980
0f00
0600
0000
ffe0
fff0
c030
c018
c018
c018
c018
c030
fff0
ffe0
c070
c030
c018
c018
c018
c018
c018
c018
c018
ENDCHAR
STARTCHAR Uring
ENCODING 217
SWIDTH 722 0
DWIDTH 18 0
BBX 14 25 2 0
BITMAP
0300
0780
0480
0780
0300
0000
c00c
c00c
c00c
c00c
c00c
c00c
c00c
c00c
c00c
c00c
c00c
c00c
c00c
c00c
c00c
6018
7038
3ff0
0fc0
ENDCHAR
STARTCHAR Uacute
ENCODING 218
SWIDTH 722 0
DWIDTH 18 0
BBX 14 24 2 0
BITMAP
0060
00c0
0180
0300
0000
c00c
c00c
c00c
c00c
c00c
c00c
c00c
c00c
c00c
c00c
c00c
c00c
c00c
c00c
c00c
6018
7038
3ff0
0fc0
ENDCHAR
STARTCHAR Udoubleacute
ENCODING 219
SWIDTH 722 0
DWIDTH 18 0
BBX 14 23 2 0
BITMAP
0360
06c0
0d80
0000
c00c
c00c
c00c
c00c
c00c
c00c
c00c
c00c
c00c
c00c
c00c
c00c
c00c
c00c
c00c
6018
7038
3ff0
0fc0
ENDCHAR
STARTCHAR Udiaeresis
ENCODING 220
SWIDTH 722 0
DWIDTH 18 0
BBX 14 23 2 0
BITMAP
0cc0
0cc0
0000
0000
c00c
c00c
c00c
c00c
c00c
c00c
c00c
c00c
c00c
c00c
c00c
c00c
c00c
c00c
c00c
6018
7038
3ff0
0fc0
ENDCHAR
STARTCHAR Yacute
ENCODING 221
SWIDTH 667 0
DWIDTH 16 0
BBX 14 24 1 0
BITMAP
0060
00c0
0180
0300
0000
c00c
e01c
6018
7038
3030
3870
1860
1ce0
0cc0
0fc0
0780
0780
0300
0300
0300
0300
0300
0300
0300
ENDCHAR
STARTCHAR Tcedilla
ENCODING 222
SWIDTH 611 0
DWIDTH 16 0
BBX 14 25 1 -6
BITMAP
fffc
fffc
0300
0300
0300
0300
0300
0300
0300
0300
0300
0300
0300
0300
0300
0300
0300
0300
0300
0600
0700
0180
0180
0f80
0700
ENDCHAR
STARTCHAR ssharp
ENCODING 223
SWIDTH 611 0
DWIDTH 15 0
BBX 10 19 3 0
BITMAP
1c00
7f00
e300
c180
c180
c180
c300
c700
ce00
cf00
c380
c180
c0c0
c0c0
c0c0
c180
c380
cf00
ce00
ENDCHAR
STARTCHAR racute
ENCODING 224
SWIDTH 333 0
DWIDTH 9 0
BBX 7 19 2 0
BITMAP
06
0c
18
30
00
cc
dc
fc
e0
c0
c0
c0
c0
c0
c0
c0
c0
c0
c0
ENDCHAR
STARTCHAR aacute
ENCODING 225
SWIDTH 556 0
DWIDTH 13 0
BBX 11 19 1 0
BITMAP
0180
0300
0600
0c00
0000
1f00
3f80
61c0
60c0
00c0
07c0
3fc0
78c0
e0c0
c0c0
c1c0
e3c0
7ee0
3c60
ENDCHAR
STARTCHAR acircumflex
ENCODING 226
SWIDTH 556 0
DWIDTH 13 0
BBX 11 19 1 0
BITMAP
0600
0f00
1980
30c0
0000
1f00
3f80
61c0
60c0
00c0
07c0
3fc0
78c0
e0c0
c0c0
c1c0
e3c0
7ee0
3c60
ENDCHAR
STARTCHAR abreve
ENCODING 227
SWIDTH 556 0
DWIDTH 13 0
BBX 11 19 1 0
BITMAP
2040
30c0
1f80
0f00
0000
1f00
3f80
61c0
60c0
00c0
07c0
3fc0
78c0
e0c0
c0c0
c1c0
e3c0
7ee0
3c60
ENDCHAR
STARTCHAR adiaeresis
ENCODING 228
SWIDTH 556 0
DWIDTH 13 0
BBX 11 18 1 0
BITMAP
1980
1980
0000
0000
1f00
3f80
61c0
60c0
00c0
07c0
3fc0
78c0
e0c0
c0c0
c1c0
e3c0
7ee0
3c60
ENDCHAR
STARTCHAR lacute
ENCODING 229
SWIDTH 222 0
DWIDTH 6 0
BBX 5 24 2 0
BITMAP
18
30
60
c0
00
c0
c0
c0
c0
c0
c0
c0
c0
c0
c0
c0
c0
c0
c0
c0
c0
c0
c0
c0
ENDCHAR
STARTCHAR cacute
ENCODING 230
SWIDTH 500 0
DWIDTH 12 0
BBX 10 19 1 0
BITMAP
00c0
0180
0300
0600
0000
1f00
3f80
71c0
60c0
c000
c000
c000
c000
c000
c000
60c0
71c0
3f80
1f00
ENDCHAR
STARTCHAR ccedilla
ENCODING 231
SWIDTH 500 0
DWIDTH 12 0
BBX 10 19 1 -5
BITMAP
1f00
3f80
71c0
60c0
c000
c000
c000
c000
c000
c000
60c0
71c0
3f80
1f00
1c00
0600
0600
3e00
1c00
ENDCHAR
STARTCHAR ccaron
ENCODING 232
SWIDTH 500 0
DWIDTH 12 0
BBX 10 19 1 0
BITMAP
30c0
1980
0f00
0600
0000
1f00
3f80
71c0
60c0
c000
c000
c000
c000
c000
c000
60c0
71c0
3f80
1f00
ENDCHAR
STARTCHAR eacute
ENCODING 233
SWIDTH 556 0
DWIDTH 13 0
BBX 11 19 1 0
BITMAP
0180
0300
0600
0c00
0000
0e00
3f80
71c0
60c0
c060
c060
ffe0
ffe0
c000
c000
6060
70e0
3fc0
0f00
ENDCHAR
STARTCHAR eogonek
ENCODING 234
SWIDTH 556 0
DWIDTH 13 0
BBX 11 20 1 -6
BITMAP
0e00
3f80
71c0
60c0
c060
c060
ffe0
ffe0
c000
c000
6060
70e0
3fc0
0f00
0700
0c00
1800
1800
1f00
0e00
ENDCHAR
STARTCHAR ediaeresis
ENCODING 235
SWIDTH 556 0
DWIDTH 13 0
BBX 11 18 1 0
BITMAP
1980
1980
0000
0000
0e00
3f80
71c0
60c0
c060
c060
ffe0
ffe0
c000
c000
6060
70e0
3fc0
0f00
ENDCHAR
STARTCHAR ecaron
ENCODING 236
SWIDTH 556 0
DWIDTH 13 0
BBX 11 19 1 0
BITMAP
30c0
1980
0f00
0600
0000
0e00
3f80
71c0
60c0
c060
c060
ffe0
ffe0
c000
c000
6060
70e0
3fc0
0f00
ENDCHAR
STARTCHAR iacute
ENCODING 237
SWIDTH 278 0
DWIDTH 6 0
BBX 5 19 1 0
BITMAP
18
30
60
c0
00
60
60
60
60
60
60
60
60
60
60
60
60
60
60
ENDCHAR
STARTCHAR icircumflex
ENCODING 238
SWIDTH 278 0
DWIDTH 6 0
BBX 8 19 -1 0
BITMAP
18
3c
66
c3
00
18
18
18
18
18
18
18
18
18
18
18
18
18
18
ENDCHAR
STARTCHAR dcaron
ENCODING 239
SWIDTH 680 0
DWIDTH 17 0
BBX 14 21 1 0
BITMAP
000c
000c
006c
0064
0064
0068
0060
1e60
3f60
71e0
60e0
c060
c060
c060
c060
c060
c060
60e0
71e0
3f60
1e60
ENDCHAR
STARTCHAR dstroke
ENCODING 240
SWIDTH 680 0
DWIDTH 17 0
BBX 14 19 1 0
BITMAP
0060
0060
03fc
03fc
0060
1e60
3f60
71e0
60e0
c060
c060
c060
c060
c060
c060
60e0
71e0
3f60
1e60
ENDCHAR
STARTCHAR nacute
ENCODING 241
SWIDTH 556 0
DWIDTH 14 0
BBX 10 19 2 0
BITMAP
0180
0300
0600
0c00
0000
ce00
df80
f180
e0c0
c0c0
c0c0
c0c0
c0c0
c0c0
c0c0
c0c0
c0c0
c0c0
c0c0
ENDCHAR
STARTCHAR ncaron
ENCODING 242
SWIDTH 556 0
DWIDTH 14 0
BBX 10 19 2 0
BITMAP
6180
3300
1e00
0c00
0000
ce00
df80
f180
e0c0
c0c0
c0c0
c0c0
c0c0
c0c0
c0c0
c0c0
c0c0
c0c0
c0c0
ENDCHAR
STARTCHAR oacute
ENCODING 243
SWIDTH 556 0
DWIDTH 13 0
BBX 11 19 1 0
BITMAP
0180
0300
0600
0c00
0000
1f00
3f80
71c0
60c0
c060
c060
c060
c060
c060
c060
60c0
71c0
3f80
1f00
ENDCHAR
STARTCHAR ocircumflex
ENCODING 244
SWIDTH 556 0
DWIDTH 13 0
BBX 11 19 1 0
BITMAP
0600
0f00
1980
30c0
0000
1f00
3f80
71c0
60c0
c060
c060
c060
c060
c060
c060
60c0
71c0
3f80
1f00
ENDCHAR
STARTCHAR odoubleacute
ENCODING 245
SWIDTH 556 0
DWIDTH 13 0
BBX 11 18 1 0
BITMAP
06c0
0d80
1b00
0000
1f00
3f80
71c0
60c0
c060
c060
c060
c060
c060
c060
60c0
71c0
3f80
1f00
ENDCHAR
STARTCHAR odiaeresis
ENCODING 246
SWIDTH 556 0
DWIDTH 13 0
BBX 11 18 1 0
BITMAP
3180
3180
0000
0000
1f00
3f80
71c0
60c0
c060
c060
c060
c060
c060
c060
60c0
71c0
3f80
1f00
ENDCHAR
STARTCHAR division
ENCODING 247
SWIDTH 584 0
DWIDTH 14 0
BBX 12 12 1 1
BITMAP
0600
0600
0600
0000
0000
fff0
fff0
0000
0000
0600
0600
0600
ENDCHAR
STARTCHAR rcaron
ENCODING 248
SWIDTH 333 0
DWIDTH 9 0
BBX 8 19 1 0
BITMAP
c3
66
3c
18
00
66
6e
7e
70
60
60
60
60
60
60
60
60
60
60
ENDCHAR
STARTCHAR uring
ENCODING 249
SWIDTH 556 0
DWIDTH 14 0
BBX 10 20 2 0
BITMAP
0c00
1e00
1200
1e00
0c00
0000
c0c0
c0c0
c0c0
c0c0
c0c0
c0c0
c0c0
c0c0
c0c0
c0c0
c1c0
63c0
7ec0
1cc0
ENDCHAR
STARTCHAR uacute
ENCODING 250
SWIDTH 556 0
DWIDTH 14 0
BBX 10 19 2 0
BITMAP
0180
0300
0600
0c00
0000
c0c0
c0c0
c0c0
c0c0
c0c0
c0c0
c0c0
c0c0
c0c0
c0c0
c1c0
63c0
7ec0
1cc0
ENDCHAR
STARTCHAR udoubleacute
ENCODING 251
SWIDTH 556 0
DWIDTH 14 0
BBX 10 18 2 0
BITMAP
0d80
1b00
3600
0000
c0c0
c0c0
c0c0
c0c0
c0c0
c0c0
c0c0
c0c0
c0c0
c0c0
c1c0
63c0
7ec0
1cc0
ENDCHAR
STARTCHAR udiaeresis
ENCODING 252
SWIDTH 556 0
DWIDTH 14 0
BBX 10 18 2 0
BITMAP
3300
3300
0000
0000
c0c0
c0c0
c0c0
c0c0
c0c0
c0c0
c0c0
c0c0
c0c0
c0c0
c1c0
63c0
7ec0
1cc0
ENDCHAR
STARTCHAR yacute
ENCODING 253
SWIDTH 500 0
DWIDTH 13 0
BBX 12 24 0 -5
BITMAP
00c0
0180
0300
0600
0000
c030
c030
6030
7060
3060
38e0
18c0
18c0
0d80
0d80
0780
0700
0300
0300
0600
0600
0c00
3c00
3800
ENDCHAR
STARTCHAR tcedilla
ENCODING 254
SWIDTH 278 0
DWIDTH 8 0
BBX 6 24 1 -6
BITMAP
30
30
30
30
fc
fc
30
30
30
30
30
30
30
30
30
30
3c
1c
60
70
18
18
f8
70
ENDCHAR
STARTCHAR abovedot
ENCODING 255
SWIDTH 333 0
DWIDTH 8 0
BBX 2 2 3 16
BITMAP
c0
c0
ENDCHAR
ENDFONT
